M48
; DRILL file {KiCad 9.0.2-9.0.2-0~ubuntu24.04.1} date 2025-05-15T08:46:23-0400
; FORMAT={-:-/ absolute / metric / decimal}
; #@! TF.CreationDate,2025-05-15T08:46:23-04:00
; #@! TF.GenerationSoftware,Kicad,Pcbnew,9.0.2-9.0.2-0~ubuntu24.04.1
; #@! TF.FileFunction,Plated,1,2,PTH
FMAT,2
METRIC
; #@! TA.AperFunction,Plated,PTH,ViaDrill
T1C0.254
; #@! TA.AperFunction,Plated,PTH,ComponentDrill
T2C0.813
; #@! TA.AperFunction,Plated,PTH,ComponentDrill
T3C0.900
; #@! TA.AperFunction,Plated,PTH,ComponentDrill
T4C1.000
; #@! TA.AperFunction,Plated,PTH,ComponentDrill
T5C1.067
; #@! TA.AperFunction,Plated,PTH,ComponentDrill
T6C1.905
; #@! TA.AperFunction,Plated,PTH,ComponentDrill
T7C2.000
%
G90
G05
T1
X152.908Y-97.79
X152.908Y-109.347
X153.543Y-70.866
X153.543Y-93.98
X153.543Y-104.521
X153.67Y-68.935
X154.178Y-95.25
X154.94Y-115.57
X158.369Y-92.71
X158.369Y-100.965
X159.004Y-102.616
X159.385Y-91.44
X159.639Y-96.52
X159.639Y-99.568
X160.02Y-104.394
X161.29Y-74.422
X161.29Y-89.408
X161.29Y-98.679
X161.6Y-85.1
X162.765Y-91.234
X162.814Y-77.47
X163.83Y-96.52
X163.83Y-103.378
X163.957Y-74.295
X164.389Y-82.081
X164.389Y-92.341
X164.592Y-93.98
X164.719Y-100.965
X164.719Y-107.95
X164.821Y-87.795
X170.942Y-74.295
X175.768Y-104.394
X175.768Y-114.427
X175.895Y-94.107
X175.895Y-99.187
X175.895Y-109.474
X176.022Y-78.74
X176.022Y-83.693
X176.022Y-88.773
T2
X172.72Y-119.634
X175.26Y-119.634
T3
X156.17Y-65.35
X158.71Y-65.35
X171.43Y-65.06
X173.97Y-65.06
T4
X155.32Y-108.66
X155.32Y-111.2
X157.86Y-108.66
X157.86Y-111.2
X160.4Y-108.66
X160.4Y-111.2
T5
X155.499Y-121.011
X155.499Y-125.507
X162.001Y-121.011
X162.001Y-125.507
T6
X172.72Y-122.682
X172.72Y-125.73
X175.26Y-122.682
X175.26Y-125.73
T7
X165.1Y-59.055
X167.005Y-122.555
M30
