M48
; DRILL file {KiCad 7.0.8-7.0.8~ubuntu22.04.1} date Thu 16 Nov 2023 08:05:39 AM EST
; FORMAT={-:-/ absolute / inch / decimal}
; #@! TF.CreationDate,2023-11-16T08:05:39-05:00
; #@! TF.GenerationSoftware,Kicad,Pcbnew,7.0.8-7.0.8~ubuntu22.04.1
; #@! TF.FileFunction,Plated,1,2,PTH
FMAT,2
INCH
; #@! TA.AperFunction,Plated,PTH,ViaDrill
T1C0.0100
; #@! TA.AperFunction,Plated,PTH,ComponentDrill
T2C0.0320
; #@! TA.AperFunction,Plated,PTH,ComponentDrill
T3C0.0354
; #@! TA.AperFunction,Plated,PTH,ComponentDrill
T4C0.0394
; #@! TA.AperFunction,Plated,PTH,ComponentDrill
T5C0.0420
; #@! TA.AperFunction,Plated,PTH,ComponentDrill
T6C0.0750
; #@! TA.AperFunction,Plated,PTH,ComponentDrill
T7C0.0787
%
G90
G05
T1
X6.02Y-3.85
X6.02Y-4.305
X6.045Y-2.79
X6.045Y-3.7
X6.045Y-4.115
X6.05Y-2.714
X6.07Y-3.75
X6.1Y-4.55
X6.235Y-3.65
X6.235Y-3.975
X6.26Y-4.04
X6.275Y-3.6
X6.285Y-3.8
X6.285Y-3.92
X6.3Y-4.11
X6.35Y-2.93
X6.35Y-3.52
X6.35Y-3.885
X6.3622Y-3.3504
X6.4081Y-3.5919
X6.41Y-3.05
X6.45Y-3.8
X6.45Y-4.07
X6.455Y-2.925
X6.472Y-3.2315
X6.472Y-3.6355
X6.48Y-3.7
X6.485Y-3.975
X6.485Y-4.25
X6.489Y-3.4565
X6.73Y-2.925
X6.92Y-4.11
X6.92Y-4.505
X6.925Y-3.705
X6.925Y-3.905
X6.925Y-4.31
X6.93Y-3.1
X6.93Y-3.295
X6.93Y-3.495
T2
X6.8Y-4.71
X6.9Y-4.71
T3
X6.1484Y-2.5728
X6.2484Y-2.5728
X6.7492Y-2.5614
X6.8492Y-2.5614
T4
X6.115Y-4.278
X6.115Y-4.378
X6.215Y-4.278
X6.215Y-4.378
X6.315Y-4.278
X6.315Y-4.378
T5
X6.122Y-4.7642
X6.122Y-4.9412
X6.378Y-4.7642
X6.378Y-4.9412
T6
X6.8Y-4.83
X6.8Y-4.95
X6.9Y-4.83
X6.9Y-4.95
T7
X6.5Y-2.325
X6.575Y-4.825
T0
M30
