%TF.GenerationSoftware,KiCad,Pcbnew,7.0.8-7.0.8~ubuntu22.04.1*%
%TF.CreationDate,2023-11-16T08:05:37-05:00*%
%TF.ProjectId,avr-smt-44,6176722d-736d-4742-9d34-342e6b696361,1.0*%
%TF.SameCoordinates,Original*%
%TF.FileFunction,Paste,Top*%
%TF.FilePolarity,Positive*%
%FSLAX46Y46*%
G04 Gerber Fmt 4.6, Leading zero omitted, Abs format (unit mm)*
G04 Created by KiCad (PCBNEW 7.0.8-7.0.8~ubuntu22.04.1) date 2023-11-16 08:05:37*
%MOMM*%
%LPD*%
G01*
G04 APERTURE LIST*
G04 Aperture macros list*
%AMRoundRect*
0 Rectangle with rounded corners*
0 $1 Rounding radius*
0 $2 $3 $4 $5 $6 $7 $8 $9 X,Y pos of 4 corners*
0 Add a 4 corners polygon primitive as box body*
4,1,4,$2,$3,$4,$5,$6,$7,$8,$9,$2,$3,0*
0 Add four circle primitives for the rounded corners*
1,1,$1+$1,$2,$3*
1,1,$1+$1,$4,$5*
1,1,$1+$1,$6,$7*
1,1,$1+$1,$8,$9*
0 Add four rect primitives between the rounded corners*
20,1,$1+$1,$2,$3,$4,$5,0*
20,1,$1+$1,$4,$5,$6,$7,0*
20,1,$1+$1,$6,$7,$8,$9,0*
20,1,$1+$1,$8,$9,$2,$3,0*%
G04 Aperture macros list end*
%ADD10RoundRect,0.250000X-0.412500X-0.650000X0.412500X-0.650000X0.412500X0.650000X-0.412500X0.650000X0*%
%ADD11RoundRect,0.250000X0.625000X-0.400000X0.625000X0.400000X-0.625000X0.400000X-0.625000X-0.400000X0*%
%ADD12RoundRect,0.250000X-0.400000X-0.625000X0.400000X-0.625000X0.400000X0.625000X-0.400000X0.625000X0*%
%ADD13RoundRect,0.250001X0.462499X0.624999X-0.462499X0.624999X-0.462499X-0.624999X0.462499X-0.624999X0*%
%ADD14RoundRect,0.150000X-0.825000X-0.150000X0.825000X-0.150000X0.825000X0.150000X-0.825000X0.150000X0*%
%ADD15RoundRect,0.250001X-0.624999X0.462499X-0.624999X-0.462499X0.624999X-0.462499X0.624999X0.462499X0*%
%ADD16RoundRect,0.250000X-0.625000X0.400000X-0.625000X-0.400000X0.625000X-0.400000X0.625000X0.400000X0*%
G04 APERTURE END LIST*
D10*
%TO.C,C1*%
X157137500Y-85100000D03*
X160262500Y-85100000D03*
%TD*%
D11*
%TO.C,R1*%
X156210000Y-72035000D03*
X156210000Y-68935000D03*
%TD*%
D12*
%TO.C,R7*%
X166090000Y-87630000D03*
X169190000Y-87630000D03*
%TD*%
%TO.C,R10*%
X166090000Y-102870000D03*
X169190000Y-102870000D03*
%TD*%
%TO.C,R6*%
X166090000Y-82550000D03*
X169190000Y-82550000D03*
%TD*%
D13*
%TO.C,D2*%
X176112500Y-82550000D03*
X173137500Y-82550000D03*
%TD*%
%TO.C,D1*%
X176112500Y-77470000D03*
X173137500Y-77470000D03*
%TD*%
%TO.C,D5*%
X176112500Y-97790000D03*
X173137500Y-97790000D03*
%TD*%
D14*
%TO.C,U1*%
X156340000Y-90170000D03*
X156340000Y-91440000D03*
X156340000Y-92710000D03*
X156340000Y-93980000D03*
X156340000Y-95250000D03*
X156340000Y-96520000D03*
X156340000Y-97790000D03*
X161290000Y-97790000D03*
X161290000Y-96520000D03*
X161290000Y-95250000D03*
X161290000Y-93980000D03*
X161290000Y-92710000D03*
X161290000Y-91440000D03*
X161290000Y-90170000D03*
%TD*%
D15*
%TO.C,D11*%
X161290000Y-75982500D03*
X161290000Y-78957500D03*
%TD*%
D11*
%TO.C,R2*%
X173355000Y-72035000D03*
X173355000Y-68935000D03*
%TD*%
D13*
%TO.C,D6*%
X176112500Y-102870000D03*
X173137500Y-102870000D03*
%TD*%
D12*
%TO.C,R5*%
X166090000Y-77470000D03*
X169190000Y-77470000D03*
%TD*%
%TO.C,R12*%
X166090000Y-113030000D03*
X169190000Y-113030000D03*
%TD*%
D13*
%TO.C,D8*%
X176112500Y-113030000D03*
X173137500Y-113030000D03*
%TD*%
%TO.C,D4*%
X176112500Y-92710000D03*
X173137500Y-92710000D03*
%TD*%
D12*
%TO.C,R9*%
X166090000Y-97790000D03*
X169190000Y-97790000D03*
%TD*%
D16*
%TO.C,R3*%
X156210000Y-75920000D03*
X156210000Y-79020000D03*
%TD*%
D13*
%TO.C,D7*%
X176112500Y-107950000D03*
X173137500Y-107950000D03*
%TD*%
D16*
%TO.C,R4*%
X165100000Y-68935000D03*
X165100000Y-72035000D03*
%TD*%
D12*
%TO.C,R8*%
X166090000Y-92710000D03*
X169190000Y-92710000D03*
%TD*%
D13*
%TO.C,D3*%
X176112500Y-87630000D03*
X173137500Y-87630000D03*
%TD*%
D12*
%TO.C,R11*%
X166090000Y-107950000D03*
X169190000Y-107950000D03*
%TD*%
M02*
