%TF.GenerationSoftware,KiCad,Pcbnew,9.0.2-9.0.2-0~ubuntu24.04.1*%
%TF.CreationDate,2025-05-15T08:46:20-04:00*%
%TF.ProjectId,avr-smt-44,6176722d-736d-4742-9d34-342e6b696361,1.0*%
%TF.SameCoordinates,Original*%
%TF.FileFunction,Legend,Top*%
%TF.FilePolarity,Positive*%
%FSLAX46Y46*%
G04 Gerber Fmt 4.6, Leading zero omitted, Abs format (unit mm)*
G04 Created by KiCad (PCBNEW 9.0.2-9.0.2-0~ubuntu24.04.1) date 2025-05-15 08:46:20*
%MOMM*%
%LPD*%
G01*
G04 APERTURE LIST*
%ADD10C,0.100000*%
%ADD11C,0.150000*%
%ADD12C,0.300000*%
%ADD13C,0.400000*%
%ADD14C,0.203200*%
%ADD15C,0.120000*%
%ADD16C,1.397000*%
%ADD17C,1.524000*%
%ADD18C,2.286000*%
G04 APERTURE END LIST*
D10*
D11*
X83200000Y-133800000D02*
X191200000Y-133800000D01*
X191200000Y-165800000D01*
X83200000Y-165800000D01*
X83200000Y-133800000D01*
D10*
D11*
X10000000Y-10000000D02*
X193200000Y-10000000D01*
X193200000Y-167800000D01*
X10000000Y-167800000D01*
X10000000Y-10000000D01*
D10*
D11*
X12000000Y-12000000D02*
X191200000Y-12000000D01*
X191200000Y-165800000D01*
X12000000Y-165800000D01*
X12000000Y-12000000D01*
D10*
D11*
X60000000Y-12000000D02*
X60000000Y-10000000D01*
D10*
D11*
X110000000Y-12000000D02*
X110000000Y-10000000D01*
D10*
D11*
X160000000Y-12000000D02*
X160000000Y-10000000D01*
D10*
D11*
X36089160Y-11593604D02*
X35346303Y-11593604D01*
X35717731Y-11593604D02*
X35717731Y-10293604D01*
X35717731Y-10293604D02*
X35593922Y-10479319D01*
X35593922Y-10479319D02*
X35470112Y-10603128D01*
X35470112Y-10603128D02*
X35346303Y-10665033D01*
D10*
D11*
X85346303Y-10417414D02*
X85408207Y-10355509D01*
X85408207Y-10355509D02*
X85532017Y-10293604D01*
X85532017Y-10293604D02*
X85841541Y-10293604D01*
X85841541Y-10293604D02*
X85965350Y-10355509D01*
X85965350Y-10355509D02*
X86027255Y-10417414D01*
X86027255Y-10417414D02*
X86089160Y-10541223D01*
X86089160Y-10541223D02*
X86089160Y-10665033D01*
X86089160Y-10665033D02*
X86027255Y-10850747D01*
X86027255Y-10850747D02*
X85284398Y-11593604D01*
X85284398Y-11593604D02*
X86089160Y-11593604D01*
D10*
D11*
X135284398Y-10293604D02*
X136089160Y-10293604D01*
X136089160Y-10293604D02*
X135655826Y-10788842D01*
X135655826Y-10788842D02*
X135841541Y-10788842D01*
X135841541Y-10788842D02*
X135965350Y-10850747D01*
X135965350Y-10850747D02*
X136027255Y-10912652D01*
X136027255Y-10912652D02*
X136089160Y-11036461D01*
X136089160Y-11036461D02*
X136089160Y-11345985D01*
X136089160Y-11345985D02*
X136027255Y-11469795D01*
X136027255Y-11469795D02*
X135965350Y-11531700D01*
X135965350Y-11531700D02*
X135841541Y-11593604D01*
X135841541Y-11593604D02*
X135470112Y-11593604D01*
X135470112Y-11593604D02*
X135346303Y-11531700D01*
X135346303Y-11531700D02*
X135284398Y-11469795D01*
D10*
D11*
X185965350Y-10726938D02*
X185965350Y-11593604D01*
X185655826Y-10231700D02*
X185346303Y-11160271D01*
X185346303Y-11160271D02*
X186151064Y-11160271D01*
D10*
D11*
X60000000Y-165800000D02*
X60000000Y-167800000D01*
D10*
D11*
X110000000Y-165800000D02*
X110000000Y-167800000D01*
D10*
D11*
X160000000Y-165800000D02*
X160000000Y-167800000D01*
D10*
D11*
X36089160Y-167393604D02*
X35346303Y-167393604D01*
X35717731Y-167393604D02*
X35717731Y-166093604D01*
X35717731Y-166093604D02*
X35593922Y-166279319D01*
X35593922Y-166279319D02*
X35470112Y-166403128D01*
X35470112Y-166403128D02*
X35346303Y-166465033D01*
D10*
D11*
X85346303Y-166217414D02*
X85408207Y-166155509D01*
X85408207Y-166155509D02*
X85532017Y-166093604D01*
X85532017Y-166093604D02*
X85841541Y-166093604D01*
X85841541Y-166093604D02*
X85965350Y-166155509D01*
X85965350Y-166155509D02*
X86027255Y-166217414D01*
X86027255Y-166217414D02*
X86089160Y-166341223D01*
X86089160Y-166341223D02*
X86089160Y-166465033D01*
X86089160Y-166465033D02*
X86027255Y-166650747D01*
X86027255Y-166650747D02*
X85284398Y-167393604D01*
X85284398Y-167393604D02*
X86089160Y-167393604D01*
D10*
D11*
X135284398Y-166093604D02*
X136089160Y-166093604D01*
X136089160Y-166093604D02*
X135655826Y-166588842D01*
X135655826Y-166588842D02*
X135841541Y-166588842D01*
X135841541Y-166588842D02*
X135965350Y-166650747D01*
X135965350Y-166650747D02*
X136027255Y-166712652D01*
X136027255Y-166712652D02*
X136089160Y-166836461D01*
X136089160Y-166836461D02*
X136089160Y-167145985D01*
X136089160Y-167145985D02*
X136027255Y-167269795D01*
X136027255Y-167269795D02*
X135965350Y-167331700D01*
X135965350Y-167331700D02*
X135841541Y-167393604D01*
X135841541Y-167393604D02*
X135470112Y-167393604D01*
X135470112Y-167393604D02*
X135346303Y-167331700D01*
X135346303Y-167331700D02*
X135284398Y-167269795D01*
D10*
D11*
X185965350Y-166526938D02*
X185965350Y-167393604D01*
X185655826Y-166031700D02*
X185346303Y-166960271D01*
X185346303Y-166960271D02*
X186151064Y-166960271D01*
D10*
D11*
X10000000Y-60000000D02*
X12000000Y-60000000D01*
D10*
D11*
X10000000Y-110000000D02*
X12000000Y-110000000D01*
D10*
D11*
X10000000Y-160000000D02*
X12000000Y-160000000D01*
D10*
D11*
X10690476Y-35222176D02*
X11309523Y-35222176D01*
X10566666Y-35593604D02*
X10999999Y-34293604D01*
X10999999Y-34293604D02*
X11433333Y-35593604D01*
D10*
D11*
X11092857Y-84912652D02*
X11278571Y-84974557D01*
X11278571Y-84974557D02*
X11340476Y-85036461D01*
X11340476Y-85036461D02*
X11402380Y-85160271D01*
X11402380Y-85160271D02*
X11402380Y-85345985D01*
X11402380Y-85345985D02*
X11340476Y-85469795D01*
X11340476Y-85469795D02*
X11278571Y-85531700D01*
X11278571Y-85531700D02*
X11154761Y-85593604D01*
X11154761Y-85593604D02*
X10659523Y-85593604D01*
X10659523Y-85593604D02*
X10659523Y-84293604D01*
X10659523Y-84293604D02*
X11092857Y-84293604D01*
X11092857Y-84293604D02*
X11216666Y-84355509D01*
X11216666Y-84355509D02*
X11278571Y-84417414D01*
X11278571Y-84417414D02*
X11340476Y-84541223D01*
X11340476Y-84541223D02*
X11340476Y-84665033D01*
X11340476Y-84665033D02*
X11278571Y-84788842D01*
X11278571Y-84788842D02*
X11216666Y-84850747D01*
X11216666Y-84850747D02*
X11092857Y-84912652D01*
X11092857Y-84912652D02*
X10659523Y-84912652D01*
D10*
D11*
X11402380Y-135469795D02*
X11340476Y-135531700D01*
X11340476Y-135531700D02*
X11154761Y-135593604D01*
X11154761Y-135593604D02*
X11030952Y-135593604D01*
X11030952Y-135593604D02*
X10845238Y-135531700D01*
X10845238Y-135531700D02*
X10721428Y-135407890D01*
X10721428Y-135407890D02*
X10659523Y-135284080D01*
X10659523Y-135284080D02*
X10597619Y-135036461D01*
X10597619Y-135036461D02*
X10597619Y-134850747D01*
X10597619Y-134850747D02*
X10659523Y-134603128D01*
X10659523Y-134603128D02*
X10721428Y-134479319D01*
X10721428Y-134479319D02*
X10845238Y-134355509D01*
X10845238Y-134355509D02*
X11030952Y-134293604D01*
X11030952Y-134293604D02*
X11154761Y-134293604D01*
X11154761Y-134293604D02*
X11340476Y-134355509D01*
X11340476Y-134355509D02*
X11402380Y-134417414D01*
D10*
D11*
X193200000Y-60000000D02*
X191200000Y-60000000D01*
D10*
D11*
X193200000Y-110000000D02*
X191200000Y-110000000D01*
D10*
D11*
X193200000Y-160000000D02*
X191200000Y-160000000D01*
D10*
D11*
X191890476Y-35222176D02*
X192509523Y-35222176D01*
X191766666Y-35593604D02*
X192199999Y-34293604D01*
X192199999Y-34293604D02*
X192633333Y-35593604D01*
D10*
D11*
X192292857Y-84912652D02*
X192478571Y-84974557D01*
X192478571Y-84974557D02*
X192540476Y-85036461D01*
X192540476Y-85036461D02*
X192602380Y-85160271D01*
X192602380Y-85160271D02*
X192602380Y-85345985D01*
X192602380Y-85345985D02*
X192540476Y-85469795D01*
X192540476Y-85469795D02*
X192478571Y-85531700D01*
X192478571Y-85531700D02*
X192354761Y-85593604D01*
X192354761Y-85593604D02*
X191859523Y-85593604D01*
X191859523Y-85593604D02*
X191859523Y-84293604D01*
X191859523Y-84293604D02*
X192292857Y-84293604D01*
X192292857Y-84293604D02*
X192416666Y-84355509D01*
X192416666Y-84355509D02*
X192478571Y-84417414D01*
X192478571Y-84417414D02*
X192540476Y-84541223D01*
X192540476Y-84541223D02*
X192540476Y-84665033D01*
X192540476Y-84665033D02*
X192478571Y-84788842D01*
X192478571Y-84788842D02*
X192416666Y-84850747D01*
X192416666Y-84850747D02*
X192292857Y-84912652D01*
X192292857Y-84912652D02*
X191859523Y-84912652D01*
D10*
D11*
X192602380Y-135469795D02*
X192540476Y-135531700D01*
X192540476Y-135531700D02*
X192354761Y-135593604D01*
X192354761Y-135593604D02*
X192230952Y-135593604D01*
X192230952Y-135593604D02*
X192045238Y-135531700D01*
X192045238Y-135531700D02*
X191921428Y-135407890D01*
X191921428Y-135407890D02*
X191859523Y-135284080D01*
X191859523Y-135284080D02*
X191797619Y-135036461D01*
X191797619Y-135036461D02*
X191797619Y-134850747D01*
X191797619Y-134850747D02*
X191859523Y-134603128D01*
X191859523Y-134603128D02*
X191921428Y-134479319D01*
X191921428Y-134479319D02*
X192045238Y-134355509D01*
X192045238Y-134355509D02*
X192230952Y-134293604D01*
X192230952Y-134293604D02*
X192354761Y-134293604D01*
X192354761Y-134293604D02*
X192540476Y-134355509D01*
X192540476Y-134355509D02*
X192602380Y-134417414D01*
D10*
D11*
X106655826Y-161586128D02*
X106655826Y-160086128D01*
X106655826Y-160086128D02*
X107012969Y-160086128D01*
X107012969Y-160086128D02*
X107227255Y-160157557D01*
X107227255Y-160157557D02*
X107370112Y-160300414D01*
X107370112Y-160300414D02*
X107441541Y-160443271D01*
X107441541Y-160443271D02*
X107512969Y-160728985D01*
X107512969Y-160728985D02*
X107512969Y-160943271D01*
X107512969Y-160943271D02*
X107441541Y-161228985D01*
X107441541Y-161228985D02*
X107370112Y-161371842D01*
X107370112Y-161371842D02*
X107227255Y-161514700D01*
X107227255Y-161514700D02*
X107012969Y-161586128D01*
X107012969Y-161586128D02*
X106655826Y-161586128D01*
X108798684Y-161586128D02*
X108798684Y-160800414D01*
X108798684Y-160800414D02*
X108727255Y-160657557D01*
X108727255Y-160657557D02*
X108584398Y-160586128D01*
X108584398Y-160586128D02*
X108298684Y-160586128D01*
X108298684Y-160586128D02*
X108155826Y-160657557D01*
X108798684Y-161514700D02*
X108655826Y-161586128D01*
X108655826Y-161586128D02*
X108298684Y-161586128D01*
X108298684Y-161586128D02*
X108155826Y-161514700D01*
X108155826Y-161514700D02*
X108084398Y-161371842D01*
X108084398Y-161371842D02*
X108084398Y-161228985D01*
X108084398Y-161228985D02*
X108155826Y-161086128D01*
X108155826Y-161086128D02*
X108298684Y-161014700D01*
X108298684Y-161014700D02*
X108655826Y-161014700D01*
X108655826Y-161014700D02*
X108798684Y-160943271D01*
X109298684Y-160586128D02*
X109870112Y-160586128D01*
X109512969Y-160086128D02*
X109512969Y-161371842D01*
X109512969Y-161371842D02*
X109584398Y-161514700D01*
X109584398Y-161514700D02*
X109727255Y-161586128D01*
X109727255Y-161586128D02*
X109870112Y-161586128D01*
X110941541Y-161514700D02*
X110798684Y-161586128D01*
X110798684Y-161586128D02*
X110512970Y-161586128D01*
X110512970Y-161586128D02*
X110370112Y-161514700D01*
X110370112Y-161514700D02*
X110298684Y-161371842D01*
X110298684Y-161371842D02*
X110298684Y-160800414D01*
X110298684Y-160800414D02*
X110370112Y-160657557D01*
X110370112Y-160657557D02*
X110512970Y-160586128D01*
X110512970Y-160586128D02*
X110798684Y-160586128D01*
X110798684Y-160586128D02*
X110941541Y-160657557D01*
X110941541Y-160657557D02*
X111012970Y-160800414D01*
X111012970Y-160800414D02*
X111012970Y-160943271D01*
X111012970Y-160943271D02*
X110298684Y-161086128D01*
X111655826Y-161443271D02*
X111727255Y-161514700D01*
X111727255Y-161514700D02*
X111655826Y-161586128D01*
X111655826Y-161586128D02*
X111584398Y-161514700D01*
X111584398Y-161514700D02*
X111655826Y-161443271D01*
X111655826Y-161443271D02*
X111655826Y-161586128D01*
X111655826Y-160657557D02*
X111727255Y-160728985D01*
X111727255Y-160728985D02*
X111655826Y-160800414D01*
X111655826Y-160800414D02*
X111584398Y-160728985D01*
X111584398Y-160728985D02*
X111655826Y-160657557D01*
X111655826Y-160657557D02*
X111655826Y-160800414D01*
X113441541Y-160228985D02*
X113512969Y-160157557D01*
X113512969Y-160157557D02*
X113655827Y-160086128D01*
X113655827Y-160086128D02*
X114012969Y-160086128D01*
X114012969Y-160086128D02*
X114155827Y-160157557D01*
X114155827Y-160157557D02*
X114227255Y-160228985D01*
X114227255Y-160228985D02*
X114298684Y-160371842D01*
X114298684Y-160371842D02*
X114298684Y-160514700D01*
X114298684Y-160514700D02*
X114227255Y-160728985D01*
X114227255Y-160728985D02*
X113370112Y-161586128D01*
X113370112Y-161586128D02*
X114298684Y-161586128D01*
X115227255Y-160086128D02*
X115370112Y-160086128D01*
X115370112Y-160086128D02*
X115512969Y-160157557D01*
X115512969Y-160157557D02*
X115584398Y-160228985D01*
X115584398Y-160228985D02*
X115655826Y-160371842D01*
X115655826Y-160371842D02*
X115727255Y-160657557D01*
X115727255Y-160657557D02*
X115727255Y-161014700D01*
X115727255Y-161014700D02*
X115655826Y-161300414D01*
X115655826Y-161300414D02*
X115584398Y-161443271D01*
X115584398Y-161443271D02*
X115512969Y-161514700D01*
X115512969Y-161514700D02*
X115370112Y-161586128D01*
X115370112Y-161586128D02*
X115227255Y-161586128D01*
X115227255Y-161586128D02*
X115084398Y-161514700D01*
X115084398Y-161514700D02*
X115012969Y-161443271D01*
X115012969Y-161443271D02*
X114941540Y-161300414D01*
X114941540Y-161300414D02*
X114870112Y-161014700D01*
X114870112Y-161014700D02*
X114870112Y-160657557D01*
X114870112Y-160657557D02*
X114941540Y-160371842D01*
X114941540Y-160371842D02*
X115012969Y-160228985D01*
X115012969Y-160228985D02*
X115084398Y-160157557D01*
X115084398Y-160157557D02*
X115227255Y-160086128D01*
X116298683Y-160228985D02*
X116370111Y-160157557D01*
X116370111Y-160157557D02*
X116512969Y-160086128D01*
X116512969Y-160086128D02*
X116870111Y-160086128D01*
X116870111Y-160086128D02*
X117012969Y-160157557D01*
X117012969Y-160157557D02*
X117084397Y-160228985D01*
X117084397Y-160228985D02*
X117155826Y-160371842D01*
X117155826Y-160371842D02*
X117155826Y-160514700D01*
X117155826Y-160514700D02*
X117084397Y-160728985D01*
X117084397Y-160728985D02*
X116227254Y-161586128D01*
X116227254Y-161586128D02*
X117155826Y-161586128D01*
X117655825Y-160086128D02*
X118584397Y-160086128D01*
X118584397Y-160086128D02*
X118084397Y-160657557D01*
X118084397Y-160657557D02*
X118298682Y-160657557D01*
X118298682Y-160657557D02*
X118441540Y-160728985D01*
X118441540Y-160728985D02*
X118512968Y-160800414D01*
X118512968Y-160800414D02*
X118584397Y-160943271D01*
X118584397Y-160943271D02*
X118584397Y-161300414D01*
X118584397Y-161300414D02*
X118512968Y-161443271D01*
X118512968Y-161443271D02*
X118441540Y-161514700D01*
X118441540Y-161514700D02*
X118298682Y-161586128D01*
X118298682Y-161586128D02*
X117870111Y-161586128D01*
X117870111Y-161586128D02*
X117727254Y-161514700D01*
X117727254Y-161514700D02*
X117655825Y-161443271D01*
X119227253Y-161014700D02*
X120370111Y-161014700D01*
X121870111Y-161586128D02*
X121012968Y-161586128D01*
X121441539Y-161586128D02*
X121441539Y-160086128D01*
X121441539Y-160086128D02*
X121298682Y-160300414D01*
X121298682Y-160300414D02*
X121155825Y-160443271D01*
X121155825Y-160443271D02*
X121012968Y-160514700D01*
X122798682Y-160086128D02*
X122941539Y-160086128D01*
X122941539Y-160086128D02*
X123084396Y-160157557D01*
X123084396Y-160157557D02*
X123155825Y-160228985D01*
X123155825Y-160228985D02*
X123227253Y-160371842D01*
X123227253Y-160371842D02*
X123298682Y-160657557D01*
X123298682Y-160657557D02*
X123298682Y-161014700D01*
X123298682Y-161014700D02*
X123227253Y-161300414D01*
X123227253Y-161300414D02*
X123155825Y-161443271D01*
X123155825Y-161443271D02*
X123084396Y-161514700D01*
X123084396Y-161514700D02*
X122941539Y-161586128D01*
X122941539Y-161586128D02*
X122798682Y-161586128D01*
X122798682Y-161586128D02*
X122655825Y-161514700D01*
X122655825Y-161514700D02*
X122584396Y-161443271D01*
X122584396Y-161443271D02*
X122512967Y-161300414D01*
X122512967Y-161300414D02*
X122441539Y-161014700D01*
X122441539Y-161014700D02*
X122441539Y-160657557D01*
X122441539Y-160657557D02*
X122512967Y-160371842D01*
X122512967Y-160371842D02*
X122584396Y-160228985D01*
X122584396Y-160228985D02*
X122655825Y-160157557D01*
X122655825Y-160157557D02*
X122798682Y-160086128D01*
X123941538Y-161014700D02*
X125084396Y-161014700D01*
X126584396Y-161586128D02*
X125727253Y-161586128D01*
X126155824Y-161586128D02*
X126155824Y-160086128D01*
X126155824Y-160086128D02*
X126012967Y-160300414D01*
X126012967Y-160300414D02*
X125870110Y-160443271D01*
X125870110Y-160443271D02*
X125727253Y-160514700D01*
X127512967Y-160086128D02*
X127655824Y-160086128D01*
X127655824Y-160086128D02*
X127798681Y-160157557D01*
X127798681Y-160157557D02*
X127870110Y-160228985D01*
X127870110Y-160228985D02*
X127941538Y-160371842D01*
X127941538Y-160371842D02*
X128012967Y-160657557D01*
X128012967Y-160657557D02*
X128012967Y-161014700D01*
X128012967Y-161014700D02*
X127941538Y-161300414D01*
X127941538Y-161300414D02*
X127870110Y-161443271D01*
X127870110Y-161443271D02*
X127798681Y-161514700D01*
X127798681Y-161514700D02*
X127655824Y-161586128D01*
X127655824Y-161586128D02*
X127512967Y-161586128D01*
X127512967Y-161586128D02*
X127370110Y-161514700D01*
X127370110Y-161514700D02*
X127298681Y-161443271D01*
X127298681Y-161443271D02*
X127227252Y-161300414D01*
X127227252Y-161300414D02*
X127155824Y-161014700D01*
X127155824Y-161014700D02*
X127155824Y-160657557D01*
X127155824Y-160657557D02*
X127227252Y-160371842D01*
X127227252Y-160371842D02*
X127298681Y-160228985D01*
X127298681Y-160228985D02*
X127370110Y-160157557D01*
X127370110Y-160157557D02*
X127512967Y-160086128D01*
D10*
D11*
X83200000Y-162300000D02*
X191200000Y-162300000D01*
D10*
D11*
X84655826Y-164386128D02*
X84655826Y-162886128D01*
X85512969Y-164386128D02*
X84870112Y-163528985D01*
X85512969Y-162886128D02*
X84655826Y-163743271D01*
X86155826Y-164386128D02*
X86155826Y-163386128D01*
X86155826Y-162886128D02*
X86084398Y-162957557D01*
X86084398Y-162957557D02*
X86155826Y-163028985D01*
X86155826Y-163028985D02*
X86227255Y-162957557D01*
X86227255Y-162957557D02*
X86155826Y-162886128D01*
X86155826Y-162886128D02*
X86155826Y-163028985D01*
X87727255Y-164243271D02*
X87655827Y-164314700D01*
X87655827Y-164314700D02*
X87441541Y-164386128D01*
X87441541Y-164386128D02*
X87298684Y-164386128D01*
X87298684Y-164386128D02*
X87084398Y-164314700D01*
X87084398Y-164314700D02*
X86941541Y-164171842D01*
X86941541Y-164171842D02*
X86870112Y-164028985D01*
X86870112Y-164028985D02*
X86798684Y-163743271D01*
X86798684Y-163743271D02*
X86798684Y-163528985D01*
X86798684Y-163528985D02*
X86870112Y-163243271D01*
X86870112Y-163243271D02*
X86941541Y-163100414D01*
X86941541Y-163100414D02*
X87084398Y-162957557D01*
X87084398Y-162957557D02*
X87298684Y-162886128D01*
X87298684Y-162886128D02*
X87441541Y-162886128D01*
X87441541Y-162886128D02*
X87655827Y-162957557D01*
X87655827Y-162957557D02*
X87727255Y-163028985D01*
X89012970Y-164386128D02*
X89012970Y-163600414D01*
X89012970Y-163600414D02*
X88941541Y-163457557D01*
X88941541Y-163457557D02*
X88798684Y-163386128D01*
X88798684Y-163386128D02*
X88512970Y-163386128D01*
X88512970Y-163386128D02*
X88370112Y-163457557D01*
X89012970Y-164314700D02*
X88870112Y-164386128D01*
X88870112Y-164386128D02*
X88512970Y-164386128D01*
X88512970Y-164386128D02*
X88370112Y-164314700D01*
X88370112Y-164314700D02*
X88298684Y-164171842D01*
X88298684Y-164171842D02*
X88298684Y-164028985D01*
X88298684Y-164028985D02*
X88370112Y-163886128D01*
X88370112Y-163886128D02*
X88512970Y-163814700D01*
X88512970Y-163814700D02*
X88870112Y-163814700D01*
X88870112Y-163814700D02*
X89012970Y-163743271D01*
X90370113Y-164386128D02*
X90370113Y-162886128D01*
X90370113Y-164314700D02*
X90227255Y-164386128D01*
X90227255Y-164386128D02*
X89941541Y-164386128D01*
X89941541Y-164386128D02*
X89798684Y-164314700D01*
X89798684Y-164314700D02*
X89727255Y-164243271D01*
X89727255Y-164243271D02*
X89655827Y-164100414D01*
X89655827Y-164100414D02*
X89655827Y-163671842D01*
X89655827Y-163671842D02*
X89727255Y-163528985D01*
X89727255Y-163528985D02*
X89798684Y-163457557D01*
X89798684Y-163457557D02*
X89941541Y-163386128D01*
X89941541Y-163386128D02*
X90227255Y-163386128D01*
X90227255Y-163386128D02*
X90370113Y-163457557D01*
X92227255Y-163600414D02*
X92727255Y-163600414D01*
X92941541Y-164386128D02*
X92227255Y-164386128D01*
X92227255Y-164386128D02*
X92227255Y-162886128D01*
X92227255Y-162886128D02*
X92941541Y-162886128D01*
X93584398Y-164243271D02*
X93655827Y-164314700D01*
X93655827Y-164314700D02*
X93584398Y-164386128D01*
X93584398Y-164386128D02*
X93512970Y-164314700D01*
X93512970Y-164314700D02*
X93584398Y-164243271D01*
X93584398Y-164243271D02*
X93584398Y-164386128D01*
X94298684Y-164386128D02*
X94298684Y-162886128D01*
X94298684Y-162886128D02*
X94655827Y-162886128D01*
X94655827Y-162886128D02*
X94870113Y-162957557D01*
X94870113Y-162957557D02*
X95012970Y-163100414D01*
X95012970Y-163100414D02*
X95084399Y-163243271D01*
X95084399Y-163243271D02*
X95155827Y-163528985D01*
X95155827Y-163528985D02*
X95155827Y-163743271D01*
X95155827Y-163743271D02*
X95084399Y-164028985D01*
X95084399Y-164028985D02*
X95012970Y-164171842D01*
X95012970Y-164171842D02*
X94870113Y-164314700D01*
X94870113Y-164314700D02*
X94655827Y-164386128D01*
X94655827Y-164386128D02*
X94298684Y-164386128D01*
X95798684Y-164243271D02*
X95870113Y-164314700D01*
X95870113Y-164314700D02*
X95798684Y-164386128D01*
X95798684Y-164386128D02*
X95727256Y-164314700D01*
X95727256Y-164314700D02*
X95798684Y-164243271D01*
X95798684Y-164243271D02*
X95798684Y-164386128D01*
X96441542Y-163957557D02*
X97155828Y-163957557D01*
X96298685Y-164386128D02*
X96798685Y-162886128D01*
X96798685Y-162886128D02*
X97298685Y-164386128D01*
X97798684Y-164243271D02*
X97870113Y-164314700D01*
X97870113Y-164314700D02*
X97798684Y-164386128D01*
X97798684Y-164386128D02*
X97727256Y-164314700D01*
X97727256Y-164314700D02*
X97798684Y-164243271D01*
X97798684Y-164243271D02*
X97798684Y-164386128D01*
X99727256Y-164386128D02*
X100012970Y-164386128D01*
X100012970Y-164386128D02*
X100155827Y-164314700D01*
X100155827Y-164314700D02*
X100227256Y-164243271D01*
X100227256Y-164243271D02*
X100370113Y-164028985D01*
X100370113Y-164028985D02*
X100441542Y-163743271D01*
X100441542Y-163743271D02*
X100441542Y-163171842D01*
X100441542Y-163171842D02*
X100370113Y-163028985D01*
X100370113Y-163028985D02*
X100298685Y-162957557D01*
X100298685Y-162957557D02*
X100155827Y-162886128D01*
X100155827Y-162886128D02*
X99870113Y-162886128D01*
X99870113Y-162886128D02*
X99727256Y-162957557D01*
X99727256Y-162957557D02*
X99655827Y-163028985D01*
X99655827Y-163028985D02*
X99584399Y-163171842D01*
X99584399Y-163171842D02*
X99584399Y-163528985D01*
X99584399Y-163528985D02*
X99655827Y-163671842D01*
X99655827Y-163671842D02*
X99727256Y-163743271D01*
X99727256Y-163743271D02*
X99870113Y-163814700D01*
X99870113Y-163814700D02*
X100155827Y-163814700D01*
X100155827Y-163814700D02*
X100298685Y-163743271D01*
X100298685Y-163743271D02*
X100370113Y-163671842D01*
X100370113Y-163671842D02*
X100441542Y-163528985D01*
X101084398Y-164243271D02*
X101155827Y-164314700D01*
X101155827Y-164314700D02*
X101084398Y-164386128D01*
X101084398Y-164386128D02*
X101012970Y-164314700D01*
X101012970Y-164314700D02*
X101084398Y-164243271D01*
X101084398Y-164243271D02*
X101084398Y-164386128D01*
X102084399Y-162886128D02*
X102227256Y-162886128D01*
X102227256Y-162886128D02*
X102370113Y-162957557D01*
X102370113Y-162957557D02*
X102441542Y-163028985D01*
X102441542Y-163028985D02*
X102512970Y-163171842D01*
X102512970Y-163171842D02*
X102584399Y-163457557D01*
X102584399Y-163457557D02*
X102584399Y-163814700D01*
X102584399Y-163814700D02*
X102512970Y-164100414D01*
X102512970Y-164100414D02*
X102441542Y-164243271D01*
X102441542Y-164243271D02*
X102370113Y-164314700D01*
X102370113Y-164314700D02*
X102227256Y-164386128D01*
X102227256Y-164386128D02*
X102084399Y-164386128D01*
X102084399Y-164386128D02*
X101941542Y-164314700D01*
X101941542Y-164314700D02*
X101870113Y-164243271D01*
X101870113Y-164243271D02*
X101798684Y-164100414D01*
X101798684Y-164100414D02*
X101727256Y-163814700D01*
X101727256Y-163814700D02*
X101727256Y-163457557D01*
X101727256Y-163457557D02*
X101798684Y-163171842D01*
X101798684Y-163171842D02*
X101870113Y-163028985D01*
X101870113Y-163028985D02*
X101941542Y-162957557D01*
X101941542Y-162957557D02*
X102084399Y-162886128D01*
X103227255Y-164243271D02*
X103298684Y-164314700D01*
X103298684Y-164314700D02*
X103227255Y-164386128D01*
X103227255Y-164386128D02*
X103155827Y-164314700D01*
X103155827Y-164314700D02*
X103227255Y-164243271D01*
X103227255Y-164243271D02*
X103227255Y-164386128D01*
X103870113Y-163028985D02*
X103941541Y-162957557D01*
X103941541Y-162957557D02*
X104084399Y-162886128D01*
X104084399Y-162886128D02*
X104441541Y-162886128D01*
X104441541Y-162886128D02*
X104584399Y-162957557D01*
X104584399Y-162957557D02*
X104655827Y-163028985D01*
X104655827Y-163028985D02*
X104727256Y-163171842D01*
X104727256Y-163171842D02*
X104727256Y-163314700D01*
X104727256Y-163314700D02*
X104655827Y-163528985D01*
X104655827Y-163528985D02*
X103798684Y-164386128D01*
X103798684Y-164386128D02*
X104727256Y-164386128D01*
D10*
D11*
X83200000Y-159300000D02*
X191200000Y-159300000D01*
D10*
D12*
X170611653Y-161578328D02*
X170111653Y-160864042D01*
X169754510Y-161578328D02*
X169754510Y-160078328D01*
X169754510Y-160078328D02*
X170325939Y-160078328D01*
X170325939Y-160078328D02*
X170468796Y-160149757D01*
X170468796Y-160149757D02*
X170540225Y-160221185D01*
X170540225Y-160221185D02*
X170611653Y-160364042D01*
X170611653Y-160364042D02*
X170611653Y-160578328D01*
X170611653Y-160578328D02*
X170540225Y-160721185D01*
X170540225Y-160721185D02*
X170468796Y-160792614D01*
X170468796Y-160792614D02*
X170325939Y-160864042D01*
X170325939Y-160864042D02*
X169754510Y-160864042D01*
X171825939Y-161506900D02*
X171683082Y-161578328D01*
X171683082Y-161578328D02*
X171397368Y-161578328D01*
X171397368Y-161578328D02*
X171254510Y-161506900D01*
X171254510Y-161506900D02*
X171183082Y-161364042D01*
X171183082Y-161364042D02*
X171183082Y-160792614D01*
X171183082Y-160792614D02*
X171254510Y-160649757D01*
X171254510Y-160649757D02*
X171397368Y-160578328D01*
X171397368Y-160578328D02*
X171683082Y-160578328D01*
X171683082Y-160578328D02*
X171825939Y-160649757D01*
X171825939Y-160649757D02*
X171897368Y-160792614D01*
X171897368Y-160792614D02*
X171897368Y-160935471D01*
X171897368Y-160935471D02*
X171183082Y-161078328D01*
X172397367Y-160578328D02*
X172754510Y-161578328D01*
X172754510Y-161578328D02*
X173111653Y-160578328D01*
X173683081Y-161435471D02*
X173754510Y-161506900D01*
X173754510Y-161506900D02*
X173683081Y-161578328D01*
X173683081Y-161578328D02*
X173611653Y-161506900D01*
X173611653Y-161506900D02*
X173683081Y-161435471D01*
X173683081Y-161435471D02*
X173683081Y-161578328D01*
X173683081Y-160649757D02*
X173754510Y-160721185D01*
X173754510Y-160721185D02*
X173683081Y-160792614D01*
X173683081Y-160792614D02*
X173611653Y-160721185D01*
X173611653Y-160721185D02*
X173683081Y-160649757D01*
X173683081Y-160649757D02*
X173683081Y-160792614D01*
X176325939Y-161578328D02*
X175468796Y-161578328D01*
X175897367Y-161578328D02*
X175897367Y-160078328D01*
X175897367Y-160078328D02*
X175754510Y-160292614D01*
X175754510Y-160292614D02*
X175611653Y-160435471D01*
X175611653Y-160435471D02*
X175468796Y-160506900D01*
X176968795Y-161435471D02*
X177040224Y-161506900D01*
X177040224Y-161506900D02*
X176968795Y-161578328D01*
X176968795Y-161578328D02*
X176897367Y-161506900D01*
X176897367Y-161506900D02*
X176968795Y-161435471D01*
X176968795Y-161435471D02*
X176968795Y-161578328D01*
X177968796Y-160078328D02*
X178111653Y-160078328D01*
X178111653Y-160078328D02*
X178254510Y-160149757D01*
X178254510Y-160149757D02*
X178325939Y-160221185D01*
X178325939Y-160221185D02*
X178397367Y-160364042D01*
X178397367Y-160364042D02*
X178468796Y-160649757D01*
X178468796Y-160649757D02*
X178468796Y-161006900D01*
X178468796Y-161006900D02*
X178397367Y-161292614D01*
X178397367Y-161292614D02*
X178325939Y-161435471D01*
X178325939Y-161435471D02*
X178254510Y-161506900D01*
X178254510Y-161506900D02*
X178111653Y-161578328D01*
X178111653Y-161578328D02*
X177968796Y-161578328D01*
X177968796Y-161578328D02*
X177825939Y-161506900D01*
X177825939Y-161506900D02*
X177754510Y-161435471D01*
X177754510Y-161435471D02*
X177683081Y-161292614D01*
X177683081Y-161292614D02*
X177611653Y-161006900D01*
X177611653Y-161006900D02*
X177611653Y-160649757D01*
X177611653Y-160649757D02*
X177683081Y-160364042D01*
X177683081Y-160364042D02*
X177754510Y-160221185D01*
X177754510Y-160221185D02*
X177825939Y-160149757D01*
X177825939Y-160149757D02*
X177968796Y-160078328D01*
D10*
D11*
X84584398Y-161514700D02*
X84798684Y-161586128D01*
X84798684Y-161586128D02*
X85155826Y-161586128D01*
X85155826Y-161586128D02*
X85298684Y-161514700D01*
X85298684Y-161514700D02*
X85370112Y-161443271D01*
X85370112Y-161443271D02*
X85441541Y-161300414D01*
X85441541Y-161300414D02*
X85441541Y-161157557D01*
X85441541Y-161157557D02*
X85370112Y-161014700D01*
X85370112Y-161014700D02*
X85298684Y-160943271D01*
X85298684Y-160943271D02*
X85155826Y-160871842D01*
X85155826Y-160871842D02*
X84870112Y-160800414D01*
X84870112Y-160800414D02*
X84727255Y-160728985D01*
X84727255Y-160728985D02*
X84655826Y-160657557D01*
X84655826Y-160657557D02*
X84584398Y-160514700D01*
X84584398Y-160514700D02*
X84584398Y-160371842D01*
X84584398Y-160371842D02*
X84655826Y-160228985D01*
X84655826Y-160228985D02*
X84727255Y-160157557D01*
X84727255Y-160157557D02*
X84870112Y-160086128D01*
X84870112Y-160086128D02*
X85227255Y-160086128D01*
X85227255Y-160086128D02*
X85441541Y-160157557D01*
X86084397Y-161586128D02*
X86084397Y-160586128D01*
X86084397Y-160086128D02*
X86012969Y-160157557D01*
X86012969Y-160157557D02*
X86084397Y-160228985D01*
X86084397Y-160228985D02*
X86155826Y-160157557D01*
X86155826Y-160157557D02*
X86084397Y-160086128D01*
X86084397Y-160086128D02*
X86084397Y-160228985D01*
X86655826Y-160586128D02*
X87441541Y-160586128D01*
X87441541Y-160586128D02*
X86655826Y-161586128D01*
X86655826Y-161586128D02*
X87441541Y-161586128D01*
X88584398Y-161514700D02*
X88441541Y-161586128D01*
X88441541Y-161586128D02*
X88155827Y-161586128D01*
X88155827Y-161586128D02*
X88012969Y-161514700D01*
X88012969Y-161514700D02*
X87941541Y-161371842D01*
X87941541Y-161371842D02*
X87941541Y-160800414D01*
X87941541Y-160800414D02*
X88012969Y-160657557D01*
X88012969Y-160657557D02*
X88155827Y-160586128D01*
X88155827Y-160586128D02*
X88441541Y-160586128D01*
X88441541Y-160586128D02*
X88584398Y-160657557D01*
X88584398Y-160657557D02*
X88655827Y-160800414D01*
X88655827Y-160800414D02*
X88655827Y-160943271D01*
X88655827Y-160943271D02*
X87941541Y-161086128D01*
X89298683Y-161443271D02*
X89370112Y-161514700D01*
X89370112Y-161514700D02*
X89298683Y-161586128D01*
X89298683Y-161586128D02*
X89227255Y-161514700D01*
X89227255Y-161514700D02*
X89298683Y-161443271D01*
X89298683Y-161443271D02*
X89298683Y-161586128D01*
X89298683Y-160657557D02*
X89370112Y-160728985D01*
X89370112Y-160728985D02*
X89298683Y-160800414D01*
X89298683Y-160800414D02*
X89227255Y-160728985D01*
X89227255Y-160728985D02*
X89298683Y-160657557D01*
X89298683Y-160657557D02*
X89298683Y-160800414D01*
X91155826Y-160086128D02*
X91155826Y-161300414D01*
X91155826Y-161300414D02*
X91227255Y-161443271D01*
X91227255Y-161443271D02*
X91298684Y-161514700D01*
X91298684Y-161514700D02*
X91441541Y-161586128D01*
X91441541Y-161586128D02*
X91727255Y-161586128D01*
X91727255Y-161586128D02*
X91870112Y-161514700D01*
X91870112Y-161514700D02*
X91941541Y-161443271D01*
X91941541Y-161443271D02*
X92012969Y-161300414D01*
X92012969Y-161300414D02*
X92012969Y-160086128D01*
X92655827Y-161514700D02*
X92798684Y-161586128D01*
X92798684Y-161586128D02*
X93084398Y-161586128D01*
X93084398Y-161586128D02*
X93227255Y-161514700D01*
X93227255Y-161514700D02*
X93298684Y-161371842D01*
X93298684Y-161371842D02*
X93298684Y-161300414D01*
X93298684Y-161300414D02*
X93227255Y-161157557D01*
X93227255Y-161157557D02*
X93084398Y-161086128D01*
X93084398Y-161086128D02*
X92870113Y-161086128D01*
X92870113Y-161086128D02*
X92727255Y-161014700D01*
X92727255Y-161014700D02*
X92655827Y-160871842D01*
X92655827Y-160871842D02*
X92655827Y-160800414D01*
X92655827Y-160800414D02*
X92727255Y-160657557D01*
X92727255Y-160657557D02*
X92870113Y-160586128D01*
X92870113Y-160586128D02*
X93084398Y-160586128D01*
X93084398Y-160586128D02*
X93227255Y-160657557D01*
X94512970Y-161514700D02*
X94370113Y-161586128D01*
X94370113Y-161586128D02*
X94084399Y-161586128D01*
X94084399Y-161586128D02*
X93941541Y-161514700D01*
X93941541Y-161514700D02*
X93870113Y-161371842D01*
X93870113Y-161371842D02*
X93870113Y-160800414D01*
X93870113Y-160800414D02*
X93941541Y-160657557D01*
X93941541Y-160657557D02*
X94084399Y-160586128D01*
X94084399Y-160586128D02*
X94370113Y-160586128D01*
X94370113Y-160586128D02*
X94512970Y-160657557D01*
X94512970Y-160657557D02*
X94584399Y-160800414D01*
X94584399Y-160800414D02*
X94584399Y-160943271D01*
X94584399Y-160943271D02*
X93870113Y-161086128D01*
X95227255Y-161586128D02*
X95227255Y-160586128D01*
X95227255Y-160871842D02*
X95298684Y-160728985D01*
X95298684Y-160728985D02*
X95370113Y-160657557D01*
X95370113Y-160657557D02*
X95512970Y-160586128D01*
X95512970Y-160586128D02*
X95655827Y-160586128D01*
D10*
D11*
X169655826Y-164386128D02*
X169655826Y-162886128D01*
X171012970Y-164386128D02*
X171012970Y-162886128D01*
X171012970Y-164314700D02*
X170870112Y-164386128D01*
X170870112Y-164386128D02*
X170584398Y-164386128D01*
X170584398Y-164386128D02*
X170441541Y-164314700D01*
X170441541Y-164314700D02*
X170370112Y-164243271D01*
X170370112Y-164243271D02*
X170298684Y-164100414D01*
X170298684Y-164100414D02*
X170298684Y-163671842D01*
X170298684Y-163671842D02*
X170370112Y-163528985D01*
X170370112Y-163528985D02*
X170441541Y-163457557D01*
X170441541Y-163457557D02*
X170584398Y-163386128D01*
X170584398Y-163386128D02*
X170870112Y-163386128D01*
X170870112Y-163386128D02*
X171012970Y-163457557D01*
X171727255Y-164243271D02*
X171798684Y-164314700D01*
X171798684Y-164314700D02*
X171727255Y-164386128D01*
X171727255Y-164386128D02*
X171655827Y-164314700D01*
X171655827Y-164314700D02*
X171727255Y-164243271D01*
X171727255Y-164243271D02*
X171727255Y-164386128D01*
X171727255Y-163457557D02*
X171798684Y-163528985D01*
X171798684Y-163528985D02*
X171727255Y-163600414D01*
X171727255Y-163600414D02*
X171655827Y-163528985D01*
X171655827Y-163528985D02*
X171727255Y-163457557D01*
X171727255Y-163457557D02*
X171727255Y-163600414D01*
X173441541Y-162886128D02*
X174370113Y-162886128D01*
X174370113Y-162886128D02*
X173870113Y-163457557D01*
X173870113Y-163457557D02*
X174084398Y-163457557D01*
X174084398Y-163457557D02*
X174227256Y-163528985D01*
X174227256Y-163528985D02*
X174298684Y-163600414D01*
X174298684Y-163600414D02*
X174370113Y-163743271D01*
X174370113Y-163743271D02*
X174370113Y-164100414D01*
X174370113Y-164100414D02*
X174298684Y-164243271D01*
X174298684Y-164243271D02*
X174227256Y-164314700D01*
X174227256Y-164314700D02*
X174084398Y-164386128D01*
X174084398Y-164386128D02*
X173655827Y-164386128D01*
X173655827Y-164386128D02*
X173512970Y-164314700D01*
X173512970Y-164314700D02*
X173441541Y-164243271D01*
X176084398Y-162814700D02*
X174798684Y-164743271D01*
X176441541Y-162886128D02*
X177441541Y-162886128D01*
X177441541Y-162886128D02*
X176798684Y-164386128D01*
D10*
D11*
X83200000Y-155300000D02*
X191200000Y-155300000D01*
D10*
D13*
X84891728Y-156004438D02*
X86034585Y-156004438D01*
X85213157Y-158004438D02*
X85463157Y-156004438D01*
X86451252Y-158004438D02*
X86617919Y-156671104D01*
X86701252Y-156004438D02*
X86594109Y-156099676D01*
X86594109Y-156099676D02*
X86677443Y-156194914D01*
X86677443Y-156194914D02*
X86784586Y-156099676D01*
X86784586Y-156099676D02*
X86701252Y-156004438D01*
X86701252Y-156004438D02*
X86677443Y-156194914D01*
X87284586Y-156671104D02*
X88046490Y-156671104D01*
X87653633Y-156004438D02*
X87439348Y-157718723D01*
X87439348Y-157718723D02*
X87510776Y-157909200D01*
X87510776Y-157909200D02*
X87689348Y-158004438D01*
X87689348Y-158004438D02*
X87879824Y-158004438D01*
X88832205Y-158004438D02*
X88653633Y-157909200D01*
X88653633Y-157909200D02*
X88582205Y-157718723D01*
X88582205Y-157718723D02*
X88796490Y-156004438D01*
X90367919Y-157909200D02*
X90165538Y-158004438D01*
X90165538Y-158004438D02*
X89784585Y-158004438D01*
X89784585Y-158004438D02*
X89606014Y-157909200D01*
X89606014Y-157909200D02*
X89534585Y-157718723D01*
X89534585Y-157718723D02*
X89629824Y-156956819D01*
X89629824Y-156956819D02*
X89748871Y-156766342D01*
X89748871Y-156766342D02*
X89951252Y-156671104D01*
X89951252Y-156671104D02*
X90332204Y-156671104D01*
X90332204Y-156671104D02*
X90510776Y-156766342D01*
X90510776Y-156766342D02*
X90582204Y-156956819D01*
X90582204Y-156956819D02*
X90558395Y-157147295D01*
X90558395Y-157147295D02*
X89582204Y-157337771D01*
X91332205Y-157813961D02*
X91415538Y-157909200D01*
X91415538Y-157909200D02*
X91308395Y-158004438D01*
X91308395Y-158004438D02*
X91225062Y-157909200D01*
X91225062Y-157909200D02*
X91332205Y-157813961D01*
X91332205Y-157813961D02*
X91308395Y-158004438D01*
X91463157Y-156766342D02*
X91546490Y-156861580D01*
X91546490Y-156861580D02*
X91439348Y-156956819D01*
X91439348Y-156956819D02*
X91356014Y-156861580D01*
X91356014Y-156861580D02*
X91463157Y-156766342D01*
X91463157Y-156766342D02*
X91439348Y-156956819D01*
X94582205Y-156956819D02*
X94856015Y-157052057D01*
X94856015Y-157052057D02*
X94939348Y-157147295D01*
X94939348Y-157147295D02*
X95010777Y-157337771D01*
X95010777Y-157337771D02*
X94975062Y-157623485D01*
X94975062Y-157623485D02*
X94856015Y-157813961D01*
X94856015Y-157813961D02*
X94748872Y-157909200D01*
X94748872Y-157909200D02*
X94546491Y-158004438D01*
X94546491Y-158004438D02*
X93784586Y-158004438D01*
X93784586Y-158004438D02*
X94034586Y-156004438D01*
X94034586Y-156004438D02*
X94701253Y-156004438D01*
X94701253Y-156004438D02*
X94879824Y-156099676D01*
X94879824Y-156099676D02*
X94963158Y-156194914D01*
X94963158Y-156194914D02*
X95034586Y-156385390D01*
X95034586Y-156385390D02*
X95010777Y-156575866D01*
X95010777Y-156575866D02*
X94891729Y-156766342D01*
X94891729Y-156766342D02*
X94784586Y-156861580D01*
X94784586Y-156861580D02*
X94582205Y-156956819D01*
X94582205Y-156956819D02*
X93915539Y-156956819D01*
X96070301Y-158004438D02*
X95891729Y-157909200D01*
X95891729Y-157909200D02*
X95820301Y-157718723D01*
X95820301Y-157718723D02*
X96034586Y-156004438D01*
X96832205Y-158004438D02*
X96998872Y-156671104D01*
X97082205Y-156004438D02*
X96975062Y-156099676D01*
X96975062Y-156099676D02*
X97058396Y-156194914D01*
X97058396Y-156194914D02*
X97165539Y-156099676D01*
X97165539Y-156099676D02*
X97082205Y-156004438D01*
X97082205Y-156004438D02*
X97058396Y-156194914D01*
X97951253Y-156671104D02*
X97784586Y-158004438D01*
X97927443Y-156861580D02*
X98034586Y-156766342D01*
X98034586Y-156766342D02*
X98236967Y-156671104D01*
X98236967Y-156671104D02*
X98522681Y-156671104D01*
X98522681Y-156671104D02*
X98701253Y-156766342D01*
X98701253Y-156766342D02*
X98772681Y-156956819D01*
X98772681Y-156956819D02*
X98641729Y-158004438D01*
X99594110Y-158004438D02*
X99844110Y-156004438D01*
X99879825Y-157242533D02*
X100356015Y-158004438D01*
X100522682Y-156671104D02*
X99665539Y-157433009D01*
X101189349Y-156671104D02*
X101498873Y-158004438D01*
X102141730Y-156671104D02*
X101498873Y-158004438D01*
X101498873Y-158004438D02*
X101248873Y-158480628D01*
X101248873Y-158480628D02*
X101141730Y-158575866D01*
X101141730Y-158575866D02*
X100939349Y-158671104D01*
X104260778Y-158004438D02*
X104510778Y-156004438D01*
X104510778Y-156004438D02*
X105272683Y-156004438D01*
X105272683Y-156004438D02*
X105451254Y-156099676D01*
X105451254Y-156099676D02*
X105534588Y-156194914D01*
X105534588Y-156194914D02*
X105606016Y-156385390D01*
X105606016Y-156385390D02*
X105570302Y-156671104D01*
X105570302Y-156671104D02*
X105451254Y-156861580D01*
X105451254Y-156861580D02*
X105344112Y-156956819D01*
X105344112Y-156956819D02*
X105141731Y-157052057D01*
X105141731Y-157052057D02*
X104379826Y-157052057D01*
X106891731Y-156004438D02*
X107272683Y-156004438D01*
X107272683Y-156004438D02*
X107451254Y-156099676D01*
X107451254Y-156099676D02*
X107617921Y-156290152D01*
X107617921Y-156290152D02*
X107665540Y-156671104D01*
X107665540Y-156671104D02*
X107582207Y-157337771D01*
X107582207Y-157337771D02*
X107439350Y-157718723D01*
X107439350Y-157718723D02*
X107225064Y-157909200D01*
X107225064Y-157909200D02*
X107022683Y-158004438D01*
X107022683Y-158004438D02*
X106641731Y-158004438D01*
X106641731Y-158004438D02*
X106463159Y-157909200D01*
X106463159Y-157909200D02*
X106296493Y-157718723D01*
X106296493Y-157718723D02*
X106248873Y-157337771D01*
X106248873Y-157337771D02*
X106332207Y-156671104D01*
X106332207Y-156671104D02*
X106475064Y-156290152D01*
X106475064Y-156290152D02*
X106689350Y-156099676D01*
X106689350Y-156099676D02*
X106891731Y-156004438D01*
X108320302Y-156004438D02*
X108736969Y-158004438D01*
X108736969Y-158004438D02*
X109653635Y-156004438D01*
X111570303Y-157433009D02*
X112522684Y-157433009D01*
X111308398Y-158004438D02*
X112225065Y-156004438D01*
X112225065Y-156004438D02*
X112641731Y-158004438D01*
X113272684Y-156004438D02*
X113689351Y-158004438D01*
X113689351Y-158004438D02*
X114606017Y-156004438D01*
X116165541Y-158004438D02*
X115617922Y-157052057D01*
X115022684Y-158004438D02*
X115272684Y-156004438D01*
X115272684Y-156004438D02*
X116034589Y-156004438D01*
X116034589Y-156004438D02*
X116213160Y-156099676D01*
X116213160Y-156099676D02*
X116296494Y-156194914D01*
X116296494Y-156194914D02*
X116367922Y-156385390D01*
X116367922Y-156385390D02*
X116332208Y-156671104D01*
X116332208Y-156671104D02*
X116213160Y-156861580D01*
X116213160Y-156861580D02*
X116106018Y-156956819D01*
X116106018Y-156956819D02*
X115903637Y-157052057D01*
X115903637Y-157052057D02*
X115141732Y-157052057D01*
X118463161Y-157909200D02*
X118736970Y-158004438D01*
X118736970Y-158004438D02*
X119213161Y-158004438D01*
X119213161Y-158004438D02*
X119415542Y-157909200D01*
X119415542Y-157909200D02*
X119522685Y-157813961D01*
X119522685Y-157813961D02*
X119641732Y-157623485D01*
X119641732Y-157623485D02*
X119665542Y-157433009D01*
X119665542Y-157433009D02*
X119594113Y-157242533D01*
X119594113Y-157242533D02*
X119510780Y-157147295D01*
X119510780Y-157147295D02*
X119332209Y-157052057D01*
X119332209Y-157052057D02*
X118963161Y-156956819D01*
X118963161Y-156956819D02*
X118784589Y-156861580D01*
X118784589Y-156861580D02*
X118701256Y-156766342D01*
X118701256Y-156766342D02*
X118629828Y-156575866D01*
X118629828Y-156575866D02*
X118653637Y-156385390D01*
X118653637Y-156385390D02*
X118772685Y-156194914D01*
X118772685Y-156194914D02*
X118879828Y-156099676D01*
X118879828Y-156099676D02*
X119082209Y-156004438D01*
X119082209Y-156004438D02*
X119558399Y-156004438D01*
X119558399Y-156004438D02*
X119832209Y-156099676D01*
X120451256Y-158004438D02*
X120701256Y-156004438D01*
X120701256Y-156004438D02*
X121189351Y-157433009D01*
X121189351Y-157433009D02*
X122034590Y-156004438D01*
X122034590Y-156004438D02*
X121784590Y-158004438D01*
X122701256Y-156004438D02*
X123844113Y-156004438D01*
X123022685Y-158004438D02*
X123272685Y-156004438D01*
D10*
D11*
X85155826Y-153400414D02*
X84655826Y-153400414D01*
X84655826Y-154186128D02*
X84655826Y-152686128D01*
X84655826Y-152686128D02*
X85370112Y-152686128D01*
X85941540Y-154186128D02*
X85941540Y-153186128D01*
X85941540Y-152686128D02*
X85870112Y-152757557D01*
X85870112Y-152757557D02*
X85941540Y-152828985D01*
X85941540Y-152828985D02*
X86012969Y-152757557D01*
X86012969Y-152757557D02*
X85941540Y-152686128D01*
X85941540Y-152686128D02*
X85941540Y-152828985D01*
X86870112Y-154186128D02*
X86727255Y-154114700D01*
X86727255Y-154114700D02*
X86655826Y-153971842D01*
X86655826Y-153971842D02*
X86655826Y-152686128D01*
X88012969Y-154114700D02*
X87870112Y-154186128D01*
X87870112Y-154186128D02*
X87584398Y-154186128D01*
X87584398Y-154186128D02*
X87441540Y-154114700D01*
X87441540Y-154114700D02*
X87370112Y-153971842D01*
X87370112Y-153971842D02*
X87370112Y-153400414D01*
X87370112Y-153400414D02*
X87441540Y-153257557D01*
X87441540Y-153257557D02*
X87584398Y-153186128D01*
X87584398Y-153186128D02*
X87870112Y-153186128D01*
X87870112Y-153186128D02*
X88012969Y-153257557D01*
X88012969Y-153257557D02*
X88084398Y-153400414D01*
X88084398Y-153400414D02*
X88084398Y-153543271D01*
X88084398Y-153543271D02*
X87370112Y-153686128D01*
X88727254Y-154043271D02*
X88798683Y-154114700D01*
X88798683Y-154114700D02*
X88727254Y-154186128D01*
X88727254Y-154186128D02*
X88655826Y-154114700D01*
X88655826Y-154114700D02*
X88727254Y-154043271D01*
X88727254Y-154043271D02*
X88727254Y-154186128D01*
X88727254Y-153257557D02*
X88798683Y-153328985D01*
X88798683Y-153328985D02*
X88727254Y-153400414D01*
X88727254Y-153400414D02*
X88655826Y-153328985D01*
X88655826Y-153328985D02*
X88727254Y-153257557D01*
X88727254Y-153257557D02*
X88727254Y-153400414D01*
X91227255Y-154186128D02*
X91227255Y-153400414D01*
X91227255Y-153400414D02*
X91155826Y-153257557D01*
X91155826Y-153257557D02*
X91012969Y-153186128D01*
X91012969Y-153186128D02*
X90727255Y-153186128D01*
X90727255Y-153186128D02*
X90584397Y-153257557D01*
X91227255Y-154114700D02*
X91084397Y-154186128D01*
X91084397Y-154186128D02*
X90727255Y-154186128D01*
X90727255Y-154186128D02*
X90584397Y-154114700D01*
X90584397Y-154114700D02*
X90512969Y-153971842D01*
X90512969Y-153971842D02*
X90512969Y-153828985D01*
X90512969Y-153828985D02*
X90584397Y-153686128D01*
X90584397Y-153686128D02*
X90727255Y-153614700D01*
X90727255Y-153614700D02*
X91084397Y-153614700D01*
X91084397Y-153614700D02*
X91227255Y-153543271D01*
X91798683Y-153186128D02*
X92155826Y-154186128D01*
X92155826Y-154186128D02*
X92512969Y-153186128D01*
X93084397Y-154186128D02*
X93084397Y-153186128D01*
X93084397Y-153471842D02*
X93155826Y-153328985D01*
X93155826Y-153328985D02*
X93227255Y-153257557D01*
X93227255Y-153257557D02*
X93370112Y-153186128D01*
X93370112Y-153186128D02*
X93512969Y-153186128D01*
X94012968Y-153614700D02*
X95155826Y-153614700D01*
X95798683Y-154114700D02*
X95941540Y-154186128D01*
X95941540Y-154186128D02*
X96227254Y-154186128D01*
X96227254Y-154186128D02*
X96370111Y-154114700D01*
X96370111Y-154114700D02*
X96441540Y-153971842D01*
X96441540Y-153971842D02*
X96441540Y-153900414D01*
X96441540Y-153900414D02*
X96370111Y-153757557D01*
X96370111Y-153757557D02*
X96227254Y-153686128D01*
X96227254Y-153686128D02*
X96012969Y-153686128D01*
X96012969Y-153686128D02*
X95870111Y-153614700D01*
X95870111Y-153614700D02*
X95798683Y-153471842D01*
X95798683Y-153471842D02*
X95798683Y-153400414D01*
X95798683Y-153400414D02*
X95870111Y-153257557D01*
X95870111Y-153257557D02*
X96012969Y-153186128D01*
X96012969Y-153186128D02*
X96227254Y-153186128D01*
X96227254Y-153186128D02*
X96370111Y-153257557D01*
X97084397Y-154186128D02*
X97084397Y-153186128D01*
X97084397Y-153328985D02*
X97155826Y-153257557D01*
X97155826Y-153257557D02*
X97298683Y-153186128D01*
X97298683Y-153186128D02*
X97512969Y-153186128D01*
X97512969Y-153186128D02*
X97655826Y-153257557D01*
X97655826Y-153257557D02*
X97727255Y-153400414D01*
X97727255Y-153400414D02*
X97727255Y-154186128D01*
X97727255Y-153400414D02*
X97798683Y-153257557D01*
X97798683Y-153257557D02*
X97941540Y-153186128D01*
X97941540Y-153186128D02*
X98155826Y-153186128D01*
X98155826Y-153186128D02*
X98298683Y-153257557D01*
X98298683Y-153257557D02*
X98370112Y-153400414D01*
X98370112Y-153400414D02*
X98370112Y-154186128D01*
X98870112Y-153186128D02*
X99441540Y-153186128D01*
X99084397Y-152686128D02*
X99084397Y-153971842D01*
X99084397Y-153971842D02*
X99155826Y-154114700D01*
X99155826Y-154114700D02*
X99298683Y-154186128D01*
X99298683Y-154186128D02*
X99441540Y-154186128D01*
X99941540Y-153614700D02*
X101084398Y-153614700D01*
X102441541Y-153186128D02*
X102441541Y-154186128D01*
X102084398Y-152614700D02*
X101727255Y-153686128D01*
X101727255Y-153686128D02*
X102655826Y-153686128D01*
X103870112Y-153186128D02*
X103870112Y-154186128D01*
X103512969Y-152614700D02*
X103155826Y-153686128D01*
X103155826Y-153686128D02*
X104084397Y-153686128D01*
X104655825Y-154043271D02*
X104727254Y-154114700D01*
X104727254Y-154114700D02*
X104655825Y-154186128D01*
X104655825Y-154186128D02*
X104584397Y-154114700D01*
X104584397Y-154114700D02*
X104655825Y-154043271D01*
X104655825Y-154043271D02*
X104655825Y-154186128D01*
X105370111Y-154186128D02*
X105370111Y-152686128D01*
X105512969Y-153614700D02*
X105941540Y-154186128D01*
X105941540Y-153186128D02*
X105370111Y-153757557D01*
X106584397Y-154186128D02*
X106584397Y-153186128D01*
X106584397Y-152686128D02*
X106512969Y-152757557D01*
X106512969Y-152757557D02*
X106584397Y-152828985D01*
X106584397Y-152828985D02*
X106655826Y-152757557D01*
X106655826Y-152757557D02*
X106584397Y-152686128D01*
X106584397Y-152686128D02*
X106584397Y-152828985D01*
X107941541Y-154114700D02*
X107798683Y-154186128D01*
X107798683Y-154186128D02*
X107512969Y-154186128D01*
X107512969Y-154186128D02*
X107370112Y-154114700D01*
X107370112Y-154114700D02*
X107298683Y-154043271D01*
X107298683Y-154043271D02*
X107227255Y-153900414D01*
X107227255Y-153900414D02*
X107227255Y-153471842D01*
X107227255Y-153471842D02*
X107298683Y-153328985D01*
X107298683Y-153328985D02*
X107370112Y-153257557D01*
X107370112Y-153257557D02*
X107512969Y-153186128D01*
X107512969Y-153186128D02*
X107798683Y-153186128D01*
X107798683Y-153186128D02*
X107941541Y-153257557D01*
X109227255Y-154186128D02*
X109227255Y-153400414D01*
X109227255Y-153400414D02*
X109155826Y-153257557D01*
X109155826Y-153257557D02*
X109012969Y-153186128D01*
X109012969Y-153186128D02*
X108727255Y-153186128D01*
X108727255Y-153186128D02*
X108584397Y-153257557D01*
X109227255Y-154114700D02*
X109084397Y-154186128D01*
X109084397Y-154186128D02*
X108727255Y-154186128D01*
X108727255Y-154186128D02*
X108584397Y-154114700D01*
X108584397Y-154114700D02*
X108512969Y-153971842D01*
X108512969Y-153971842D02*
X108512969Y-153828985D01*
X108512969Y-153828985D02*
X108584397Y-153686128D01*
X108584397Y-153686128D02*
X108727255Y-153614700D01*
X108727255Y-153614700D02*
X109084397Y-153614700D01*
X109084397Y-153614700D02*
X109227255Y-153543271D01*
X110584398Y-154186128D02*
X110584398Y-152686128D01*
X110584398Y-154114700D02*
X110441540Y-154186128D01*
X110441540Y-154186128D02*
X110155826Y-154186128D01*
X110155826Y-154186128D02*
X110012969Y-154114700D01*
X110012969Y-154114700D02*
X109941540Y-154043271D01*
X109941540Y-154043271D02*
X109870112Y-153900414D01*
X109870112Y-153900414D02*
X109870112Y-153471842D01*
X109870112Y-153471842D02*
X109941540Y-153328985D01*
X109941540Y-153328985D02*
X110012969Y-153257557D01*
X110012969Y-153257557D02*
X110155826Y-153186128D01*
X110155826Y-153186128D02*
X110441540Y-153186128D01*
X110441540Y-153186128D02*
X110584398Y-153257557D01*
X110941541Y-154328985D02*
X112084398Y-154328985D01*
X112441540Y-153186128D02*
X112441540Y-154686128D01*
X112441540Y-153257557D02*
X112584398Y-153186128D01*
X112584398Y-153186128D02*
X112870112Y-153186128D01*
X112870112Y-153186128D02*
X113012969Y-153257557D01*
X113012969Y-153257557D02*
X113084398Y-153328985D01*
X113084398Y-153328985D02*
X113155826Y-153471842D01*
X113155826Y-153471842D02*
X113155826Y-153900414D01*
X113155826Y-153900414D02*
X113084398Y-154043271D01*
X113084398Y-154043271D02*
X113012969Y-154114700D01*
X113012969Y-154114700D02*
X112870112Y-154186128D01*
X112870112Y-154186128D02*
X112584398Y-154186128D01*
X112584398Y-154186128D02*
X112441540Y-154114700D01*
X114441541Y-154114700D02*
X114298683Y-154186128D01*
X114298683Y-154186128D02*
X114012969Y-154186128D01*
X114012969Y-154186128D02*
X113870112Y-154114700D01*
X113870112Y-154114700D02*
X113798683Y-154043271D01*
X113798683Y-154043271D02*
X113727255Y-153900414D01*
X113727255Y-153900414D02*
X113727255Y-153471842D01*
X113727255Y-153471842D02*
X113798683Y-153328985D01*
X113798683Y-153328985D02*
X113870112Y-153257557D01*
X113870112Y-153257557D02*
X114012969Y-153186128D01*
X114012969Y-153186128D02*
X114298683Y-153186128D01*
X114298683Y-153186128D02*
X114441541Y-153257557D01*
X115084397Y-154186128D02*
X115084397Y-152686128D01*
X115084397Y-153257557D02*
X115227255Y-153186128D01*
X115227255Y-153186128D02*
X115512969Y-153186128D01*
X115512969Y-153186128D02*
X115655826Y-153257557D01*
X115655826Y-153257557D02*
X115727255Y-153328985D01*
X115727255Y-153328985D02*
X115798683Y-153471842D01*
X115798683Y-153471842D02*
X115798683Y-153900414D01*
X115798683Y-153900414D02*
X115727255Y-154043271D01*
X115727255Y-154043271D02*
X115655826Y-154114700D01*
X115655826Y-154114700D02*
X115512969Y-154186128D01*
X115512969Y-154186128D02*
X115227255Y-154186128D01*
X115227255Y-154186128D02*
X115084397Y-154114700D01*
D10*
D11*
X83200000Y-149300000D02*
X191200000Y-149300000D01*
D10*
D11*
X84584398Y-151414700D02*
X84798684Y-151486128D01*
X84798684Y-151486128D02*
X85155826Y-151486128D01*
X85155826Y-151486128D02*
X85298684Y-151414700D01*
X85298684Y-151414700D02*
X85370112Y-151343271D01*
X85370112Y-151343271D02*
X85441541Y-151200414D01*
X85441541Y-151200414D02*
X85441541Y-151057557D01*
X85441541Y-151057557D02*
X85370112Y-150914700D01*
X85370112Y-150914700D02*
X85298684Y-150843271D01*
X85298684Y-150843271D02*
X85155826Y-150771842D01*
X85155826Y-150771842D02*
X84870112Y-150700414D01*
X84870112Y-150700414D02*
X84727255Y-150628985D01*
X84727255Y-150628985D02*
X84655826Y-150557557D01*
X84655826Y-150557557D02*
X84584398Y-150414700D01*
X84584398Y-150414700D02*
X84584398Y-150271842D01*
X84584398Y-150271842D02*
X84655826Y-150128985D01*
X84655826Y-150128985D02*
X84727255Y-150057557D01*
X84727255Y-150057557D02*
X84870112Y-149986128D01*
X84870112Y-149986128D02*
X85227255Y-149986128D01*
X85227255Y-149986128D02*
X85441541Y-150057557D01*
X86084397Y-151486128D02*
X86084397Y-149986128D01*
X86727255Y-151486128D02*
X86727255Y-150700414D01*
X86727255Y-150700414D02*
X86655826Y-150557557D01*
X86655826Y-150557557D02*
X86512969Y-150486128D01*
X86512969Y-150486128D02*
X86298683Y-150486128D01*
X86298683Y-150486128D02*
X86155826Y-150557557D01*
X86155826Y-150557557D02*
X86084397Y-150628985D01*
X88012969Y-151414700D02*
X87870112Y-151486128D01*
X87870112Y-151486128D02*
X87584398Y-151486128D01*
X87584398Y-151486128D02*
X87441540Y-151414700D01*
X87441540Y-151414700D02*
X87370112Y-151271842D01*
X87370112Y-151271842D02*
X87370112Y-150700414D01*
X87370112Y-150700414D02*
X87441540Y-150557557D01*
X87441540Y-150557557D02*
X87584398Y-150486128D01*
X87584398Y-150486128D02*
X87870112Y-150486128D01*
X87870112Y-150486128D02*
X88012969Y-150557557D01*
X88012969Y-150557557D02*
X88084398Y-150700414D01*
X88084398Y-150700414D02*
X88084398Y-150843271D01*
X88084398Y-150843271D02*
X87370112Y-150986128D01*
X89298683Y-151414700D02*
X89155826Y-151486128D01*
X89155826Y-151486128D02*
X88870112Y-151486128D01*
X88870112Y-151486128D02*
X88727254Y-151414700D01*
X88727254Y-151414700D02*
X88655826Y-151271842D01*
X88655826Y-151271842D02*
X88655826Y-150700414D01*
X88655826Y-150700414D02*
X88727254Y-150557557D01*
X88727254Y-150557557D02*
X88870112Y-150486128D01*
X88870112Y-150486128D02*
X89155826Y-150486128D01*
X89155826Y-150486128D02*
X89298683Y-150557557D01*
X89298683Y-150557557D02*
X89370112Y-150700414D01*
X89370112Y-150700414D02*
X89370112Y-150843271D01*
X89370112Y-150843271D02*
X88655826Y-150986128D01*
X89798683Y-150486128D02*
X90370111Y-150486128D01*
X90012968Y-149986128D02*
X90012968Y-151271842D01*
X90012968Y-151271842D02*
X90084397Y-151414700D01*
X90084397Y-151414700D02*
X90227254Y-151486128D01*
X90227254Y-151486128D02*
X90370111Y-151486128D01*
X90870111Y-151343271D02*
X90941540Y-151414700D01*
X90941540Y-151414700D02*
X90870111Y-151486128D01*
X90870111Y-151486128D02*
X90798683Y-151414700D01*
X90798683Y-151414700D02*
X90870111Y-151343271D01*
X90870111Y-151343271D02*
X90870111Y-151486128D01*
X90870111Y-150557557D02*
X90941540Y-150628985D01*
X90941540Y-150628985D02*
X90870111Y-150700414D01*
X90870111Y-150700414D02*
X90798683Y-150628985D01*
X90798683Y-150628985D02*
X90870111Y-150557557D01*
X90870111Y-150557557D02*
X90870111Y-150700414D01*
D10*
D12*
X85254510Y-147692614D02*
X85468796Y-147764042D01*
X85468796Y-147764042D02*
X85540225Y-147835471D01*
X85540225Y-147835471D02*
X85611653Y-147978328D01*
X85611653Y-147978328D02*
X85611653Y-148192614D01*
X85611653Y-148192614D02*
X85540225Y-148335471D01*
X85540225Y-148335471D02*
X85468796Y-148406900D01*
X85468796Y-148406900D02*
X85325939Y-148478328D01*
X85325939Y-148478328D02*
X84754510Y-148478328D01*
X84754510Y-148478328D02*
X84754510Y-146978328D01*
X84754510Y-146978328D02*
X85254510Y-146978328D01*
X85254510Y-146978328D02*
X85397368Y-147049757D01*
X85397368Y-147049757D02*
X85468796Y-147121185D01*
X85468796Y-147121185D02*
X85540225Y-147264042D01*
X85540225Y-147264042D02*
X85540225Y-147406900D01*
X85540225Y-147406900D02*
X85468796Y-147549757D01*
X85468796Y-147549757D02*
X85397368Y-147621185D01*
X85397368Y-147621185D02*
X85254510Y-147692614D01*
X85254510Y-147692614D02*
X84754510Y-147692614D01*
X86468796Y-148478328D02*
X86325939Y-148406900D01*
X86325939Y-148406900D02*
X86254510Y-148335471D01*
X86254510Y-148335471D02*
X86183082Y-148192614D01*
X86183082Y-148192614D02*
X86183082Y-147764042D01*
X86183082Y-147764042D02*
X86254510Y-147621185D01*
X86254510Y-147621185D02*
X86325939Y-147549757D01*
X86325939Y-147549757D02*
X86468796Y-147478328D01*
X86468796Y-147478328D02*
X86683082Y-147478328D01*
X86683082Y-147478328D02*
X86825939Y-147549757D01*
X86825939Y-147549757D02*
X86897368Y-147621185D01*
X86897368Y-147621185D02*
X86968796Y-147764042D01*
X86968796Y-147764042D02*
X86968796Y-148192614D01*
X86968796Y-148192614D02*
X86897368Y-148335471D01*
X86897368Y-148335471D02*
X86825939Y-148406900D01*
X86825939Y-148406900D02*
X86683082Y-148478328D01*
X86683082Y-148478328D02*
X86468796Y-148478328D01*
X87540225Y-148406900D02*
X87683082Y-148478328D01*
X87683082Y-148478328D02*
X87968796Y-148478328D01*
X87968796Y-148478328D02*
X88111653Y-148406900D01*
X88111653Y-148406900D02*
X88183082Y-148264042D01*
X88183082Y-148264042D02*
X88183082Y-148192614D01*
X88183082Y-148192614D02*
X88111653Y-148049757D01*
X88111653Y-148049757D02*
X87968796Y-147978328D01*
X87968796Y-147978328D02*
X87754511Y-147978328D01*
X87754511Y-147978328D02*
X87611653Y-147906900D01*
X87611653Y-147906900D02*
X87540225Y-147764042D01*
X87540225Y-147764042D02*
X87540225Y-147692614D01*
X87540225Y-147692614D02*
X87611653Y-147549757D01*
X87611653Y-147549757D02*
X87754511Y-147478328D01*
X87754511Y-147478328D02*
X87968796Y-147478328D01*
X87968796Y-147478328D02*
X88111653Y-147549757D01*
X88611654Y-147478328D02*
X89183082Y-147478328D01*
X88825939Y-146978328D02*
X88825939Y-148264042D01*
X88825939Y-148264042D02*
X88897368Y-148406900D01*
X88897368Y-148406900D02*
X89040225Y-148478328D01*
X89040225Y-148478328D02*
X89183082Y-148478328D01*
X89897368Y-148478328D02*
X89754511Y-148406900D01*
X89754511Y-148406900D02*
X89683082Y-148335471D01*
X89683082Y-148335471D02*
X89611654Y-148192614D01*
X89611654Y-148192614D02*
X89611654Y-147764042D01*
X89611654Y-147764042D02*
X89683082Y-147621185D01*
X89683082Y-147621185D02*
X89754511Y-147549757D01*
X89754511Y-147549757D02*
X89897368Y-147478328D01*
X89897368Y-147478328D02*
X90111654Y-147478328D01*
X90111654Y-147478328D02*
X90254511Y-147549757D01*
X90254511Y-147549757D02*
X90325940Y-147621185D01*
X90325940Y-147621185D02*
X90397368Y-147764042D01*
X90397368Y-147764042D02*
X90397368Y-148192614D01*
X90397368Y-148192614D02*
X90325940Y-148335471D01*
X90325940Y-148335471D02*
X90254511Y-148406900D01*
X90254511Y-148406900D02*
X90111654Y-148478328D01*
X90111654Y-148478328D02*
X89897368Y-148478328D01*
X91040225Y-147478328D02*
X91040225Y-148478328D01*
X91040225Y-147621185D02*
X91111654Y-147549757D01*
X91111654Y-147549757D02*
X91254511Y-147478328D01*
X91254511Y-147478328D02*
X91468797Y-147478328D01*
X91468797Y-147478328D02*
X91611654Y-147549757D01*
X91611654Y-147549757D02*
X91683083Y-147692614D01*
X91683083Y-147692614D02*
X91683083Y-148478328D01*
X93540225Y-146978328D02*
X93540225Y-148192614D01*
X93540225Y-148192614D02*
X93611654Y-148335471D01*
X93611654Y-148335471D02*
X93683083Y-148406900D01*
X93683083Y-148406900D02*
X93825940Y-148478328D01*
X93825940Y-148478328D02*
X94111654Y-148478328D01*
X94111654Y-148478328D02*
X94254511Y-148406900D01*
X94254511Y-148406900D02*
X94325940Y-148335471D01*
X94325940Y-148335471D02*
X94397368Y-148192614D01*
X94397368Y-148192614D02*
X94397368Y-146978328D01*
X95111654Y-147478328D02*
X95111654Y-148478328D01*
X95111654Y-147621185D02*
X95183083Y-147549757D01*
X95183083Y-147549757D02*
X95325940Y-147478328D01*
X95325940Y-147478328D02*
X95540226Y-147478328D01*
X95540226Y-147478328D02*
X95683083Y-147549757D01*
X95683083Y-147549757D02*
X95754512Y-147692614D01*
X95754512Y-147692614D02*
X95754512Y-148478328D01*
X96468797Y-148478328D02*
X96468797Y-147478328D01*
X96468797Y-146978328D02*
X96397369Y-147049757D01*
X96397369Y-147049757D02*
X96468797Y-147121185D01*
X96468797Y-147121185D02*
X96540226Y-147049757D01*
X96540226Y-147049757D02*
X96468797Y-146978328D01*
X96468797Y-146978328D02*
X96468797Y-147121185D01*
X97040226Y-147478328D02*
X97397369Y-148478328D01*
X97397369Y-148478328D02*
X97754512Y-147478328D01*
X98897369Y-148406900D02*
X98754512Y-148478328D01*
X98754512Y-148478328D02*
X98468798Y-148478328D01*
X98468798Y-148478328D02*
X98325940Y-148406900D01*
X98325940Y-148406900D02*
X98254512Y-148264042D01*
X98254512Y-148264042D02*
X98254512Y-147692614D01*
X98254512Y-147692614D02*
X98325940Y-147549757D01*
X98325940Y-147549757D02*
X98468798Y-147478328D01*
X98468798Y-147478328D02*
X98754512Y-147478328D01*
X98754512Y-147478328D02*
X98897369Y-147549757D01*
X98897369Y-147549757D02*
X98968798Y-147692614D01*
X98968798Y-147692614D02*
X98968798Y-147835471D01*
X98968798Y-147835471D02*
X98254512Y-147978328D01*
X99611654Y-148478328D02*
X99611654Y-147478328D01*
X99611654Y-147764042D02*
X99683083Y-147621185D01*
X99683083Y-147621185D02*
X99754512Y-147549757D01*
X99754512Y-147549757D02*
X99897369Y-147478328D01*
X99897369Y-147478328D02*
X100040226Y-147478328D01*
X100468797Y-148406900D02*
X100611654Y-148478328D01*
X100611654Y-148478328D02*
X100897368Y-148478328D01*
X100897368Y-148478328D02*
X101040225Y-148406900D01*
X101040225Y-148406900D02*
X101111654Y-148264042D01*
X101111654Y-148264042D02*
X101111654Y-148192614D01*
X101111654Y-148192614D02*
X101040225Y-148049757D01*
X101040225Y-148049757D02*
X100897368Y-147978328D01*
X100897368Y-147978328D02*
X100683083Y-147978328D01*
X100683083Y-147978328D02*
X100540225Y-147906900D01*
X100540225Y-147906900D02*
X100468797Y-147764042D01*
X100468797Y-147764042D02*
X100468797Y-147692614D01*
X100468797Y-147692614D02*
X100540225Y-147549757D01*
X100540225Y-147549757D02*
X100683083Y-147478328D01*
X100683083Y-147478328D02*
X100897368Y-147478328D01*
X100897368Y-147478328D02*
X101040225Y-147549757D01*
X101754511Y-148478328D02*
X101754511Y-147478328D01*
X101754511Y-146978328D02*
X101683083Y-147049757D01*
X101683083Y-147049757D02*
X101754511Y-147121185D01*
X101754511Y-147121185D02*
X101825940Y-147049757D01*
X101825940Y-147049757D02*
X101754511Y-146978328D01*
X101754511Y-146978328D02*
X101754511Y-147121185D01*
X102254512Y-147478328D02*
X102825940Y-147478328D01*
X102468797Y-146978328D02*
X102468797Y-148264042D01*
X102468797Y-148264042D02*
X102540226Y-148406900D01*
X102540226Y-148406900D02*
X102683083Y-148478328D01*
X102683083Y-148478328D02*
X102825940Y-148478328D01*
X103183083Y-147478328D02*
X103540226Y-148478328D01*
X103897369Y-147478328D02*
X103540226Y-148478328D01*
X103540226Y-148478328D02*
X103397369Y-148835471D01*
X103397369Y-148835471D02*
X103325940Y-148906900D01*
X103325940Y-148906900D02*
X103183083Y-148978328D01*
X105611654Y-147692614D02*
X106111654Y-147692614D01*
X106325940Y-148478328D02*
X105611654Y-148478328D01*
X105611654Y-148478328D02*
X105611654Y-146978328D01*
X105611654Y-146978328D02*
X106325940Y-146978328D01*
X106968797Y-148478328D02*
X106968797Y-146978328D01*
X106968797Y-146978328D02*
X107540226Y-146978328D01*
X107540226Y-146978328D02*
X107683083Y-147049757D01*
X107683083Y-147049757D02*
X107754512Y-147121185D01*
X107754512Y-147121185D02*
X107825940Y-147264042D01*
X107825940Y-147264042D02*
X107825940Y-147478328D01*
X107825940Y-147478328D02*
X107754512Y-147621185D01*
X107754512Y-147621185D02*
X107683083Y-147692614D01*
X107683083Y-147692614D02*
X107540226Y-147764042D01*
X107540226Y-147764042D02*
X106968797Y-147764042D01*
X108468797Y-148478328D02*
X108468797Y-146978328D01*
X110040226Y-148335471D02*
X109968798Y-148406900D01*
X109968798Y-148406900D02*
X109754512Y-148478328D01*
X109754512Y-148478328D02*
X109611655Y-148478328D01*
X109611655Y-148478328D02*
X109397369Y-148406900D01*
X109397369Y-148406900D02*
X109254512Y-148264042D01*
X109254512Y-148264042D02*
X109183083Y-148121185D01*
X109183083Y-148121185D02*
X109111655Y-147835471D01*
X109111655Y-147835471D02*
X109111655Y-147621185D01*
X109111655Y-147621185D02*
X109183083Y-147335471D01*
X109183083Y-147335471D02*
X109254512Y-147192614D01*
X109254512Y-147192614D02*
X109397369Y-147049757D01*
X109397369Y-147049757D02*
X109611655Y-146978328D01*
X109611655Y-146978328D02*
X109754512Y-146978328D01*
X109754512Y-146978328D02*
X109968798Y-147049757D01*
X109968798Y-147049757D02*
X110040226Y-147121185D01*
D10*
D11*
X103200000Y-159300000D02*
X103200000Y-162300000D01*
D10*
D11*
X167200000Y-159300000D02*
X167200000Y-165800000D01*
X157861000Y-90297000D02*
X159512000Y-90297000D01*
X159512000Y-90297000D02*
X159512000Y-89535000D01*
X157861000Y-89535000D02*
X157861000Y-90297000D01*
D14*
X159911779Y-63213056D02*
X159851303Y-63273533D01*
X159851303Y-63273533D02*
X159669874Y-63334009D01*
X159669874Y-63334009D02*
X159548922Y-63334009D01*
X159548922Y-63334009D02*
X159367493Y-63273533D01*
X159367493Y-63273533D02*
X159246541Y-63152580D01*
X159246541Y-63152580D02*
X159186064Y-63031628D01*
X159186064Y-63031628D02*
X159125588Y-62789723D01*
X159125588Y-62789723D02*
X159125588Y-62608294D01*
X159125588Y-62608294D02*
X159186064Y-62366390D01*
X159186064Y-62366390D02*
X159246541Y-62245437D01*
X159246541Y-62245437D02*
X159367493Y-62124485D01*
X159367493Y-62124485D02*
X159548922Y-62064009D01*
X159548922Y-62064009D02*
X159669874Y-62064009D01*
X159669874Y-62064009D02*
X159851303Y-62124485D01*
X159851303Y-62124485D02*
X159911779Y-62184961D01*
X160637493Y-63334009D02*
X160516541Y-63273533D01*
X160516541Y-63273533D02*
X160456064Y-63152580D01*
X160456064Y-63152580D02*
X160456064Y-62064009D01*
X161302731Y-63334009D02*
X161181779Y-63273533D01*
X161181779Y-63273533D02*
X161121302Y-63213056D01*
X161121302Y-63213056D02*
X161060826Y-63092104D01*
X161060826Y-63092104D02*
X161060826Y-62729247D01*
X161060826Y-62729247D02*
X161121302Y-62608294D01*
X161121302Y-62608294D02*
X161181779Y-62547818D01*
X161181779Y-62547818D02*
X161302731Y-62487342D01*
X161302731Y-62487342D02*
X161484160Y-62487342D01*
X161484160Y-62487342D02*
X161605112Y-62547818D01*
X161605112Y-62547818D02*
X161665588Y-62608294D01*
X161665588Y-62608294D02*
X161726064Y-62729247D01*
X161726064Y-62729247D02*
X161726064Y-63092104D01*
X161726064Y-63092104D02*
X161665588Y-63213056D01*
X161665588Y-63213056D02*
X161605112Y-63273533D01*
X161605112Y-63273533D02*
X161484160Y-63334009D01*
X161484160Y-63334009D02*
X161302731Y-63334009D01*
X162814636Y-63273533D02*
X162693684Y-63334009D01*
X162693684Y-63334009D02*
X162451779Y-63334009D01*
X162451779Y-63334009D02*
X162330827Y-63273533D01*
X162330827Y-63273533D02*
X162270350Y-63213056D01*
X162270350Y-63213056D02*
X162209874Y-63092104D01*
X162209874Y-63092104D02*
X162209874Y-62729247D01*
X162209874Y-62729247D02*
X162270350Y-62608294D01*
X162270350Y-62608294D02*
X162330827Y-62547818D01*
X162330827Y-62547818D02*
X162451779Y-62487342D01*
X162451779Y-62487342D02*
X162693684Y-62487342D01*
X162693684Y-62487342D02*
X162814636Y-62547818D01*
X163358921Y-63334009D02*
X163358921Y-62064009D01*
X163479874Y-62850199D02*
X163842731Y-63334009D01*
X163842731Y-62487342D02*
X163358921Y-62971152D01*
D11*
X161589160Y-118184104D02*
X162065350Y-118184104D01*
X161493922Y-118469819D02*
X161827255Y-117469819D01*
X161827255Y-117469819D02*
X162160588Y-118469819D01*
X162351065Y-117469819D02*
X162684398Y-118469819D01*
X162684398Y-118469819D02*
X163017731Y-117469819D01*
X163922493Y-118469819D02*
X163589160Y-117993628D01*
X163351065Y-118469819D02*
X163351065Y-117469819D01*
X163351065Y-117469819D02*
X163732017Y-117469819D01*
X163732017Y-117469819D02*
X163827255Y-117517438D01*
X163827255Y-117517438D02*
X163874874Y-117565057D01*
X163874874Y-117565057D02*
X163922493Y-117660295D01*
X163922493Y-117660295D02*
X163922493Y-117803152D01*
X163922493Y-117803152D02*
X163874874Y-117898390D01*
X163874874Y-117898390D02*
X163827255Y-117946009D01*
X163827255Y-117946009D02*
X163732017Y-117993628D01*
X163732017Y-117993628D02*
X163351065Y-117993628D01*
X165065351Y-118422200D02*
X165208208Y-118469819D01*
X165208208Y-118469819D02*
X165446303Y-118469819D01*
X165446303Y-118469819D02*
X165541541Y-118422200D01*
X165541541Y-118422200D02*
X165589160Y-118374580D01*
X165589160Y-118374580D02*
X165636779Y-118279342D01*
X165636779Y-118279342D02*
X165636779Y-118184104D01*
X165636779Y-118184104D02*
X165589160Y-118088866D01*
X165589160Y-118088866D02*
X165541541Y-118041247D01*
X165541541Y-118041247D02*
X165446303Y-117993628D01*
X165446303Y-117993628D02*
X165255827Y-117946009D01*
X165255827Y-117946009D02*
X165160589Y-117898390D01*
X165160589Y-117898390D02*
X165112970Y-117850771D01*
X165112970Y-117850771D02*
X165065351Y-117755533D01*
X165065351Y-117755533D02*
X165065351Y-117660295D01*
X165065351Y-117660295D02*
X165112970Y-117565057D01*
X165112970Y-117565057D02*
X165160589Y-117517438D01*
X165160589Y-117517438D02*
X165255827Y-117469819D01*
X165255827Y-117469819D02*
X165493922Y-117469819D01*
X165493922Y-117469819D02*
X165636779Y-117517438D01*
X166065351Y-118469819D02*
X166065351Y-117469819D01*
X166065351Y-117469819D02*
X166398684Y-118184104D01*
X166398684Y-118184104D02*
X166732017Y-117469819D01*
X166732017Y-117469819D02*
X166732017Y-118469819D01*
X167065351Y-117469819D02*
X167636779Y-117469819D01*
X167351065Y-118469819D02*
X167351065Y-117469819D01*
X168589161Y-117469819D02*
X168922494Y-118469819D01*
X168922494Y-118469819D02*
X169255827Y-117469819D01*
X170065351Y-117469819D02*
X169589161Y-117469819D01*
X169589161Y-117469819D02*
X169541542Y-117946009D01*
X169541542Y-117946009D02*
X169589161Y-117898390D01*
X169589161Y-117898390D02*
X169684399Y-117850771D01*
X169684399Y-117850771D02*
X169922494Y-117850771D01*
X169922494Y-117850771D02*
X170017732Y-117898390D01*
X170017732Y-117898390D02*
X170065351Y-117946009D01*
X170065351Y-117946009D02*
X170112970Y-118041247D01*
X170112970Y-118041247D02*
X170112970Y-118279342D01*
X170112970Y-118279342D02*
X170065351Y-118374580D01*
X170065351Y-118374580D02*
X170017732Y-118422200D01*
X170017732Y-118422200D02*
X169922494Y-118469819D01*
X169922494Y-118469819D02*
X169684399Y-118469819D01*
X169684399Y-118469819D02*
X169589161Y-118422200D01*
X169589161Y-118422200D02*
X169541542Y-118374580D01*
X170541542Y-118374580D02*
X170589161Y-118422200D01*
X170589161Y-118422200D02*
X170541542Y-118469819D01*
X170541542Y-118469819D02*
X170493923Y-118422200D01*
X170493923Y-118422200D02*
X170541542Y-118374580D01*
X170541542Y-118374580D02*
X170541542Y-118469819D01*
X171541541Y-118469819D02*
X170970113Y-118469819D01*
X171255827Y-118469819D02*
X171255827Y-117469819D01*
X171255827Y-117469819D02*
X171160589Y-117612676D01*
X171160589Y-117612676D02*
X171065351Y-117707914D01*
X171065351Y-117707914D02*
X170970113Y-117755533D01*
X172684399Y-117565057D02*
X172732018Y-117517438D01*
X172732018Y-117517438D02*
X172827256Y-117469819D01*
X172827256Y-117469819D02*
X173065351Y-117469819D01*
X173065351Y-117469819D02*
X173160589Y-117517438D01*
X173160589Y-117517438D02*
X173208208Y-117565057D01*
X173208208Y-117565057D02*
X173255827Y-117660295D01*
X173255827Y-117660295D02*
X173255827Y-117755533D01*
X173255827Y-117755533D02*
X173208208Y-117898390D01*
X173208208Y-117898390D02*
X172636780Y-118469819D01*
X172636780Y-118469819D02*
X173255827Y-118469819D01*
X173874875Y-117469819D02*
X173970113Y-117469819D01*
X173970113Y-117469819D02*
X174065351Y-117517438D01*
X174065351Y-117517438D02*
X174112970Y-117565057D01*
X174112970Y-117565057D02*
X174160589Y-117660295D01*
X174160589Y-117660295D02*
X174208208Y-117850771D01*
X174208208Y-117850771D02*
X174208208Y-118088866D01*
X174208208Y-118088866D02*
X174160589Y-118279342D01*
X174160589Y-118279342D02*
X174112970Y-118374580D01*
X174112970Y-118374580D02*
X174065351Y-118422200D01*
X174065351Y-118422200D02*
X173970113Y-118469819D01*
X173970113Y-118469819D02*
X173874875Y-118469819D01*
X173874875Y-118469819D02*
X173779637Y-118422200D01*
X173779637Y-118422200D02*
X173732018Y-118374580D01*
X173732018Y-118374580D02*
X173684399Y-118279342D01*
X173684399Y-118279342D02*
X173636780Y-118088866D01*
X173636780Y-118088866D02*
X173636780Y-117850771D01*
X173636780Y-117850771D02*
X173684399Y-117660295D01*
X173684399Y-117660295D02*
X173732018Y-117565057D01*
X173732018Y-117565057D02*
X173779637Y-117517438D01*
X173779637Y-117517438D02*
X173874875Y-117469819D01*
X174589161Y-117565057D02*
X174636780Y-117517438D01*
X174636780Y-117517438D02*
X174732018Y-117469819D01*
X174732018Y-117469819D02*
X174970113Y-117469819D01*
X174970113Y-117469819D02*
X175065351Y-117517438D01*
X175065351Y-117517438D02*
X175112970Y-117565057D01*
X175112970Y-117565057D02*
X175160589Y-117660295D01*
X175160589Y-117660295D02*
X175160589Y-117755533D01*
X175160589Y-117755533D02*
X175112970Y-117898390D01*
X175112970Y-117898390D02*
X174541542Y-118469819D01*
X174541542Y-118469819D02*
X175160589Y-118469819D01*
X176065351Y-117469819D02*
X175589161Y-117469819D01*
X175589161Y-117469819D02*
X175541542Y-117946009D01*
X175541542Y-117946009D02*
X175589161Y-117898390D01*
X175589161Y-117898390D02*
X175684399Y-117850771D01*
X175684399Y-117850771D02*
X175922494Y-117850771D01*
X175922494Y-117850771D02*
X176017732Y-117898390D01*
X176017732Y-117898390D02*
X176065351Y-117946009D01*
X176065351Y-117946009D02*
X176112970Y-118041247D01*
X176112970Y-118041247D02*
X176112970Y-118279342D01*
X176112970Y-118279342D02*
X176065351Y-118374580D01*
X176065351Y-118374580D02*
X176017732Y-118422200D01*
X176017732Y-118422200D02*
X175922494Y-118469819D01*
X175922494Y-118469819D02*
X175684399Y-118469819D01*
X175684399Y-118469819D02*
X175589161Y-118422200D01*
X175589161Y-118422200D02*
X175541542Y-118374580D01*
D14*
X167441064Y-63334009D02*
X167441064Y-62064009D01*
X167441064Y-62064009D02*
X167743445Y-62064009D01*
X167743445Y-62064009D02*
X167924874Y-62124485D01*
X167924874Y-62124485D02*
X168045826Y-62245437D01*
X168045826Y-62245437D02*
X168106303Y-62366390D01*
X168106303Y-62366390D02*
X168166779Y-62608294D01*
X168166779Y-62608294D02*
X168166779Y-62789723D01*
X168166779Y-62789723D02*
X168106303Y-63031628D01*
X168106303Y-63031628D02*
X168045826Y-63152580D01*
X168045826Y-63152580D02*
X167924874Y-63273533D01*
X167924874Y-63273533D02*
X167743445Y-63334009D01*
X167743445Y-63334009D02*
X167441064Y-63334009D01*
X169255350Y-63334009D02*
X169255350Y-62668771D01*
X169255350Y-62668771D02*
X169194874Y-62547818D01*
X169194874Y-62547818D02*
X169073922Y-62487342D01*
X169073922Y-62487342D02*
X168832017Y-62487342D01*
X168832017Y-62487342D02*
X168711064Y-62547818D01*
X169255350Y-63273533D02*
X169134398Y-63334009D01*
X169134398Y-63334009D02*
X168832017Y-63334009D01*
X168832017Y-63334009D02*
X168711064Y-63273533D01*
X168711064Y-63273533D02*
X168650588Y-63152580D01*
X168650588Y-63152580D02*
X168650588Y-63031628D01*
X168650588Y-63031628D02*
X168711064Y-62910675D01*
X168711064Y-62910675D02*
X168832017Y-62850199D01*
X168832017Y-62850199D02*
X169134398Y-62850199D01*
X169134398Y-62850199D02*
X169255350Y-62789723D01*
X169678684Y-62487342D02*
X170162493Y-62487342D01*
X169860112Y-62064009D02*
X169860112Y-63152580D01*
X169860112Y-63152580D02*
X169920589Y-63273533D01*
X169920589Y-63273533D02*
X170041541Y-63334009D01*
X170041541Y-63334009D02*
X170162493Y-63334009D01*
X171130112Y-63334009D02*
X171130112Y-62668771D01*
X171130112Y-62668771D02*
X171069636Y-62547818D01*
X171069636Y-62547818D02*
X170948684Y-62487342D01*
X170948684Y-62487342D02*
X170706779Y-62487342D01*
X170706779Y-62487342D02*
X170585826Y-62547818D01*
X171130112Y-63273533D02*
X171009160Y-63334009D01*
X171009160Y-63334009D02*
X170706779Y-63334009D01*
X170706779Y-63334009D02*
X170585826Y-63273533D01*
X170585826Y-63273533D02*
X170525350Y-63152580D01*
X170525350Y-63152580D02*
X170525350Y-63031628D01*
X170525350Y-63031628D02*
X170585826Y-62910675D01*
X170585826Y-62910675D02*
X170706779Y-62850199D01*
X170706779Y-62850199D02*
X171009160Y-62850199D01*
X171009160Y-62850199D02*
X171130112Y-62789723D01*
X161967493Y-105184009D02*
X161967493Y-105486390D01*
X161665112Y-105365437D02*
X161967493Y-105486390D01*
X161967493Y-105486390D02*
X162269874Y-105365437D01*
X161786064Y-105728294D02*
X161967493Y-105486390D01*
X161967493Y-105486390D02*
X162148922Y-105728294D01*
X163418922Y-106454009D02*
X162693207Y-106454009D01*
X163056064Y-106454009D02*
X163056064Y-105184009D01*
X163056064Y-105184009D02*
X162935112Y-105365437D01*
X162935112Y-105365437D02*
X162814160Y-105486390D01*
X162814160Y-105486390D02*
X162693207Y-105546866D01*
X154517303Y-90639009D02*
X153791588Y-90639009D01*
X154154445Y-90639009D02*
X154154445Y-89369009D01*
X154154445Y-89369009D02*
X154033493Y-89550437D01*
X154033493Y-89550437D02*
X153912541Y-89671390D01*
X153912541Y-89671390D02*
X153791588Y-89731866D01*
X162104541Y-116004638D02*
X162322255Y-116077210D01*
X162322255Y-116077210D02*
X162394826Y-116149781D01*
X162394826Y-116149781D02*
X162467398Y-116294924D01*
X162467398Y-116294924D02*
X162467398Y-116512638D01*
X162467398Y-116512638D02*
X162394826Y-116657781D01*
X162394826Y-116657781D02*
X162322255Y-116730353D01*
X162322255Y-116730353D02*
X162177112Y-116802924D01*
X162177112Y-116802924D02*
X161596541Y-116802924D01*
X161596541Y-116802924D02*
X161596541Y-115278924D01*
X161596541Y-115278924D02*
X162104541Y-115278924D01*
X162104541Y-115278924D02*
X162249684Y-115351495D01*
X162249684Y-115351495D02*
X162322255Y-115424067D01*
X162322255Y-115424067D02*
X162394826Y-115569210D01*
X162394826Y-115569210D02*
X162394826Y-115714353D01*
X162394826Y-115714353D02*
X162322255Y-115859495D01*
X162322255Y-115859495D02*
X162249684Y-115932067D01*
X162249684Y-115932067D02*
X162104541Y-116004638D01*
X162104541Y-116004638D02*
X161596541Y-116004638D01*
X163338255Y-116802924D02*
X163193112Y-116730353D01*
X163193112Y-116730353D02*
X163120541Y-116585210D01*
X163120541Y-116585210D02*
X163120541Y-115278924D01*
X163918827Y-116802924D02*
X163918827Y-115786924D01*
X163918827Y-115278924D02*
X163846255Y-115351495D01*
X163846255Y-115351495D02*
X163918827Y-115424067D01*
X163918827Y-115424067D02*
X163991398Y-115351495D01*
X163991398Y-115351495D02*
X163918827Y-115278924D01*
X163918827Y-115278924D02*
X163918827Y-115424067D01*
X164644541Y-115786924D02*
X164644541Y-116802924D01*
X164644541Y-115932067D02*
X164717112Y-115859495D01*
X164717112Y-115859495D02*
X164862255Y-115786924D01*
X164862255Y-115786924D02*
X165079969Y-115786924D01*
X165079969Y-115786924D02*
X165225112Y-115859495D01*
X165225112Y-115859495D02*
X165297684Y-116004638D01*
X165297684Y-116004638D02*
X165297684Y-116802924D01*
X166023398Y-116802924D02*
X166023398Y-115278924D01*
X166168541Y-116222353D02*
X166603969Y-116802924D01*
X166603969Y-115786924D02*
X166023398Y-116367495D01*
X167111969Y-115786924D02*
X167474826Y-116802924D01*
X167837683Y-115786924D02*
X167474826Y-116802924D01*
X167474826Y-116802924D02*
X167329683Y-117165781D01*
X167329683Y-117165781D02*
X167257112Y-117238353D01*
X167257112Y-117238353D02*
X167111969Y-117310924D01*
X169579398Y-116802924D02*
X169579398Y-115278924D01*
X169579398Y-115278924D02*
X170159969Y-115278924D01*
X170159969Y-115278924D02*
X170305112Y-115351495D01*
X170305112Y-115351495D02*
X170377683Y-115424067D01*
X170377683Y-115424067D02*
X170450255Y-115569210D01*
X170450255Y-115569210D02*
X170450255Y-115786924D01*
X170450255Y-115786924D02*
X170377683Y-115932067D01*
X170377683Y-115932067D02*
X170305112Y-116004638D01*
X170305112Y-116004638D02*
X170159969Y-116077210D01*
X170159969Y-116077210D02*
X169579398Y-116077210D01*
X171393683Y-115278924D02*
X171683969Y-115278924D01*
X171683969Y-115278924D02*
X171829112Y-115351495D01*
X171829112Y-115351495D02*
X171974255Y-115496638D01*
X171974255Y-115496638D02*
X172046826Y-115786924D01*
X172046826Y-115786924D02*
X172046826Y-116294924D01*
X172046826Y-116294924D02*
X171974255Y-116585210D01*
X171974255Y-116585210D02*
X171829112Y-116730353D01*
X171829112Y-116730353D02*
X171683969Y-116802924D01*
X171683969Y-116802924D02*
X171393683Y-116802924D01*
X171393683Y-116802924D02*
X171248541Y-116730353D01*
X171248541Y-116730353D02*
X171103398Y-116585210D01*
X171103398Y-116585210D02*
X171030826Y-116294924D01*
X171030826Y-116294924D02*
X171030826Y-115786924D01*
X171030826Y-115786924D02*
X171103398Y-115496638D01*
X171103398Y-115496638D02*
X171248541Y-115351495D01*
X171248541Y-115351495D02*
X171393683Y-115278924D01*
X172482254Y-115278924D02*
X172990254Y-116802924D01*
X172990254Y-116802924D02*
X173498254Y-115278924D01*
X154190000Y-85903321D02*
X154117428Y-85975893D01*
X154117428Y-85975893D02*
X153899714Y-86048464D01*
X153899714Y-86048464D02*
X153754571Y-86048464D01*
X153754571Y-86048464D02*
X153536857Y-85975893D01*
X153536857Y-85975893D02*
X153391714Y-85830750D01*
X153391714Y-85830750D02*
X153319143Y-85685607D01*
X153319143Y-85685607D02*
X153246571Y-85395321D01*
X153246571Y-85395321D02*
X153246571Y-85177607D01*
X153246571Y-85177607D02*
X153319143Y-84887321D01*
X153319143Y-84887321D02*
X153391714Y-84742178D01*
X153391714Y-84742178D02*
X153536857Y-84597035D01*
X153536857Y-84597035D02*
X153754571Y-84524464D01*
X153754571Y-84524464D02*
X153899714Y-84524464D01*
X153899714Y-84524464D02*
X154117428Y-84597035D01*
X154117428Y-84597035D02*
X154190000Y-84669607D01*
X155641428Y-86048464D02*
X154770571Y-86048464D01*
X155206000Y-86048464D02*
X155206000Y-84524464D01*
X155206000Y-84524464D02*
X155060857Y-84742178D01*
X155060857Y-84742178D02*
X154915714Y-84887321D01*
X154915714Y-84887321D02*
X154770571Y-84959893D01*
X158496000Y-71306464D02*
X157988000Y-70580750D01*
X157625143Y-71306464D02*
X157625143Y-69782464D01*
X157625143Y-69782464D02*
X158205714Y-69782464D01*
X158205714Y-69782464D02*
X158350857Y-69855035D01*
X158350857Y-69855035D02*
X158423428Y-69927607D01*
X158423428Y-69927607D02*
X158496000Y-70072750D01*
X158496000Y-70072750D02*
X158496000Y-70290464D01*
X158496000Y-70290464D02*
X158423428Y-70435607D01*
X158423428Y-70435607D02*
X158350857Y-70508178D01*
X158350857Y-70508178D02*
X158205714Y-70580750D01*
X158205714Y-70580750D02*
X157625143Y-70580750D01*
X159947428Y-71306464D02*
X159076571Y-71306464D01*
X159512000Y-71306464D02*
X159512000Y-69782464D01*
X159512000Y-69782464D02*
X159366857Y-70000178D01*
X159366857Y-70000178D02*
X159221714Y-70145321D01*
X159221714Y-70145321D02*
X159076571Y-70217893D01*
X167386000Y-86504464D02*
X166878000Y-85778750D01*
X166515143Y-86504464D02*
X166515143Y-84980464D01*
X166515143Y-84980464D02*
X167095714Y-84980464D01*
X167095714Y-84980464D02*
X167240857Y-85053035D01*
X167240857Y-85053035D02*
X167313428Y-85125607D01*
X167313428Y-85125607D02*
X167386000Y-85270750D01*
X167386000Y-85270750D02*
X167386000Y-85488464D01*
X167386000Y-85488464D02*
X167313428Y-85633607D01*
X167313428Y-85633607D02*
X167240857Y-85706178D01*
X167240857Y-85706178D02*
X167095714Y-85778750D01*
X167095714Y-85778750D02*
X166515143Y-85778750D01*
X167894000Y-84980464D02*
X168910000Y-84980464D01*
X168910000Y-84980464D02*
X168256857Y-86504464D01*
D11*
X162184819Y-110263333D02*
X162899104Y-110263333D01*
X162899104Y-110263333D02*
X163041961Y-110310952D01*
X163041961Y-110310952D02*
X163137200Y-110406190D01*
X163137200Y-110406190D02*
X163184819Y-110549047D01*
X163184819Y-110549047D02*
X163184819Y-110644285D01*
X163184819Y-109263333D02*
X163184819Y-109834761D01*
X163184819Y-109549047D02*
X162184819Y-109549047D01*
X162184819Y-109549047D02*
X162327676Y-109644285D01*
X162327676Y-109644285D02*
X162422914Y-109739523D01*
X162422914Y-109739523D02*
X162470533Y-109834761D01*
D14*
X166660285Y-101744464D02*
X166152285Y-101018750D01*
X165789428Y-101744464D02*
X165789428Y-100220464D01*
X165789428Y-100220464D02*
X166369999Y-100220464D01*
X166369999Y-100220464D02*
X166515142Y-100293035D01*
X166515142Y-100293035D02*
X166587713Y-100365607D01*
X166587713Y-100365607D02*
X166660285Y-100510750D01*
X166660285Y-100510750D02*
X166660285Y-100728464D01*
X166660285Y-100728464D02*
X166587713Y-100873607D01*
X166587713Y-100873607D02*
X166515142Y-100946178D01*
X166515142Y-100946178D02*
X166369999Y-101018750D01*
X166369999Y-101018750D02*
X165789428Y-101018750D01*
X168111713Y-101744464D02*
X167240856Y-101744464D01*
X167676285Y-101744464D02*
X167676285Y-100220464D01*
X167676285Y-100220464D02*
X167531142Y-100438178D01*
X167531142Y-100438178D02*
X167385999Y-100583321D01*
X167385999Y-100583321D02*
X167240856Y-100655893D01*
X169055142Y-100220464D02*
X169200285Y-100220464D01*
X169200285Y-100220464D02*
X169345428Y-100293035D01*
X169345428Y-100293035D02*
X169418000Y-100365607D01*
X169418000Y-100365607D02*
X169490571Y-100510750D01*
X169490571Y-100510750D02*
X169563142Y-100801035D01*
X169563142Y-100801035D02*
X169563142Y-101163893D01*
X169563142Y-101163893D02*
X169490571Y-101454178D01*
X169490571Y-101454178D02*
X169418000Y-101599321D01*
X169418000Y-101599321D02*
X169345428Y-101671893D01*
X169345428Y-101671893D02*
X169200285Y-101744464D01*
X169200285Y-101744464D02*
X169055142Y-101744464D01*
X169055142Y-101744464D02*
X168910000Y-101671893D01*
X168910000Y-101671893D02*
X168837428Y-101599321D01*
X168837428Y-101599321D02*
X168764857Y-101454178D01*
X168764857Y-101454178D02*
X168692285Y-101163893D01*
X168692285Y-101163893D02*
X168692285Y-100801035D01*
X168692285Y-100801035D02*
X168764857Y-100510750D01*
X168764857Y-100510750D02*
X168837428Y-100365607D01*
X168837428Y-100365607D02*
X168910000Y-100293035D01*
X168910000Y-100293035D02*
X169055142Y-100220464D01*
X156641799Y-119728243D02*
X156859514Y-119800814D01*
X156859514Y-119800814D02*
X157222371Y-119800814D01*
X157222371Y-119800814D02*
X157367514Y-119728243D01*
X157367514Y-119728243D02*
X157440085Y-119655671D01*
X157440085Y-119655671D02*
X157512656Y-119510528D01*
X157512656Y-119510528D02*
X157512656Y-119365385D01*
X157512656Y-119365385D02*
X157440085Y-119220243D01*
X157440085Y-119220243D02*
X157367514Y-119147671D01*
X157367514Y-119147671D02*
X157222371Y-119075100D01*
X157222371Y-119075100D02*
X156932085Y-119002528D01*
X156932085Y-119002528D02*
X156786942Y-118929957D01*
X156786942Y-118929957D02*
X156714371Y-118857385D01*
X156714371Y-118857385D02*
X156641799Y-118712243D01*
X156641799Y-118712243D02*
X156641799Y-118567100D01*
X156641799Y-118567100D02*
X156714371Y-118421957D01*
X156714371Y-118421957D02*
X156786942Y-118349385D01*
X156786942Y-118349385D02*
X156932085Y-118276814D01*
X156932085Y-118276814D02*
X157294942Y-118276814D01*
X157294942Y-118276814D02*
X157512656Y-118349385D01*
X158020657Y-118276814D02*
X158383514Y-119800814D01*
X158383514Y-119800814D02*
X158673800Y-118712243D01*
X158673800Y-118712243D02*
X158964085Y-119800814D01*
X158964085Y-119800814D02*
X159326943Y-118276814D01*
X160705799Y-119800814D02*
X159834942Y-119800814D01*
X160270371Y-119800814D02*
X160270371Y-118276814D01*
X160270371Y-118276814D02*
X160125228Y-118494528D01*
X160125228Y-118494528D02*
X159980085Y-118639671D01*
X159980085Y-118639671D02*
X159834942Y-118712243D01*
X167386000Y-81212464D02*
X166878000Y-80486750D01*
X166515143Y-81212464D02*
X166515143Y-79688464D01*
X166515143Y-79688464D02*
X167095714Y-79688464D01*
X167095714Y-79688464D02*
X167240857Y-79761035D01*
X167240857Y-79761035D02*
X167313428Y-79833607D01*
X167313428Y-79833607D02*
X167386000Y-79978750D01*
X167386000Y-79978750D02*
X167386000Y-80196464D01*
X167386000Y-80196464D02*
X167313428Y-80341607D01*
X167313428Y-80341607D02*
X167240857Y-80414178D01*
X167240857Y-80414178D02*
X167095714Y-80486750D01*
X167095714Y-80486750D02*
X166515143Y-80486750D01*
X168692286Y-79688464D02*
X168402000Y-79688464D01*
X168402000Y-79688464D02*
X168256857Y-79761035D01*
X168256857Y-79761035D02*
X168184286Y-79833607D01*
X168184286Y-79833607D02*
X168039143Y-80051321D01*
X168039143Y-80051321D02*
X167966571Y-80341607D01*
X167966571Y-80341607D02*
X167966571Y-80922178D01*
X167966571Y-80922178D02*
X168039143Y-81067321D01*
X168039143Y-81067321D02*
X168111714Y-81139893D01*
X168111714Y-81139893D02*
X168256857Y-81212464D01*
X168256857Y-81212464D02*
X168547143Y-81212464D01*
X168547143Y-81212464D02*
X168692286Y-81139893D01*
X168692286Y-81139893D02*
X168764857Y-81067321D01*
X168764857Y-81067321D02*
X168837428Y-80922178D01*
X168837428Y-80922178D02*
X168837428Y-80559321D01*
X168837428Y-80559321D02*
X168764857Y-80414178D01*
X168764857Y-80414178D02*
X168692286Y-80341607D01*
X168692286Y-80341607D02*
X168547143Y-80269035D01*
X168547143Y-80269035D02*
X168256857Y-80269035D01*
X168256857Y-80269035D02*
X168111714Y-80341607D01*
X168111714Y-80341607D02*
X168039143Y-80414178D01*
X168039143Y-80414178D02*
X167966571Y-80559321D01*
X173627143Y-81085464D02*
X173627143Y-79561464D01*
X173627143Y-79561464D02*
X173990000Y-79561464D01*
X173990000Y-79561464D02*
X174207714Y-79634035D01*
X174207714Y-79634035D02*
X174352857Y-79779178D01*
X174352857Y-79779178D02*
X174425428Y-79924321D01*
X174425428Y-79924321D02*
X174498000Y-80214607D01*
X174498000Y-80214607D02*
X174498000Y-80432321D01*
X174498000Y-80432321D02*
X174425428Y-80722607D01*
X174425428Y-80722607D02*
X174352857Y-80867750D01*
X174352857Y-80867750D02*
X174207714Y-81012893D01*
X174207714Y-81012893D02*
X173990000Y-81085464D01*
X173990000Y-81085464D02*
X173627143Y-81085464D01*
X175078571Y-79706607D02*
X175151143Y-79634035D01*
X175151143Y-79634035D02*
X175296286Y-79561464D01*
X175296286Y-79561464D02*
X175659143Y-79561464D01*
X175659143Y-79561464D02*
X175804286Y-79634035D01*
X175804286Y-79634035D02*
X175876857Y-79706607D01*
X175876857Y-79706607D02*
X175949428Y-79851750D01*
X175949428Y-79851750D02*
X175949428Y-79996893D01*
X175949428Y-79996893D02*
X175876857Y-80214607D01*
X175876857Y-80214607D02*
X175006000Y-81085464D01*
X175006000Y-81085464D02*
X175949428Y-81085464D01*
X173627143Y-75878464D02*
X173627143Y-74354464D01*
X173627143Y-74354464D02*
X173990000Y-74354464D01*
X173990000Y-74354464D02*
X174207714Y-74427035D01*
X174207714Y-74427035D02*
X174352857Y-74572178D01*
X174352857Y-74572178D02*
X174425428Y-74717321D01*
X174425428Y-74717321D02*
X174498000Y-75007607D01*
X174498000Y-75007607D02*
X174498000Y-75225321D01*
X174498000Y-75225321D02*
X174425428Y-75515607D01*
X174425428Y-75515607D02*
X174352857Y-75660750D01*
X174352857Y-75660750D02*
X174207714Y-75805893D01*
X174207714Y-75805893D02*
X173990000Y-75878464D01*
X173990000Y-75878464D02*
X173627143Y-75878464D01*
X175949428Y-75878464D02*
X175078571Y-75878464D01*
X175514000Y-75878464D02*
X175514000Y-74354464D01*
X175514000Y-74354464D02*
X175368857Y-74572178D01*
X175368857Y-74572178D02*
X175223714Y-74717321D01*
X175223714Y-74717321D02*
X175078571Y-74789893D01*
X173500143Y-96325464D02*
X173500143Y-94801464D01*
X173500143Y-94801464D02*
X173863000Y-94801464D01*
X173863000Y-94801464D02*
X174080714Y-94874035D01*
X174080714Y-94874035D02*
X174225857Y-95019178D01*
X174225857Y-95019178D02*
X174298428Y-95164321D01*
X174298428Y-95164321D02*
X174371000Y-95454607D01*
X174371000Y-95454607D02*
X174371000Y-95672321D01*
X174371000Y-95672321D02*
X174298428Y-95962607D01*
X174298428Y-95962607D02*
X174225857Y-96107750D01*
X174225857Y-96107750D02*
X174080714Y-96252893D01*
X174080714Y-96252893D02*
X173863000Y-96325464D01*
X173863000Y-96325464D02*
X173500143Y-96325464D01*
X175749857Y-94801464D02*
X175024143Y-94801464D01*
X175024143Y-94801464D02*
X174951571Y-95527178D01*
X174951571Y-95527178D02*
X175024143Y-95454607D01*
X175024143Y-95454607D02*
X175169286Y-95382035D01*
X175169286Y-95382035D02*
X175532143Y-95382035D01*
X175532143Y-95382035D02*
X175677286Y-95454607D01*
X175677286Y-95454607D02*
X175749857Y-95527178D01*
X175749857Y-95527178D02*
X175822428Y-95672321D01*
X175822428Y-95672321D02*
X175822428Y-96035178D01*
X175822428Y-96035178D02*
X175749857Y-96180321D01*
X175749857Y-96180321D02*
X175677286Y-96252893D01*
X175677286Y-96252893D02*
X175532143Y-96325464D01*
X175532143Y-96325464D02*
X175169286Y-96325464D01*
X175169286Y-96325464D02*
X175024143Y-96252893D01*
X175024143Y-96252893D02*
X174951571Y-96180321D01*
X161652857Y-87308464D02*
X161652857Y-88542178D01*
X161652857Y-88542178D02*
X161725428Y-88687321D01*
X161725428Y-88687321D02*
X161798000Y-88759893D01*
X161798000Y-88759893D02*
X161943142Y-88832464D01*
X161943142Y-88832464D02*
X162233428Y-88832464D01*
X162233428Y-88832464D02*
X162378571Y-88759893D01*
X162378571Y-88759893D02*
X162451142Y-88687321D01*
X162451142Y-88687321D02*
X162523714Y-88542178D01*
X162523714Y-88542178D02*
X162523714Y-87308464D01*
X164047713Y-88832464D02*
X163176856Y-88832464D01*
X163612285Y-88832464D02*
X163612285Y-87308464D01*
X163612285Y-87308464D02*
X163467142Y-87526178D01*
X163467142Y-87526178D02*
X163321999Y-87671321D01*
X163321999Y-87671321D02*
X163176856Y-87743893D01*
X159566428Y-81720464D02*
X159566428Y-80196464D01*
X159566428Y-80196464D02*
X159929285Y-80196464D01*
X159929285Y-80196464D02*
X160146999Y-80269035D01*
X160146999Y-80269035D02*
X160292142Y-80414178D01*
X160292142Y-80414178D02*
X160364713Y-80559321D01*
X160364713Y-80559321D02*
X160437285Y-80849607D01*
X160437285Y-80849607D02*
X160437285Y-81067321D01*
X160437285Y-81067321D02*
X160364713Y-81357607D01*
X160364713Y-81357607D02*
X160292142Y-81502750D01*
X160292142Y-81502750D02*
X160146999Y-81647893D01*
X160146999Y-81647893D02*
X159929285Y-81720464D01*
X159929285Y-81720464D02*
X159566428Y-81720464D01*
X161888713Y-81720464D02*
X161017856Y-81720464D01*
X161453285Y-81720464D02*
X161453285Y-80196464D01*
X161453285Y-80196464D02*
X161308142Y-80414178D01*
X161308142Y-80414178D02*
X161162999Y-80559321D01*
X161162999Y-80559321D02*
X161017856Y-80631893D01*
X163340142Y-81720464D02*
X162469285Y-81720464D01*
X162904714Y-81720464D02*
X162904714Y-80196464D01*
X162904714Y-80196464D02*
X162759571Y-80414178D01*
X162759571Y-80414178D02*
X162614428Y-80559321D01*
X162614428Y-80559321D02*
X162469285Y-80631893D01*
X175641000Y-71052464D02*
X175133000Y-70326750D01*
X174770143Y-71052464D02*
X174770143Y-69528464D01*
X174770143Y-69528464D02*
X175350714Y-69528464D01*
X175350714Y-69528464D02*
X175495857Y-69601035D01*
X175495857Y-69601035D02*
X175568428Y-69673607D01*
X175568428Y-69673607D02*
X175641000Y-69818750D01*
X175641000Y-69818750D02*
X175641000Y-70036464D01*
X175641000Y-70036464D02*
X175568428Y-70181607D01*
X175568428Y-70181607D02*
X175495857Y-70254178D01*
X175495857Y-70254178D02*
X175350714Y-70326750D01*
X175350714Y-70326750D02*
X174770143Y-70326750D01*
X176221571Y-69673607D02*
X176294143Y-69601035D01*
X176294143Y-69601035D02*
X176439286Y-69528464D01*
X176439286Y-69528464D02*
X176802143Y-69528464D01*
X176802143Y-69528464D02*
X176947286Y-69601035D01*
X176947286Y-69601035D02*
X177019857Y-69673607D01*
X177019857Y-69673607D02*
X177092428Y-69818750D01*
X177092428Y-69818750D02*
X177092428Y-69963893D01*
X177092428Y-69963893D02*
X177019857Y-70181607D01*
X177019857Y-70181607D02*
X176149000Y-71052464D01*
X176149000Y-71052464D02*
X177092428Y-71052464D01*
X173500143Y-101532464D02*
X173500143Y-100008464D01*
X173500143Y-100008464D02*
X173863000Y-100008464D01*
X173863000Y-100008464D02*
X174080714Y-100081035D01*
X174080714Y-100081035D02*
X174225857Y-100226178D01*
X174225857Y-100226178D02*
X174298428Y-100371321D01*
X174298428Y-100371321D02*
X174371000Y-100661607D01*
X174371000Y-100661607D02*
X174371000Y-100879321D01*
X174371000Y-100879321D02*
X174298428Y-101169607D01*
X174298428Y-101169607D02*
X174225857Y-101314750D01*
X174225857Y-101314750D02*
X174080714Y-101459893D01*
X174080714Y-101459893D02*
X173863000Y-101532464D01*
X173863000Y-101532464D02*
X173500143Y-101532464D01*
X175677286Y-100008464D02*
X175387000Y-100008464D01*
X175387000Y-100008464D02*
X175241857Y-100081035D01*
X175241857Y-100081035D02*
X175169286Y-100153607D01*
X175169286Y-100153607D02*
X175024143Y-100371321D01*
X175024143Y-100371321D02*
X174951571Y-100661607D01*
X174951571Y-100661607D02*
X174951571Y-101242178D01*
X174951571Y-101242178D02*
X175024143Y-101387321D01*
X175024143Y-101387321D02*
X175096714Y-101459893D01*
X175096714Y-101459893D02*
X175241857Y-101532464D01*
X175241857Y-101532464D02*
X175532143Y-101532464D01*
X175532143Y-101532464D02*
X175677286Y-101459893D01*
X175677286Y-101459893D02*
X175749857Y-101387321D01*
X175749857Y-101387321D02*
X175822428Y-101242178D01*
X175822428Y-101242178D02*
X175822428Y-100879321D01*
X175822428Y-100879321D02*
X175749857Y-100734178D01*
X175749857Y-100734178D02*
X175677286Y-100661607D01*
X175677286Y-100661607D02*
X175532143Y-100589035D01*
X175532143Y-100589035D02*
X175241857Y-100589035D01*
X175241857Y-100589035D02*
X175096714Y-100661607D01*
X175096714Y-100661607D02*
X175024143Y-100734178D01*
X175024143Y-100734178D02*
X174951571Y-100879321D01*
X167386000Y-76005464D02*
X166878000Y-75279750D01*
X166515143Y-76005464D02*
X166515143Y-74481464D01*
X166515143Y-74481464D02*
X167095714Y-74481464D01*
X167095714Y-74481464D02*
X167240857Y-74554035D01*
X167240857Y-74554035D02*
X167313428Y-74626607D01*
X167313428Y-74626607D02*
X167386000Y-74771750D01*
X167386000Y-74771750D02*
X167386000Y-74989464D01*
X167386000Y-74989464D02*
X167313428Y-75134607D01*
X167313428Y-75134607D02*
X167240857Y-75207178D01*
X167240857Y-75207178D02*
X167095714Y-75279750D01*
X167095714Y-75279750D02*
X166515143Y-75279750D01*
X168764857Y-74481464D02*
X168039143Y-74481464D01*
X168039143Y-74481464D02*
X167966571Y-75207178D01*
X167966571Y-75207178D02*
X168039143Y-75134607D01*
X168039143Y-75134607D02*
X168184286Y-75062035D01*
X168184286Y-75062035D02*
X168547143Y-75062035D01*
X168547143Y-75062035D02*
X168692286Y-75134607D01*
X168692286Y-75134607D02*
X168764857Y-75207178D01*
X168764857Y-75207178D02*
X168837428Y-75352321D01*
X168837428Y-75352321D02*
X168837428Y-75715178D01*
X168837428Y-75715178D02*
X168764857Y-75860321D01*
X168764857Y-75860321D02*
X168692286Y-75932893D01*
X168692286Y-75932893D02*
X168547143Y-76005464D01*
X168547143Y-76005464D02*
X168184286Y-76005464D01*
X168184286Y-76005464D02*
X168039143Y-75932893D01*
X168039143Y-75932893D02*
X167966571Y-75860321D01*
X166660285Y-111904464D02*
X166152285Y-111178750D01*
X165789428Y-111904464D02*
X165789428Y-110380464D01*
X165789428Y-110380464D02*
X166369999Y-110380464D01*
X166369999Y-110380464D02*
X166515142Y-110453035D01*
X166515142Y-110453035D02*
X166587713Y-110525607D01*
X166587713Y-110525607D02*
X166660285Y-110670750D01*
X166660285Y-110670750D02*
X166660285Y-110888464D01*
X166660285Y-110888464D02*
X166587713Y-111033607D01*
X166587713Y-111033607D02*
X166515142Y-111106178D01*
X166515142Y-111106178D02*
X166369999Y-111178750D01*
X166369999Y-111178750D02*
X165789428Y-111178750D01*
X168111713Y-111904464D02*
X167240856Y-111904464D01*
X167676285Y-111904464D02*
X167676285Y-110380464D01*
X167676285Y-110380464D02*
X167531142Y-110598178D01*
X167531142Y-110598178D02*
X167385999Y-110743321D01*
X167385999Y-110743321D02*
X167240856Y-110815893D01*
X168692285Y-110525607D02*
X168764857Y-110453035D01*
X168764857Y-110453035D02*
X168910000Y-110380464D01*
X168910000Y-110380464D02*
X169272857Y-110380464D01*
X169272857Y-110380464D02*
X169418000Y-110453035D01*
X169418000Y-110453035D02*
X169490571Y-110525607D01*
X169490571Y-110525607D02*
X169563142Y-110670750D01*
X169563142Y-110670750D02*
X169563142Y-110815893D01*
X169563142Y-110815893D02*
X169490571Y-111033607D01*
X169490571Y-111033607D02*
X168619714Y-111904464D01*
X168619714Y-111904464D02*
X169563142Y-111904464D01*
X156355143Y-59749464D02*
X156355143Y-58225464D01*
X156355143Y-58225464D02*
X156718000Y-58225464D01*
X156718000Y-58225464D02*
X156935714Y-58298035D01*
X156935714Y-58298035D02*
X157080857Y-58443178D01*
X157080857Y-58443178D02*
X157153428Y-58588321D01*
X157153428Y-58588321D02*
X157226000Y-58878607D01*
X157226000Y-58878607D02*
X157226000Y-59096321D01*
X157226000Y-59096321D02*
X157153428Y-59386607D01*
X157153428Y-59386607D02*
X157080857Y-59531750D01*
X157080857Y-59531750D02*
X156935714Y-59676893D01*
X156935714Y-59676893D02*
X156718000Y-59749464D01*
X156718000Y-59749464D02*
X156355143Y-59749464D01*
X157951714Y-59749464D02*
X158242000Y-59749464D01*
X158242000Y-59749464D02*
X158387143Y-59676893D01*
X158387143Y-59676893D02*
X158459714Y-59604321D01*
X158459714Y-59604321D02*
X158604857Y-59386607D01*
X158604857Y-59386607D02*
X158677428Y-59096321D01*
X158677428Y-59096321D02*
X158677428Y-58515750D01*
X158677428Y-58515750D02*
X158604857Y-58370607D01*
X158604857Y-58370607D02*
X158532286Y-58298035D01*
X158532286Y-58298035D02*
X158387143Y-58225464D01*
X158387143Y-58225464D02*
X158096857Y-58225464D01*
X158096857Y-58225464D02*
X157951714Y-58298035D01*
X157951714Y-58298035D02*
X157879143Y-58370607D01*
X157879143Y-58370607D02*
X157806571Y-58515750D01*
X157806571Y-58515750D02*
X157806571Y-58878607D01*
X157806571Y-58878607D02*
X157879143Y-59023750D01*
X157879143Y-59023750D02*
X157951714Y-59096321D01*
X157951714Y-59096321D02*
X158096857Y-59168893D01*
X158096857Y-59168893D02*
X158387143Y-59168893D01*
X158387143Y-59168893D02*
X158532286Y-59096321D01*
X158532286Y-59096321D02*
X158604857Y-59023750D01*
X158604857Y-59023750D02*
X158677428Y-58878607D01*
X173627143Y-111692464D02*
X173627143Y-110168464D01*
X173627143Y-110168464D02*
X173990000Y-110168464D01*
X173990000Y-110168464D02*
X174207714Y-110241035D01*
X174207714Y-110241035D02*
X174352857Y-110386178D01*
X174352857Y-110386178D02*
X174425428Y-110531321D01*
X174425428Y-110531321D02*
X174498000Y-110821607D01*
X174498000Y-110821607D02*
X174498000Y-111039321D01*
X174498000Y-111039321D02*
X174425428Y-111329607D01*
X174425428Y-111329607D02*
X174352857Y-111474750D01*
X174352857Y-111474750D02*
X174207714Y-111619893D01*
X174207714Y-111619893D02*
X173990000Y-111692464D01*
X173990000Y-111692464D02*
X173627143Y-111692464D01*
X175368857Y-110821607D02*
X175223714Y-110749035D01*
X175223714Y-110749035D02*
X175151143Y-110676464D01*
X175151143Y-110676464D02*
X175078571Y-110531321D01*
X175078571Y-110531321D02*
X175078571Y-110458750D01*
X175078571Y-110458750D02*
X175151143Y-110313607D01*
X175151143Y-110313607D02*
X175223714Y-110241035D01*
X175223714Y-110241035D02*
X175368857Y-110168464D01*
X175368857Y-110168464D02*
X175659143Y-110168464D01*
X175659143Y-110168464D02*
X175804286Y-110241035D01*
X175804286Y-110241035D02*
X175876857Y-110313607D01*
X175876857Y-110313607D02*
X175949428Y-110458750D01*
X175949428Y-110458750D02*
X175949428Y-110531321D01*
X175949428Y-110531321D02*
X175876857Y-110676464D01*
X175876857Y-110676464D02*
X175804286Y-110749035D01*
X175804286Y-110749035D02*
X175659143Y-110821607D01*
X175659143Y-110821607D02*
X175368857Y-110821607D01*
X175368857Y-110821607D02*
X175223714Y-110894178D01*
X175223714Y-110894178D02*
X175151143Y-110966750D01*
X175151143Y-110966750D02*
X175078571Y-111111893D01*
X175078571Y-111111893D02*
X175078571Y-111402178D01*
X175078571Y-111402178D02*
X175151143Y-111547321D01*
X175151143Y-111547321D02*
X175223714Y-111619893D01*
X175223714Y-111619893D02*
X175368857Y-111692464D01*
X175368857Y-111692464D02*
X175659143Y-111692464D01*
X175659143Y-111692464D02*
X175804286Y-111619893D01*
X175804286Y-111619893D02*
X175876857Y-111547321D01*
X175876857Y-111547321D02*
X175949428Y-111402178D01*
X175949428Y-111402178D02*
X175949428Y-111111893D01*
X175949428Y-111111893D02*
X175876857Y-110966750D01*
X175876857Y-110966750D02*
X175804286Y-110894178D01*
X175804286Y-110894178D02*
X175659143Y-110821607D01*
X173627143Y-91372464D02*
X173627143Y-89848464D01*
X173627143Y-89848464D02*
X173990000Y-89848464D01*
X173990000Y-89848464D02*
X174207714Y-89921035D01*
X174207714Y-89921035D02*
X174352857Y-90066178D01*
X174352857Y-90066178D02*
X174425428Y-90211321D01*
X174425428Y-90211321D02*
X174498000Y-90501607D01*
X174498000Y-90501607D02*
X174498000Y-90719321D01*
X174498000Y-90719321D02*
X174425428Y-91009607D01*
X174425428Y-91009607D02*
X174352857Y-91154750D01*
X174352857Y-91154750D02*
X174207714Y-91299893D01*
X174207714Y-91299893D02*
X173990000Y-91372464D01*
X173990000Y-91372464D02*
X173627143Y-91372464D01*
X175804286Y-90356464D02*
X175804286Y-91372464D01*
X175441428Y-89775893D02*
X175078571Y-90864464D01*
X175078571Y-90864464D02*
X176022000Y-90864464D01*
X167386000Y-96664464D02*
X166878000Y-95938750D01*
X166515143Y-96664464D02*
X166515143Y-95140464D01*
X166515143Y-95140464D02*
X167095714Y-95140464D01*
X167095714Y-95140464D02*
X167240857Y-95213035D01*
X167240857Y-95213035D02*
X167313428Y-95285607D01*
X167313428Y-95285607D02*
X167386000Y-95430750D01*
X167386000Y-95430750D02*
X167386000Y-95648464D01*
X167386000Y-95648464D02*
X167313428Y-95793607D01*
X167313428Y-95793607D02*
X167240857Y-95866178D01*
X167240857Y-95866178D02*
X167095714Y-95938750D01*
X167095714Y-95938750D02*
X166515143Y-95938750D01*
X168111714Y-96664464D02*
X168402000Y-96664464D01*
X168402000Y-96664464D02*
X168547143Y-96591893D01*
X168547143Y-96591893D02*
X168619714Y-96519321D01*
X168619714Y-96519321D02*
X168764857Y-96301607D01*
X168764857Y-96301607D02*
X168837428Y-96011321D01*
X168837428Y-96011321D02*
X168837428Y-95430750D01*
X168837428Y-95430750D02*
X168764857Y-95285607D01*
X168764857Y-95285607D02*
X168692286Y-95213035D01*
X168692286Y-95213035D02*
X168547143Y-95140464D01*
X168547143Y-95140464D02*
X168256857Y-95140464D01*
X168256857Y-95140464D02*
X168111714Y-95213035D01*
X168111714Y-95213035D02*
X168039143Y-95285607D01*
X168039143Y-95285607D02*
X167966571Y-95430750D01*
X167966571Y-95430750D02*
X167966571Y-95793607D01*
X167966571Y-95793607D02*
X168039143Y-95938750D01*
X168039143Y-95938750D02*
X168111714Y-96011321D01*
X168111714Y-96011321D02*
X168256857Y-96083893D01*
X168256857Y-96083893D02*
X168547143Y-96083893D01*
X168547143Y-96083893D02*
X168692286Y-96011321D01*
X168692286Y-96011321D02*
X168764857Y-95938750D01*
X168764857Y-95938750D02*
X168837428Y-95793607D01*
X155956000Y-81720464D02*
X155448000Y-80994750D01*
X155085143Y-81720464D02*
X155085143Y-80196464D01*
X155085143Y-80196464D02*
X155665714Y-80196464D01*
X155665714Y-80196464D02*
X155810857Y-80269035D01*
X155810857Y-80269035D02*
X155883428Y-80341607D01*
X155883428Y-80341607D02*
X155956000Y-80486750D01*
X155956000Y-80486750D02*
X155956000Y-80704464D01*
X155956000Y-80704464D02*
X155883428Y-80849607D01*
X155883428Y-80849607D02*
X155810857Y-80922178D01*
X155810857Y-80922178D02*
X155665714Y-80994750D01*
X155665714Y-80994750D02*
X155085143Y-80994750D01*
X156464000Y-80196464D02*
X157407428Y-80196464D01*
X157407428Y-80196464D02*
X156899428Y-80777035D01*
X156899428Y-80777035D02*
X157117143Y-80777035D01*
X157117143Y-80777035D02*
X157262286Y-80849607D01*
X157262286Y-80849607D02*
X157334857Y-80922178D01*
X157334857Y-80922178D02*
X157407428Y-81067321D01*
X157407428Y-81067321D02*
X157407428Y-81430178D01*
X157407428Y-81430178D02*
X157334857Y-81575321D01*
X157334857Y-81575321D02*
X157262286Y-81647893D01*
X157262286Y-81647893D02*
X157117143Y-81720464D01*
X157117143Y-81720464D02*
X156681714Y-81720464D01*
X156681714Y-81720464D02*
X156536571Y-81647893D01*
X156536571Y-81647893D02*
X156464000Y-81575321D01*
X173754143Y-106612464D02*
X173754143Y-105088464D01*
X173754143Y-105088464D02*
X174117000Y-105088464D01*
X174117000Y-105088464D02*
X174334714Y-105161035D01*
X174334714Y-105161035D02*
X174479857Y-105306178D01*
X174479857Y-105306178D02*
X174552428Y-105451321D01*
X174552428Y-105451321D02*
X174625000Y-105741607D01*
X174625000Y-105741607D02*
X174625000Y-105959321D01*
X174625000Y-105959321D02*
X174552428Y-106249607D01*
X174552428Y-106249607D02*
X174479857Y-106394750D01*
X174479857Y-106394750D02*
X174334714Y-106539893D01*
X174334714Y-106539893D02*
X174117000Y-106612464D01*
X174117000Y-106612464D02*
X173754143Y-106612464D01*
X175133000Y-105088464D02*
X176149000Y-105088464D01*
X176149000Y-105088464D02*
X175495857Y-106612464D01*
X167513000Y-71179464D02*
X167005000Y-70453750D01*
X166642143Y-71179464D02*
X166642143Y-69655464D01*
X166642143Y-69655464D02*
X167222714Y-69655464D01*
X167222714Y-69655464D02*
X167367857Y-69728035D01*
X167367857Y-69728035D02*
X167440428Y-69800607D01*
X167440428Y-69800607D02*
X167513000Y-69945750D01*
X167513000Y-69945750D02*
X167513000Y-70163464D01*
X167513000Y-70163464D02*
X167440428Y-70308607D01*
X167440428Y-70308607D02*
X167367857Y-70381178D01*
X167367857Y-70381178D02*
X167222714Y-70453750D01*
X167222714Y-70453750D02*
X166642143Y-70453750D01*
X168819286Y-70163464D02*
X168819286Y-71179464D01*
X168456428Y-69582893D02*
X168093571Y-70671464D01*
X168093571Y-70671464D02*
X169037000Y-70671464D01*
X167386000Y-91584464D02*
X166878000Y-90858750D01*
X166515143Y-91584464D02*
X166515143Y-90060464D01*
X166515143Y-90060464D02*
X167095714Y-90060464D01*
X167095714Y-90060464D02*
X167240857Y-90133035D01*
X167240857Y-90133035D02*
X167313428Y-90205607D01*
X167313428Y-90205607D02*
X167386000Y-90350750D01*
X167386000Y-90350750D02*
X167386000Y-90568464D01*
X167386000Y-90568464D02*
X167313428Y-90713607D01*
X167313428Y-90713607D02*
X167240857Y-90786178D01*
X167240857Y-90786178D02*
X167095714Y-90858750D01*
X167095714Y-90858750D02*
X166515143Y-90858750D01*
X168256857Y-90713607D02*
X168111714Y-90641035D01*
X168111714Y-90641035D02*
X168039143Y-90568464D01*
X168039143Y-90568464D02*
X167966571Y-90423321D01*
X167966571Y-90423321D02*
X167966571Y-90350750D01*
X167966571Y-90350750D02*
X168039143Y-90205607D01*
X168039143Y-90205607D02*
X168111714Y-90133035D01*
X168111714Y-90133035D02*
X168256857Y-90060464D01*
X168256857Y-90060464D02*
X168547143Y-90060464D01*
X168547143Y-90060464D02*
X168692286Y-90133035D01*
X168692286Y-90133035D02*
X168764857Y-90205607D01*
X168764857Y-90205607D02*
X168837428Y-90350750D01*
X168837428Y-90350750D02*
X168837428Y-90423321D01*
X168837428Y-90423321D02*
X168764857Y-90568464D01*
X168764857Y-90568464D02*
X168692286Y-90641035D01*
X168692286Y-90641035D02*
X168547143Y-90713607D01*
X168547143Y-90713607D02*
X168256857Y-90713607D01*
X168256857Y-90713607D02*
X168111714Y-90786178D01*
X168111714Y-90786178D02*
X168039143Y-90858750D01*
X168039143Y-90858750D02*
X167966571Y-91003893D01*
X167966571Y-91003893D02*
X167966571Y-91294178D01*
X167966571Y-91294178D02*
X168039143Y-91439321D01*
X168039143Y-91439321D02*
X168111714Y-91511893D01*
X168111714Y-91511893D02*
X168256857Y-91584464D01*
X168256857Y-91584464D02*
X168547143Y-91584464D01*
X168547143Y-91584464D02*
X168692286Y-91511893D01*
X168692286Y-91511893D02*
X168764857Y-91439321D01*
X168764857Y-91439321D02*
X168837428Y-91294178D01*
X168837428Y-91294178D02*
X168837428Y-91003893D01*
X168837428Y-91003893D02*
X168764857Y-90858750D01*
X168764857Y-90858750D02*
X168692286Y-90786178D01*
X168692286Y-90786178D02*
X168547143Y-90713607D01*
X170869428Y-59114464D02*
X170869428Y-57590464D01*
X170869428Y-57590464D02*
X171232285Y-57590464D01*
X171232285Y-57590464D02*
X171449999Y-57663035D01*
X171449999Y-57663035D02*
X171595142Y-57808178D01*
X171595142Y-57808178D02*
X171667713Y-57953321D01*
X171667713Y-57953321D02*
X171740285Y-58243607D01*
X171740285Y-58243607D02*
X171740285Y-58461321D01*
X171740285Y-58461321D02*
X171667713Y-58751607D01*
X171667713Y-58751607D02*
X171595142Y-58896750D01*
X171595142Y-58896750D02*
X171449999Y-59041893D01*
X171449999Y-59041893D02*
X171232285Y-59114464D01*
X171232285Y-59114464D02*
X170869428Y-59114464D01*
X173191713Y-59114464D02*
X172320856Y-59114464D01*
X172756285Y-59114464D02*
X172756285Y-57590464D01*
X172756285Y-57590464D02*
X172611142Y-57808178D01*
X172611142Y-57808178D02*
X172465999Y-57953321D01*
X172465999Y-57953321D02*
X172320856Y-58025893D01*
X174135142Y-57590464D02*
X174280285Y-57590464D01*
X174280285Y-57590464D02*
X174425428Y-57663035D01*
X174425428Y-57663035D02*
X174498000Y-57735607D01*
X174498000Y-57735607D02*
X174570571Y-57880750D01*
X174570571Y-57880750D02*
X174643142Y-58171035D01*
X174643142Y-58171035D02*
X174643142Y-58533893D01*
X174643142Y-58533893D02*
X174570571Y-58824178D01*
X174570571Y-58824178D02*
X174498000Y-58969321D01*
X174498000Y-58969321D02*
X174425428Y-59041893D01*
X174425428Y-59041893D02*
X174280285Y-59114464D01*
X174280285Y-59114464D02*
X174135142Y-59114464D01*
X174135142Y-59114464D02*
X173990000Y-59041893D01*
X173990000Y-59041893D02*
X173917428Y-58969321D01*
X173917428Y-58969321D02*
X173844857Y-58824178D01*
X173844857Y-58824178D02*
X173772285Y-58533893D01*
X173772285Y-58533893D02*
X173772285Y-58171035D01*
X173772285Y-58171035D02*
X173844857Y-57880750D01*
X173844857Y-57880750D02*
X173917428Y-57735607D01*
X173917428Y-57735607D02*
X173990000Y-57663035D01*
X173990000Y-57663035D02*
X174135142Y-57590464D01*
X173500143Y-86165464D02*
X173500143Y-84641464D01*
X173500143Y-84641464D02*
X173863000Y-84641464D01*
X173863000Y-84641464D02*
X174080714Y-84714035D01*
X174080714Y-84714035D02*
X174225857Y-84859178D01*
X174225857Y-84859178D02*
X174298428Y-85004321D01*
X174298428Y-85004321D02*
X174371000Y-85294607D01*
X174371000Y-85294607D02*
X174371000Y-85512321D01*
X174371000Y-85512321D02*
X174298428Y-85802607D01*
X174298428Y-85802607D02*
X174225857Y-85947750D01*
X174225857Y-85947750D02*
X174080714Y-86092893D01*
X174080714Y-86092893D02*
X173863000Y-86165464D01*
X173863000Y-86165464D02*
X173500143Y-86165464D01*
X174879000Y-84641464D02*
X175822428Y-84641464D01*
X175822428Y-84641464D02*
X175314428Y-85222035D01*
X175314428Y-85222035D02*
X175532143Y-85222035D01*
X175532143Y-85222035D02*
X175677286Y-85294607D01*
X175677286Y-85294607D02*
X175749857Y-85367178D01*
X175749857Y-85367178D02*
X175822428Y-85512321D01*
X175822428Y-85512321D02*
X175822428Y-85875178D01*
X175822428Y-85875178D02*
X175749857Y-86020321D01*
X175749857Y-86020321D02*
X175677286Y-86092893D01*
X175677286Y-86092893D02*
X175532143Y-86165464D01*
X175532143Y-86165464D02*
X175096714Y-86165464D01*
X175096714Y-86165464D02*
X174951571Y-86092893D01*
X174951571Y-86092893D02*
X174879000Y-86020321D01*
X166660285Y-106824464D02*
X166152285Y-106098750D01*
X165789428Y-106824464D02*
X165789428Y-105300464D01*
X165789428Y-105300464D02*
X166369999Y-105300464D01*
X166369999Y-105300464D02*
X166515142Y-105373035D01*
X166515142Y-105373035D02*
X166587713Y-105445607D01*
X166587713Y-105445607D02*
X166660285Y-105590750D01*
X166660285Y-105590750D02*
X166660285Y-105808464D01*
X166660285Y-105808464D02*
X166587713Y-105953607D01*
X166587713Y-105953607D02*
X166515142Y-106026178D01*
X166515142Y-106026178D02*
X166369999Y-106098750D01*
X166369999Y-106098750D02*
X165789428Y-106098750D01*
X168111713Y-106824464D02*
X167240856Y-106824464D01*
X167676285Y-106824464D02*
X167676285Y-105300464D01*
X167676285Y-105300464D02*
X167531142Y-105518178D01*
X167531142Y-105518178D02*
X167385999Y-105663321D01*
X167385999Y-105663321D02*
X167240856Y-105735893D01*
X169563142Y-106824464D02*
X168692285Y-106824464D01*
X169127714Y-106824464D02*
X169127714Y-105300464D01*
X169127714Y-105300464D02*
X168982571Y-105518178D01*
X168982571Y-105518178D02*
X168837428Y-105663321D01*
X168837428Y-105663321D02*
X168692285Y-105735893D01*
D15*
%TO.C,C1*%
X157988748Y-84190000D02*
X159411252Y-84190000D01*
X157988748Y-86010000D02*
X159411252Y-86010000D01*
%TO.C,R1*%
X155300000Y-71212064D02*
X155300000Y-69757936D01*
X157120000Y-71212064D02*
X157120000Y-69757936D01*
%TO.C,R7*%
X166912936Y-86720000D02*
X168367064Y-86720000D01*
X166912936Y-88540000D02*
X168367064Y-88540000D01*
%TO.C,TP2*%
X169105000Y-122555000D02*
G75*
G02*
X164905000Y-122555000I-2100000J0D01*
G01*
X164905000Y-122555000D02*
G75*
G02*
X169105000Y-122555000I2100000J0D01*
G01*
%TO.C,J1*%
X153990000Y-107330000D02*
X153990000Y-112530000D01*
X159130000Y-107330000D02*
X153990000Y-107330000D01*
X159130000Y-107330000D02*
X159130000Y-109930000D01*
X159130000Y-109930000D02*
X161730000Y-109930000D01*
X160400000Y-107330000D02*
X161730000Y-107330000D01*
X161730000Y-107330000D02*
X161730000Y-108660000D01*
X161730000Y-109930000D02*
X161730000Y-112530000D01*
X161730000Y-112530000D02*
X153990000Y-112530000D01*
%TO.C,R10*%
X166912936Y-101960000D02*
X168367064Y-101960000D01*
X166912936Y-103780000D02*
X168367064Y-103780000D01*
D11*
%TO.C,SW1*%
X156768800Y-120249350D02*
X160832800Y-120249350D01*
X156768800Y-126091350D02*
X156768800Y-120249350D01*
X160832800Y-120249350D02*
X160832800Y-126091350D01*
X160832800Y-126091350D02*
X156768800Y-126091350D01*
X159716610Y-123043350D02*
G75*
G02*
X157884990Y-123043350I-915810J0D01*
G01*
X157884990Y-123043350D02*
G75*
G02*
X159716610Y-123043350I915810J0D01*
G01*
D15*
%TO.C,R6*%
X166912936Y-81640000D02*
X168367064Y-81640000D01*
X166912936Y-83460000D02*
X168367064Y-83460000D01*
%TO.C,D2*%
X173025000Y-83685000D02*
X177085000Y-83685000D01*
X177085000Y-81415000D02*
X173025000Y-81415000D01*
X177085000Y-83685000D02*
X177085000Y-81415000D01*
%TO.C,TP1*%
X167200000Y-59055000D02*
G75*
G02*
X163000000Y-59055000I-2100000J0D01*
G01*
X163000000Y-59055000D02*
G75*
G02*
X167200000Y-59055000I2100000J0D01*
G01*
%TO.C,D1*%
X173025000Y-78605000D02*
X177085000Y-78605000D01*
X177085000Y-76335000D02*
X173025000Y-76335000D01*
X177085000Y-78605000D02*
X177085000Y-76335000D01*
%TO.C,D5*%
X173025000Y-98925000D02*
X177085000Y-98925000D01*
X177085000Y-96655000D02*
X173025000Y-96655000D01*
X177085000Y-98925000D02*
X177085000Y-96655000D01*
%TO.C,U1*%
X158815000Y-89545000D02*
X155365000Y-89545000D01*
X158815000Y-89545000D02*
X160765000Y-89545000D01*
X158815000Y-98415000D02*
X156865000Y-98415000D01*
X158815000Y-98415000D02*
X160765000Y-98415000D01*
%TO.C,D11*%
X160155000Y-75010000D02*
X160155000Y-79070000D01*
X162425000Y-75010000D02*
X160155000Y-75010000D01*
X162425000Y-79070000D02*
X162425000Y-75010000D01*
%TO.C,R2*%
X172445000Y-71212064D02*
X172445000Y-69757936D01*
X174265000Y-71212064D02*
X174265000Y-69757936D01*
%TO.C,D6*%
X173025000Y-104005000D02*
X177085000Y-104005000D01*
X177085000Y-101735000D02*
X173025000Y-101735000D01*
X177085000Y-104005000D02*
X177085000Y-101735000D01*
%TO.C,R5*%
X166912936Y-76560000D02*
X168367064Y-76560000D01*
X166912936Y-78380000D02*
X168367064Y-78380000D01*
%TO.C,R12*%
X166912936Y-112120000D02*
X168367064Y-112120000D01*
X166912936Y-113940000D02*
X168367064Y-113940000D01*
%TO.C,D9*%
X155480000Y-60480000D02*
X155880000Y-60480000D01*
X155480000Y-61600000D02*
X155480000Y-60480000D01*
X155880000Y-60480000D02*
X155880000Y-61600000D01*
X155880000Y-61600000D02*
X155480000Y-61600000D01*
X155880000Y-61600000D02*
X155880000Y-57740000D01*
X156170000Y-61600000D02*
X156170000Y-61600000D01*
X156170000Y-61600000D02*
X156170000Y-64270000D01*
X156170000Y-64270000D02*
X156170000Y-61600000D01*
X156170000Y-64270000D02*
X156170000Y-64270000D01*
X158710000Y-61600000D02*
X158710000Y-61600000D01*
X158710000Y-61600000D02*
X158710000Y-64270000D01*
X158710000Y-64270000D02*
X158710000Y-61600000D01*
X158710000Y-64270000D02*
X158710000Y-64270000D01*
X159000000Y-61600000D02*
X155880000Y-61600000D01*
X159000000Y-61600000D02*
X159000000Y-57740000D01*
X155880000Y-57740000D02*
G75*
G02*
X159000000Y-57740000I1560000J0D01*
G01*
%TO.C,D8*%
X173025000Y-114165000D02*
X177085000Y-114165000D01*
X177085000Y-111895000D02*
X173025000Y-111895000D01*
X177085000Y-114165000D02*
X177085000Y-111895000D01*
%TO.C,D4*%
X173025000Y-93845000D02*
X177085000Y-93845000D01*
X177085000Y-91575000D02*
X173025000Y-91575000D01*
X177085000Y-93845000D02*
X177085000Y-91575000D01*
%TO.C,R9*%
X166912936Y-96880000D02*
X168367064Y-96880000D01*
X166912936Y-98700000D02*
X168367064Y-98700000D01*
%TO.C,R3*%
X155300000Y-76742936D02*
X155300000Y-78197064D01*
X157120000Y-76742936D02*
X157120000Y-78197064D01*
%TO.C,D7*%
X173025000Y-109085000D02*
X177085000Y-109085000D01*
X177085000Y-106815000D02*
X173025000Y-106815000D01*
X177085000Y-109085000D02*
X177085000Y-106815000D01*
%TO.C,R4*%
X164190000Y-69757936D02*
X164190000Y-71212064D01*
X166010000Y-69757936D02*
X166010000Y-71212064D01*
%TO.C,R8*%
X166912936Y-91800000D02*
X168367064Y-91800000D01*
X166912936Y-93620000D02*
X168367064Y-93620000D01*
%TO.C,D10*%
X170740000Y-60190000D02*
X171140000Y-60190000D01*
X170740000Y-61310000D02*
X170740000Y-60190000D01*
X171140000Y-60190000D02*
X171140000Y-61310000D01*
X171140000Y-61310000D02*
X170740000Y-61310000D01*
X171140000Y-61310000D02*
X171140000Y-57450000D01*
X171430000Y-61310000D02*
X171430000Y-61310000D01*
X171430000Y-61310000D02*
X171430000Y-63980000D01*
X171430000Y-63980000D02*
X171430000Y-61310000D01*
X171430000Y-63980000D02*
X171430000Y-63980000D01*
X173970000Y-61310000D02*
X173970000Y-61310000D01*
X173970000Y-61310000D02*
X173970000Y-63980000D01*
X173970000Y-63980000D02*
X173970000Y-61310000D01*
X173970000Y-63980000D02*
X173970000Y-63980000D01*
X174260000Y-61310000D02*
X171140000Y-61310000D01*
X174260000Y-61310000D02*
X174260000Y-57450000D01*
X171140000Y-57450000D02*
G75*
G02*
X174260000Y-57450000I1560000J0D01*
G01*
%TO.C,D3*%
X173025000Y-88765000D02*
X177085000Y-88765000D01*
X177085000Y-86495000D02*
X173025000Y-86495000D01*
X177085000Y-88765000D02*
X177085000Y-86495000D01*
%TO.C,R11*%
X166912936Y-107040000D02*
X168367064Y-107040000D01*
X166912936Y-108860000D02*
X168367064Y-108860000D01*
%TD*%
D16*
%TO.C,SW1*%
X155498800Y-121011350D03*
X155498800Y-125507150D03*
X162001200Y-125507150D03*
X162001200Y-121011350D03*
%TD*%
D17*
%TO.C,BT1*%
X172720000Y-119634000D03*
X175260000Y-119634000D03*
D18*
X172720000Y-122682000D03*
X175260000Y-122682000D03*
X172720000Y-125730000D03*
X175260000Y-125730000D03*
%TD*%
M02*
