%TF.GenerationSoftware,KiCad,Pcbnew,7.0.8-7.0.8~ubuntu22.04.1*%
%TF.CreationDate,2023-11-16T08:05:36-05:00*%
%TF.ProjectId,avr-smt-44,6176722d-736d-4742-9d34-342e6b696361,1.0*%
%TF.SameCoordinates,Original*%
%TF.FileFunction,Copper,L1,Top*%
%TF.FilePolarity,Positive*%
%FSLAX46Y46*%
G04 Gerber Fmt 4.6, Leading zero omitted, Abs format (unit mm)*
G04 Created by KiCad (PCBNEW 7.0.8-7.0.8~ubuntu22.04.1) date 2023-11-16 08:05:36*
%MOMM*%
%LPD*%
G01*
G04 APERTURE LIST*
G04 Aperture macros list*
%AMRoundRect*
0 Rectangle with rounded corners*
0 $1 Rounding radius*
0 $2 $3 $4 $5 $6 $7 $8 $9 X,Y pos of 4 corners*
0 Add a 4 corners polygon primitive as box body*
4,1,4,$2,$3,$4,$5,$6,$7,$8,$9,$2,$3,0*
0 Add four circle primitives for the rounded corners*
1,1,$1+$1,$2,$3*
1,1,$1+$1,$4,$5*
1,1,$1+$1,$6,$7*
1,1,$1+$1,$8,$9*
0 Add four rect primitives between the rounded corners*
20,1,$1+$1,$2,$3,$4,$5,0*
20,1,$1+$1,$4,$5,$6,$7,0*
20,1,$1+$1,$6,$7,$8,$9,0*
20,1,$1+$1,$8,$9,$2,$3,0*%
G04 Aperture macros list end*
%TA.AperFunction,SMDPad,CuDef*%
%ADD10RoundRect,0.250000X-0.412500X-0.650000X0.412500X-0.650000X0.412500X0.650000X-0.412500X0.650000X0*%
%TD*%
%TA.AperFunction,SMDPad,CuDef*%
%ADD11RoundRect,0.250000X0.625000X-0.400000X0.625000X0.400000X-0.625000X0.400000X-0.625000X-0.400000X0*%
%TD*%
%TA.AperFunction,SMDPad,CuDef*%
%ADD12RoundRect,0.250000X-0.400000X-0.625000X0.400000X-0.625000X0.400000X0.625000X-0.400000X0.625000X0*%
%TD*%
%TA.AperFunction,ComponentPad*%
%ADD13C,3.600000*%
%TD*%
%TA.AperFunction,ComponentPad*%
%ADD14R,1.700000X1.700000*%
%TD*%
%TA.AperFunction,ComponentPad*%
%ADD15O,1.700000X1.700000*%
%TD*%
%TA.AperFunction,ComponentPad*%
%ADD16C,1.397000*%
%TD*%
%TA.AperFunction,SMDPad,CuDef*%
%ADD17RoundRect,0.250001X0.462499X0.624999X-0.462499X0.624999X-0.462499X-0.624999X0.462499X-0.624999X0*%
%TD*%
%TA.AperFunction,ComponentPad*%
%ADD18C,1.524000*%
%TD*%
%TA.AperFunction,ComponentPad*%
%ADD19C,2.286000*%
%TD*%
%TA.AperFunction,SMDPad,CuDef*%
%ADD20RoundRect,0.150000X-0.825000X-0.150000X0.825000X-0.150000X0.825000X0.150000X-0.825000X0.150000X0*%
%TD*%
%TA.AperFunction,SMDPad,CuDef*%
%ADD21RoundRect,0.250001X-0.624999X0.462499X-0.624999X-0.462499X0.624999X-0.462499X0.624999X0.462499X0*%
%TD*%
%TA.AperFunction,ComponentPad*%
%ADD22R,1.800000X1.800000*%
%TD*%
%TA.AperFunction,ComponentPad*%
%ADD23C,1.800000*%
%TD*%
%TA.AperFunction,SMDPad,CuDef*%
%ADD24RoundRect,0.250000X-0.625000X0.400000X-0.625000X-0.400000X0.625000X-0.400000X0.625000X0.400000X0*%
%TD*%
%TA.AperFunction,ViaPad*%
%ADD25C,0.508000*%
%TD*%
%TA.AperFunction,Conductor*%
%ADD26C,0.254000*%
%TD*%
G04 APERTURE END LIST*
D10*
%TO.P,C1,1*%
%TO.N,VCC*%
X157137500Y-85100000D03*
%TO.P,C1,2*%
%TO.N,GND*%
X160262500Y-85100000D03*
%TD*%
D11*
%TO.P,R1,1*%
%TO.N,VCC*%
X156210000Y-72035000D03*
%TO.P,R1,2*%
%TO.N,/MOSI*%
X156210000Y-68935000D03*
%TD*%
D12*
%TO.P,R7,1*%
%TO.N,Net-(U1-PA2)*%
X166090000Y-87630000D03*
%TO.P,R7,2*%
%TO.N,Net-(D3-A)*%
X169190000Y-87630000D03*
%TD*%
D13*
%TO.P,TP2,1,1*%
%TO.N,GND*%
X167005000Y-122555000D03*
%TD*%
D14*
%TO.P,J1,1,MISO*%
%TO.N,/MISO*%
X160400000Y-108660000D03*
D15*
%TO.P,J1,2,VCC*%
%TO.N,VCC*%
X160400000Y-111200000D03*
%TO.P,J1,3,SCK*%
%TO.N,/SCL*%
X157860000Y-108660000D03*
%TO.P,J1,4,MOSI*%
%TO.N,/MOSI*%
X157860000Y-111200000D03*
%TO.P,J1,5,~{RST}*%
%TO.N,/nRESET*%
X155320000Y-108660000D03*
%TO.P,J1,6,GND*%
%TO.N,GND*%
X155320000Y-111200000D03*
%TD*%
D12*
%TO.P,R10,1*%
%TO.N,Net-(U1-XTAL1{slash}PB0)*%
X166090000Y-102870000D03*
%TO.P,R10,2*%
%TO.N,Net-(D6-A)*%
X169190000Y-102870000D03*
%TD*%
D16*
%TO.P,SW1,1,1*%
%TO.N,/MISO*%
X155498800Y-121011350D03*
%TO.P,SW1,2,2*%
%TO.N,GND*%
X155498800Y-125507150D03*
%TO.P,SW1,3*%
%TO.N,N/C*%
X162001200Y-125507150D03*
%TO.P,SW1,4*%
X162001200Y-121011350D03*
%TD*%
D12*
%TO.P,R6,1*%
%TO.N,Net-(U1-PA1)*%
X166090000Y-82550000D03*
%TO.P,R6,2*%
%TO.N,Net-(D2-A)*%
X169190000Y-82550000D03*
%TD*%
D17*
%TO.P,D2,1,K*%
%TO.N,GND*%
X176112500Y-82550000D03*
%TO.P,D2,2,A*%
%TO.N,Net-(D2-A)*%
X173137500Y-82550000D03*
%TD*%
D13*
%TO.P,TP1,1,1*%
%TO.N,GND*%
X165100000Y-59055000D03*
%TD*%
D17*
%TO.P,D1,1,K*%
%TO.N,GND*%
X176112500Y-77470000D03*
%TO.P,D1,2,A*%
%TO.N,Net-(D1-A)*%
X173137500Y-77470000D03*
%TD*%
%TO.P,D5,1,K*%
%TO.N,GND*%
X176112500Y-97790000D03*
%TO.P,D5,2,A*%
%TO.N,Net-(D5-A)*%
X173137500Y-97790000D03*
%TD*%
D18*
%TO.P,BT1,1,+*%
%TO.N,VCC*%
X172720000Y-119634000D03*
%TO.P,BT1,2,-*%
%TO.N,GND*%
X175260000Y-119634000D03*
D19*
%TO.P,BT1,5*%
%TO.N,N/C*%
X172720000Y-122682000D03*
%TO.P,BT1,6*%
X175260000Y-122682000D03*
%TO.P,BT1,7*%
X172720000Y-125730000D03*
%TO.P,BT1,8*%
X175260000Y-125730000D03*
%TD*%
D20*
%TO.P,U1,1,VCC*%
%TO.N,VCC*%
X156340000Y-90170000D03*
%TO.P,U1,2,XTAL1/PB0*%
%TO.N,Net-(U1-XTAL1{slash}PB0)*%
X156340000Y-91440000D03*
%TO.P,U1,3,XTAL2/PB1*%
%TO.N,Net-(U1-XTAL2{slash}PB1)*%
X156340000Y-92710000D03*
%TO.P,U1,4,~{RESET}/PB3*%
%TO.N,/nRESET*%
X156340000Y-93980000D03*
%TO.P,U1,5,PB2*%
%TO.N,Net-(U1-PB2)*%
X156340000Y-95250000D03*
%TO.P,U1,6,PA7*%
%TO.N,Net-(U1-PA7)*%
X156340000Y-96520000D03*
%TO.P,U1,7,PA6*%
%TO.N,/MOSI*%
X156340000Y-97790000D03*
%TO.P,U1,8,PA5*%
%TO.N,/MISO*%
X161290000Y-97790000D03*
%TO.P,U1,9,PA4*%
%TO.N,/SCL*%
X161290000Y-96520000D03*
%TO.P,U1,10,PA3*%
%TO.N,Net-(U1-PA3)*%
X161290000Y-95250000D03*
%TO.P,U1,11,PA2*%
%TO.N,Net-(U1-PA2)*%
X161290000Y-93980000D03*
%TO.P,U1,12,PA1*%
%TO.N,Net-(U1-PA1)*%
X161290000Y-92710000D03*
%TO.P,U1,13,AREF/PA0*%
%TO.N,Net-(U1-AREF{slash}PA0)*%
X161290000Y-91440000D03*
%TO.P,U1,14,GND*%
%TO.N,GND*%
X161290000Y-90170000D03*
%TD*%
D21*
%TO.P,D11,1,K*%
%TO.N,GND*%
X161290000Y-75982500D03*
%TO.P,D11,2,A*%
%TO.N,Net-(D11-A)*%
X161290000Y-78957500D03*
%TD*%
D11*
%TO.P,R2,1*%
%TO.N,VCC*%
X173355000Y-72035000D03*
%TO.P,R2,2*%
%TO.N,/SCL*%
X173355000Y-68935000D03*
%TD*%
D17*
%TO.P,D6,1,K*%
%TO.N,GND*%
X176112500Y-102870000D03*
%TO.P,D6,2,A*%
%TO.N,Net-(D6-A)*%
X173137500Y-102870000D03*
%TD*%
D12*
%TO.P,R5,1*%
%TO.N,Net-(U1-AREF{slash}PA0)*%
X166090000Y-77470000D03*
%TO.P,R5,2*%
%TO.N,Net-(D1-A)*%
X169190000Y-77470000D03*
%TD*%
%TO.P,R12,1*%
%TO.N,Net-(U1-PB2)*%
X166090000Y-113030000D03*
%TO.P,R12,2*%
%TO.N,Net-(D8-A)*%
X169190000Y-113030000D03*
%TD*%
D22*
%TO.P,D9,1,K*%
%TO.N,/MOSI*%
X158710000Y-65350000D03*
D23*
%TO.P,D9,2,A*%
%TO.N,GND*%
X156170000Y-65350000D03*
%TD*%
D17*
%TO.P,D8,1,K*%
%TO.N,GND*%
X176112500Y-113030000D03*
%TO.P,D8,2,A*%
%TO.N,Net-(D8-A)*%
X173137500Y-113030000D03*
%TD*%
%TO.P,D4,1,K*%
%TO.N,GND*%
X176112500Y-92710000D03*
%TO.P,D4,2,A*%
%TO.N,Net-(D4-A)*%
X173137500Y-92710000D03*
%TD*%
D12*
%TO.P,R9,1*%
%TO.N,Net-(U1-PA7)*%
X166090000Y-97790000D03*
%TO.P,R9,2*%
%TO.N,Net-(D5-A)*%
X169190000Y-97790000D03*
%TD*%
D24*
%TO.P,R3,1*%
%TO.N,VCC*%
X156210000Y-75920000D03*
%TO.P,R3,2*%
%TO.N,Net-(D11-A)*%
X156210000Y-79020000D03*
%TD*%
D17*
%TO.P,D7,1,K*%
%TO.N,GND*%
X176112500Y-107950000D03*
%TO.P,D7,2,A*%
%TO.N,Net-(D7-A)*%
X173137500Y-107950000D03*
%TD*%
D24*
%TO.P,R4,1*%
%TO.N,/nRESET*%
X165100000Y-68935000D03*
%TO.P,R4,2*%
%TO.N,VCC*%
X165100000Y-72035000D03*
%TD*%
D12*
%TO.P,R8,1*%
%TO.N,Net-(U1-PA3)*%
X166090000Y-92710000D03*
%TO.P,R8,2*%
%TO.N,Net-(D4-A)*%
X169190000Y-92710000D03*
%TD*%
D22*
%TO.P,D10,1,K*%
%TO.N,/SCL*%
X173970000Y-65060000D03*
D23*
%TO.P,D10,2,A*%
%TO.N,GND*%
X171430000Y-65060000D03*
%TD*%
D17*
%TO.P,D3,1,K*%
%TO.N,GND*%
X176112500Y-87630000D03*
%TO.P,D3,2,A*%
%TO.N,Net-(D3-A)*%
X173137500Y-87630000D03*
%TD*%
D12*
%TO.P,R11,1*%
%TO.N,Net-(U1-XTAL2{slash}PB1)*%
X166090000Y-107950000D03*
%TO.P,R11,2*%
%TO.N,Net-(D7-A)*%
X169190000Y-107950000D03*
%TD*%
D25*
%TO.N,GND*%
X161290000Y-74422000D03*
X175895000Y-99187000D03*
X175895000Y-109474000D03*
X175768000Y-104394000D03*
X176022000Y-78740000D03*
X176022000Y-88773000D03*
X176022000Y-83693000D03*
X175768000Y-114427000D03*
X175895000Y-94107000D03*
X161600000Y-85100000D03*
X161290000Y-89408000D03*
%TO.N,/MOSI*%
X152908000Y-109347000D03*
X153670000Y-68935000D03*
X152908000Y-97790000D03*
%TO.N,/SCL*%
X163830000Y-96520000D03*
X163957000Y-74295000D03*
X163830000Y-103378000D03*
X170942000Y-74295000D03*
%TO.N,/MISO*%
X161290000Y-98679000D03*
X160020000Y-104394000D03*
%TO.N,/nRESET*%
X153543000Y-104521000D03*
X153543000Y-93980000D03*
X153543000Y-70866000D03*
%TO.N,Net-(U1-AREF{slash}PA0)*%
X162765268Y-91234044D03*
X162814000Y-77469998D03*
%TO.N,Net-(U1-PA1)*%
X164388800Y-82081235D03*
X164388800Y-92340663D03*
%TO.N,Net-(U1-PA2)*%
X164592000Y-93980000D03*
X164820600Y-87794613D03*
%TO.N,Net-(U1-PA7)*%
X159639000Y-96520000D03*
X159639000Y-99568000D03*
%TO.N,Net-(U1-XTAL1{slash}PB0)*%
X159385000Y-91440000D03*
X159004000Y-102616000D03*
%TO.N,Net-(U1-XTAL2{slash}PB1)*%
X164719000Y-100965000D03*
X158369000Y-100965000D03*
X158369000Y-92710000D03*
X164719000Y-107950000D03*
%TO.N,Net-(U1-PB2)*%
X154940000Y-115570000D03*
X154178000Y-95250000D03*
%TD*%
D26*
%TO.N,GND*%
X176112500Y-97790000D02*
X176112500Y-98969500D01*
X176112500Y-83602500D02*
X176022000Y-83693000D01*
X176112500Y-88682500D02*
X176022000Y-88773000D01*
X176112500Y-114082500D02*
X175768000Y-114427000D01*
X176112500Y-87630000D02*
X176112500Y-88682500D01*
X176112500Y-98969500D02*
X175895000Y-99187000D01*
X161290000Y-90170000D02*
X161290000Y-89408000D01*
X176112500Y-92710000D02*
X176112500Y-93889500D01*
X160262500Y-85100000D02*
X161600000Y-85100000D01*
X176112500Y-109256500D02*
X175895000Y-109474000D01*
X176112500Y-102870000D02*
X176112500Y-104049500D01*
X176112500Y-104049500D02*
X175768000Y-104394000D01*
X176112500Y-113030000D02*
X176112500Y-114082500D01*
X176112500Y-93889500D02*
X175895000Y-94107000D01*
X176112500Y-78649500D02*
X176022000Y-78740000D01*
X176112500Y-77470000D02*
X176112500Y-78649500D01*
X176112500Y-82550000D02*
X176112500Y-83602500D01*
X161290000Y-75982500D02*
X161290000Y-74422000D01*
X176112500Y-107950000D02*
X176112500Y-109256500D01*
%TO.N,Net-(D1-A)*%
X169190000Y-77470000D02*
X173137500Y-77470000D01*
%TO.N,Net-(D2-A)*%
X169190000Y-82550000D02*
X173137500Y-82550000D01*
%TO.N,Net-(D3-A)*%
X169190000Y-87630000D02*
X173137500Y-87630000D01*
%TO.N,Net-(D4-A)*%
X169190000Y-92710000D02*
X173137500Y-92710000D01*
%TO.N,Net-(D5-A)*%
X169190000Y-97790000D02*
X173137500Y-97790000D01*
%TO.N,Net-(D6-A)*%
X169190000Y-102870000D02*
X173137500Y-102870000D01*
%TO.N,Net-(D7-A)*%
X169190000Y-107950000D02*
X173137500Y-107950000D01*
%TO.N,Net-(D8-A)*%
X169190000Y-113030000D02*
X173137500Y-113030000D01*
%TO.N,/MOSI*%
X158710000Y-65350000D02*
X158710000Y-66435000D01*
X152908000Y-111608000D02*
X154200000Y-112900000D01*
X152908000Y-97790000D02*
X156340000Y-97790000D01*
X156325000Y-112900000D02*
X157480000Y-111745000D01*
X158710000Y-66435000D02*
X156210000Y-68935000D01*
X154200000Y-112900000D02*
X156325000Y-112900000D01*
X152908000Y-109347000D02*
X152908000Y-111608000D01*
X156210000Y-68935000D02*
X153670000Y-68935000D01*
%TO.N,/SCL*%
X173970000Y-65060000D02*
X173970000Y-68320000D01*
X157480000Y-103632000D02*
X157480000Y-108280000D01*
X163957000Y-74295000D02*
X170942000Y-74295000D01*
X157480000Y-108280000D02*
X157860000Y-108660000D01*
X157734000Y-103378000D02*
X157480000Y-103632000D01*
X161290000Y-96520000D02*
X163830000Y-96520000D01*
X173970000Y-68320000D02*
X173355000Y-68935000D01*
X163830000Y-103378000D02*
X157734000Y-103378000D01*
%TO.N,/MISO*%
X160020000Y-104394000D02*
X160020000Y-108280000D01*
X160020000Y-108280000D02*
X160400000Y-108660000D01*
X161290000Y-97790000D02*
X161290000Y-98679000D01*
%TO.N,/nRESET*%
X153543000Y-104521000D02*
X155320000Y-106298000D01*
X155320000Y-106298000D02*
X155320000Y-108660000D01*
X163169000Y-70866000D02*
X153543000Y-70866000D01*
X156340000Y-93980000D02*
X153543000Y-93980000D01*
X165100000Y-68935000D02*
X163169000Y-70866000D01*
%TO.N,Net-(D11-A)*%
X161227500Y-79020000D02*
X161290000Y-78957500D01*
X156210000Y-79020000D02*
X161227500Y-79020000D01*
%TO.N,Net-(U1-AREF{slash}PA0)*%
X162559312Y-91440000D02*
X162765268Y-91234044D01*
X162814002Y-77470000D02*
X162814000Y-77469998D01*
X166090000Y-77470000D02*
X162814002Y-77470000D01*
X161290000Y-91440000D02*
X162559312Y-91440000D01*
%TO.N,Net-(U1-PA1)*%
X166090000Y-82550000D02*
X164857565Y-82550000D01*
X164857565Y-82550000D02*
X164388800Y-82081235D01*
X161290000Y-92710000D02*
X164019463Y-92710000D01*
X164019463Y-92710000D02*
X164388800Y-92340663D01*
%TO.N,Net-(U1-PA2)*%
X161290000Y-93980000D02*
X163957000Y-93980000D01*
X166090000Y-87630000D02*
X165925387Y-87794613D01*
X165925387Y-87794613D02*
X164820600Y-87794613D01*
X163957000Y-93980000D02*
X164592000Y-93980000D01*
%TO.N,Net-(U1-PA3)*%
X165354000Y-95250000D02*
X166090000Y-94514000D01*
X161290000Y-95250000D02*
X165354000Y-95250000D01*
X166090000Y-94514000D02*
X166090000Y-92710000D01*
%TO.N,Net-(U1-PA7)*%
X164312000Y-99568000D02*
X166090000Y-97790000D01*
X159639000Y-99568000D02*
X164312000Y-99568000D01*
X156340000Y-96520000D02*
X159639000Y-96520000D01*
%TO.N,Net-(U1-XTAL1{slash}PB0)*%
X156340000Y-91440000D02*
X159385000Y-91440000D01*
X165836000Y-102616000D02*
X166090000Y-102870000D01*
X159004000Y-102616000D02*
X165836000Y-102616000D01*
%TO.N,Net-(U1-XTAL2{slash}PB1)*%
X164719000Y-100965000D02*
X158369000Y-100965000D01*
X158369000Y-92710000D02*
X156340000Y-92710000D01*
X166090000Y-107950000D02*
X164719000Y-107950000D01*
%TO.N,Net-(U1-PB2)*%
X154940000Y-115570000D02*
X163550000Y-115570000D01*
X163550000Y-115570000D02*
X166090000Y-113030000D01*
X156340000Y-95250000D02*
X154178000Y-95250000D01*
%TD*%
%TA.AperFunction,Conductor*%
%TO.N,VCC*%
G36*
X177107121Y-56535002D02*
G01*
X177153614Y-56588658D01*
X177165000Y-56641000D01*
X177165000Y-76412730D01*
X177144998Y-76480851D01*
X177091342Y-76527344D01*
X177021068Y-76537448D01*
X176956488Y-76507954D01*
X176938134Y-76488242D01*
X176935405Y-76484596D01*
X176819268Y-76397659D01*
X176819267Y-76397658D01*
X176683341Y-76346960D01*
X176683340Y-76346959D01*
X176683335Y-76346958D01*
X176623266Y-76340500D01*
X176623254Y-76340500D01*
X175601746Y-76340500D01*
X175601733Y-76340500D01*
X175541664Y-76346958D01*
X175494473Y-76364559D01*
X175405733Y-76397658D01*
X175405732Y-76397658D01*
X175405731Y-76397659D01*
X175289596Y-76484596D01*
X175202659Y-76600731D01*
X175151958Y-76736664D01*
X175145500Y-76796733D01*
X175145500Y-78143266D01*
X175151958Y-78203335D01*
X175151959Y-78203340D01*
X175151960Y-78203341D01*
X175202658Y-78339267D01*
X175289596Y-78455404D01*
X175405733Y-78542342D01*
X175434890Y-78553217D01*
X175491725Y-78595763D01*
X175516536Y-78662283D01*
X175515574Y-78689204D01*
X175508271Y-78739996D01*
X175508271Y-78740003D01*
X175529079Y-78884727D01*
X175529081Y-78884734D01*
X175589824Y-79017743D01*
X175685579Y-79128250D01*
X175808589Y-79207304D01*
X175928039Y-79242378D01*
X175948885Y-79248499D01*
X175948886Y-79248499D01*
X175948889Y-79248500D01*
X175948892Y-79248500D01*
X176095108Y-79248500D01*
X176095111Y-79248500D01*
X176235411Y-79207304D01*
X176358421Y-79128250D01*
X176454176Y-79017743D01*
X176514919Y-78884734D01*
X176535729Y-78740000D01*
X176535729Y-78730988D01*
X176537070Y-78730988D01*
X176545855Y-78669884D01*
X176592347Y-78616228D01*
X176647002Y-78596947D01*
X176683335Y-78593041D01*
X176683336Y-78593040D01*
X176683341Y-78593040D01*
X176819267Y-78542342D01*
X176935404Y-78455404D01*
X176938131Y-78451760D01*
X176994966Y-78409214D01*
X177065782Y-78404148D01*
X177128094Y-78438173D01*
X177162120Y-78500484D01*
X177165000Y-78527269D01*
X177165000Y-81492730D01*
X177144998Y-81560851D01*
X177091342Y-81607344D01*
X177021068Y-81617448D01*
X176956488Y-81587954D01*
X176938134Y-81568242D01*
X176935405Y-81564596D01*
X176819268Y-81477659D01*
X176819267Y-81477658D01*
X176683341Y-81426960D01*
X176683340Y-81426959D01*
X176683335Y-81426958D01*
X176623266Y-81420500D01*
X176623254Y-81420500D01*
X175601746Y-81420500D01*
X175601733Y-81420500D01*
X175541664Y-81426958D01*
X175494473Y-81444559D01*
X175405733Y-81477658D01*
X175405732Y-81477658D01*
X175405731Y-81477659D01*
X175289596Y-81564596D01*
X175202659Y-81680731D01*
X175151958Y-81816664D01*
X175145500Y-81876733D01*
X175145500Y-83223266D01*
X175151958Y-83283335D01*
X175151959Y-83283340D01*
X175151960Y-83283341D01*
X175202658Y-83419267D01*
X175289596Y-83535404D01*
X175405733Y-83622342D01*
X175405734Y-83622342D01*
X175405735Y-83622343D01*
X175433299Y-83632624D01*
X175490135Y-83675170D01*
X175513985Y-83732747D01*
X175529079Y-83837728D01*
X175529081Y-83837733D01*
X175529081Y-83837734D01*
X175589824Y-83970743D01*
X175685579Y-84081250D01*
X175808589Y-84160304D01*
X175928039Y-84195378D01*
X175948885Y-84201499D01*
X175948886Y-84201499D01*
X175948889Y-84201500D01*
X175948892Y-84201500D01*
X176095108Y-84201500D01*
X176095111Y-84201500D01*
X176235411Y-84160304D01*
X176358421Y-84081250D01*
X176454176Y-83970743D01*
X176514919Y-83837734D01*
X176522396Y-83785727D01*
X176551888Y-83721150D01*
X176611613Y-83682765D01*
X176633645Y-83678383D01*
X176683335Y-83673041D01*
X176683336Y-83673040D01*
X176683341Y-83673040D01*
X176819267Y-83622342D01*
X176935404Y-83535404D01*
X176938131Y-83531760D01*
X176994966Y-83489214D01*
X177065782Y-83484148D01*
X177128094Y-83518173D01*
X177162120Y-83580484D01*
X177165000Y-83607269D01*
X177165000Y-86572730D01*
X177144998Y-86640851D01*
X177091342Y-86687344D01*
X177021068Y-86697448D01*
X176956488Y-86667954D01*
X176938134Y-86648242D01*
X176935405Y-86644596D01*
X176819268Y-86557659D01*
X176819267Y-86557658D01*
X176683341Y-86506960D01*
X176683340Y-86506959D01*
X176683335Y-86506958D01*
X176623266Y-86500500D01*
X176623254Y-86500500D01*
X175601746Y-86500500D01*
X175601733Y-86500500D01*
X175541664Y-86506958D01*
X175494473Y-86524559D01*
X175405733Y-86557658D01*
X175405732Y-86557658D01*
X175405731Y-86557659D01*
X175289596Y-86644596D01*
X175202659Y-86760731D01*
X175151958Y-86896664D01*
X175145500Y-86956733D01*
X175145500Y-88303266D01*
X175151958Y-88363335D01*
X175151959Y-88363340D01*
X175151960Y-88363341D01*
X175202658Y-88499267D01*
X175289596Y-88615404D01*
X175405733Y-88702342D01*
X175405734Y-88702342D01*
X175405735Y-88702343D01*
X175433299Y-88712624D01*
X175490135Y-88755170D01*
X175513985Y-88812747D01*
X175529079Y-88917728D01*
X175529081Y-88917733D01*
X175529081Y-88917734D01*
X175589824Y-89050743D01*
X175685579Y-89161250D01*
X175808589Y-89240304D01*
X175928039Y-89275378D01*
X175948885Y-89281499D01*
X175948886Y-89281499D01*
X175948889Y-89281500D01*
X175948892Y-89281500D01*
X176095108Y-89281500D01*
X176095111Y-89281500D01*
X176235411Y-89240304D01*
X176358421Y-89161250D01*
X176454176Y-89050743D01*
X176514919Y-88917734D01*
X176522396Y-88865727D01*
X176551888Y-88801150D01*
X176611613Y-88762765D01*
X176633645Y-88758383D01*
X176683335Y-88753041D01*
X176683336Y-88753040D01*
X176683341Y-88753040D01*
X176819267Y-88702342D01*
X176935404Y-88615404D01*
X176938131Y-88611760D01*
X176994966Y-88569214D01*
X177065782Y-88564148D01*
X177128094Y-88598173D01*
X177162120Y-88660484D01*
X177165000Y-88687269D01*
X177165000Y-91652730D01*
X177144998Y-91720851D01*
X177091342Y-91767344D01*
X177021068Y-91777448D01*
X176956488Y-91747954D01*
X176938134Y-91728242D01*
X176935405Y-91724596D01*
X176819268Y-91637659D01*
X176819267Y-91637658D01*
X176683341Y-91586960D01*
X176683340Y-91586959D01*
X176683335Y-91586958D01*
X176623266Y-91580500D01*
X176623254Y-91580500D01*
X175601746Y-91580500D01*
X175601733Y-91580500D01*
X175541664Y-91586958D01*
X175495820Y-91604057D01*
X175405733Y-91637658D01*
X175405732Y-91637658D01*
X175405731Y-91637659D01*
X175289596Y-91724596D01*
X175202659Y-91840731D01*
X175151958Y-91976664D01*
X175145500Y-92036733D01*
X175145500Y-93383266D01*
X175151958Y-93443335D01*
X175151959Y-93443340D01*
X175151960Y-93443341D01*
X175202658Y-93579267D01*
X175289596Y-93695404D01*
X175382960Y-93765295D01*
X175425507Y-93822129D01*
X175430573Y-93892945D01*
X175422066Y-93918505D01*
X175402081Y-93962265D01*
X175402079Y-93962272D01*
X175381271Y-94106996D01*
X175381271Y-94107003D01*
X175402079Y-94251727D01*
X175402081Y-94251734D01*
X175462824Y-94384743D01*
X175558579Y-94495250D01*
X175681589Y-94574304D01*
X175801039Y-94609378D01*
X175821885Y-94615499D01*
X175821886Y-94615499D01*
X175821889Y-94615500D01*
X175821892Y-94615500D01*
X175968108Y-94615500D01*
X175968111Y-94615500D01*
X176108411Y-94574304D01*
X176231421Y-94495250D01*
X176327176Y-94384743D01*
X176387919Y-94251734D01*
X176399911Y-94168322D01*
X176425196Y-94108866D01*
X176452658Y-94073585D01*
X176452659Y-94073579D01*
X176456457Y-94066564D01*
X176459971Y-94059374D01*
X176459975Y-94059370D01*
X176462526Y-94050800D01*
X176475891Y-94005910D01*
X176493999Y-93953163D01*
X176494000Y-93953161D01*
X176494000Y-93953157D01*
X176495401Y-93944764D01*
X176526341Y-93880864D01*
X176586916Y-93843835D01*
X176619683Y-93839500D01*
X176623250Y-93839500D01*
X176623254Y-93839500D01*
X176623259Y-93839499D01*
X176623266Y-93839499D01*
X176683335Y-93833041D01*
X176683336Y-93833040D01*
X176683341Y-93833040D01*
X176819267Y-93782342D01*
X176935404Y-93695404D01*
X176938131Y-93691760D01*
X176994966Y-93649214D01*
X177065782Y-93644148D01*
X177128094Y-93678173D01*
X177162120Y-93740484D01*
X177165000Y-93767269D01*
X177165000Y-96732730D01*
X177144998Y-96800851D01*
X177091342Y-96847344D01*
X177021068Y-96857448D01*
X176956488Y-96827954D01*
X176938134Y-96808242D01*
X176935405Y-96804596D01*
X176819268Y-96717659D01*
X176819267Y-96717658D01*
X176683341Y-96666960D01*
X176683340Y-96666959D01*
X176683335Y-96666958D01*
X176623266Y-96660500D01*
X176623254Y-96660500D01*
X175601746Y-96660500D01*
X175601733Y-96660500D01*
X175541664Y-96666958D01*
X175494473Y-96684559D01*
X175405733Y-96717658D01*
X175405732Y-96717658D01*
X175405731Y-96717659D01*
X175289596Y-96804596D01*
X175202659Y-96920731D01*
X175151958Y-97056664D01*
X175145500Y-97116733D01*
X175145500Y-98463266D01*
X175151958Y-98523335D01*
X175151959Y-98523340D01*
X175151960Y-98523341D01*
X175202658Y-98659267D01*
X175289596Y-98775404D01*
X175382960Y-98845295D01*
X175425507Y-98902129D01*
X175430573Y-98972945D01*
X175422066Y-98998505D01*
X175402081Y-99042265D01*
X175402079Y-99042272D01*
X175381271Y-99186996D01*
X175381271Y-99187003D01*
X175402079Y-99331727D01*
X175402081Y-99331734D01*
X175462824Y-99464743D01*
X175558579Y-99575250D01*
X175681589Y-99654304D01*
X175801039Y-99689378D01*
X175821885Y-99695499D01*
X175821886Y-99695499D01*
X175821889Y-99695500D01*
X175821892Y-99695500D01*
X175968108Y-99695500D01*
X175968111Y-99695500D01*
X176108411Y-99654304D01*
X176231421Y-99575250D01*
X176327176Y-99464743D01*
X176387919Y-99331734D01*
X176399911Y-99248322D01*
X176425196Y-99188866D01*
X176452658Y-99153585D01*
X176452659Y-99153579D01*
X176456457Y-99146564D01*
X176459971Y-99139374D01*
X176459975Y-99139370D01*
X176462526Y-99130800D01*
X176475891Y-99085910D01*
X176493999Y-99033163D01*
X176494000Y-99033161D01*
X176494000Y-99033157D01*
X176495401Y-99024764D01*
X176526341Y-98960864D01*
X176586916Y-98923835D01*
X176619683Y-98919500D01*
X176623250Y-98919500D01*
X176623254Y-98919500D01*
X176623259Y-98919499D01*
X176623266Y-98919499D01*
X176683335Y-98913041D01*
X176683336Y-98913040D01*
X176683341Y-98913040D01*
X176819267Y-98862342D01*
X176935404Y-98775404D01*
X176938131Y-98771760D01*
X176994966Y-98729214D01*
X177065782Y-98724148D01*
X177128094Y-98758173D01*
X177162120Y-98820484D01*
X177165000Y-98847269D01*
X177165000Y-101812730D01*
X177144998Y-101880851D01*
X177091342Y-101927344D01*
X177021068Y-101937448D01*
X176956488Y-101907954D01*
X176938134Y-101888242D01*
X176935405Y-101884596D01*
X176819268Y-101797659D01*
X176819267Y-101797658D01*
X176683341Y-101746960D01*
X176683340Y-101746959D01*
X176683335Y-101746958D01*
X176623266Y-101740500D01*
X176623254Y-101740500D01*
X175601746Y-101740500D01*
X175601733Y-101740500D01*
X175541664Y-101746958D01*
X175494473Y-101764559D01*
X175405733Y-101797658D01*
X175405732Y-101797658D01*
X175405731Y-101797659D01*
X175289596Y-101884596D01*
X175202659Y-102000731D01*
X175151958Y-102136664D01*
X175145500Y-102196733D01*
X175145500Y-103543266D01*
X175151958Y-103603335D01*
X175151959Y-103603340D01*
X175151960Y-103603341D01*
X175202658Y-103739267D01*
X175232777Y-103779502D01*
X175289596Y-103855404D01*
X175346394Y-103897922D01*
X175388941Y-103954758D01*
X175394007Y-104025574D01*
X175366111Y-104081303D01*
X175335824Y-104116256D01*
X175275081Y-104249265D01*
X175275079Y-104249272D01*
X175254271Y-104393996D01*
X175254271Y-104394003D01*
X175275079Y-104538727D01*
X175275081Y-104538734D01*
X175335824Y-104671743D01*
X175431579Y-104782250D01*
X175554589Y-104861304D01*
X175674039Y-104896378D01*
X175694885Y-104902499D01*
X175694886Y-104902499D01*
X175694889Y-104902500D01*
X175694892Y-104902500D01*
X175841108Y-104902500D01*
X175841111Y-104902500D01*
X175981411Y-104861304D01*
X176104421Y-104782250D01*
X176200176Y-104671743D01*
X176260919Y-104538734D01*
X176271429Y-104465630D01*
X176300921Y-104401053D01*
X176307042Y-104394478D01*
X176345041Y-104356479D01*
X176365228Y-104340087D01*
X176374456Y-104334060D01*
X176396615Y-104305587D01*
X176401763Y-104299758D01*
X176404614Y-104296909D01*
X176418398Y-104277601D01*
X176452658Y-104233585D01*
X176452659Y-104233579D01*
X176456450Y-104226576D01*
X176459971Y-104219373D01*
X176459975Y-104219369D01*
X176469323Y-104187968D01*
X176475889Y-104165916D01*
X176493999Y-104113165D01*
X176495401Y-104104764D01*
X176526341Y-104040864D01*
X176586916Y-104003835D01*
X176619683Y-103999500D01*
X176623250Y-103999500D01*
X176623254Y-103999500D01*
X176623259Y-103999499D01*
X176623266Y-103999499D01*
X176683335Y-103993041D01*
X176683336Y-103993040D01*
X176683341Y-103993040D01*
X176819267Y-103942342D01*
X176935404Y-103855404D01*
X176938131Y-103851760D01*
X176994966Y-103809214D01*
X177065782Y-103804148D01*
X177128094Y-103838173D01*
X177162120Y-103900484D01*
X177165000Y-103927269D01*
X177165000Y-106892730D01*
X177144998Y-106960851D01*
X177091342Y-107007344D01*
X177021068Y-107017448D01*
X176956488Y-106987954D01*
X176938134Y-106968242D01*
X176935405Y-106964596D01*
X176819268Y-106877659D01*
X176819267Y-106877658D01*
X176683341Y-106826960D01*
X176683340Y-106826959D01*
X176683335Y-106826958D01*
X176623266Y-106820500D01*
X176623254Y-106820500D01*
X175601746Y-106820500D01*
X175601733Y-106820500D01*
X175541664Y-106826958D01*
X175494473Y-106844559D01*
X175405733Y-106877658D01*
X175405732Y-106877658D01*
X175405731Y-106877659D01*
X175289596Y-106964596D01*
X175202659Y-107080731D01*
X175151958Y-107216664D01*
X175145500Y-107276733D01*
X175145500Y-108623266D01*
X175151958Y-108683335D01*
X175151959Y-108683340D01*
X175151960Y-108683341D01*
X175202658Y-108819267D01*
X175289596Y-108935404D01*
X175405733Y-109022342D01*
X175405740Y-109022344D01*
X175412034Y-109025781D01*
X175462238Y-109075981D01*
X175477333Y-109145354D01*
X175466268Y-109188713D01*
X175402082Y-109329262D01*
X175402079Y-109329272D01*
X175381271Y-109473996D01*
X175381271Y-109474003D01*
X175402079Y-109618727D01*
X175402081Y-109618734D01*
X175462824Y-109751743D01*
X175558579Y-109862250D01*
X175681589Y-109941304D01*
X175801039Y-109976378D01*
X175821885Y-109982499D01*
X175821886Y-109982499D01*
X175821889Y-109982500D01*
X175821892Y-109982500D01*
X175968108Y-109982500D01*
X175968111Y-109982500D01*
X176108411Y-109941304D01*
X176231421Y-109862250D01*
X176327176Y-109751743D01*
X176387919Y-109618734D01*
X176399911Y-109535322D01*
X176425196Y-109475866D01*
X176452658Y-109440585D01*
X176452659Y-109440579D01*
X176456457Y-109433564D01*
X176459971Y-109426374D01*
X176459975Y-109426370D01*
X176465657Y-109407284D01*
X176475891Y-109372910D01*
X176493999Y-109320164D01*
X176495319Y-109312249D01*
X176496305Y-109304343D01*
X176494000Y-109248616D01*
X176494000Y-109205500D01*
X176514002Y-109137379D01*
X176567658Y-109090886D01*
X176620000Y-109079500D01*
X176623250Y-109079500D01*
X176623254Y-109079500D01*
X176623259Y-109079499D01*
X176623266Y-109079499D01*
X176683335Y-109073041D01*
X176683336Y-109073040D01*
X176683341Y-109073040D01*
X176819267Y-109022342D01*
X176935404Y-108935404D01*
X176938131Y-108931760D01*
X176994966Y-108889214D01*
X177065782Y-108884148D01*
X177128094Y-108918173D01*
X177162120Y-108980484D01*
X177165000Y-109007269D01*
X177165000Y-111972730D01*
X177144998Y-112040851D01*
X177091342Y-112087344D01*
X177021068Y-112097448D01*
X176956488Y-112067954D01*
X176938134Y-112048242D01*
X176935405Y-112044596D01*
X176819268Y-111957659D01*
X176819267Y-111957658D01*
X176683341Y-111906960D01*
X176683340Y-111906959D01*
X176683335Y-111906958D01*
X176623266Y-111900500D01*
X176623254Y-111900500D01*
X175601746Y-111900500D01*
X175601733Y-111900500D01*
X175541664Y-111906958D01*
X175494473Y-111924559D01*
X175405733Y-111957658D01*
X175405732Y-111957658D01*
X175405731Y-111957659D01*
X175289596Y-112044596D01*
X175257596Y-112087344D01*
X175202658Y-112160733D01*
X175169559Y-112249473D01*
X175151958Y-112296664D01*
X175145500Y-112356733D01*
X175145500Y-113703266D01*
X175151958Y-113763335D01*
X175151959Y-113763340D01*
X175151960Y-113763341D01*
X175202658Y-113899267D01*
X175202659Y-113899268D01*
X175289598Y-114015407D01*
X175295968Y-114021777D01*
X175294729Y-114023015D01*
X175330862Y-114071280D01*
X175335928Y-114142095D01*
X175327421Y-114167655D01*
X175275082Y-114282262D01*
X175275079Y-114282272D01*
X175254271Y-114426996D01*
X175254271Y-114427003D01*
X175275079Y-114571727D01*
X175275081Y-114571734D01*
X175335824Y-114704743D01*
X175431579Y-114815250D01*
X175554589Y-114894304D01*
X175674039Y-114929378D01*
X175694885Y-114935499D01*
X175694886Y-114935499D01*
X175694889Y-114935500D01*
X175694892Y-114935500D01*
X175841108Y-114935500D01*
X175841111Y-114935500D01*
X175981411Y-114894304D01*
X176104421Y-114815250D01*
X176200176Y-114704743D01*
X176260919Y-114571734D01*
X176271429Y-114498630D01*
X176300921Y-114434053D01*
X176307042Y-114427478D01*
X176345041Y-114389479D01*
X176365228Y-114373087D01*
X176374456Y-114367060D01*
X176396615Y-114338587D01*
X176401763Y-114332758D01*
X176404614Y-114329909D01*
X176418398Y-114310601D01*
X176452658Y-114266585D01*
X176452659Y-114266579D01*
X176456450Y-114259576D01*
X176459970Y-114252375D01*
X176459975Y-114252369D01*
X176460816Y-114249545D01*
X176463013Y-114246153D01*
X176464563Y-114242985D01*
X176464945Y-114243172D01*
X176499425Y-114189964D01*
X176564117Y-114160716D01*
X176581577Y-114159500D01*
X176623250Y-114159500D01*
X176623254Y-114159500D01*
X176623259Y-114159499D01*
X176623266Y-114159499D01*
X176683335Y-114153041D01*
X176683336Y-114153040D01*
X176683341Y-114153040D01*
X176819267Y-114102342D01*
X176935404Y-114015404D01*
X176938131Y-114011760D01*
X176994966Y-113969214D01*
X177065782Y-113964148D01*
X177128094Y-113998173D01*
X177162120Y-114060484D01*
X177165000Y-114087269D01*
X177165000Y-127509000D01*
X177144998Y-127577121D01*
X177091342Y-127623614D01*
X177039000Y-127635000D01*
X153161000Y-127635000D01*
X153092879Y-127614998D01*
X153046386Y-127561342D01*
X153035000Y-127509000D01*
X153035000Y-125507153D01*
X154541189Y-125507153D01*
X154559587Y-125693963D01*
X154559587Y-125693965D01*
X154614082Y-125873609D01*
X154614084Y-125873615D01*
X154660697Y-125960821D01*
X154702576Y-126039170D01*
X154821667Y-126184283D01*
X154966780Y-126303374D01*
X155132338Y-126391867D01*
X155311979Y-126446361D01*
X155311983Y-126446361D01*
X155311985Y-126446362D01*
X155498797Y-126464761D01*
X155498800Y-126464761D01*
X155498803Y-126464761D01*
X155685613Y-126446362D01*
X155685615Y-126446362D01*
X155685616Y-126446361D01*
X155685621Y-126446361D01*
X155865262Y-126391867D01*
X156030820Y-126303374D01*
X156175933Y-126184283D01*
X156295024Y-126039170D01*
X156383517Y-125873612D01*
X156438011Y-125693971D01*
X156456411Y-125507153D01*
X161043589Y-125507153D01*
X161061987Y-125693963D01*
X161061987Y-125693965D01*
X161116482Y-125873609D01*
X161116484Y-125873615D01*
X161163097Y-125960821D01*
X161204976Y-126039170D01*
X161324067Y-126184283D01*
X161469180Y-126303374D01*
X161634738Y-126391867D01*
X161814379Y-126446361D01*
X161814383Y-126446361D01*
X161814385Y-126446362D01*
X162001197Y-126464761D01*
X162001200Y-126464761D01*
X162001203Y-126464761D01*
X162188013Y-126446362D01*
X162188015Y-126446362D01*
X162188016Y-126446361D01*
X162188021Y-126446361D01*
X162367662Y-126391867D01*
X162533220Y-126303374D01*
X162678333Y-126184283D01*
X162797424Y-126039170D01*
X162885917Y-125873612D01*
X162929482Y-125730000D01*
X171317710Y-125730000D01*
X171336835Y-125960812D01*
X171336837Y-125960821D01*
X171393688Y-126185319D01*
X171393691Y-126185326D01*
X171486722Y-126397415D01*
X171613395Y-126591304D01*
X171770248Y-126761692D01*
X171770253Y-126761696D01*
X171770255Y-126761698D01*
X171953019Y-126903949D01*
X171953020Y-126903950D01*
X172156707Y-127014180D01*
X172156709Y-127014181D01*
X172271716Y-127053662D01*
X172375758Y-127089380D01*
X172604200Y-127127500D01*
X172604204Y-127127500D01*
X172835796Y-127127500D01*
X172835800Y-127127500D01*
X173064242Y-127089380D01*
X173283293Y-127014180D01*
X173486980Y-126903950D01*
X173669745Y-126761698D01*
X173826604Y-126591304D01*
X173884517Y-126502660D01*
X173938520Y-126456573D01*
X174008868Y-126446997D01*
X174073225Y-126476974D01*
X174095483Y-126502661D01*
X174153395Y-126591304D01*
X174310248Y-126761692D01*
X174310253Y-126761696D01*
X174310255Y-126761698D01*
X174493019Y-126903949D01*
X174493020Y-126903950D01*
X174696707Y-127014180D01*
X174696709Y-127014181D01*
X174811716Y-127053662D01*
X174915758Y-127089380D01*
X175144200Y-127127500D01*
X175144204Y-127127500D01*
X175375796Y-127127500D01*
X175375800Y-127127500D01*
X175604242Y-127089380D01*
X175823293Y-127014180D01*
X176026980Y-126903950D01*
X176209745Y-126761698D01*
X176366604Y-126591304D01*
X176493277Y-126397416D01*
X176586310Y-126185323D01*
X176643165Y-125960809D01*
X176662290Y-125730000D01*
X176643165Y-125499191D01*
X176597872Y-125320336D01*
X176586311Y-125274680D01*
X176586308Y-125274673D01*
X176493277Y-125062584D01*
X176366604Y-124868695D01*
X176209751Y-124698307D01*
X176026980Y-124556050D01*
X176026979Y-124556049D01*
X175823292Y-124445819D01*
X175823290Y-124445818D01*
X175604246Y-124370621D01*
X175604239Y-124370619D01*
X175506470Y-124354305D01*
X175375800Y-124332500D01*
X175144200Y-124332500D01*
X175029877Y-124351576D01*
X174915760Y-124370619D01*
X174915753Y-124370621D01*
X174696709Y-124445818D01*
X174696707Y-124445819D01*
X174493020Y-124556049D01*
X174493019Y-124556050D01*
X174310248Y-124698307D01*
X174153395Y-124868695D01*
X174095483Y-124957338D01*
X174041480Y-125003427D01*
X173971132Y-125013002D01*
X173906774Y-124983025D01*
X173884517Y-124957338D01*
X173826604Y-124868695D01*
X173669751Y-124698307D01*
X173486980Y-124556050D01*
X173486979Y-124556049D01*
X173283292Y-124445819D01*
X173283290Y-124445818D01*
X173064246Y-124370621D01*
X173064239Y-124370619D01*
X172966470Y-124354305D01*
X172835800Y-124332500D01*
X172604200Y-124332500D01*
X172489877Y-124351576D01*
X172375760Y-124370619D01*
X172375753Y-124370621D01*
X172156709Y-124445818D01*
X172156707Y-124445819D01*
X171953020Y-124556049D01*
X171953019Y-124556050D01*
X171770248Y-124698307D01*
X171613395Y-124868695D01*
X171486722Y-125062584D01*
X171393691Y-125274673D01*
X171393688Y-125274680D01*
X171336837Y-125499178D01*
X171336835Y-125499187D01*
X171317710Y-125730000D01*
X162929482Y-125730000D01*
X162940411Y-125693971D01*
X162958811Y-125507150D01*
X162958027Y-125499191D01*
X162940412Y-125320336D01*
X162940412Y-125320334D01*
X162940411Y-125320331D01*
X162940411Y-125320329D01*
X162885917Y-125140688D01*
X162797424Y-124975130D01*
X162678333Y-124830017D01*
X162533220Y-124710926D01*
X162509602Y-124698302D01*
X162367665Y-124622434D01*
X162367659Y-124622432D01*
X162291934Y-124599461D01*
X162188021Y-124567939D01*
X162188020Y-124567938D01*
X162188014Y-124567937D01*
X162001203Y-124549539D01*
X162001197Y-124549539D01*
X161814386Y-124567937D01*
X161814384Y-124567937D01*
X161634740Y-124622432D01*
X161634734Y-124622434D01*
X161469179Y-124710926D01*
X161324067Y-124830017D01*
X161204976Y-124975129D01*
X161116484Y-125140684D01*
X161116482Y-125140690D01*
X161061987Y-125320334D01*
X161061987Y-125320336D01*
X161043589Y-125507146D01*
X161043589Y-125507153D01*
X156456411Y-125507153D01*
X156456411Y-125507150D01*
X156455627Y-125499191D01*
X156438012Y-125320336D01*
X156438012Y-125320334D01*
X156438011Y-125320331D01*
X156438011Y-125320329D01*
X156383517Y-125140688D01*
X156295024Y-124975130D01*
X156175933Y-124830017D01*
X156030820Y-124710926D01*
X156007202Y-124698302D01*
X155865265Y-124622434D01*
X155865259Y-124622432D01*
X155789534Y-124599461D01*
X155685621Y-124567939D01*
X155685620Y-124567938D01*
X155685614Y-124567937D01*
X155498803Y-124549539D01*
X155498797Y-124549539D01*
X155311986Y-124567937D01*
X155311984Y-124567937D01*
X155132340Y-124622432D01*
X155132334Y-124622434D01*
X154966779Y-124710926D01*
X154821667Y-124830017D01*
X154702576Y-124975129D01*
X154614084Y-125140684D01*
X154614082Y-125140690D01*
X154559587Y-125320334D01*
X154559587Y-125320336D01*
X154541189Y-125507146D01*
X154541189Y-125507153D01*
X153035000Y-125507153D01*
X153035000Y-122555004D01*
X164945699Y-122555004D01*
X164964877Y-122835394D01*
X164964878Y-122835400D01*
X164964879Y-122835408D01*
X164980963Y-122912809D01*
X165022061Y-123110586D01*
X165022063Y-123110593D01*
X165116186Y-123375428D01*
X165245493Y-123624980D01*
X165407577Y-123854600D01*
X165599418Y-124060011D01*
X165817442Y-124237387D01*
X166057588Y-124383423D01*
X166315382Y-124495399D01*
X166586023Y-124571229D01*
X166671921Y-124583035D01*
X166864454Y-124609499D01*
X166864468Y-124609500D01*
X167145532Y-124609500D01*
X167145545Y-124609499D01*
X167309445Y-124586970D01*
X167423977Y-124571229D01*
X167694618Y-124495399D01*
X167952412Y-124383423D01*
X168192558Y-124237387D01*
X168410582Y-124060011D01*
X168602423Y-123854600D01*
X168764507Y-123624980D01*
X168893814Y-123375428D01*
X168987937Y-123110593D01*
X169045121Y-122835408D01*
X169064301Y-122555000D01*
X169057200Y-122451191D01*
X169045122Y-122274605D01*
X169045121Y-122274599D01*
X169045121Y-122274592D01*
X168987937Y-121999407D01*
X168893814Y-121734572D01*
X168764507Y-121485020D01*
X168602423Y-121255400D01*
X168410582Y-121049989D01*
X168192558Y-120872613D01*
X167952412Y-120726577D01*
X167952408Y-120726575D01*
X167952406Y-120726574D01*
X167694621Y-120614602D01*
X167694619Y-120614601D01*
X167694618Y-120614601D01*
X167423977Y-120538771D01*
X167423976Y-120538770D01*
X167423973Y-120538770D01*
X167145545Y-120500500D01*
X167145532Y-120500500D01*
X166864468Y-120500500D01*
X166864454Y-120500500D01*
X166586026Y-120538770D01*
X166315378Y-120614602D01*
X166057593Y-120726574D01*
X165817439Y-120872615D01*
X165599423Y-121049985D01*
X165599415Y-121049992D01*
X165407577Y-121255400D01*
X165245493Y-121485019D01*
X165245493Y-121485020D01*
X165116186Y-121734571D01*
X165022063Y-121999405D01*
X165022061Y-121999413D01*
X164964878Y-122274599D01*
X164964877Y-122274605D01*
X164945699Y-122554995D01*
X164945699Y-122555004D01*
X153035000Y-122555004D01*
X153035000Y-121011353D01*
X154541189Y-121011353D01*
X154559587Y-121198163D01*
X154559587Y-121198165D01*
X154614082Y-121377809D01*
X154614084Y-121377815D01*
X154702576Y-121543370D01*
X154821667Y-121688483D01*
X154966780Y-121807574D01*
X155132338Y-121896067D01*
X155311979Y-121950561D01*
X155311983Y-121950561D01*
X155311985Y-121950562D01*
X155498797Y-121968961D01*
X155498800Y-121968961D01*
X155498803Y-121968961D01*
X155685613Y-121950562D01*
X155685615Y-121950562D01*
X155685616Y-121950561D01*
X155685621Y-121950561D01*
X155865262Y-121896067D01*
X156030820Y-121807574D01*
X156175933Y-121688483D01*
X156295024Y-121543370D01*
X156383517Y-121377812D01*
X156438011Y-121198171D01*
X156440044Y-121177530D01*
X156456411Y-121011353D01*
X161043589Y-121011353D01*
X161061987Y-121198163D01*
X161061987Y-121198165D01*
X161116482Y-121377809D01*
X161116484Y-121377815D01*
X161204976Y-121543370D01*
X161324067Y-121688483D01*
X161469180Y-121807574D01*
X161634738Y-121896067D01*
X161814379Y-121950561D01*
X161814383Y-121950561D01*
X161814385Y-121950562D01*
X162001197Y-121968961D01*
X162001200Y-121968961D01*
X162001203Y-121968961D01*
X162188013Y-121950562D01*
X162188015Y-121950562D01*
X162188016Y-121950561D01*
X162188021Y-121950561D01*
X162367662Y-121896067D01*
X162533220Y-121807574D01*
X162678333Y-121688483D01*
X162797424Y-121543370D01*
X162885917Y-121377812D01*
X162940411Y-121198171D01*
X162942444Y-121177530D01*
X162958811Y-121011353D01*
X162958811Y-121011346D01*
X162940412Y-120824536D01*
X162940412Y-120824534D01*
X162940411Y-120824531D01*
X162940411Y-120824529D01*
X162885917Y-120644888D01*
X162797424Y-120479330D01*
X162678333Y-120334217D01*
X162533220Y-120215126D01*
X162507664Y-120201466D01*
X162367665Y-120126634D01*
X162367659Y-120126632D01*
X162188014Y-120072137D01*
X162001203Y-120053739D01*
X162001197Y-120053739D01*
X161814386Y-120072137D01*
X161814384Y-120072137D01*
X161634740Y-120126632D01*
X161634734Y-120126634D01*
X161469179Y-120215126D01*
X161324067Y-120334217D01*
X161204976Y-120479329D01*
X161116484Y-120644884D01*
X161116482Y-120644890D01*
X161061987Y-120824534D01*
X161061987Y-120824536D01*
X161043589Y-121011346D01*
X161043589Y-121011353D01*
X156456411Y-121011353D01*
X156456411Y-121011346D01*
X156438012Y-120824536D01*
X156438012Y-120824534D01*
X156438011Y-120824531D01*
X156438011Y-120824529D01*
X156383517Y-120644888D01*
X156295024Y-120479330D01*
X156175933Y-120334217D01*
X156030820Y-120215126D01*
X156005264Y-120201466D01*
X155865265Y-120126634D01*
X155865259Y-120126632D01*
X155685614Y-120072137D01*
X155498803Y-120053739D01*
X155498797Y-120053739D01*
X155311986Y-120072137D01*
X155311984Y-120072137D01*
X155132340Y-120126632D01*
X155132334Y-120126634D01*
X154966779Y-120215126D01*
X154821667Y-120334217D01*
X154702576Y-120479329D01*
X154614084Y-120644884D01*
X154614082Y-120644890D01*
X154559587Y-120824534D01*
X154559587Y-120824536D01*
X154541189Y-121011346D01*
X154541189Y-121011353D01*
X153035000Y-121011353D01*
X153035000Y-119634000D01*
X171063895Y-119634000D01*
X171084284Y-119893072D01*
X171144950Y-120145762D01*
X171244399Y-120385854D01*
X171380182Y-120607432D01*
X171466222Y-120708172D01*
X171466223Y-120708172D01*
X172357219Y-119817175D01*
X172387117Y-119875854D01*
X172478146Y-119966883D01*
X172536823Y-119996780D01*
X171645827Y-120887776D01*
X171746567Y-120973817D01*
X171968145Y-121109600D01*
X172132144Y-121177530D01*
X172187425Y-121222078D01*
X172209846Y-121289441D01*
X172192288Y-121358233D01*
X172143896Y-121404752D01*
X171953025Y-121508046D01*
X171953019Y-121508050D01*
X171770248Y-121650307D01*
X171613395Y-121820695D01*
X171486722Y-122014584D01*
X171393691Y-122226673D01*
X171393688Y-122226680D01*
X171336837Y-122451178D01*
X171336835Y-122451187D01*
X171317710Y-122682000D01*
X171336835Y-122912812D01*
X171336837Y-122912821D01*
X171393688Y-123137319D01*
X171393691Y-123137326D01*
X171486722Y-123349415D01*
X171613395Y-123543304D01*
X171770248Y-123713692D01*
X171770253Y-123713696D01*
X171770255Y-123713698D01*
X171951286Y-123854600D01*
X171953019Y-123855949D01*
X171953020Y-123855950D01*
X172156707Y-123966180D01*
X172156709Y-123966181D01*
X172271716Y-124005662D01*
X172375758Y-124041380D01*
X172604200Y-124079500D01*
X172604204Y-124079500D01*
X172835796Y-124079500D01*
X172835800Y-124079500D01*
X173064242Y-124041380D01*
X173283293Y-123966180D01*
X173486980Y-123855950D01*
X173669745Y-123713698D01*
X173826604Y-123543304D01*
X173884517Y-123454660D01*
X173938520Y-123408573D01*
X174008868Y-123398997D01*
X174073225Y-123428974D01*
X174095483Y-123454661D01*
X174153395Y-123543304D01*
X174310248Y-123713692D01*
X174310253Y-123713696D01*
X174310255Y-123713698D01*
X174491286Y-123854600D01*
X174493019Y-123855949D01*
X174493020Y-123855950D01*
X174696707Y-123966180D01*
X174696709Y-123966181D01*
X174811716Y-124005662D01*
X174915758Y-124041380D01*
X175144200Y-124079500D01*
X175144204Y-124079500D01*
X175375796Y-124079500D01*
X175375800Y-124079500D01*
X175604242Y-124041380D01*
X175823293Y-123966180D01*
X176026980Y-123855950D01*
X176209745Y-123713698D01*
X176366604Y-123543304D01*
X176493277Y-123349416D01*
X176586310Y-123137323D01*
X176643165Y-122912809D01*
X176662290Y-122682000D01*
X176643165Y-122451191D01*
X176586310Y-122226677D01*
X176493277Y-122014584D01*
X176454628Y-121955427D01*
X176366604Y-121820695D01*
X176209751Y-121650307D01*
X176026980Y-121508050D01*
X176026979Y-121508049D01*
X175823292Y-121397819D01*
X175823290Y-121397818D01*
X175604246Y-121322621D01*
X175604239Y-121322619D01*
X175506470Y-121306305D01*
X175375800Y-121284500D01*
X175144200Y-121284500D01*
X175029877Y-121303576D01*
X174915760Y-121322619D01*
X174915753Y-121322621D01*
X174696709Y-121397818D01*
X174696707Y-121397819D01*
X174493020Y-121508049D01*
X174493019Y-121508050D01*
X174310248Y-121650307D01*
X174153395Y-121820695D01*
X174095483Y-121909338D01*
X174041480Y-121955427D01*
X173971132Y-121965002D01*
X173906774Y-121935025D01*
X173884517Y-121909338D01*
X173826604Y-121820695D01*
X173669751Y-121650307D01*
X173486982Y-121508051D01*
X173444422Y-121485019D01*
X173296101Y-121404751D01*
X173245713Y-121354739D01*
X173230361Y-121285422D01*
X173254922Y-121218809D01*
X173307856Y-121177530D01*
X173471852Y-121109601D01*
X173693436Y-120973814D01*
X173794171Y-120887777D01*
X173794171Y-120887775D01*
X172903176Y-119996780D01*
X172961854Y-119966883D01*
X173052883Y-119875854D01*
X173082780Y-119817176D01*
X173973775Y-120708171D01*
X173973777Y-120708171D01*
X174059814Y-120607436D01*
X174195600Y-120385854D01*
X174238067Y-120283330D01*
X174282615Y-120228049D01*
X174349978Y-120205628D01*
X174418770Y-120223186D01*
X174451873Y-120251613D01*
X174537748Y-120356252D01*
X174692531Y-120483278D01*
X174869120Y-120577667D01*
X175060731Y-120635792D01*
X175060735Y-120635792D01*
X175060737Y-120635793D01*
X175259997Y-120655418D01*
X175260000Y-120655418D01*
X175260003Y-120655418D01*
X175459261Y-120635793D01*
X175459263Y-120635793D01*
X175459264Y-120635792D01*
X175459269Y-120635792D01*
X175650880Y-120577667D01*
X175827469Y-120483278D01*
X175982252Y-120356252D01*
X176109278Y-120201469D01*
X176203667Y-120024880D01*
X176261792Y-119833269D01*
X176281418Y-119634000D01*
X176261793Y-119434738D01*
X176261793Y-119434736D01*
X176261792Y-119434733D01*
X176261792Y-119434731D01*
X176203667Y-119243120D01*
X176109278Y-119066531D01*
X175982252Y-118911748D01*
X175827469Y-118784722D01*
X175827467Y-118784721D01*
X175827466Y-118784720D01*
X175650883Y-118690334D01*
X175650877Y-118690332D01*
X175459262Y-118632206D01*
X175260003Y-118612582D01*
X175259997Y-118612582D01*
X175060738Y-118632206D01*
X175060736Y-118632206D01*
X174869122Y-118690332D01*
X174869116Y-118690334D01*
X174692533Y-118784720D01*
X174537747Y-118911748D01*
X174451876Y-119016384D01*
X174393199Y-119056353D01*
X174322227Y-119058254D01*
X174261495Y-119021483D01*
X174238067Y-118984669D01*
X174195600Y-118882145D01*
X174059817Y-118660567D01*
X173973776Y-118559827D01*
X173082780Y-119450823D01*
X173052883Y-119392146D01*
X172961854Y-119301117D01*
X172903176Y-119271219D01*
X173794172Y-118380223D01*
X173794172Y-118380222D01*
X173693432Y-118294182D01*
X173471854Y-118158399D01*
X173231762Y-118058950D01*
X172979071Y-117998284D01*
X172979073Y-117998284D01*
X172720000Y-117977895D01*
X172460927Y-117998284D01*
X172208237Y-118058950D01*
X171968145Y-118158399D01*
X171746564Y-118294184D01*
X171746562Y-118294185D01*
X171645827Y-118380221D01*
X171645826Y-118380222D01*
X172536823Y-119271219D01*
X172478146Y-119301117D01*
X172387117Y-119392146D01*
X172357219Y-119450823D01*
X171466222Y-118559826D01*
X171466221Y-118559827D01*
X171380185Y-118660562D01*
X171380184Y-118660564D01*
X171244399Y-118882145D01*
X171144950Y-119122237D01*
X171084284Y-119374927D01*
X171063895Y-119634000D01*
X153035000Y-119634000D01*
X153035000Y-115570003D01*
X154426271Y-115570003D01*
X154447079Y-115714727D01*
X154447081Y-115714734D01*
X154507824Y-115847743D01*
X154603579Y-115958250D01*
X154726589Y-116037304D01*
X154846039Y-116072378D01*
X154866885Y-116078499D01*
X154866886Y-116078499D01*
X154866889Y-116078500D01*
X154866892Y-116078500D01*
X155013108Y-116078500D01*
X155013111Y-116078500D01*
X155153411Y-116037304D01*
X155255801Y-115971502D01*
X155323922Y-115951500D01*
X163497366Y-115951500D01*
X163523224Y-115954181D01*
X163534017Y-115956445D01*
X163569809Y-115951983D01*
X163577600Y-115951500D01*
X163581611Y-115951500D01*
X163605005Y-115947596D01*
X163612887Y-115946613D01*
X163660360Y-115940696D01*
X163660362Y-115940694D01*
X163668011Y-115938417D01*
X163675584Y-115935818D01*
X163675586Y-115935818D01*
X163724641Y-115909270D01*
X163774746Y-115884776D01*
X163774750Y-115884771D01*
X163781266Y-115880120D01*
X163787562Y-115875220D01*
X163825341Y-115834180D01*
X164234256Y-115425265D01*
X165471166Y-114188354D01*
X165533475Y-114154332D01*
X165573537Y-114154847D01*
X165573822Y-114152197D01*
X165581655Y-114153039D01*
X165581658Y-114153040D01*
X165641745Y-114159500D01*
X166538254Y-114159499D01*
X166598342Y-114153040D01*
X166734267Y-114102342D01*
X166850404Y-114015404D01*
X166937342Y-113899267D01*
X166988040Y-113763342D01*
X166994500Y-113703255D01*
X166994500Y-113703246D01*
X168285500Y-113703246D01*
X168285502Y-113703270D01*
X168291959Y-113763339D01*
X168291959Y-113763341D01*
X168342657Y-113899266D01*
X168364515Y-113928465D01*
X168429596Y-114015404D01*
X168545733Y-114102342D01*
X168681658Y-114153040D01*
X168741745Y-114159500D01*
X169638254Y-114159499D01*
X169698342Y-114153040D01*
X169834267Y-114102342D01*
X169950404Y-114015404D01*
X170037342Y-113899267D01*
X170088040Y-113763342D01*
X170094500Y-113703255D01*
X170094500Y-113537500D01*
X170114502Y-113469379D01*
X170168158Y-113422886D01*
X170220500Y-113411500D01*
X172044500Y-113411500D01*
X172112621Y-113431502D01*
X172159114Y-113485158D01*
X172170500Y-113537500D01*
X172170500Y-113703266D01*
X172176958Y-113763335D01*
X172176959Y-113763340D01*
X172176960Y-113763341D01*
X172227658Y-113899267D01*
X172314596Y-114015404D01*
X172430733Y-114102342D01*
X172566659Y-114153040D01*
X172566662Y-114153040D01*
X172566664Y-114153041D01*
X172626733Y-114159499D01*
X172626741Y-114159499D01*
X172626746Y-114159500D01*
X172626750Y-114159500D01*
X173648250Y-114159500D01*
X173648254Y-114159500D01*
X173648259Y-114159499D01*
X173648266Y-114159499D01*
X173708335Y-114153041D01*
X173708336Y-114153040D01*
X173708341Y-114153040D01*
X173844267Y-114102342D01*
X173960404Y-114015404D01*
X174047342Y-113899267D01*
X174098040Y-113763341D01*
X174104499Y-113703270D01*
X174104499Y-113703266D01*
X174104500Y-113703249D01*
X174104500Y-112356750D01*
X174104499Y-112356733D01*
X174098041Y-112296664D01*
X174098040Y-112296660D01*
X174098040Y-112296659D01*
X174047342Y-112160733D01*
X173960404Y-112044596D01*
X173844267Y-111957658D01*
X173708341Y-111906960D01*
X173708340Y-111906959D01*
X173708335Y-111906958D01*
X173648266Y-111900500D01*
X173648254Y-111900500D01*
X172626746Y-111900500D01*
X172626733Y-111900500D01*
X172566664Y-111906958D01*
X172519473Y-111924559D01*
X172430733Y-111957658D01*
X172430732Y-111957658D01*
X172430731Y-111957659D01*
X172314596Y-112044596D01*
X172282596Y-112087344D01*
X172227658Y-112160733D01*
X172194559Y-112249473D01*
X172176958Y-112296664D01*
X172170500Y-112356733D01*
X172170500Y-112522500D01*
X172150498Y-112590621D01*
X172096842Y-112637114D01*
X172044500Y-112648500D01*
X170220499Y-112648500D01*
X170152378Y-112628498D01*
X170105885Y-112574842D01*
X170094499Y-112522500D01*
X170094499Y-112356753D01*
X170094499Y-112356750D01*
X170094499Y-112356746D01*
X170088040Y-112296658D01*
X170037342Y-112160733D01*
X169950404Y-112044596D01*
X169834267Y-111957658D01*
X169834265Y-111957657D01*
X169834266Y-111957657D01*
X169698349Y-111906962D01*
X169698344Y-111906960D01*
X169698342Y-111906960D01*
X169668298Y-111903730D01*
X169638256Y-111900500D01*
X168741753Y-111900500D01*
X168741729Y-111900502D01*
X168681660Y-111906959D01*
X168681658Y-111906959D01*
X168545733Y-111957657D01*
X168429596Y-112044596D01*
X168342657Y-112160734D01*
X168291962Y-112296650D01*
X168291960Y-112296658D01*
X168285500Y-112356737D01*
X168285500Y-113703246D01*
X166994500Y-113703246D01*
X166994499Y-112356746D01*
X166988040Y-112296658D01*
X166937342Y-112160733D01*
X166850404Y-112044596D01*
X166734267Y-111957658D01*
X166734265Y-111957657D01*
X166734266Y-111957657D01*
X166598349Y-111906962D01*
X166598344Y-111906960D01*
X166598342Y-111906960D01*
X166568298Y-111903730D01*
X166538256Y-111900500D01*
X165641753Y-111900500D01*
X165641729Y-111900502D01*
X165581660Y-111906959D01*
X165581658Y-111906959D01*
X165445733Y-111957657D01*
X165329596Y-112044596D01*
X165242657Y-112160734D01*
X165191962Y-112296650D01*
X165191960Y-112296658D01*
X165185500Y-112356737D01*
X165185500Y-113342786D01*
X165165498Y-113410907D01*
X165148595Y-113431881D01*
X163428882Y-115151595D01*
X163366570Y-115185620D01*
X163339787Y-115188500D01*
X155323922Y-115188500D01*
X155255801Y-115168498D01*
X155210384Y-115139310D01*
X155153411Y-115102696D01*
X155118336Y-115092397D01*
X155013114Y-115061500D01*
X155013111Y-115061500D01*
X154866889Y-115061500D01*
X154866885Y-115061500D01*
X154726589Y-115102696D01*
X154726587Y-115102697D01*
X154603579Y-115181749D01*
X154507824Y-115292256D01*
X154447081Y-115425265D01*
X154447079Y-115425272D01*
X154426271Y-115569996D01*
X154426271Y-115570003D01*
X153035000Y-115570003D01*
X153035000Y-112578713D01*
X153055002Y-112510592D01*
X153108658Y-112464099D01*
X153178932Y-112453995D01*
X153243512Y-112483489D01*
X153250089Y-112489611D01*
X153583804Y-112823327D01*
X153893022Y-113132545D01*
X153909406Y-113152721D01*
X153915440Y-113161956D01*
X153915441Y-113161957D01*
X153915443Y-113161959D01*
X153943894Y-113184103D01*
X153949753Y-113189276D01*
X153952591Y-113192114D01*
X153958379Y-113196246D01*
X153971900Y-113205901D01*
X154014774Y-113239270D01*
X154015915Y-113240158D01*
X154015916Y-113240158D01*
X154022941Y-113243960D01*
X154030134Y-113247477D01*
X154083586Y-113263389D01*
X154136334Y-113281499D01*
X154136338Y-113281499D01*
X154136339Y-113281500D01*
X154136340Y-113281500D01*
X154144247Y-113282819D01*
X154152157Y-113283805D01*
X154152158Y-113283804D01*
X154152159Y-113283805D01*
X154207884Y-113281500D01*
X156272366Y-113281500D01*
X156298224Y-113284181D01*
X156309017Y-113286445D01*
X156344809Y-113281983D01*
X156352600Y-113281500D01*
X156356611Y-113281500D01*
X156380005Y-113277596D01*
X156387887Y-113276613D01*
X156435360Y-113270696D01*
X156435362Y-113270694D01*
X156443011Y-113268417D01*
X156450584Y-113265818D01*
X156450586Y-113265818D01*
X156499641Y-113239270D01*
X156549746Y-113214776D01*
X156549750Y-113214771D01*
X156556266Y-113210120D01*
X156562562Y-113205220D01*
X156600341Y-113164180D01*
X157459933Y-112304589D01*
X157522245Y-112270563D01*
X157572177Y-112269829D01*
X157757653Y-112304500D01*
X157757655Y-112304500D01*
X157962345Y-112304500D01*
X157962347Y-112304500D01*
X158163556Y-112266888D01*
X158354427Y-112192944D01*
X158528462Y-112085186D01*
X158528464Y-112085183D01*
X158528467Y-112085182D01*
X158658157Y-111966953D01*
X158721974Y-111935841D01*
X158792480Y-111944171D01*
X158847290Y-111989296D01*
X158852162Y-111997067D01*
X158959139Y-112182356D01*
X159121649Y-112386137D01*
X159312712Y-112563417D01*
X159312717Y-112563421D01*
X159528059Y-112710239D01*
X159528067Y-112710244D01*
X159762889Y-112823327D01*
X159762896Y-112823330D01*
X160011940Y-112900150D01*
X160011950Y-112900152D01*
X160269685Y-112939000D01*
X160273000Y-112939000D01*
X160273000Y-111686881D01*
X160364237Y-111700000D01*
X160435763Y-111700000D01*
X160527000Y-111686881D01*
X160527000Y-112939000D01*
X160530315Y-112939000D01*
X160788049Y-112900152D01*
X160788059Y-112900150D01*
X161037103Y-112823330D01*
X161037110Y-112823327D01*
X161271932Y-112710244D01*
X161271940Y-112710239D01*
X161487282Y-112563421D01*
X161487287Y-112563417D01*
X161678350Y-112386137D01*
X161840860Y-112182356D01*
X161971177Y-111956641D01*
X162066398Y-111714019D01*
X162066399Y-111714017D01*
X162124397Y-111459914D01*
X162134358Y-111327000D01*
X160883818Y-111327000D01*
X160900000Y-111271889D01*
X160900000Y-111128111D01*
X160883818Y-111073000D01*
X162134358Y-111073000D01*
X162124397Y-110940085D01*
X162066399Y-110685982D01*
X162066398Y-110685980D01*
X161971177Y-110443358D01*
X161840860Y-110217643D01*
X161678350Y-110013862D01*
X161487287Y-109836582D01*
X161483603Y-109833644D01*
X161484335Y-109832725D01*
X161442751Y-109782002D01*
X161434567Y-109711479D01*
X161453983Y-109662804D01*
X161489734Y-109609301D01*
X161504500Y-109535067D01*
X161504499Y-107950003D01*
X164205271Y-107950003D01*
X164226079Y-108094727D01*
X164226081Y-108094734D01*
X164286824Y-108227743D01*
X164382579Y-108338250D01*
X164505589Y-108417304D01*
X164625039Y-108452378D01*
X164645885Y-108458499D01*
X164645886Y-108458499D01*
X164645889Y-108458500D01*
X164645892Y-108458500D01*
X164792108Y-108458500D01*
X164792111Y-108458500D01*
X164932411Y-108417304D01*
X164991380Y-108379406D01*
X165059500Y-108359404D01*
X165127621Y-108379405D01*
X165174114Y-108433061D01*
X165185501Y-108485404D01*
X165185501Y-108623246D01*
X165185502Y-108623270D01*
X165191959Y-108683339D01*
X165191959Y-108683341D01*
X165242657Y-108819266D01*
X165264515Y-108848465D01*
X165329596Y-108935404D01*
X165445733Y-109022342D01*
X165581658Y-109073040D01*
X165641745Y-109079500D01*
X166538254Y-109079499D01*
X166598342Y-109073040D01*
X166734267Y-109022342D01*
X166850404Y-108935404D01*
X166937342Y-108819267D01*
X166988040Y-108683342D01*
X166994500Y-108623255D01*
X166994500Y-108623246D01*
X168285500Y-108623246D01*
X168285502Y-108623270D01*
X168291959Y-108683339D01*
X168291959Y-108683341D01*
X168342657Y-108819266D01*
X168364515Y-108848465D01*
X168429596Y-108935404D01*
X168545733Y-109022342D01*
X168681658Y-109073040D01*
X168741745Y-109079500D01*
X169638254Y-109079499D01*
X169698342Y-109073040D01*
X169834267Y-109022342D01*
X169950404Y-108935404D01*
X170037342Y-108819267D01*
X170088040Y-108683342D01*
X170094500Y-108623255D01*
X170094500Y-108457500D01*
X170114502Y-108389379D01*
X170168158Y-108342886D01*
X170220500Y-108331500D01*
X172044500Y-108331500D01*
X172112621Y-108351502D01*
X172159114Y-108405158D01*
X172170500Y-108457500D01*
X172170500Y-108623266D01*
X172176958Y-108683335D01*
X172176959Y-108683340D01*
X172176960Y-108683341D01*
X172227658Y-108819267D01*
X172314596Y-108935404D01*
X172430733Y-109022342D01*
X172566659Y-109073040D01*
X172566662Y-109073040D01*
X172566664Y-109073041D01*
X172626733Y-109079499D01*
X172626741Y-109079499D01*
X172626746Y-109079500D01*
X172626750Y-109079500D01*
X173648250Y-109079500D01*
X173648254Y-109079500D01*
X173648259Y-109079499D01*
X173648266Y-109079499D01*
X173708335Y-109073041D01*
X173708336Y-109073040D01*
X173708341Y-109073040D01*
X173844267Y-109022342D01*
X173960404Y-108935404D01*
X174047342Y-108819267D01*
X174098040Y-108683341D01*
X174100550Y-108660000D01*
X174104499Y-108623266D01*
X174104500Y-108623249D01*
X174104500Y-107276750D01*
X174104499Y-107276733D01*
X174098041Y-107216664D01*
X174098040Y-107216660D01*
X174098040Y-107216659D01*
X174047342Y-107080733D01*
X173960404Y-106964596D01*
X173844267Y-106877658D01*
X173708341Y-106826960D01*
X173708340Y-106826959D01*
X173708335Y-106826958D01*
X173648266Y-106820500D01*
X173648254Y-106820500D01*
X172626746Y-106820500D01*
X172626733Y-106820500D01*
X172566664Y-106826958D01*
X172519473Y-106844559D01*
X172430733Y-106877658D01*
X172430732Y-106877658D01*
X172430731Y-106877659D01*
X172314596Y-106964596D01*
X172227659Y-107080731D01*
X172176958Y-107216664D01*
X172170500Y-107276733D01*
X172170500Y-107442500D01*
X172150498Y-107510621D01*
X172096842Y-107557114D01*
X172044500Y-107568500D01*
X170220499Y-107568500D01*
X170152378Y-107548498D01*
X170105885Y-107494842D01*
X170094499Y-107442500D01*
X170094499Y-107276753D01*
X170094499Y-107276750D01*
X170094499Y-107276746D01*
X170088040Y-107216658D01*
X170037342Y-107080733D01*
X169950404Y-106964596D01*
X169834267Y-106877658D01*
X169834265Y-106877657D01*
X169834266Y-106877657D01*
X169698349Y-106826962D01*
X169698344Y-106826960D01*
X169698342Y-106826960D01*
X169668298Y-106823730D01*
X169638256Y-106820500D01*
X168741753Y-106820500D01*
X168741729Y-106820502D01*
X168681660Y-106826959D01*
X168681658Y-106826959D01*
X168545733Y-106877657D01*
X168429596Y-106964596D01*
X168342657Y-107080734D01*
X168291962Y-107216650D01*
X168291960Y-107216658D01*
X168285500Y-107276737D01*
X168285500Y-108623246D01*
X166994500Y-108623246D01*
X166994499Y-107276746D01*
X166988040Y-107216658D01*
X166937342Y-107080733D01*
X166850404Y-106964596D01*
X166734267Y-106877658D01*
X166734265Y-106877657D01*
X166734266Y-106877657D01*
X166598349Y-106826962D01*
X166598344Y-106826960D01*
X166598342Y-106826960D01*
X166568298Y-106823730D01*
X166538256Y-106820500D01*
X165641753Y-106820500D01*
X165641729Y-106820502D01*
X165581660Y-106826959D01*
X165581658Y-106826959D01*
X165445733Y-106877657D01*
X165329596Y-106964596D01*
X165242657Y-107080734D01*
X165191962Y-107216650D01*
X165191960Y-107216658D01*
X165185500Y-107276737D01*
X165185500Y-107414594D01*
X165165498Y-107482715D01*
X165111842Y-107529208D01*
X165041568Y-107539312D01*
X164991380Y-107520592D01*
X164932416Y-107482698D01*
X164932412Y-107482696D01*
X164932411Y-107482696D01*
X164897336Y-107472397D01*
X164792114Y-107441500D01*
X164792111Y-107441500D01*
X164645889Y-107441500D01*
X164645885Y-107441500D01*
X164505589Y-107482696D01*
X164505587Y-107482697D01*
X164382579Y-107561749D01*
X164286824Y-107672256D01*
X164226081Y-107805265D01*
X164226079Y-107805272D01*
X164205271Y-107949996D01*
X164205271Y-107950003D01*
X161504499Y-107950003D01*
X161504499Y-107784934D01*
X161504498Y-107784930D01*
X161504498Y-107784926D01*
X161489734Y-107710699D01*
X161489733Y-107710697D01*
X161433484Y-107626516D01*
X161433483Y-107626515D01*
X161349302Y-107570266D01*
X161275069Y-107555500D01*
X161275067Y-107555500D01*
X160527500Y-107555500D01*
X160459379Y-107535498D01*
X160412886Y-107481842D01*
X160401500Y-107429500D01*
X160401500Y-104777221D01*
X160421502Y-104709100D01*
X160432273Y-104694711D01*
X160452176Y-104671743D01*
X160512919Y-104538734D01*
X160519800Y-104490874D01*
X160533729Y-104394003D01*
X160533729Y-104393996D01*
X160512920Y-104249272D01*
X160512919Y-104249271D01*
X160512919Y-104249266D01*
X160452176Y-104116257D01*
X160356421Y-104005750D01*
X160356420Y-104005749D01*
X160356419Y-104005748D01*
X160334244Y-103991497D01*
X160287752Y-103937841D01*
X160277649Y-103867567D01*
X160307142Y-103802987D01*
X160366869Y-103764604D01*
X160402366Y-103759500D01*
X163446078Y-103759500D01*
X163514199Y-103779502D01*
X163616589Y-103845304D01*
X163736039Y-103880378D01*
X163756885Y-103886499D01*
X163756886Y-103886499D01*
X163756889Y-103886500D01*
X163756892Y-103886500D01*
X163903108Y-103886500D01*
X163903111Y-103886500D01*
X164043411Y-103845304D01*
X164166421Y-103766250D01*
X164262176Y-103655743D01*
X164322919Y-103522734D01*
X164332664Y-103454958D01*
X164343729Y-103378003D01*
X164343729Y-103377996D01*
X164322920Y-103233272D01*
X164322919Y-103233271D01*
X164322919Y-103233266D01*
X164296693Y-103175840D01*
X164286591Y-103105568D01*
X164316084Y-103040987D01*
X164375810Y-103002604D01*
X164411308Y-102997500D01*
X165059501Y-102997500D01*
X165127622Y-103017502D01*
X165174115Y-103071158D01*
X165185501Y-103123500D01*
X165185501Y-103543246D01*
X165185502Y-103543270D01*
X165191959Y-103603339D01*
X165191959Y-103603341D01*
X165242657Y-103739266D01*
X165257804Y-103759500D01*
X165329596Y-103855404D01*
X165445733Y-103942342D01*
X165581658Y-103993040D01*
X165641745Y-103999500D01*
X166538254Y-103999499D01*
X166598342Y-103993040D01*
X166734267Y-103942342D01*
X166850404Y-103855404D01*
X166937342Y-103739267D01*
X166988040Y-103603342D01*
X166994500Y-103543255D01*
X166994500Y-103543246D01*
X168285500Y-103543246D01*
X168285502Y-103543270D01*
X168291959Y-103603339D01*
X168291959Y-103603341D01*
X168342657Y-103739266D01*
X168357804Y-103759500D01*
X168429596Y-103855404D01*
X168545733Y-103942342D01*
X168681658Y-103993040D01*
X168741745Y-103999500D01*
X169638254Y-103999499D01*
X169698342Y-103993040D01*
X169834267Y-103942342D01*
X169950404Y-103855404D01*
X170037342Y-103739267D01*
X170088040Y-103603342D01*
X170094500Y-103543255D01*
X170094500Y-103377500D01*
X170114502Y-103309379D01*
X170168158Y-103262886D01*
X170220500Y-103251500D01*
X172044500Y-103251500D01*
X172112621Y-103271502D01*
X172159114Y-103325158D01*
X172170500Y-103377500D01*
X172170500Y-103543266D01*
X172176958Y-103603335D01*
X172176959Y-103603340D01*
X172176960Y-103603341D01*
X172227658Y-103739267D01*
X172314596Y-103855404D01*
X172430733Y-103942342D01*
X172566659Y-103993040D01*
X172566662Y-103993040D01*
X172566664Y-103993041D01*
X172626733Y-103999499D01*
X172626741Y-103999499D01*
X172626746Y-103999500D01*
X172626750Y-103999500D01*
X173648250Y-103999500D01*
X173648254Y-103999500D01*
X173648259Y-103999499D01*
X173648266Y-103999499D01*
X173708335Y-103993041D01*
X173708336Y-103993040D01*
X173708341Y-103993040D01*
X173844267Y-103942342D01*
X173960404Y-103855404D01*
X174047342Y-103739267D01*
X174098040Y-103603341D01*
X174100103Y-103584159D01*
X174104499Y-103543266D01*
X174104500Y-103543249D01*
X174104500Y-102196750D01*
X174104499Y-102196733D01*
X174098041Y-102136664D01*
X174098040Y-102136660D01*
X174098040Y-102136659D01*
X174047342Y-102000733D01*
X173960404Y-101884596D01*
X173844267Y-101797658D01*
X173708341Y-101746960D01*
X173708340Y-101746959D01*
X173708335Y-101746958D01*
X173648266Y-101740500D01*
X173648254Y-101740500D01*
X172626746Y-101740500D01*
X172626733Y-101740500D01*
X172566664Y-101746958D01*
X172519473Y-101764559D01*
X172430733Y-101797658D01*
X172430732Y-101797658D01*
X172430731Y-101797659D01*
X172314596Y-101884596D01*
X172227659Y-102000731D01*
X172176958Y-102136664D01*
X172170500Y-102196733D01*
X172170500Y-102362500D01*
X172150498Y-102430621D01*
X172096842Y-102477114D01*
X172044500Y-102488500D01*
X170220499Y-102488500D01*
X170152378Y-102468498D01*
X170105885Y-102414842D01*
X170094499Y-102362500D01*
X170094499Y-102196753D01*
X170094499Y-102196750D01*
X170094499Y-102196746D01*
X170088040Y-102136658D01*
X170037342Y-102000733D01*
X169950404Y-101884596D01*
X169834267Y-101797658D01*
X169834265Y-101797657D01*
X169834266Y-101797657D01*
X169698349Y-101746962D01*
X169698344Y-101746960D01*
X169698342Y-101746960D01*
X169668298Y-101743730D01*
X169638256Y-101740500D01*
X168741753Y-101740500D01*
X168741729Y-101740502D01*
X168681660Y-101746959D01*
X168681658Y-101746959D01*
X168545733Y-101797657D01*
X168429596Y-101884596D01*
X168342657Y-102000734D01*
X168291962Y-102136650D01*
X168291960Y-102136658D01*
X168285500Y-102196737D01*
X168285500Y-103543246D01*
X166994500Y-103543246D01*
X166994499Y-102196746D01*
X166988040Y-102136658D01*
X166937342Y-102000733D01*
X166850404Y-101884596D01*
X166734267Y-101797658D01*
X166734265Y-101797657D01*
X166734266Y-101797657D01*
X166598349Y-101746962D01*
X166598344Y-101746960D01*
X166598342Y-101746960D01*
X166568298Y-101743730D01*
X166538256Y-101740500D01*
X165641753Y-101740500D01*
X165641729Y-101740502D01*
X165581660Y-101746959D01*
X165581658Y-101746959D01*
X165445733Y-101797657D01*
X165329596Y-101884596D01*
X165242657Y-102000734D01*
X165191962Y-102136650D01*
X165191768Y-102137473D01*
X165191441Y-102138045D01*
X165189205Y-102144043D01*
X165188233Y-102143680D01*
X165156637Y-102199169D01*
X165093729Y-102232078D01*
X165069144Y-102234500D01*
X159387922Y-102234500D01*
X159319801Y-102214498D01*
X159274384Y-102185310D01*
X159217411Y-102148696D01*
X159176434Y-102136664D01*
X159077114Y-102107500D01*
X159077111Y-102107500D01*
X158930889Y-102107500D01*
X158930885Y-102107500D01*
X158790589Y-102148696D01*
X158790587Y-102148697D01*
X158667579Y-102227749D01*
X158571824Y-102338256D01*
X158511081Y-102471265D01*
X158511079Y-102471272D01*
X158490271Y-102615996D01*
X158490271Y-102616003D01*
X158511079Y-102760727D01*
X158511081Y-102760734D01*
X158537306Y-102818158D01*
X158547409Y-102888432D01*
X158517916Y-102953013D01*
X158458190Y-102991396D01*
X158422692Y-102996500D01*
X157786634Y-102996500D01*
X157760775Y-102993818D01*
X157749981Y-102991554D01*
X157726475Y-102994485D01*
X157714190Y-102996016D01*
X157706400Y-102996500D01*
X157702389Y-102996500D01*
X157678995Y-103000403D01*
X157673973Y-103001029D01*
X157623638Y-103007303D01*
X157616000Y-103009577D01*
X157608415Y-103012181D01*
X157559358Y-103038729D01*
X157509256Y-103063222D01*
X157502736Y-103067877D01*
X157496440Y-103072778D01*
X157458659Y-103113818D01*
X157247458Y-103325018D01*
X157227280Y-103341405D01*
X157218044Y-103347438D01*
X157195895Y-103375894D01*
X157190736Y-103381738D01*
X157187892Y-103384583D01*
X157174099Y-103403900D01*
X157139840Y-103447916D01*
X157136030Y-103454958D01*
X157132524Y-103462129D01*
X157116610Y-103515586D01*
X157098499Y-103568339D01*
X157097184Y-103576218D01*
X157096194Y-103584160D01*
X157098500Y-103639884D01*
X157098500Y-107803995D01*
X157078498Y-107872116D01*
X157057386Y-107897109D01*
X157040268Y-107912714D01*
X157040266Y-107912716D01*
X156916913Y-108076063D01*
X156825671Y-108259301D01*
X156769654Y-108456180D01*
X156750768Y-108659995D01*
X156750768Y-108660004D01*
X156769654Y-108863819D01*
X156802848Y-108980484D01*
X156825672Y-109060701D01*
X156916912Y-109243935D01*
X156916913Y-109243936D01*
X157040266Y-109407284D01*
X157191536Y-109545185D01*
X157365566Y-109652940D01*
X157365568Y-109652940D01*
X157365573Y-109652944D01*
X157556444Y-109726888D01*
X157757653Y-109764500D01*
X157757655Y-109764500D01*
X157962345Y-109764500D01*
X157962347Y-109764500D01*
X158163556Y-109726888D01*
X158354427Y-109652944D01*
X158528462Y-109545186D01*
X158679732Y-109407285D01*
X158803088Y-109243935D01*
X158894328Y-109060701D01*
X158950345Y-108863821D01*
X158958304Y-108777927D01*
X158969232Y-108660004D01*
X158969232Y-108659995D01*
X158950345Y-108456180D01*
X158939284Y-108417303D01*
X158894328Y-108259299D01*
X158803088Y-108076065D01*
X158707891Y-107950003D01*
X158679733Y-107912715D01*
X158528463Y-107774814D01*
X158354433Y-107667059D01*
X158354428Y-107667057D01*
X158354427Y-107667056D01*
X158354422Y-107667054D01*
X158163561Y-107593113D01*
X158041339Y-107570266D01*
X157964346Y-107555873D01*
X157901062Y-107523695D01*
X157865220Y-107462410D01*
X157861500Y-107432019D01*
X157861500Y-103885500D01*
X157881502Y-103817379D01*
X157935158Y-103770886D01*
X157987500Y-103759500D01*
X159637634Y-103759500D01*
X159705755Y-103779502D01*
X159752248Y-103833158D01*
X159762352Y-103903432D01*
X159732858Y-103968012D01*
X159705756Y-103991497D01*
X159683580Y-104005748D01*
X159683579Y-104005748D01*
X159587824Y-104116256D01*
X159527081Y-104249265D01*
X159527079Y-104249272D01*
X159506271Y-104393996D01*
X159506271Y-104394003D01*
X159527079Y-104538727D01*
X159527081Y-104538734D01*
X159587824Y-104671743D01*
X159607723Y-104694708D01*
X159637217Y-104759287D01*
X159638500Y-104777221D01*
X159638500Y-107430115D01*
X159618498Y-107498236D01*
X159564842Y-107544729D01*
X159530921Y-107553873D01*
X159531005Y-107554293D01*
X159450699Y-107570265D01*
X159366515Y-107626516D01*
X159310266Y-107710697D01*
X159295500Y-107784930D01*
X159295500Y-109535063D01*
X159295501Y-109535073D01*
X159310265Y-109609301D01*
X159346015Y-109662803D01*
X159367230Y-109730556D01*
X159348447Y-109799023D01*
X159315924Y-109833051D01*
X159316397Y-109833644D01*
X159312712Y-109836582D01*
X159121649Y-110013862D01*
X158959141Y-110217641D01*
X158852162Y-110402933D01*
X158800779Y-110451926D01*
X158731065Y-110465361D01*
X158665154Y-110438974D01*
X158658157Y-110433047D01*
X158528463Y-110314814D01*
X158354433Y-110207059D01*
X158354428Y-110207057D01*
X158354427Y-110207056D01*
X158163559Y-110133113D01*
X158163560Y-110133113D01*
X158163557Y-110133112D01*
X158163556Y-110133112D01*
X157962347Y-110095500D01*
X157757653Y-110095500D01*
X157556444Y-110133112D01*
X157556439Y-110133113D01*
X157365577Y-110207054D01*
X157365566Y-110207059D01*
X157191536Y-110314814D01*
X157040266Y-110452715D01*
X156916913Y-110616063D01*
X156825671Y-110799301D01*
X156769654Y-110996180D01*
X156750768Y-111199995D01*
X156750768Y-111200004D01*
X156769654Y-111403819D01*
X156825669Y-111600692D01*
X156825674Y-111600705D01*
X156871392Y-111692521D01*
X156883850Y-111762416D01*
X156856543Y-111827951D01*
X156847697Y-111837778D01*
X156203882Y-112481595D01*
X156141569Y-112515620D01*
X156114786Y-112518500D01*
X155637305Y-112518500D01*
X155569184Y-112498498D01*
X155522691Y-112444842D01*
X155512587Y-112374568D01*
X155542081Y-112309988D01*
X155601807Y-112271604D01*
X155614139Y-112268648D01*
X155623556Y-112266888D01*
X155814427Y-112192944D01*
X155988462Y-112085186D01*
X156139732Y-111947285D01*
X156263088Y-111783935D01*
X156354328Y-111600701D01*
X156410345Y-111403821D01*
X156417464Y-111327000D01*
X156429232Y-111200004D01*
X156429232Y-111199995D01*
X156410345Y-110996180D01*
X156374217Y-110869202D01*
X156354328Y-110799299D01*
X156263088Y-110616065D01*
X156222538Y-110562368D01*
X156139733Y-110452715D01*
X155988463Y-110314814D01*
X155814433Y-110207059D01*
X155814428Y-110207057D01*
X155814427Y-110207056D01*
X155623559Y-110133113D01*
X155623560Y-110133113D01*
X155623557Y-110133112D01*
X155623556Y-110133112D01*
X155422347Y-110095500D01*
X155217653Y-110095500D01*
X155016444Y-110133112D01*
X155016439Y-110133113D01*
X154825577Y-110207054D01*
X154825566Y-110207059D01*
X154651536Y-110314814D01*
X154500266Y-110452715D01*
X154376913Y-110616063D01*
X154285671Y-110799301D01*
X154229654Y-110996180D01*
X154210768Y-111199995D01*
X154210768Y-111200004D01*
X154229654Y-111403819D01*
X154253288Y-111486882D01*
X154285672Y-111600701D01*
X154376912Y-111783935D01*
X154376913Y-111783936D01*
X154500266Y-111947284D01*
X154651536Y-112085185D01*
X154825566Y-112192940D01*
X154825568Y-112192940D01*
X154825573Y-112192944D01*
X155016439Y-112266886D01*
X155016444Y-112266888D01*
X155025849Y-112268646D01*
X155089132Y-112300823D01*
X155124975Y-112362108D01*
X155121994Y-112433042D01*
X155081137Y-112491104D01*
X155015375Y-112517860D01*
X155002695Y-112518500D01*
X154410212Y-112518500D01*
X154342091Y-112498498D01*
X154321117Y-112481595D01*
X153326405Y-111486882D01*
X153292379Y-111424570D01*
X153289500Y-111397787D01*
X153289500Y-109730221D01*
X153309502Y-109662100D01*
X153320273Y-109647711D01*
X153340176Y-109624743D01*
X153400919Y-109491734D01*
X153413061Y-109407285D01*
X153421729Y-109347003D01*
X153421729Y-109346996D01*
X153400920Y-109202272D01*
X153400919Y-109202271D01*
X153400919Y-109202266D01*
X153340176Y-109069257D01*
X153244421Y-108958750D01*
X153244420Y-108958749D01*
X153128338Y-108884148D01*
X153121411Y-108879696D01*
X153121407Y-108879695D01*
X153113216Y-108875954D01*
X153114258Y-108873672D01*
X153065772Y-108842509D01*
X153036282Y-108777927D01*
X153035000Y-108760001D01*
X153035000Y-105029734D01*
X153055002Y-104961613D01*
X153108658Y-104915120D01*
X153178932Y-104905016D01*
X153229119Y-104923736D01*
X153278721Y-104955613D01*
X153329585Y-104988302D01*
X153329586Y-104988302D01*
X153329589Y-104988304D01*
X153469889Y-105029500D01*
X153469893Y-105029500D01*
X153477536Y-105030599D01*
X153542117Y-105060092D01*
X153548700Y-105066222D01*
X154901595Y-106419117D01*
X154935621Y-106481429D01*
X154938500Y-106508212D01*
X154938500Y-107536995D01*
X154918498Y-107605116D01*
X154864842Y-107651609D01*
X154858018Y-107654486D01*
X154825576Y-107667054D01*
X154825569Y-107667058D01*
X154651536Y-107774814D01*
X154500266Y-107912715D01*
X154376913Y-108076063D01*
X154285671Y-108259301D01*
X154229654Y-108456180D01*
X154210768Y-108659995D01*
X154210768Y-108660004D01*
X154229654Y-108863819D01*
X154262848Y-108980484D01*
X154285672Y-109060701D01*
X154376912Y-109243935D01*
X154376913Y-109243936D01*
X154500266Y-109407284D01*
X154651536Y-109545185D01*
X154825566Y-109652940D01*
X154825568Y-109652940D01*
X154825573Y-109652944D01*
X155016444Y-109726888D01*
X155217653Y-109764500D01*
X155217655Y-109764500D01*
X155422345Y-109764500D01*
X155422347Y-109764500D01*
X155623556Y-109726888D01*
X155814427Y-109652944D01*
X155988462Y-109545186D01*
X156139732Y-109407285D01*
X156263088Y-109243935D01*
X156354328Y-109060701D01*
X156410345Y-108863821D01*
X156418304Y-108777927D01*
X156429232Y-108660004D01*
X156429232Y-108659995D01*
X156410345Y-108456180D01*
X156399284Y-108417303D01*
X156354328Y-108259299D01*
X156263088Y-108076065D01*
X156167891Y-107950003D01*
X156139733Y-107912715D01*
X155988463Y-107774814D01*
X155814430Y-107667058D01*
X155814427Y-107667056D01*
X155814425Y-107667055D01*
X155814423Y-107667054D01*
X155781982Y-107654486D01*
X155725687Y-107611225D01*
X155701718Y-107544397D01*
X155701500Y-107536995D01*
X155701500Y-106350639D01*
X155704182Y-106324780D01*
X155706446Y-106313983D01*
X155705609Y-106307272D01*
X155701983Y-106278185D01*
X155701500Y-106270393D01*
X155701500Y-106266395D01*
X155701500Y-106266389D01*
X155697597Y-106243004D01*
X155690696Y-106187640D01*
X155690696Y-106187639D01*
X155688416Y-106179982D01*
X155685819Y-106172415D01*
X155659276Y-106123368D01*
X155634776Y-106073252D01*
X155630147Y-106066768D01*
X155625220Y-106060438D01*
X155584192Y-106022669D01*
X154082051Y-104520528D01*
X154048026Y-104458216D01*
X154046432Y-104449386D01*
X154035919Y-104376266D01*
X153975176Y-104243257D01*
X153879421Y-104132750D01*
X153879420Y-104132749D01*
X153799368Y-104081303D01*
X153756411Y-104053696D01*
X153715233Y-104041605D01*
X153616114Y-104012500D01*
X153616111Y-104012500D01*
X153469889Y-104012500D01*
X153469885Y-104012500D01*
X153329589Y-104053696D01*
X153329587Y-104053697D01*
X153229121Y-104118263D01*
X153161000Y-104138265D01*
X153092879Y-104118263D01*
X153046386Y-104064607D01*
X153035000Y-104012265D01*
X153035000Y-100965003D01*
X157855271Y-100965003D01*
X157876079Y-101109727D01*
X157876081Y-101109734D01*
X157936824Y-101242743D01*
X158032579Y-101353250D01*
X158155589Y-101432304D01*
X158275039Y-101467378D01*
X158295885Y-101473499D01*
X158295886Y-101473499D01*
X158295889Y-101473500D01*
X158295892Y-101473500D01*
X158442108Y-101473500D01*
X158442111Y-101473500D01*
X158582411Y-101432304D01*
X158684801Y-101366502D01*
X158752922Y-101346500D01*
X164335078Y-101346500D01*
X164403199Y-101366502D01*
X164505589Y-101432304D01*
X164625039Y-101467378D01*
X164645885Y-101473499D01*
X164645886Y-101473499D01*
X164645889Y-101473500D01*
X164645892Y-101473500D01*
X164792108Y-101473500D01*
X164792111Y-101473500D01*
X164932411Y-101432304D01*
X165055421Y-101353250D01*
X165151176Y-101242743D01*
X165211919Y-101109734D01*
X165232729Y-100965000D01*
X165232729Y-100964996D01*
X165211920Y-100820272D01*
X165211919Y-100820271D01*
X165211919Y-100820266D01*
X165151176Y-100687257D01*
X165055421Y-100576750D01*
X165055420Y-100576749D01*
X164993916Y-100537223D01*
X164932411Y-100497696D01*
X164897336Y-100487397D01*
X164792114Y-100456500D01*
X164792111Y-100456500D01*
X164645889Y-100456500D01*
X164645885Y-100456500D01*
X164505589Y-100497696D01*
X164505587Y-100497697D01*
X164403199Y-100563498D01*
X164335078Y-100583500D01*
X158752922Y-100583500D01*
X158684801Y-100563498D01*
X158639384Y-100534310D01*
X158582411Y-100497696D01*
X158547336Y-100487397D01*
X158442114Y-100456500D01*
X158442111Y-100456500D01*
X158295889Y-100456500D01*
X158295885Y-100456500D01*
X158155589Y-100497696D01*
X158155587Y-100497697D01*
X158032579Y-100576749D01*
X157936824Y-100687256D01*
X157876081Y-100820265D01*
X157876079Y-100820272D01*
X157855271Y-100964996D01*
X157855271Y-100965003D01*
X153035000Y-100965003D01*
X153035000Y-98376998D01*
X153055002Y-98308877D01*
X153108658Y-98262384D01*
X153117527Y-98259076D01*
X153121401Y-98257306D01*
X153121411Y-98257304D01*
X153223801Y-98191502D01*
X153291922Y-98171500D01*
X155122260Y-98171500D01*
X155190381Y-98191502D01*
X155211355Y-98208405D01*
X155274276Y-98271326D01*
X155331361Y-98300412D01*
X155388445Y-98329498D01*
X155483166Y-98344500D01*
X155483168Y-98344500D01*
X157196832Y-98344500D01*
X157196834Y-98344500D01*
X157291555Y-98329498D01*
X157405723Y-98271326D01*
X157496326Y-98180723D01*
X157554498Y-98066555D01*
X157569500Y-97971834D01*
X157569500Y-97608166D01*
X157554498Y-97513445D01*
X157525412Y-97456361D01*
X157496326Y-97399276D01*
X157405723Y-97308673D01*
X157349677Y-97280117D01*
X157324455Y-97267266D01*
X157272842Y-97218519D01*
X157255776Y-97149604D01*
X157278677Y-97082402D01*
X157324455Y-97042734D01*
X157405723Y-97001326D01*
X157419747Y-96987302D01*
X157468645Y-96938405D01*
X157530957Y-96904379D01*
X157557740Y-96901500D01*
X159255078Y-96901500D01*
X159323199Y-96921502D01*
X159425589Y-96987304D01*
X159545039Y-97022378D01*
X159565885Y-97028499D01*
X159565886Y-97028499D01*
X159565889Y-97028500D01*
X159565892Y-97028500D01*
X159712108Y-97028500D01*
X159712111Y-97028500D01*
X159852411Y-96987304D01*
X159975421Y-96908250D01*
X159975421Y-96908249D01*
X159983002Y-96903378D01*
X159984762Y-96906116D01*
X160034785Y-96883262D01*
X160105061Y-96893355D01*
X160141832Y-96918882D01*
X160224274Y-97001324D01*
X160224277Y-97001326D01*
X160305542Y-97042733D01*
X160357157Y-97091482D01*
X160374223Y-97160396D01*
X160351322Y-97227598D01*
X160305542Y-97267267D01*
X160224277Y-97308673D01*
X160224274Y-97308675D01*
X160133673Y-97399276D01*
X160075501Y-97513446D01*
X160060500Y-97608167D01*
X160060500Y-97971832D01*
X160075501Y-98066553D01*
X160133673Y-98180723D01*
X160224276Y-98271326D01*
X160281361Y-98300412D01*
X160338445Y-98329498D01*
X160433166Y-98344500D01*
X160687685Y-98344500D01*
X160755806Y-98364502D01*
X160802299Y-98418158D01*
X160812403Y-98488432D01*
X160802299Y-98522839D01*
X160802067Y-98523349D01*
X160797081Y-98534266D01*
X160797079Y-98534272D01*
X160776271Y-98678996D01*
X160776271Y-98679003D01*
X160797079Y-98823727D01*
X160797081Y-98823734D01*
X160857824Y-98956743D01*
X160876232Y-98977987D01*
X160905725Y-99042568D01*
X160895622Y-99112842D01*
X160849129Y-99166498D01*
X160781009Y-99186500D01*
X160022922Y-99186500D01*
X159954801Y-99166498D01*
X159871310Y-99112842D01*
X159852411Y-99100696D01*
X159802055Y-99085910D01*
X159712114Y-99059500D01*
X159712111Y-99059500D01*
X159565889Y-99059500D01*
X159565885Y-99059500D01*
X159425589Y-99100696D01*
X159425587Y-99100697D01*
X159302579Y-99179749D01*
X159206824Y-99290256D01*
X159146081Y-99423265D01*
X159146079Y-99423272D01*
X159125271Y-99567996D01*
X159125271Y-99568003D01*
X159146079Y-99712727D01*
X159146081Y-99712734D01*
X159206824Y-99845743D01*
X159302579Y-99956250D01*
X159425589Y-100035304D01*
X159545039Y-100070378D01*
X159565885Y-100076499D01*
X159565886Y-100076499D01*
X159565889Y-100076500D01*
X159565892Y-100076500D01*
X159712108Y-100076500D01*
X159712111Y-100076500D01*
X159852411Y-100035304D01*
X159954801Y-99969502D01*
X160022922Y-99949500D01*
X164259366Y-99949500D01*
X164285224Y-99952181D01*
X164296017Y-99954445D01*
X164331809Y-99949983D01*
X164339600Y-99949500D01*
X164343611Y-99949500D01*
X164367005Y-99945596D01*
X164374887Y-99944613D01*
X164422360Y-99938696D01*
X164422362Y-99938694D01*
X164430011Y-99936417D01*
X164437584Y-99933818D01*
X164437586Y-99933818D01*
X164486641Y-99907270D01*
X164536746Y-99882776D01*
X164536750Y-99882771D01*
X164543266Y-99878120D01*
X164549562Y-99873220D01*
X164587341Y-99832180D01*
X164765219Y-99654302D01*
X165471166Y-98948354D01*
X165533475Y-98914332D01*
X165573537Y-98914847D01*
X165573822Y-98912197D01*
X165581655Y-98913039D01*
X165581658Y-98913040D01*
X165641745Y-98919500D01*
X166538254Y-98919499D01*
X166598342Y-98913040D01*
X166734267Y-98862342D01*
X166850404Y-98775404D01*
X166937342Y-98659267D01*
X166988040Y-98523342D01*
X166994500Y-98463255D01*
X166994500Y-98463246D01*
X168285500Y-98463246D01*
X168285502Y-98463270D01*
X168291959Y-98523339D01*
X168291959Y-98523341D01*
X168342657Y-98659266D01*
X168357427Y-98678996D01*
X168429596Y-98775404D01*
X168545733Y-98862342D01*
X168681658Y-98913040D01*
X168741745Y-98919500D01*
X169638254Y-98919499D01*
X169698342Y-98913040D01*
X169834267Y-98862342D01*
X169950404Y-98775404D01*
X170037342Y-98659267D01*
X170088040Y-98523342D01*
X170094500Y-98463255D01*
X170094500Y-98297500D01*
X170114502Y-98229379D01*
X170168158Y-98182886D01*
X170220500Y-98171500D01*
X172044500Y-98171500D01*
X172112621Y-98191502D01*
X172159114Y-98245158D01*
X172170500Y-98297500D01*
X172170500Y-98463266D01*
X172176958Y-98523335D01*
X172176959Y-98523340D01*
X172176960Y-98523341D01*
X172227658Y-98659267D01*
X172314596Y-98775404D01*
X172430733Y-98862342D01*
X172566659Y-98913040D01*
X172566662Y-98913040D01*
X172566664Y-98913041D01*
X172626733Y-98919499D01*
X172626741Y-98919499D01*
X172626746Y-98919500D01*
X172626750Y-98919500D01*
X173648250Y-98919500D01*
X173648254Y-98919500D01*
X173648259Y-98919499D01*
X173648266Y-98919499D01*
X173708335Y-98913041D01*
X173708336Y-98913040D01*
X173708341Y-98913040D01*
X173844267Y-98862342D01*
X173960404Y-98775404D01*
X174047342Y-98659267D01*
X174098040Y-98523341D01*
X174098094Y-98522844D01*
X174104499Y-98463266D01*
X174104500Y-98463249D01*
X174104500Y-97116750D01*
X174104499Y-97116733D01*
X174098041Y-97056664D01*
X174098040Y-97056660D01*
X174098040Y-97056659D01*
X174047342Y-96920733D01*
X173960404Y-96804596D01*
X173844267Y-96717658D01*
X173708341Y-96666960D01*
X173708340Y-96666959D01*
X173708335Y-96666958D01*
X173648266Y-96660500D01*
X173648254Y-96660500D01*
X172626746Y-96660500D01*
X172626733Y-96660500D01*
X172566664Y-96666958D01*
X172519473Y-96684559D01*
X172430733Y-96717658D01*
X172430732Y-96717658D01*
X172430731Y-96717659D01*
X172314596Y-96804596D01*
X172227659Y-96920731D01*
X172176958Y-97056664D01*
X172170500Y-97116733D01*
X172170500Y-97282500D01*
X172150498Y-97350621D01*
X172096842Y-97397114D01*
X172044500Y-97408500D01*
X170220499Y-97408500D01*
X170152378Y-97388498D01*
X170105885Y-97334842D01*
X170094499Y-97282500D01*
X170094499Y-97116753D01*
X170094499Y-97116750D01*
X170094499Y-97116746D01*
X170088040Y-97056658D01*
X170037342Y-96920733D01*
X169950404Y-96804596D01*
X169834267Y-96717658D01*
X169834265Y-96717657D01*
X169834266Y-96717657D01*
X169698349Y-96666962D01*
X169698344Y-96666960D01*
X169698342Y-96666960D01*
X169668298Y-96663730D01*
X169638256Y-96660500D01*
X168741753Y-96660500D01*
X168741729Y-96660502D01*
X168681660Y-96666959D01*
X168681658Y-96666959D01*
X168545733Y-96717657D01*
X168429596Y-96804596D01*
X168342657Y-96920734D01*
X168291962Y-97056650D01*
X168291960Y-97056658D01*
X168285500Y-97116737D01*
X168285500Y-98463246D01*
X166994500Y-98463246D01*
X166994499Y-97116746D01*
X166988040Y-97056658D01*
X166937342Y-96920733D01*
X166850404Y-96804596D01*
X166734267Y-96717658D01*
X166734265Y-96717657D01*
X166734266Y-96717657D01*
X166598349Y-96666962D01*
X166598344Y-96666960D01*
X166598342Y-96666960D01*
X166568298Y-96663730D01*
X166538256Y-96660500D01*
X165641753Y-96660500D01*
X165641729Y-96660502D01*
X165581660Y-96666959D01*
X165581658Y-96666959D01*
X165445733Y-96717657D01*
X165329596Y-96804596D01*
X165242657Y-96920734D01*
X165191962Y-97056650D01*
X165191960Y-97056658D01*
X165185500Y-97116737D01*
X165185500Y-98102786D01*
X165165498Y-98170907D01*
X165148600Y-98191876D01*
X164190880Y-99149596D01*
X164128570Y-99183620D01*
X164101787Y-99186500D01*
X161798992Y-99186500D01*
X161730871Y-99166498D01*
X161684378Y-99112842D01*
X161674274Y-99042568D01*
X161703768Y-98977988D01*
X161703768Y-98977987D01*
X161708137Y-98972945D01*
X161722176Y-98956743D01*
X161782919Y-98823734D01*
X161790392Y-98771761D01*
X161803729Y-98679003D01*
X161803729Y-98678996D01*
X161782920Y-98534272D01*
X161782919Y-98534271D01*
X161782919Y-98534266D01*
X161777701Y-98522841D01*
X161767597Y-98452570D01*
X161797089Y-98387989D01*
X161856815Y-98349604D01*
X161892315Y-98344500D01*
X162146832Y-98344500D01*
X162146834Y-98344500D01*
X162241555Y-98329498D01*
X162355723Y-98271326D01*
X162446326Y-98180723D01*
X162504498Y-98066555D01*
X162519500Y-97971834D01*
X162519500Y-97608166D01*
X162504498Y-97513445D01*
X162475412Y-97456361D01*
X162446326Y-97399276D01*
X162355723Y-97308673D01*
X162299677Y-97280117D01*
X162274455Y-97267266D01*
X162222842Y-97218519D01*
X162205776Y-97149604D01*
X162228677Y-97082402D01*
X162274455Y-97042734D01*
X162355723Y-97001326D01*
X162369747Y-96987302D01*
X162418645Y-96938405D01*
X162480957Y-96904379D01*
X162507740Y-96901500D01*
X163446078Y-96901500D01*
X163514199Y-96921502D01*
X163616589Y-96987304D01*
X163736039Y-97022378D01*
X163756885Y-97028499D01*
X163756886Y-97028499D01*
X163756889Y-97028500D01*
X163756892Y-97028500D01*
X163903108Y-97028500D01*
X163903111Y-97028500D01*
X164043411Y-96987304D01*
X164166421Y-96908250D01*
X164262176Y-96797743D01*
X164322919Y-96664734D01*
X164343729Y-96520000D01*
X164343729Y-96519996D01*
X164322920Y-96375272D01*
X164322919Y-96375271D01*
X164322919Y-96375266D01*
X164262176Y-96242257D01*
X164166421Y-96131750D01*
X164166420Y-96131749D01*
X164104916Y-96092223D01*
X164043411Y-96052696D01*
X163995657Y-96038674D01*
X163903114Y-96011500D01*
X163903111Y-96011500D01*
X163756889Y-96011500D01*
X163756885Y-96011500D01*
X163616589Y-96052696D01*
X163616587Y-96052697D01*
X163514199Y-96118498D01*
X163446078Y-96138500D01*
X162507740Y-96138500D01*
X162439619Y-96118498D01*
X162418645Y-96101595D01*
X162355723Y-96038673D01*
X162299677Y-96010117D01*
X162274455Y-95997266D01*
X162222842Y-95948519D01*
X162205776Y-95879604D01*
X162228677Y-95812402D01*
X162274455Y-95772734D01*
X162355723Y-95731326D01*
X162369747Y-95717302D01*
X162418645Y-95668405D01*
X162480957Y-95634379D01*
X162507740Y-95631500D01*
X165301366Y-95631500D01*
X165327224Y-95634181D01*
X165338017Y-95636445D01*
X165373809Y-95631983D01*
X165381600Y-95631500D01*
X165385611Y-95631500D01*
X165409005Y-95627596D01*
X165416887Y-95626613D01*
X165464360Y-95620696D01*
X165464362Y-95620694D01*
X165472011Y-95618417D01*
X165479584Y-95615818D01*
X165479586Y-95615818D01*
X165528641Y-95589270D01*
X165578746Y-95564776D01*
X165578750Y-95564771D01*
X165585266Y-95560120D01*
X165591562Y-95555220D01*
X165629341Y-95514180D01*
X165748794Y-95394727D01*
X166322546Y-94820974D01*
X166342718Y-94804594D01*
X166351956Y-94798560D01*
X166374114Y-94770089D01*
X166379282Y-94764238D01*
X166382113Y-94761409D01*
X166395891Y-94742110D01*
X166430158Y-94698085D01*
X166430158Y-94698082D01*
X166433957Y-94691064D01*
X166437471Y-94683874D01*
X166437475Y-94683870D01*
X166440026Y-94675300D01*
X166453391Y-94630410D01*
X166471499Y-94577664D01*
X166472819Y-94569749D01*
X166473805Y-94561843D01*
X166471500Y-94506116D01*
X166471500Y-93959856D01*
X166491502Y-93891735D01*
X166545158Y-93845242D01*
X166584031Y-93834578D01*
X166598342Y-93833040D01*
X166734267Y-93782342D01*
X166850404Y-93695404D01*
X166937342Y-93579267D01*
X166988040Y-93443342D01*
X166994500Y-93383255D01*
X166994500Y-93383246D01*
X168285500Y-93383246D01*
X168285502Y-93383270D01*
X168291959Y-93443339D01*
X168291959Y-93443341D01*
X168342657Y-93579266D01*
X168354900Y-93595621D01*
X168429596Y-93695404D01*
X168545733Y-93782342D01*
X168681658Y-93833040D01*
X168741745Y-93839500D01*
X169638254Y-93839499D01*
X169698342Y-93833040D01*
X169834267Y-93782342D01*
X169950404Y-93695404D01*
X170037342Y-93579267D01*
X170088040Y-93443342D01*
X170094500Y-93383255D01*
X170094500Y-93217500D01*
X170114502Y-93149379D01*
X170168158Y-93102886D01*
X170220500Y-93091500D01*
X172044500Y-93091500D01*
X172112621Y-93111502D01*
X172159114Y-93165158D01*
X172170500Y-93217500D01*
X172170500Y-93383266D01*
X172176958Y-93443335D01*
X172176959Y-93443340D01*
X172176960Y-93443341D01*
X172227658Y-93579267D01*
X172314596Y-93695404D01*
X172430733Y-93782342D01*
X172566659Y-93833040D01*
X172566662Y-93833040D01*
X172566664Y-93833041D01*
X172626733Y-93839499D01*
X172626741Y-93839499D01*
X172626746Y-93839500D01*
X172626750Y-93839500D01*
X173648250Y-93839500D01*
X173648254Y-93839500D01*
X173648259Y-93839499D01*
X173648266Y-93839499D01*
X173708335Y-93833041D01*
X173708336Y-93833040D01*
X173708341Y-93833040D01*
X173844267Y-93782342D01*
X173960404Y-93695404D01*
X174047342Y-93579267D01*
X174098040Y-93443341D01*
X174098346Y-93440502D01*
X174104499Y-93383266D01*
X174104500Y-93383249D01*
X174104500Y-92036750D01*
X174104499Y-92036733D01*
X174098041Y-91976664D01*
X174098040Y-91976660D01*
X174098040Y-91976659D01*
X174047342Y-91840733D01*
X173960404Y-91724596D01*
X173844267Y-91637658D01*
X173708341Y-91586960D01*
X173708340Y-91586959D01*
X173708335Y-91586958D01*
X173648266Y-91580500D01*
X173648254Y-91580500D01*
X172626746Y-91580500D01*
X172626733Y-91580500D01*
X172566664Y-91586958D01*
X172520820Y-91604057D01*
X172430733Y-91637658D01*
X172430732Y-91637658D01*
X172430731Y-91637659D01*
X172314596Y-91724596D01*
X172227659Y-91840731D01*
X172176958Y-91976664D01*
X172170500Y-92036733D01*
X172170500Y-92202500D01*
X172150498Y-92270621D01*
X172096842Y-92317114D01*
X172044500Y-92328500D01*
X170220499Y-92328500D01*
X170152378Y-92308498D01*
X170105885Y-92254842D01*
X170094499Y-92202500D01*
X170094499Y-92036753D01*
X170094499Y-92036750D01*
X170094499Y-92036746D01*
X170088040Y-91976658D01*
X170037342Y-91840733D01*
X169950404Y-91724596D01*
X169834267Y-91637658D01*
X169834265Y-91637657D01*
X169834266Y-91637657D01*
X169698349Y-91586962D01*
X169698344Y-91586960D01*
X169698342Y-91586960D01*
X169668298Y-91583730D01*
X169638256Y-91580500D01*
X168741753Y-91580500D01*
X168741729Y-91580502D01*
X168681660Y-91586959D01*
X168681658Y-91586959D01*
X168545733Y-91637657D01*
X168429596Y-91724596D01*
X168342657Y-91840734D01*
X168291962Y-91976650D01*
X168291960Y-91976658D01*
X168285500Y-92036737D01*
X168285500Y-93383246D01*
X166994500Y-93383246D01*
X166994499Y-92036746D01*
X166988040Y-91976658D01*
X166937342Y-91840733D01*
X166850404Y-91724596D01*
X166734267Y-91637658D01*
X166734265Y-91637657D01*
X166734266Y-91637657D01*
X166598349Y-91586962D01*
X166598344Y-91586960D01*
X166598342Y-91586960D01*
X166568298Y-91583730D01*
X166538256Y-91580500D01*
X165641753Y-91580500D01*
X165641729Y-91580502D01*
X165581660Y-91586959D01*
X165581658Y-91586959D01*
X165445733Y-91637657D01*
X165329596Y-91724596D01*
X165242657Y-91840734D01*
X165191962Y-91976650D01*
X165191960Y-91976658D01*
X165185500Y-92036737D01*
X165185500Y-93383246D01*
X165185502Y-93383270D01*
X165191959Y-93443339D01*
X165191959Y-93443341D01*
X165242657Y-93579266D01*
X165291227Y-93644148D01*
X165329596Y-93695404D01*
X165445733Y-93782342D01*
X165581658Y-93833040D01*
X165595969Y-93834578D01*
X165661560Y-93861747D01*
X165702052Y-93920064D01*
X165708500Y-93959856D01*
X165708500Y-94303787D01*
X165688498Y-94371908D01*
X165671595Y-94392882D01*
X165232882Y-94831595D01*
X165170570Y-94865621D01*
X165143787Y-94868500D01*
X162507740Y-94868500D01*
X162439619Y-94848498D01*
X162418645Y-94831595D01*
X162355723Y-94768673D01*
X162299677Y-94740117D01*
X162274455Y-94727266D01*
X162222842Y-94678519D01*
X162205776Y-94609604D01*
X162228677Y-94542402D01*
X162274455Y-94502734D01*
X162355723Y-94461326D01*
X162369747Y-94447302D01*
X162418645Y-94398405D01*
X162480957Y-94364379D01*
X162507740Y-94361500D01*
X163893339Y-94361500D01*
X164208078Y-94361500D01*
X164276199Y-94381502D01*
X164293907Y-94392882D01*
X164378589Y-94447304D01*
X164498039Y-94482378D01*
X164518885Y-94488499D01*
X164518886Y-94488499D01*
X164518889Y-94488500D01*
X164518892Y-94488500D01*
X164665108Y-94488500D01*
X164665111Y-94488500D01*
X164805411Y-94447304D01*
X164928421Y-94368250D01*
X165024176Y-94257743D01*
X165084919Y-94124734D01*
X165105729Y-93980000D01*
X165105729Y-93979996D01*
X165084920Y-93835272D01*
X165084919Y-93835271D01*
X165084919Y-93835266D01*
X165025174Y-93704444D01*
X165024996Y-93703203D01*
X164928420Y-93591749D01*
X164866916Y-93552223D01*
X164805411Y-93512696D01*
X164757657Y-93498674D01*
X164665114Y-93471500D01*
X164665111Y-93471500D01*
X164518889Y-93471500D01*
X164518885Y-93471500D01*
X164378589Y-93512696D01*
X164378587Y-93512697D01*
X164276199Y-93578498D01*
X164208078Y-93598500D01*
X162507740Y-93598500D01*
X162439619Y-93578498D01*
X162418645Y-93561595D01*
X162355723Y-93498673D01*
X162299677Y-93470117D01*
X162274455Y-93457266D01*
X162222842Y-93408519D01*
X162205776Y-93339604D01*
X162228677Y-93272402D01*
X162274455Y-93232734D01*
X162355723Y-93191326D01*
X162381891Y-93165158D01*
X162418645Y-93128405D01*
X162480957Y-93094379D01*
X162507740Y-93091500D01*
X163966829Y-93091500D01*
X163992687Y-93094181D01*
X164003480Y-93096445D01*
X164039272Y-93091983D01*
X164047063Y-93091500D01*
X164051074Y-93091500D01*
X164074468Y-93087596D01*
X164082350Y-93086613D01*
X164129823Y-93080696D01*
X164129825Y-93080694D01*
X164137474Y-93078417D01*
X164145047Y-93075818D01*
X164145049Y-93075818D01*
X164194104Y-93049270D01*
X164244209Y-93024776D01*
X164244213Y-93024771D01*
X164250729Y-93020120D01*
X164257025Y-93015220D01*
X164294804Y-92974180D01*
X164383100Y-92885885D01*
X164445412Y-92851859D01*
X164454264Y-92850262D01*
X164461906Y-92849163D01*
X164461911Y-92849163D01*
X164602211Y-92807967D01*
X164725221Y-92728913D01*
X164820976Y-92618406D01*
X164881719Y-92485397D01*
X164902529Y-92340663D01*
X164902529Y-92340659D01*
X164881720Y-92195935D01*
X164881719Y-92195934D01*
X164881719Y-92195929D01*
X164820976Y-92062920D01*
X164725221Y-91952413D01*
X164725220Y-91952412D01*
X164655027Y-91907302D01*
X164602211Y-91873359D01*
X164567136Y-91863060D01*
X164461914Y-91832163D01*
X164461911Y-91832163D01*
X164315689Y-91832163D01*
X164315685Y-91832163D01*
X164175389Y-91873359D01*
X164175387Y-91873360D01*
X164052379Y-91952412D01*
X163956624Y-92062919D01*
X163895881Y-92195928D01*
X163895879Y-92195935D01*
X163892357Y-92220433D01*
X163862863Y-92285014D01*
X163803137Y-92323397D01*
X163767640Y-92328500D01*
X162507740Y-92328500D01*
X162439619Y-92308498D01*
X162418645Y-92291595D01*
X162355723Y-92228673D01*
X162299677Y-92200117D01*
X162274455Y-92187266D01*
X162222842Y-92138519D01*
X162205776Y-92069604D01*
X162228677Y-92002402D01*
X162274455Y-91962734D01*
X162355723Y-91921326D01*
X162418461Y-91858587D01*
X162480771Y-91824564D01*
X162533413Y-91824366D01*
X162534358Y-91824564D01*
X162543329Y-91826445D01*
X162579121Y-91821983D01*
X162586912Y-91821500D01*
X162590923Y-91821500D01*
X162614317Y-91817596D01*
X162622199Y-91816613D01*
X162669672Y-91810696D01*
X162669674Y-91810694D01*
X162677323Y-91808417D01*
X162684896Y-91805818D01*
X162684898Y-91805818D01*
X162733953Y-91779270D01*
X162782892Y-91755345D01*
X162829562Y-91744548D01*
X162829459Y-91743826D01*
X162837988Y-91742599D01*
X162838229Y-91742544D01*
X162838376Y-91742544D01*
X162838379Y-91742544D01*
X162978679Y-91701348D01*
X163101689Y-91622294D01*
X163197444Y-91511787D01*
X163258187Y-91378778D01*
X163270082Y-91296049D01*
X163278997Y-91234047D01*
X163278997Y-91234040D01*
X163258188Y-91089316D01*
X163258187Y-91089315D01*
X163258187Y-91089310D01*
X163197444Y-90956301D01*
X163101689Y-90845794D01*
X163101688Y-90845793D01*
X163040184Y-90806267D01*
X162978679Y-90766740D01*
X162943604Y-90756441D01*
X162838382Y-90725544D01*
X162838379Y-90725544D01*
X162692157Y-90725544D01*
X162692155Y-90725544D01*
X162692151Y-90725545D01*
X162582197Y-90757831D01*
X162511201Y-90757831D01*
X162451475Y-90719448D01*
X162421982Y-90654867D01*
X162432085Y-90584593D01*
X162444767Y-90562868D01*
X162446321Y-90560727D01*
X162446326Y-90560723D01*
X162504498Y-90446555D01*
X162519500Y-90351834D01*
X162519500Y-89988166D01*
X162504498Y-89893445D01*
X162465204Y-89816326D01*
X162446326Y-89779276D01*
X162355723Y-89688673D01*
X162241553Y-89630501D01*
X162176836Y-89620251D01*
X162146834Y-89615500D01*
X162146832Y-89615500D01*
X161919307Y-89615500D01*
X161851186Y-89595498D01*
X161804693Y-89541842D01*
X161794589Y-89471569D01*
X161803729Y-89407997D01*
X161803729Y-89407996D01*
X161782920Y-89263272D01*
X161782919Y-89263271D01*
X161782919Y-89263266D01*
X161722176Y-89130257D01*
X161626421Y-89019750D01*
X161626420Y-89019749D01*
X161564916Y-88980223D01*
X161503411Y-88940696D01*
X161468336Y-88930397D01*
X161363114Y-88899500D01*
X161363111Y-88899500D01*
X161216889Y-88899500D01*
X161216885Y-88899500D01*
X161076589Y-88940696D01*
X161076587Y-88940697D01*
X160953579Y-89019749D01*
X160857824Y-89130256D01*
X160797081Y-89263265D01*
X160797079Y-89263272D01*
X160776271Y-89407996D01*
X160776271Y-89407997D01*
X160785411Y-89471569D01*
X160775306Y-89541843D01*
X160728813Y-89595498D01*
X160660693Y-89615500D01*
X160433166Y-89615500D01*
X160407266Y-89619602D01*
X160338446Y-89630501D01*
X160224276Y-89688673D01*
X160133673Y-89779276D01*
X160075501Y-89893446D01*
X160060500Y-89988167D01*
X160060500Y-90351832D01*
X160075501Y-90446553D01*
X160133673Y-90560723D01*
X160224274Y-90651324D01*
X160224277Y-90651326D01*
X160305542Y-90692733D01*
X160357157Y-90741482D01*
X160374223Y-90810396D01*
X160351322Y-90877598D01*
X160305542Y-90917267D01*
X160224277Y-90958673D01*
X160224274Y-90958675D01*
X160133673Y-91049276D01*
X160075500Y-91163448D01*
X160074517Y-91169657D01*
X160044103Y-91233809D01*
X159983833Y-91271334D01*
X159912844Y-91270318D01*
X159853673Y-91231083D01*
X159835455Y-91202283D01*
X159820555Y-91169657D01*
X159817176Y-91162257D01*
X159721421Y-91051750D01*
X159721420Y-91051749D01*
X159617310Y-90984842D01*
X159598411Y-90972696D01*
X159550657Y-90958674D01*
X159458114Y-90931500D01*
X159458111Y-90931500D01*
X159311889Y-90931500D01*
X159311885Y-90931500D01*
X159171589Y-90972696D01*
X159171587Y-90972697D01*
X159069199Y-91038498D01*
X159001078Y-91058500D01*
X158158591Y-91058500D01*
X158090470Y-91038498D01*
X158043977Y-90984842D01*
X158033873Y-90914568D01*
X158047469Y-90873104D01*
X158129554Y-90719532D01*
X158188967Y-90523673D01*
X158203999Y-90371045D01*
X158204000Y-90371029D01*
X158204000Y-90297000D01*
X154476001Y-90297000D01*
X154476001Y-90371046D01*
X154491032Y-90523673D01*
X154550445Y-90719532D01*
X154646921Y-90900027D01*
X154776761Y-91058238D01*
X154934970Y-91188076D01*
X155043895Y-91246297D01*
X155094544Y-91296049D01*
X155110500Y-91357420D01*
X155110500Y-91621834D01*
X155115251Y-91651836D01*
X155125501Y-91716553D01*
X155183673Y-91830723D01*
X155274274Y-91921324D01*
X155274277Y-91921326D01*
X155355542Y-91962733D01*
X155407157Y-92011482D01*
X155424223Y-92080396D01*
X155401322Y-92147598D01*
X155355542Y-92187267D01*
X155274277Y-92228673D01*
X155274274Y-92228675D01*
X155183673Y-92319276D01*
X155125501Y-92433446D01*
X155110500Y-92528167D01*
X155110500Y-92891832D01*
X155125501Y-92986553D01*
X155183673Y-93100723D01*
X155274274Y-93191324D01*
X155274277Y-93191326D01*
X155355542Y-93232733D01*
X155407157Y-93281482D01*
X155424223Y-93350396D01*
X155401322Y-93417598D01*
X155355542Y-93457267D01*
X155274277Y-93498673D01*
X155274274Y-93498675D01*
X155211355Y-93561595D01*
X155149043Y-93595621D01*
X155122260Y-93598500D01*
X153926922Y-93598500D01*
X153858801Y-93578498D01*
X153813384Y-93549310D01*
X153756411Y-93512696D01*
X153708657Y-93498674D01*
X153616114Y-93471500D01*
X153616111Y-93471500D01*
X153469889Y-93471500D01*
X153469885Y-93471500D01*
X153329589Y-93512696D01*
X153329587Y-93512697D01*
X153229121Y-93577263D01*
X153161000Y-93597265D01*
X153092879Y-93577263D01*
X153046386Y-93523607D01*
X153035000Y-93471265D01*
X153035000Y-90043000D01*
X154476000Y-90043000D01*
X156213000Y-90043000D01*
X156213000Y-88981000D01*
X156467000Y-88981000D01*
X156467000Y-90043000D01*
X158203999Y-90043000D01*
X158203999Y-89968973D01*
X158203998Y-89968953D01*
X158188967Y-89816326D01*
X158129554Y-89620467D01*
X158033078Y-89439972D01*
X157903238Y-89281761D01*
X157745027Y-89151921D01*
X157564532Y-89055445D01*
X157368673Y-88996032D01*
X157216045Y-88981000D01*
X156467000Y-88981000D01*
X156213000Y-88981000D01*
X155463973Y-88981000D01*
X155463953Y-88981001D01*
X155311326Y-88996032D01*
X155115467Y-89055445D01*
X154934972Y-89151921D01*
X154776761Y-89281761D01*
X154646921Y-89439972D01*
X154550445Y-89620467D01*
X154491032Y-89816326D01*
X154476000Y-89968954D01*
X154476000Y-90043000D01*
X153035000Y-90043000D01*
X153035000Y-87794616D01*
X164306871Y-87794616D01*
X164327679Y-87939340D01*
X164327681Y-87939347D01*
X164388424Y-88072356D01*
X164484179Y-88182863D01*
X164607189Y-88261917D01*
X164726639Y-88296991D01*
X164747485Y-88303112D01*
X164747486Y-88303112D01*
X164747489Y-88303113D01*
X164747492Y-88303113D01*
X164893708Y-88303113D01*
X164893711Y-88303113D01*
X165031896Y-88262538D01*
X165102891Y-88262538D01*
X165162617Y-88300921D01*
X165187864Y-88356206D01*
X165190146Y-88355667D01*
X165191959Y-88363341D01*
X165242657Y-88499266D01*
X165264515Y-88528465D01*
X165329596Y-88615404D01*
X165445733Y-88702342D01*
X165581658Y-88753040D01*
X165641745Y-88759500D01*
X166538254Y-88759499D01*
X166598342Y-88753040D01*
X166734267Y-88702342D01*
X166850404Y-88615404D01*
X166937342Y-88499267D01*
X166988040Y-88363342D01*
X166994500Y-88303255D01*
X166994500Y-88303246D01*
X168285500Y-88303246D01*
X168285502Y-88303270D01*
X168291959Y-88363339D01*
X168291959Y-88363341D01*
X168342657Y-88499266D01*
X168364515Y-88528465D01*
X168429596Y-88615404D01*
X168545733Y-88702342D01*
X168681658Y-88753040D01*
X168741745Y-88759500D01*
X169638254Y-88759499D01*
X169698342Y-88753040D01*
X169834267Y-88702342D01*
X169950404Y-88615404D01*
X170037342Y-88499267D01*
X170088040Y-88363342D01*
X170094500Y-88303255D01*
X170094500Y-88137500D01*
X170114502Y-88069379D01*
X170168158Y-88022886D01*
X170220500Y-88011500D01*
X172044500Y-88011500D01*
X172112621Y-88031502D01*
X172159114Y-88085158D01*
X172170500Y-88137500D01*
X172170500Y-88303266D01*
X172176958Y-88363335D01*
X172176959Y-88363340D01*
X172176960Y-88363341D01*
X172227658Y-88499267D01*
X172314596Y-88615404D01*
X172430733Y-88702342D01*
X172566659Y-88753040D01*
X172566662Y-88753040D01*
X172566664Y-88753041D01*
X172626733Y-88759499D01*
X172626741Y-88759499D01*
X172626746Y-88759500D01*
X172626750Y-88759500D01*
X173648250Y-88759500D01*
X173648254Y-88759500D01*
X173648259Y-88759499D01*
X173648266Y-88759499D01*
X173708335Y-88753041D01*
X173708336Y-88753040D01*
X173708341Y-88753040D01*
X173844267Y-88702342D01*
X173960404Y-88615404D01*
X174047342Y-88499267D01*
X174098040Y-88363341D01*
X174104499Y-88303270D01*
X174104499Y-88303266D01*
X174104500Y-88303249D01*
X174104500Y-86956750D01*
X174104499Y-86956733D01*
X174098041Y-86896664D01*
X174098040Y-86896660D01*
X174098040Y-86896659D01*
X174047342Y-86760733D01*
X173960404Y-86644596D01*
X173844267Y-86557658D01*
X173708341Y-86506960D01*
X173708340Y-86506959D01*
X173708335Y-86506958D01*
X173648266Y-86500500D01*
X173648254Y-86500500D01*
X172626746Y-86500500D01*
X172626733Y-86500500D01*
X172566664Y-86506958D01*
X172519473Y-86524559D01*
X172430733Y-86557658D01*
X172430732Y-86557658D01*
X172430731Y-86557659D01*
X172314596Y-86644596D01*
X172227659Y-86760731D01*
X172176958Y-86896664D01*
X172170500Y-86956733D01*
X172170500Y-87122500D01*
X172150498Y-87190621D01*
X172096842Y-87237114D01*
X172044500Y-87248500D01*
X170220499Y-87248500D01*
X170152378Y-87228498D01*
X170105885Y-87174842D01*
X170094499Y-87122500D01*
X170094499Y-86956753D01*
X170094499Y-86956750D01*
X170094499Y-86956746D01*
X170088040Y-86896658D01*
X170037342Y-86760733D01*
X169950404Y-86644596D01*
X169834267Y-86557658D01*
X169834265Y-86557657D01*
X169834266Y-86557657D01*
X169698349Y-86506962D01*
X169698344Y-86506960D01*
X169698342Y-86506960D01*
X169668298Y-86503730D01*
X169638256Y-86500500D01*
X168741753Y-86500500D01*
X168741729Y-86500502D01*
X168681660Y-86506959D01*
X168681658Y-86506959D01*
X168545733Y-86557657D01*
X168429596Y-86644596D01*
X168342657Y-86760734D01*
X168291962Y-86896650D01*
X168291960Y-86896658D01*
X168285500Y-86956737D01*
X168285500Y-88303246D01*
X166994500Y-88303246D01*
X166994499Y-86956746D01*
X166988040Y-86896658D01*
X166937342Y-86760733D01*
X166850404Y-86644596D01*
X166734267Y-86557658D01*
X166734265Y-86557657D01*
X166734266Y-86557657D01*
X166598349Y-86506962D01*
X166598344Y-86506960D01*
X166598342Y-86506960D01*
X166568298Y-86503730D01*
X166538256Y-86500500D01*
X165641753Y-86500500D01*
X165641729Y-86500502D01*
X165581660Y-86506959D01*
X165581658Y-86506959D01*
X165445733Y-86557657D01*
X165329596Y-86644596D01*
X165242657Y-86760734D01*
X165191962Y-86896650D01*
X165191960Y-86896658D01*
X165185500Y-86956737D01*
X165185500Y-87203474D01*
X165165498Y-87271595D01*
X165111842Y-87318088D01*
X165041568Y-87328192D01*
X165024003Y-87324370D01*
X164998375Y-87316845D01*
X164893714Y-87286113D01*
X164893711Y-87286113D01*
X164747489Y-87286113D01*
X164747485Y-87286113D01*
X164607189Y-87327309D01*
X164607187Y-87327310D01*
X164484179Y-87406362D01*
X164388424Y-87516869D01*
X164327681Y-87649878D01*
X164327679Y-87649885D01*
X164306871Y-87794609D01*
X164306871Y-87794616D01*
X153035000Y-87794616D01*
X153035000Y-85227000D01*
X155586000Y-85227000D01*
X155586000Y-85820312D01*
X155592089Y-85908033D01*
X155592089Y-85908037D01*
X155640418Y-86113515D01*
X155725680Y-86306616D01*
X155844974Y-86480764D01*
X155844977Y-86480768D01*
X155994231Y-86630022D01*
X155994235Y-86630025D01*
X156168383Y-86749319D01*
X156361484Y-86834581D01*
X156361483Y-86834581D01*
X156566964Y-86882910D01*
X156654688Y-86889000D01*
X157010500Y-86889000D01*
X157010500Y-85227000D01*
X157264500Y-85227000D01*
X157264500Y-86889000D01*
X157620312Y-86889000D01*
X157708033Y-86882910D01*
X157708037Y-86882910D01*
X157913515Y-86834581D01*
X158106616Y-86749319D01*
X158280764Y-86630025D01*
X158280768Y-86630022D01*
X158430022Y-86480768D01*
X158430025Y-86480764D01*
X158549319Y-86306616D01*
X158634581Y-86113515D01*
X158682910Y-85908037D01*
X158682910Y-85908033D01*
X158689000Y-85820312D01*
X158689000Y-85798246D01*
X159345500Y-85798246D01*
X159345502Y-85798270D01*
X159351959Y-85858339D01*
X159351959Y-85858341D01*
X159402657Y-85994266D01*
X159402658Y-85994267D01*
X159489596Y-86110404D01*
X159605733Y-86197342D01*
X159741658Y-86248040D01*
X159801745Y-86254500D01*
X160723254Y-86254499D01*
X160783342Y-86248040D01*
X160919267Y-86197342D01*
X161035404Y-86110404D01*
X161122342Y-85994267D01*
X161173040Y-85858342D01*
X161179500Y-85798255D01*
X161179500Y-85664967D01*
X161199502Y-85596846D01*
X161253158Y-85550353D01*
X161323432Y-85540249D01*
X161373620Y-85558969D01*
X161386589Y-85567304D01*
X161506039Y-85602378D01*
X161526885Y-85608499D01*
X161526886Y-85608499D01*
X161526889Y-85608500D01*
X161526892Y-85608500D01*
X161673108Y-85608500D01*
X161673111Y-85608500D01*
X161813411Y-85567304D01*
X161936421Y-85488250D01*
X162032176Y-85377743D01*
X162092919Y-85244734D01*
X162113729Y-85100000D01*
X162113729Y-85099996D01*
X162092920Y-84955272D01*
X162092919Y-84955271D01*
X162092919Y-84955266D01*
X162032176Y-84822257D01*
X161936421Y-84711750D01*
X161936420Y-84711749D01*
X161874916Y-84672223D01*
X161813411Y-84632696D01*
X161778336Y-84622397D01*
X161673114Y-84591500D01*
X161673111Y-84591500D01*
X161526889Y-84591500D01*
X161526885Y-84591500D01*
X161386589Y-84632696D01*
X161386586Y-84632697D01*
X161373617Y-84641032D01*
X161305496Y-84661032D01*
X161237376Y-84641028D01*
X161190884Y-84587372D01*
X161179499Y-84535032D01*
X161179499Y-84401753D01*
X161179499Y-84401746D01*
X161173040Y-84341658D01*
X161122342Y-84205733D01*
X161035404Y-84089596D01*
X160919267Y-84002658D01*
X160919265Y-84002657D01*
X160919266Y-84002657D01*
X160783349Y-83951962D01*
X160783344Y-83951960D01*
X160783342Y-83951960D01*
X160753298Y-83948730D01*
X160723256Y-83945500D01*
X159801753Y-83945500D01*
X159801729Y-83945502D01*
X159741660Y-83951959D01*
X159741658Y-83951959D01*
X159605733Y-84002657D01*
X159489596Y-84089596D01*
X159402657Y-84205734D01*
X159351962Y-84341650D01*
X159351960Y-84341658D01*
X159345500Y-84401737D01*
X159345500Y-85798246D01*
X158689000Y-85798246D01*
X158689000Y-85227000D01*
X157264500Y-85227000D01*
X157010500Y-85227000D01*
X155586000Y-85227000D01*
X153035000Y-85227000D01*
X153035000Y-84973000D01*
X155586000Y-84973000D01*
X157010500Y-84973000D01*
X157010500Y-83311000D01*
X157264500Y-83311000D01*
X157264500Y-84973000D01*
X158689000Y-84973000D01*
X158689000Y-84379688D01*
X158682910Y-84291966D01*
X158682910Y-84291962D01*
X158634581Y-84086484D01*
X158549319Y-83893383D01*
X158430025Y-83719235D01*
X158430022Y-83719231D01*
X158280768Y-83569977D01*
X158280764Y-83569974D01*
X158106616Y-83450680D01*
X157913515Y-83365418D01*
X157913516Y-83365418D01*
X157708035Y-83317089D01*
X157620312Y-83311000D01*
X157264500Y-83311000D01*
X157010500Y-83311000D01*
X156654688Y-83311000D01*
X156566966Y-83317089D01*
X156566962Y-83317089D01*
X156361484Y-83365418D01*
X156168383Y-83450680D01*
X155994235Y-83569974D01*
X155994231Y-83569977D01*
X155844977Y-83719231D01*
X155844974Y-83719235D01*
X155725680Y-83893383D01*
X155640418Y-84086484D01*
X155592089Y-84291962D01*
X155592089Y-84291966D01*
X155586000Y-84379688D01*
X155586000Y-84973000D01*
X153035000Y-84973000D01*
X153035000Y-82081238D01*
X163875071Y-82081238D01*
X163895879Y-82225962D01*
X163895881Y-82225969D01*
X163956624Y-82358978D01*
X164052379Y-82469485D01*
X164175389Y-82548539D01*
X164315689Y-82589735D01*
X164315695Y-82589735D01*
X164323329Y-82590833D01*
X164387911Y-82620322D01*
X164394498Y-82626456D01*
X164550584Y-82782542D01*
X164566970Y-82802718D01*
X164573005Y-82811956D01*
X164573006Y-82811957D01*
X164573008Y-82811959D01*
X164601459Y-82834103D01*
X164607318Y-82839276D01*
X164610156Y-82842114D01*
X164615944Y-82846246D01*
X164629465Y-82855901D01*
X164673477Y-82890156D01*
X164673480Y-82890158D01*
X164673481Y-82890158D01*
X164680506Y-82893960D01*
X164687699Y-82897477D01*
X164741151Y-82913389D01*
X164793899Y-82931499D01*
X164793903Y-82931499D01*
X164793904Y-82931500D01*
X164793905Y-82931500D01*
X164801812Y-82932819D01*
X164809722Y-82933805D01*
X164809723Y-82933804D01*
X164809724Y-82933805D01*
X164865449Y-82931500D01*
X165059501Y-82931500D01*
X165127622Y-82951502D01*
X165174115Y-83005158D01*
X165185501Y-83057500D01*
X165185501Y-83223246D01*
X165185502Y-83223270D01*
X165191959Y-83283339D01*
X165191959Y-83283341D01*
X165242657Y-83419266D01*
X165264515Y-83448465D01*
X165329596Y-83535404D01*
X165445733Y-83622342D01*
X165581658Y-83673040D01*
X165641745Y-83679500D01*
X166538254Y-83679499D01*
X166598342Y-83673040D01*
X166734267Y-83622342D01*
X166850404Y-83535404D01*
X166937342Y-83419267D01*
X166988040Y-83283342D01*
X166994500Y-83223255D01*
X166994500Y-83223246D01*
X168285500Y-83223246D01*
X168285502Y-83223270D01*
X168291959Y-83283339D01*
X168291959Y-83283341D01*
X168342657Y-83419266D01*
X168364515Y-83448465D01*
X168429596Y-83535404D01*
X168545733Y-83622342D01*
X168681658Y-83673040D01*
X168741745Y-83679500D01*
X169638254Y-83679499D01*
X169698342Y-83673040D01*
X169834267Y-83622342D01*
X169950404Y-83535404D01*
X170037342Y-83419267D01*
X170088040Y-83283342D01*
X170094500Y-83223255D01*
X170094500Y-83057500D01*
X170114502Y-82989379D01*
X170168158Y-82942886D01*
X170220500Y-82931500D01*
X172044500Y-82931500D01*
X172112621Y-82951502D01*
X172159114Y-83005158D01*
X172170500Y-83057500D01*
X172170500Y-83223266D01*
X172176958Y-83283335D01*
X172176959Y-83283340D01*
X172176960Y-83283341D01*
X172227658Y-83419267D01*
X172314596Y-83535404D01*
X172430733Y-83622342D01*
X172566659Y-83673040D01*
X172566662Y-83673040D01*
X172566664Y-83673041D01*
X172626733Y-83679499D01*
X172626741Y-83679499D01*
X172626746Y-83679500D01*
X172626750Y-83679500D01*
X173648250Y-83679500D01*
X173648254Y-83679500D01*
X173648259Y-83679499D01*
X173648266Y-83679499D01*
X173708335Y-83673041D01*
X173708336Y-83673040D01*
X173708341Y-83673040D01*
X173844267Y-83622342D01*
X173960404Y-83535404D01*
X174047342Y-83419267D01*
X174098040Y-83283341D01*
X174104499Y-83223270D01*
X174104499Y-83223266D01*
X174104500Y-83223249D01*
X174104500Y-81876750D01*
X174104499Y-81876733D01*
X174098041Y-81816664D01*
X174098040Y-81816660D01*
X174098040Y-81816659D01*
X174047342Y-81680733D01*
X173960404Y-81564596D01*
X173844267Y-81477658D01*
X173708341Y-81426960D01*
X173708340Y-81426959D01*
X173708335Y-81426958D01*
X173648266Y-81420500D01*
X173648254Y-81420500D01*
X172626746Y-81420500D01*
X172626733Y-81420500D01*
X172566664Y-81426958D01*
X172519473Y-81444559D01*
X172430733Y-81477658D01*
X172430732Y-81477658D01*
X172430731Y-81477659D01*
X172314596Y-81564596D01*
X172227659Y-81680731D01*
X172176958Y-81816664D01*
X172170500Y-81876733D01*
X172170500Y-82042500D01*
X172150498Y-82110621D01*
X172096842Y-82157114D01*
X172044500Y-82168500D01*
X170220499Y-82168500D01*
X170152378Y-82148498D01*
X170105885Y-82094842D01*
X170094499Y-82042500D01*
X170094499Y-81876753D01*
X170094499Y-81876750D01*
X170094499Y-81876746D01*
X170088040Y-81816658D01*
X170037342Y-81680733D01*
X169950404Y-81564596D01*
X169834267Y-81477658D01*
X169834265Y-81477657D01*
X169834266Y-81477657D01*
X169698349Y-81426962D01*
X169698344Y-81426960D01*
X169698342Y-81426960D01*
X169668298Y-81423730D01*
X169638256Y-81420500D01*
X168741753Y-81420500D01*
X168741729Y-81420502D01*
X168681660Y-81426959D01*
X168681658Y-81426959D01*
X168545733Y-81477657D01*
X168429596Y-81564596D01*
X168342657Y-81680734D01*
X168291962Y-81816650D01*
X168291960Y-81816658D01*
X168285500Y-81876737D01*
X168285500Y-83223246D01*
X166994500Y-83223246D01*
X166994499Y-81876746D01*
X166988040Y-81816658D01*
X166937342Y-81680733D01*
X166850404Y-81564596D01*
X166734267Y-81477658D01*
X166734265Y-81477657D01*
X166734266Y-81477657D01*
X166598349Y-81426962D01*
X166598344Y-81426960D01*
X166598342Y-81426960D01*
X166568298Y-81423730D01*
X166538256Y-81420500D01*
X165641753Y-81420500D01*
X165641729Y-81420502D01*
X165581660Y-81426959D01*
X165581658Y-81426959D01*
X165445733Y-81477657D01*
X165329596Y-81564596D01*
X165242657Y-81680734D01*
X165191962Y-81816650D01*
X165191960Y-81816658D01*
X165185500Y-81876737D01*
X165185500Y-82034223D01*
X165165498Y-82102344D01*
X165111842Y-82148837D01*
X165041568Y-82158941D01*
X164976988Y-82129447D01*
X164970405Y-82123318D01*
X164927851Y-82080764D01*
X164893825Y-82018452D01*
X164892232Y-82009623D01*
X164881719Y-81936501D01*
X164820976Y-81803492D01*
X164725221Y-81692985D01*
X164725220Y-81692984D01*
X164663716Y-81653458D01*
X164602211Y-81613931D01*
X164567136Y-81603632D01*
X164461914Y-81572735D01*
X164461911Y-81572735D01*
X164315689Y-81572735D01*
X164315685Y-81572735D01*
X164175389Y-81613931D01*
X164175387Y-81613932D01*
X164052379Y-81692984D01*
X163956624Y-81803491D01*
X163895881Y-81936500D01*
X163895879Y-81936507D01*
X163875071Y-82081231D01*
X163875071Y-82081238D01*
X153035000Y-82081238D01*
X153035000Y-79468246D01*
X155080500Y-79468246D01*
X155080502Y-79468270D01*
X155086959Y-79528339D01*
X155086959Y-79528341D01*
X155137657Y-79664266D01*
X155159515Y-79693465D01*
X155224596Y-79780404D01*
X155340733Y-79867342D01*
X155476658Y-79918040D01*
X155536745Y-79924500D01*
X156883254Y-79924499D01*
X156943342Y-79918040D01*
X157079267Y-79867342D01*
X157195404Y-79780404D01*
X157282342Y-79664267D01*
X157333040Y-79528342D01*
X157334578Y-79514030D01*
X157361747Y-79448440D01*
X157420064Y-79407948D01*
X157459856Y-79401500D01*
X160040143Y-79401500D01*
X160108264Y-79421502D01*
X160154757Y-79475158D01*
X160165421Y-79514031D01*
X160166958Y-79528335D01*
X160166959Y-79528340D01*
X160166960Y-79528341D01*
X160217658Y-79664267D01*
X160304596Y-79780404D01*
X160420733Y-79867342D01*
X160556659Y-79918040D01*
X160556662Y-79918040D01*
X160556664Y-79918041D01*
X160616733Y-79924499D01*
X160616741Y-79924499D01*
X160616746Y-79924500D01*
X160616750Y-79924500D01*
X161963250Y-79924500D01*
X161963254Y-79924500D01*
X161963259Y-79924499D01*
X161963266Y-79924499D01*
X162023335Y-79918041D01*
X162023336Y-79918040D01*
X162023341Y-79918040D01*
X162159267Y-79867342D01*
X162275404Y-79780404D01*
X162362342Y-79664267D01*
X162413040Y-79528341D01*
X162414579Y-79514032D01*
X162419499Y-79468266D01*
X162419500Y-79468249D01*
X162419500Y-78446750D01*
X162419499Y-78446733D01*
X162413041Y-78386664D01*
X162413040Y-78386662D01*
X162413040Y-78386659D01*
X162362342Y-78250733D01*
X162275404Y-78134596D01*
X162159267Y-78047658D01*
X162023341Y-77996960D01*
X162023340Y-77996959D01*
X162023335Y-77996958D01*
X161963266Y-77990500D01*
X161963254Y-77990500D01*
X160616746Y-77990500D01*
X160616733Y-77990500D01*
X160556664Y-77996958D01*
X160556659Y-77996960D01*
X160420733Y-78047658D01*
X160420732Y-78047658D01*
X160420731Y-78047659D01*
X160304596Y-78134596D01*
X160217659Y-78250731D01*
X160166958Y-78386664D01*
X160160500Y-78446733D01*
X160160500Y-78512500D01*
X160140498Y-78580621D01*
X160086842Y-78627114D01*
X160034500Y-78638500D01*
X157459857Y-78638500D01*
X157391736Y-78618498D01*
X157345243Y-78564842D01*
X157334579Y-78525969D01*
X157333250Y-78513619D01*
X157333040Y-78511658D01*
X157282342Y-78375733D01*
X157195404Y-78259596D01*
X157079267Y-78172658D01*
X157079265Y-78172657D01*
X157079266Y-78172657D01*
X156943349Y-78121962D01*
X156943344Y-78121960D01*
X156943342Y-78121960D01*
X156913298Y-78118730D01*
X156883256Y-78115500D01*
X155536753Y-78115500D01*
X155536729Y-78115502D01*
X155476660Y-78121959D01*
X155476658Y-78121959D01*
X155340733Y-78172657D01*
X155224596Y-78259596D01*
X155137657Y-78375734D01*
X155086962Y-78511650D01*
X155086960Y-78511658D01*
X155080500Y-78571737D01*
X155080500Y-79468246D01*
X153035000Y-79468246D01*
X153035000Y-77470001D01*
X162300271Y-77470001D01*
X162321079Y-77614725D01*
X162321081Y-77614732D01*
X162381824Y-77747741D01*
X162477579Y-77858248D01*
X162600589Y-77937302D01*
X162720039Y-77972376D01*
X162740885Y-77978497D01*
X162740886Y-77978497D01*
X162740889Y-77978498D01*
X162740892Y-77978498D01*
X162887108Y-77978498D01*
X162887111Y-77978498D01*
X163027411Y-77937302D01*
X163129797Y-77871501D01*
X163197918Y-77851500D01*
X165059501Y-77851500D01*
X165127622Y-77871502D01*
X165174115Y-77925158D01*
X165185501Y-77977500D01*
X165185501Y-78143246D01*
X165185502Y-78143270D01*
X165191959Y-78203339D01*
X165191959Y-78203341D01*
X165242657Y-78339266D01*
X165264515Y-78368465D01*
X165329596Y-78455404D01*
X165445733Y-78542342D01*
X165581658Y-78593040D01*
X165641745Y-78599500D01*
X166538254Y-78599499D01*
X166598342Y-78593040D01*
X166734267Y-78542342D01*
X166850404Y-78455404D01*
X166937342Y-78339267D01*
X166988040Y-78203342D01*
X166994500Y-78143255D01*
X166994500Y-78143246D01*
X168285500Y-78143246D01*
X168285502Y-78143270D01*
X168291959Y-78203339D01*
X168291959Y-78203341D01*
X168342657Y-78339266D01*
X168364515Y-78368465D01*
X168429596Y-78455404D01*
X168545733Y-78542342D01*
X168681658Y-78593040D01*
X168741745Y-78599500D01*
X169638254Y-78599499D01*
X169698342Y-78593040D01*
X169834267Y-78542342D01*
X169950404Y-78455404D01*
X170037342Y-78339267D01*
X170088040Y-78203342D01*
X170094500Y-78143255D01*
X170094500Y-77977500D01*
X170114502Y-77909379D01*
X170168158Y-77862886D01*
X170220500Y-77851500D01*
X172044500Y-77851500D01*
X172112621Y-77871502D01*
X172159114Y-77925158D01*
X172170500Y-77977500D01*
X172170500Y-78143266D01*
X172176958Y-78203335D01*
X172176959Y-78203340D01*
X172176960Y-78203341D01*
X172227658Y-78339267D01*
X172314596Y-78455404D01*
X172430733Y-78542342D01*
X172566659Y-78593040D01*
X172566662Y-78593040D01*
X172566664Y-78593041D01*
X172626733Y-78599499D01*
X172626741Y-78599499D01*
X172626746Y-78599500D01*
X172626750Y-78599500D01*
X173648250Y-78599500D01*
X173648254Y-78599500D01*
X173648259Y-78599499D01*
X173648266Y-78599499D01*
X173708335Y-78593041D01*
X173708336Y-78593040D01*
X173708341Y-78593040D01*
X173844267Y-78542342D01*
X173960404Y-78455404D01*
X174047342Y-78339267D01*
X174098040Y-78203341D01*
X174104499Y-78143270D01*
X174104499Y-78143266D01*
X174104500Y-78143249D01*
X174104500Y-76796750D01*
X174104499Y-76796733D01*
X174098041Y-76736664D01*
X174098040Y-76736660D01*
X174098040Y-76736659D01*
X174047342Y-76600733D01*
X173960404Y-76484596D01*
X173844267Y-76397658D01*
X173708341Y-76346960D01*
X173708340Y-76346959D01*
X173708335Y-76346958D01*
X173648266Y-76340500D01*
X173648254Y-76340500D01*
X172626746Y-76340500D01*
X172626733Y-76340500D01*
X172566664Y-76346958D01*
X172519473Y-76364559D01*
X172430733Y-76397658D01*
X172430732Y-76397658D01*
X172430731Y-76397659D01*
X172314596Y-76484596D01*
X172227659Y-76600731D01*
X172176958Y-76736664D01*
X172170500Y-76796733D01*
X172170500Y-76962500D01*
X172150498Y-77030621D01*
X172096842Y-77077114D01*
X172044500Y-77088500D01*
X170220499Y-77088500D01*
X170152378Y-77068498D01*
X170105885Y-77014842D01*
X170094499Y-76962500D01*
X170094499Y-76796753D01*
X170094499Y-76796750D01*
X170094499Y-76796746D01*
X170088040Y-76736658D01*
X170037342Y-76600733D01*
X169950404Y-76484596D01*
X169834267Y-76397658D01*
X169834265Y-76397657D01*
X169834266Y-76397657D01*
X169698349Y-76346962D01*
X169698344Y-76346960D01*
X169698342Y-76346960D01*
X169668298Y-76343730D01*
X169638256Y-76340500D01*
X168741753Y-76340500D01*
X168741729Y-76340502D01*
X168681660Y-76346959D01*
X168681658Y-76346959D01*
X168545733Y-76397657D01*
X168429596Y-76484596D01*
X168342657Y-76600734D01*
X168291962Y-76736650D01*
X168291960Y-76736658D01*
X168285500Y-76796737D01*
X168285500Y-78143246D01*
X166994500Y-78143246D01*
X166994499Y-76796746D01*
X166988040Y-76736658D01*
X166937342Y-76600733D01*
X166850404Y-76484596D01*
X166734267Y-76397658D01*
X166734265Y-76397657D01*
X166734266Y-76397657D01*
X166598349Y-76346962D01*
X166598344Y-76346960D01*
X166598342Y-76346960D01*
X166568298Y-76343730D01*
X166538256Y-76340500D01*
X165641753Y-76340500D01*
X165641729Y-76340502D01*
X165581660Y-76346959D01*
X165581658Y-76346959D01*
X165445733Y-76397657D01*
X165329596Y-76484596D01*
X165242657Y-76600734D01*
X165191962Y-76736650D01*
X165191960Y-76736658D01*
X165185500Y-76796737D01*
X165185500Y-76962500D01*
X165165498Y-77030621D01*
X165111842Y-77077114D01*
X165059500Y-77088500D01*
X163197924Y-77088500D01*
X163129804Y-77068498D01*
X163027411Y-77002694D01*
X162992336Y-76992395D01*
X162887114Y-76961498D01*
X162887111Y-76961498D01*
X162740889Y-76961498D01*
X162740885Y-76961498D01*
X162600589Y-77002694D01*
X162600587Y-77002695D01*
X162477579Y-77081747D01*
X162381824Y-77192254D01*
X162321081Y-77325263D01*
X162321079Y-77325270D01*
X162300271Y-77469994D01*
X162300271Y-77470001D01*
X153035000Y-77470001D01*
X153035000Y-76047000D01*
X154446000Y-76047000D01*
X154446000Y-76390312D01*
X154452089Y-76478033D01*
X154452089Y-76478037D01*
X154500418Y-76683515D01*
X154585680Y-76876616D01*
X154704974Y-77050764D01*
X154704977Y-77050768D01*
X154854231Y-77200022D01*
X154854235Y-77200025D01*
X155028383Y-77319319D01*
X155221484Y-77404581D01*
X155221483Y-77404581D01*
X155426964Y-77452910D01*
X155514688Y-77459000D01*
X156083000Y-77459000D01*
X156083000Y-76047000D01*
X156337000Y-76047000D01*
X156337000Y-77459000D01*
X156905312Y-77459000D01*
X156993033Y-77452910D01*
X156993037Y-77452910D01*
X157198515Y-77404581D01*
X157391616Y-77319319D01*
X157565764Y-77200025D01*
X157565768Y-77200022D01*
X157715022Y-77050768D01*
X157715025Y-77050764D01*
X157834319Y-76876616D01*
X157919581Y-76683515D01*
X157964328Y-76493266D01*
X160160500Y-76493266D01*
X160166958Y-76553335D01*
X160166959Y-76553340D01*
X160166960Y-76553341D01*
X160217658Y-76689267D01*
X160304596Y-76805404D01*
X160420733Y-76892342D01*
X160556659Y-76943040D01*
X160556662Y-76943040D01*
X160556664Y-76943041D01*
X160616733Y-76949499D01*
X160616741Y-76949499D01*
X160616746Y-76949500D01*
X160616750Y-76949500D01*
X161963250Y-76949500D01*
X161963254Y-76949500D01*
X161963259Y-76949499D01*
X161963266Y-76949499D01*
X162023335Y-76943041D01*
X162023336Y-76943040D01*
X162023341Y-76943040D01*
X162159267Y-76892342D01*
X162275404Y-76805404D01*
X162362342Y-76689267D01*
X162413040Y-76553341D01*
X162419500Y-76493254D01*
X162419500Y-75471746D01*
X162413040Y-75411659D01*
X162362342Y-75275733D01*
X162275404Y-75159596D01*
X162159267Y-75072658D01*
X162023341Y-75021960D01*
X162023340Y-75021959D01*
X162023335Y-75021958D01*
X161963266Y-75015500D01*
X161963254Y-75015500D01*
X161797500Y-75015500D01*
X161729379Y-74995498D01*
X161682886Y-74941842D01*
X161671500Y-74889500D01*
X161671500Y-74805221D01*
X161691502Y-74737100D01*
X161702273Y-74722711D01*
X161722176Y-74699743D01*
X161782919Y-74566734D01*
X161789541Y-74520680D01*
X161803729Y-74422003D01*
X161803729Y-74421996D01*
X161785469Y-74295003D01*
X163443271Y-74295003D01*
X163464079Y-74439727D01*
X163464081Y-74439734D01*
X163524824Y-74572743D01*
X163620579Y-74683250D01*
X163743589Y-74762304D01*
X163863039Y-74797378D01*
X163883885Y-74803499D01*
X163883886Y-74803499D01*
X163883889Y-74803500D01*
X163883892Y-74803500D01*
X164030108Y-74803500D01*
X164030111Y-74803500D01*
X164170411Y-74762304D01*
X164255040Y-74707915D01*
X164272801Y-74696502D01*
X164340922Y-74676500D01*
X170558078Y-74676500D01*
X170626199Y-74696502D01*
X170655378Y-74715254D01*
X170728589Y-74762304D01*
X170848039Y-74797378D01*
X170868885Y-74803499D01*
X170868886Y-74803499D01*
X170868889Y-74803500D01*
X170868892Y-74803500D01*
X171015108Y-74803500D01*
X171015111Y-74803500D01*
X171155411Y-74762304D01*
X171278421Y-74683250D01*
X171374176Y-74572743D01*
X171434919Y-74439734D01*
X171437469Y-74421996D01*
X171455729Y-74295003D01*
X171455729Y-74294996D01*
X171434920Y-74150272D01*
X171434919Y-74150271D01*
X171434919Y-74150266D01*
X171374176Y-74017257D01*
X171278421Y-73906750D01*
X171278420Y-73906749D01*
X171216916Y-73867223D01*
X171155411Y-73827696D01*
X171120336Y-73817397D01*
X171015114Y-73786500D01*
X171015111Y-73786500D01*
X170868889Y-73786500D01*
X170868885Y-73786500D01*
X170728589Y-73827696D01*
X170728587Y-73827697D01*
X170626199Y-73893498D01*
X170558078Y-73913500D01*
X164340922Y-73913500D01*
X164272801Y-73893498D01*
X164227384Y-73864310D01*
X164170411Y-73827696D01*
X164135336Y-73817397D01*
X164030114Y-73786500D01*
X164030111Y-73786500D01*
X163883889Y-73786500D01*
X163883885Y-73786500D01*
X163743589Y-73827696D01*
X163743587Y-73827697D01*
X163620579Y-73906749D01*
X163524824Y-74017256D01*
X163464081Y-74150265D01*
X163464079Y-74150272D01*
X163443271Y-74294996D01*
X163443271Y-74295003D01*
X161785469Y-74295003D01*
X161782920Y-74277272D01*
X161782919Y-74277271D01*
X161782919Y-74277266D01*
X161722176Y-74144257D01*
X161626421Y-74033750D01*
X161626420Y-74033749D01*
X161564916Y-73994223D01*
X161503411Y-73954696D01*
X161468336Y-73944397D01*
X161363114Y-73913500D01*
X161363111Y-73913500D01*
X161216889Y-73913500D01*
X161216885Y-73913500D01*
X161076589Y-73954696D01*
X161076587Y-73954697D01*
X160953579Y-74033749D01*
X160857824Y-74144256D01*
X160797081Y-74277265D01*
X160797079Y-74277272D01*
X160776271Y-74421996D01*
X160776271Y-74422003D01*
X160797079Y-74566727D01*
X160797081Y-74566734D01*
X160857824Y-74699743D01*
X160877723Y-74722708D01*
X160907217Y-74787287D01*
X160908500Y-74805221D01*
X160908500Y-74889500D01*
X160888498Y-74957621D01*
X160834842Y-75004114D01*
X160782500Y-75015500D01*
X160616733Y-75015500D01*
X160556664Y-75021958D01*
X160556659Y-75021960D01*
X160420733Y-75072658D01*
X160420732Y-75072658D01*
X160420731Y-75072659D01*
X160304596Y-75159596D01*
X160217659Y-75275731D01*
X160166958Y-75411664D01*
X160160500Y-75471733D01*
X160160500Y-76493266D01*
X157964328Y-76493266D01*
X157967910Y-76478037D01*
X157967910Y-76478033D01*
X157974000Y-76390312D01*
X157974000Y-76047000D01*
X156337000Y-76047000D01*
X156083000Y-76047000D01*
X154446000Y-76047000D01*
X153035000Y-76047000D01*
X153035000Y-75793000D01*
X154446000Y-75793000D01*
X156083000Y-75793000D01*
X156083000Y-74381000D01*
X156337000Y-74381000D01*
X156337000Y-75793000D01*
X157974000Y-75793000D01*
X157974000Y-75449688D01*
X157967910Y-75361966D01*
X157967910Y-75361962D01*
X157919581Y-75156484D01*
X157834319Y-74963383D01*
X157715025Y-74789235D01*
X157715022Y-74789231D01*
X157565768Y-74639977D01*
X157565764Y-74639974D01*
X157391616Y-74520680D01*
X157198515Y-74435418D01*
X157198516Y-74435418D01*
X156993035Y-74387089D01*
X156905312Y-74381000D01*
X156337000Y-74381000D01*
X156083000Y-74381000D01*
X155514688Y-74381000D01*
X155426966Y-74387089D01*
X155426962Y-74387089D01*
X155221484Y-74435418D01*
X155028383Y-74520680D01*
X154854235Y-74639974D01*
X154854231Y-74639977D01*
X154704977Y-74789231D01*
X154704974Y-74789235D01*
X154585680Y-74963383D01*
X154500418Y-75156484D01*
X154452089Y-75361962D01*
X154452089Y-75361966D01*
X154446000Y-75449688D01*
X154446000Y-75793000D01*
X153035000Y-75793000D01*
X153035000Y-72162000D01*
X154446000Y-72162000D01*
X154446000Y-72505312D01*
X154452089Y-72593033D01*
X154452089Y-72593037D01*
X154500418Y-72798515D01*
X154585680Y-72991616D01*
X154704974Y-73165764D01*
X154704977Y-73165768D01*
X154854231Y-73315022D01*
X154854235Y-73315025D01*
X155028383Y-73434319D01*
X155221484Y-73519581D01*
X155221483Y-73519581D01*
X155426964Y-73567910D01*
X155514688Y-73574000D01*
X156083000Y-73574000D01*
X156083000Y-72162000D01*
X156337000Y-72162000D01*
X156337000Y-73574000D01*
X156905312Y-73574000D01*
X156993033Y-73567910D01*
X156993037Y-73567910D01*
X157198515Y-73519581D01*
X157391616Y-73434319D01*
X157565764Y-73315025D01*
X157565768Y-73315022D01*
X157715022Y-73165768D01*
X157715025Y-73165764D01*
X157834319Y-72991616D01*
X157919581Y-72798515D01*
X157967910Y-72593037D01*
X157967910Y-72593033D01*
X157974000Y-72505312D01*
X157974000Y-72162000D01*
X163336000Y-72162000D01*
X163336000Y-72505312D01*
X163342089Y-72593033D01*
X163342089Y-72593037D01*
X163390418Y-72798515D01*
X163475680Y-72991616D01*
X163594974Y-73165764D01*
X163594977Y-73165768D01*
X163744231Y-73315022D01*
X163744235Y-73315025D01*
X163918383Y-73434319D01*
X164111484Y-73519581D01*
X164111483Y-73519581D01*
X164316964Y-73567910D01*
X164404688Y-73574000D01*
X164973000Y-73574000D01*
X164973000Y-72162000D01*
X165227000Y-72162000D01*
X165227000Y-73574000D01*
X165795312Y-73574000D01*
X165883033Y-73567910D01*
X165883037Y-73567910D01*
X166088515Y-73519581D01*
X166281616Y-73434319D01*
X166455764Y-73315025D01*
X166455768Y-73315022D01*
X166605022Y-73165768D01*
X166605025Y-73165764D01*
X166724319Y-72991616D01*
X166809581Y-72798515D01*
X166857910Y-72593037D01*
X166857910Y-72593033D01*
X166864000Y-72505312D01*
X166864000Y-72162000D01*
X171591000Y-72162000D01*
X171591000Y-72505312D01*
X171597089Y-72593033D01*
X171597089Y-72593037D01*
X171645418Y-72798515D01*
X171730680Y-72991616D01*
X171849974Y-73165764D01*
X171849977Y-73165768D01*
X171999231Y-73315022D01*
X171999235Y-73315025D01*
X172173383Y-73434319D01*
X172366484Y-73519581D01*
X172366483Y-73519581D01*
X172571964Y-73567910D01*
X172659688Y-73574000D01*
X173228000Y-73574000D01*
X173228000Y-72162000D01*
X173482000Y-72162000D01*
X173482000Y-73574000D01*
X174050312Y-73574000D01*
X174138033Y-73567910D01*
X174138037Y-73567910D01*
X174343515Y-73519581D01*
X174536616Y-73434319D01*
X174710764Y-73315025D01*
X174710768Y-73315022D01*
X174860022Y-73165768D01*
X174860025Y-73165764D01*
X174979319Y-72991616D01*
X175064581Y-72798515D01*
X175112910Y-72593037D01*
X175112910Y-72593033D01*
X175119000Y-72505312D01*
X175119000Y-72162000D01*
X173482000Y-72162000D01*
X173228000Y-72162000D01*
X171591000Y-72162000D01*
X166864000Y-72162000D01*
X165227000Y-72162000D01*
X164973000Y-72162000D01*
X163336000Y-72162000D01*
X157974000Y-72162000D01*
X156337000Y-72162000D01*
X156083000Y-72162000D01*
X154446000Y-72162000D01*
X153035000Y-72162000D01*
X153035000Y-71374734D01*
X153055002Y-71306613D01*
X153108658Y-71260120D01*
X153178932Y-71250016D01*
X153229119Y-71268736D01*
X153275432Y-71298499D01*
X153329585Y-71333302D01*
X153329586Y-71333302D01*
X153329589Y-71333304D01*
X153441455Y-71366151D01*
X153469885Y-71374499D01*
X153469886Y-71374499D01*
X153469889Y-71374500D01*
X153469892Y-71374500D01*
X153616108Y-71374500D01*
X153616111Y-71374500D01*
X153756411Y-71333304D01*
X153848822Y-71273915D01*
X153858801Y-71267502D01*
X153926922Y-71247500D01*
X154346986Y-71247500D01*
X154415107Y-71267502D01*
X154461600Y-71321158D01*
X154471704Y-71391432D01*
X154469639Y-71402348D01*
X154452089Y-71476962D01*
X154452089Y-71476966D01*
X154446000Y-71564688D01*
X154446000Y-71908000D01*
X156083000Y-71908000D01*
X156083000Y-71373500D01*
X156103002Y-71305379D01*
X156156658Y-71258886D01*
X156209000Y-71247500D01*
X156211000Y-71247500D01*
X156279121Y-71267502D01*
X156325614Y-71321158D01*
X156337000Y-71373500D01*
X156337000Y-71908000D01*
X157974000Y-71908000D01*
X157974000Y-71564688D01*
X157967910Y-71476966D01*
X157967910Y-71476962D01*
X157950361Y-71402348D01*
X157954235Y-71331457D01*
X157995821Y-71273915D01*
X158061915Y-71247990D01*
X158073014Y-71247500D01*
X163116366Y-71247500D01*
X163142224Y-71250181D01*
X163153017Y-71252445D01*
X163188809Y-71247983D01*
X163196600Y-71247500D01*
X163200610Y-71247500D01*
X163200611Y-71247500D01*
X163217304Y-71244714D01*
X163287787Y-71253229D01*
X163342478Y-71298499D01*
X163364013Y-71366151D01*
X163360698Y-71397842D01*
X163342090Y-71476959D01*
X163342089Y-71476966D01*
X163336000Y-71564688D01*
X163336000Y-71908000D01*
X164973000Y-71908000D01*
X164973000Y-70496000D01*
X165227000Y-70496000D01*
X165227000Y-71908000D01*
X166864000Y-71908000D01*
X171591000Y-71908000D01*
X173228000Y-71908000D01*
X173228000Y-70496000D01*
X173482000Y-70496000D01*
X173482000Y-71908000D01*
X175119000Y-71908000D01*
X175119000Y-71564688D01*
X175112910Y-71476966D01*
X175112910Y-71476962D01*
X175064581Y-71271484D01*
X174979319Y-71078383D01*
X174860025Y-70904235D01*
X174860022Y-70904231D01*
X174710768Y-70754977D01*
X174710764Y-70754974D01*
X174536616Y-70635680D01*
X174343515Y-70550418D01*
X174343516Y-70550418D01*
X174138035Y-70502089D01*
X174050312Y-70496000D01*
X173482000Y-70496000D01*
X173228000Y-70496000D01*
X172659688Y-70496000D01*
X172571966Y-70502089D01*
X172571962Y-70502089D01*
X172366484Y-70550418D01*
X172173383Y-70635680D01*
X171999235Y-70754974D01*
X171999231Y-70754977D01*
X171849977Y-70904231D01*
X171849974Y-70904235D01*
X171730680Y-71078383D01*
X171645418Y-71271484D01*
X171597089Y-71476962D01*
X171597089Y-71476966D01*
X171591000Y-71564688D01*
X171591000Y-71908000D01*
X166864000Y-71908000D01*
X166864000Y-71564688D01*
X166857910Y-71476966D01*
X166857910Y-71476962D01*
X166809581Y-71271484D01*
X166724319Y-71078383D01*
X166605025Y-70904235D01*
X166605022Y-70904231D01*
X166455768Y-70754977D01*
X166455764Y-70754974D01*
X166281616Y-70635680D01*
X166088515Y-70550418D01*
X166088516Y-70550418D01*
X165883035Y-70502089D01*
X165795312Y-70496000D01*
X165227000Y-70496000D01*
X164973000Y-70496000D01*
X164404686Y-70496000D01*
X164390120Y-70497011D01*
X164320778Y-70481772D01*
X164270682Y-70431463D01*
X164255738Y-70362057D01*
X164280691Y-70295590D01*
X164292296Y-70282224D01*
X164698118Y-69876403D01*
X164760430Y-69842378D01*
X164787213Y-69839499D01*
X165773247Y-69839499D01*
X165773254Y-69839499D01*
X165833342Y-69833040D01*
X165969267Y-69782342D01*
X166085404Y-69695404D01*
X166172342Y-69579267D01*
X166223040Y-69443342D01*
X166229500Y-69383255D01*
X166229499Y-68486746D01*
X166223040Y-68426658D01*
X166172342Y-68290733D01*
X166085404Y-68174596D01*
X165969267Y-68087658D01*
X165969265Y-68087657D01*
X165969266Y-68087657D01*
X165833349Y-68036962D01*
X165833344Y-68036960D01*
X165833342Y-68036960D01*
X165803298Y-68033730D01*
X165773256Y-68030500D01*
X164426753Y-68030500D01*
X164426729Y-68030502D01*
X164366660Y-68036959D01*
X164366658Y-68036959D01*
X164230733Y-68087657D01*
X164114596Y-68174596D01*
X164027657Y-68290734D01*
X163976962Y-68426650D01*
X163976960Y-68426658D01*
X163970500Y-68486737D01*
X163970500Y-69383246D01*
X163970502Y-69383270D01*
X163977802Y-69451180D01*
X163974365Y-69451549D01*
X163971279Y-69506913D01*
X163941642Y-69553835D01*
X163047880Y-70447596D01*
X162985570Y-70481620D01*
X162958787Y-70484500D01*
X153926922Y-70484500D01*
X153858801Y-70464498D01*
X153807397Y-70431463D01*
X153756411Y-70398696D01*
X153721336Y-70388397D01*
X153616114Y-70357500D01*
X153616111Y-70357500D01*
X153469889Y-70357500D01*
X153469885Y-70357500D01*
X153329589Y-70398696D01*
X153329587Y-70398697D01*
X153229121Y-70463263D01*
X153161000Y-70483265D01*
X153092879Y-70463263D01*
X153046386Y-70409607D01*
X153035000Y-70357265D01*
X153035000Y-69316490D01*
X153055002Y-69248369D01*
X153108658Y-69201876D01*
X153178932Y-69191772D01*
X153243512Y-69221266D01*
X153256219Y-69233972D01*
X153333579Y-69323250D01*
X153456589Y-69402304D01*
X153576039Y-69437378D01*
X153596885Y-69443499D01*
X153596886Y-69443499D01*
X153596889Y-69443500D01*
X153596892Y-69443500D01*
X153743108Y-69443500D01*
X153743111Y-69443500D01*
X153883411Y-69402304D01*
X153985801Y-69336502D01*
X154053922Y-69316500D01*
X154960143Y-69316500D01*
X155028264Y-69336502D01*
X155074757Y-69390158D01*
X155085421Y-69429031D01*
X155086959Y-69443340D01*
X155086959Y-69443341D01*
X155137657Y-69579266D01*
X155137658Y-69579267D01*
X155224596Y-69695404D01*
X155340733Y-69782342D01*
X155476658Y-69833040D01*
X155536745Y-69839500D01*
X156883254Y-69839499D01*
X156943342Y-69833040D01*
X157079267Y-69782342D01*
X157195404Y-69695404D01*
X157282342Y-69579267D01*
X157333040Y-69443342D01*
X157339500Y-69383255D01*
X157339499Y-68486746D01*
X157337451Y-68467696D01*
X157332198Y-68418820D01*
X157335691Y-68418444D01*
X157338598Y-68363430D01*
X157368356Y-68316164D01*
X158942545Y-66741976D01*
X158962721Y-66725593D01*
X158971956Y-66719560D01*
X158994111Y-66691093D01*
X158999277Y-66685244D01*
X159002114Y-66682409D01*
X159015900Y-66663099D01*
X159050158Y-66619085D01*
X159050160Y-66619076D01*
X159053956Y-66612065D01*
X159057471Y-66604874D01*
X159057475Y-66604870D01*
X159060548Y-66594548D01*
X159099155Y-66534966D01*
X159163846Y-66505715D01*
X159181310Y-66504499D01*
X159635064Y-66504499D01*
X159635066Y-66504499D01*
X159635069Y-66504498D01*
X159635072Y-66504498D01*
X159671663Y-66497219D01*
X159709301Y-66489734D01*
X159793484Y-66433484D01*
X159849734Y-66349301D01*
X159864500Y-66275067D01*
X159864499Y-65060004D01*
X170270554Y-65060004D01*
X170290295Y-65273044D01*
X170290295Y-65273047D01*
X170290296Y-65273048D01*
X170348849Y-65478840D01*
X170444219Y-65670370D01*
X170444220Y-65670371D01*
X170444221Y-65670373D01*
X170573155Y-65841110D01*
X170731278Y-65985258D01*
X170731279Y-65985259D01*
X170913178Y-66097886D01*
X170913181Y-66097887D01*
X170913190Y-66097893D01*
X171112698Y-66175183D01*
X171112703Y-66175185D01*
X171323020Y-66214500D01*
X171323022Y-66214500D01*
X171536978Y-66214500D01*
X171536980Y-66214500D01*
X171747297Y-66175185D01*
X171946810Y-66097893D01*
X172128722Y-65985258D01*
X172286841Y-65841114D01*
X172415781Y-65670370D01*
X172511151Y-65478840D01*
X172568311Y-65277943D01*
X172606190Y-65217898D01*
X172670521Y-65187864D01*
X172740877Y-65197377D01*
X172794922Y-65243417D01*
X172815496Y-65311367D01*
X172815500Y-65312426D01*
X172815500Y-65985063D01*
X172815501Y-65985073D01*
X172830265Y-66059300D01*
X172886516Y-66143484D01*
X172970697Y-66199733D01*
X172970699Y-66199734D01*
X173044933Y-66214500D01*
X173462500Y-66214499D01*
X173530620Y-66234501D01*
X173577114Y-66288156D01*
X173588500Y-66340499D01*
X173588500Y-67904500D01*
X173568498Y-67972621D01*
X173514842Y-68019114D01*
X173462500Y-68030500D01*
X172681753Y-68030500D01*
X172681729Y-68030502D01*
X172621660Y-68036959D01*
X172621658Y-68036959D01*
X172485733Y-68087657D01*
X172369596Y-68174596D01*
X172282657Y-68290734D01*
X172231962Y-68426650D01*
X172231960Y-68426658D01*
X172225500Y-68486737D01*
X172225500Y-69383246D01*
X172225502Y-69383270D01*
X172231959Y-69443339D01*
X172231959Y-69443341D01*
X172282657Y-69579266D01*
X172282658Y-69579267D01*
X172369596Y-69695404D01*
X172485733Y-69782342D01*
X172621658Y-69833040D01*
X172681745Y-69839500D01*
X174028254Y-69839499D01*
X174088342Y-69833040D01*
X174224267Y-69782342D01*
X174340404Y-69695404D01*
X174427342Y-69579267D01*
X174478040Y-69443342D01*
X174484500Y-69383255D01*
X174484499Y-68486746D01*
X174478040Y-68426658D01*
X174427342Y-68290733D01*
X174427340Y-68290730D01*
X174376631Y-68222988D01*
X174351821Y-68156468D01*
X174351500Y-68147481D01*
X174351500Y-66340499D01*
X174371502Y-66272378D01*
X174425158Y-66225885D01*
X174477500Y-66214499D01*
X174895064Y-66214499D01*
X174895066Y-66214499D01*
X174895069Y-66214498D01*
X174895072Y-66214498D01*
X174931663Y-66207219D01*
X174969301Y-66199734D01*
X175053484Y-66143484D01*
X175109734Y-66059301D01*
X175124500Y-65985067D01*
X175124499Y-64134934D01*
X175124498Y-64134930D01*
X175124498Y-64134926D01*
X175109734Y-64060699D01*
X175053483Y-63976515D01*
X174969302Y-63920266D01*
X174895067Y-63905500D01*
X173044936Y-63905500D01*
X173044926Y-63905501D01*
X172970699Y-63920265D01*
X172886515Y-63976516D01*
X172830266Y-64060697D01*
X172815500Y-64134930D01*
X172815500Y-64807572D01*
X172795498Y-64875693D01*
X172741842Y-64922186D01*
X172671568Y-64932290D01*
X172606988Y-64902796D01*
X172568604Y-64843070D01*
X172568310Y-64842053D01*
X172511153Y-64641168D01*
X172511152Y-64641165D01*
X172511151Y-64641160D01*
X172415781Y-64449630D01*
X172397133Y-64424936D01*
X172286844Y-64278889D01*
X172273271Y-64266516D01*
X172128722Y-64134742D01*
X172128721Y-64134741D01*
X172128720Y-64134740D01*
X171946821Y-64022113D01*
X171946814Y-64022109D01*
X171946810Y-64022107D01*
X171946805Y-64022105D01*
X171747301Y-63944816D01*
X171747302Y-63944816D01*
X171747297Y-63944815D01*
X171536980Y-63905500D01*
X171323020Y-63905500D01*
X171164313Y-63935167D01*
X171112697Y-63944816D01*
X170913194Y-64022105D01*
X170913178Y-64022113D01*
X170731279Y-64134740D01*
X170731278Y-64134741D01*
X170573155Y-64278889D01*
X170444221Y-64449626D01*
X170348849Y-64641160D01*
X170348847Y-64641165D01*
X170290295Y-64846955D01*
X170270554Y-65059995D01*
X170270554Y-65060004D01*
X159864499Y-65060004D01*
X159864499Y-64424934D01*
X159864498Y-64424930D01*
X159864498Y-64424926D01*
X159849734Y-64350699D01*
X159793483Y-64266515D01*
X159709302Y-64210266D01*
X159635067Y-64195500D01*
X157784936Y-64195500D01*
X157784926Y-64195501D01*
X157710699Y-64210265D01*
X157626515Y-64266516D01*
X157570266Y-64350697D01*
X157555500Y-64424930D01*
X157555500Y-65097572D01*
X157535498Y-65165693D01*
X157481842Y-65212186D01*
X157411568Y-65222290D01*
X157346988Y-65192796D01*
X157308604Y-65133070D01*
X157308310Y-65132053D01*
X157287808Y-65059995D01*
X157251151Y-64931160D01*
X157155781Y-64739630D01*
X157081420Y-64641160D01*
X157026844Y-64568889D01*
X156868721Y-64424741D01*
X156868720Y-64424740D01*
X156686821Y-64312113D01*
X156686814Y-64312109D01*
X156686810Y-64312107D01*
X156601065Y-64278889D01*
X156487301Y-64234816D01*
X156487302Y-64234816D01*
X156487297Y-64234815D01*
X156276980Y-64195500D01*
X156063020Y-64195500D01*
X155904313Y-64225167D01*
X155852697Y-64234816D01*
X155653194Y-64312105D01*
X155653178Y-64312113D01*
X155471279Y-64424740D01*
X155471278Y-64424741D01*
X155313155Y-64568889D01*
X155184221Y-64739626D01*
X155088849Y-64931160D01*
X155088847Y-64931165D01*
X155030295Y-65136955D01*
X155010554Y-65349995D01*
X155010554Y-65350004D01*
X155030295Y-65563044D01*
X155030295Y-65563047D01*
X155030296Y-65563048D01*
X155088849Y-65768840D01*
X155184219Y-65960370D01*
X155184220Y-65960371D01*
X155184221Y-65960373D01*
X155313155Y-66131110D01*
X155313158Y-66131112D01*
X155313159Y-66131114D01*
X155417118Y-66225885D01*
X155471278Y-66275258D01*
X155471279Y-66275259D01*
X155653178Y-66387886D01*
X155653181Y-66387887D01*
X155653190Y-66387893D01*
X155852698Y-66465183D01*
X155852703Y-66465185D01*
X156063020Y-66504500D01*
X156063022Y-66504500D01*
X156276978Y-66504500D01*
X156276980Y-66504500D01*
X156487297Y-66465185D01*
X156686810Y-66387893D01*
X156868722Y-66275258D01*
X157026841Y-66131114D01*
X157155781Y-65960370D01*
X157251151Y-65768840D01*
X157308311Y-65567943D01*
X157346190Y-65507898D01*
X157410521Y-65477864D01*
X157480877Y-65487377D01*
X157534922Y-65533417D01*
X157555496Y-65601367D01*
X157555500Y-65602426D01*
X157555500Y-66275063D01*
X157555501Y-66275073D01*
X157570265Y-66349300D01*
X157626516Y-66433484D01*
X157710697Y-66489733D01*
X157710699Y-66489734D01*
X157784933Y-66504500D01*
X157796783Y-66504499D01*
X157864902Y-66524497D01*
X157911398Y-66578150D01*
X157921505Y-66648424D01*
X157892016Y-66713006D01*
X157885882Y-66719594D01*
X156611881Y-67993595D01*
X156549569Y-68027621D01*
X156522786Y-68030500D01*
X155536753Y-68030500D01*
X155536729Y-68030502D01*
X155476660Y-68036959D01*
X155476658Y-68036959D01*
X155340733Y-68087657D01*
X155224596Y-68174596D01*
X155137657Y-68290734D01*
X155086962Y-68426650D01*
X155086960Y-68426659D01*
X155085422Y-68440968D01*
X155058253Y-68506560D01*
X154999936Y-68547052D01*
X154960144Y-68553500D01*
X154053922Y-68553500D01*
X153985801Y-68533498D01*
X153913053Y-68486746D01*
X153883411Y-68467696D01*
X153848336Y-68457397D01*
X153743114Y-68426500D01*
X153743111Y-68426500D01*
X153596889Y-68426500D01*
X153596885Y-68426500D01*
X153456589Y-68467696D01*
X153456587Y-68467697D01*
X153333579Y-68546749D01*
X153256224Y-68636022D01*
X153196498Y-68674405D01*
X153125501Y-68674405D01*
X153065775Y-68636021D01*
X153036282Y-68571440D01*
X153035000Y-68553509D01*
X153035000Y-59055004D01*
X163040699Y-59055004D01*
X163059877Y-59335394D01*
X163059878Y-59335400D01*
X163059879Y-59335408D01*
X163091239Y-59486325D01*
X163117061Y-59610586D01*
X163117063Y-59610593D01*
X163211186Y-59875428D01*
X163340493Y-60124980D01*
X163502577Y-60354600D01*
X163694418Y-60560011D01*
X163912442Y-60737387D01*
X164152588Y-60883423D01*
X164410382Y-60995399D01*
X164681023Y-61071229D01*
X164766921Y-61083035D01*
X164959454Y-61109499D01*
X164959468Y-61109500D01*
X165240532Y-61109500D01*
X165240545Y-61109499D01*
X165404445Y-61086970D01*
X165518977Y-61071229D01*
X165789618Y-60995399D01*
X166047412Y-60883423D01*
X166287558Y-60737387D01*
X166505582Y-60560011D01*
X166697423Y-60354600D01*
X166859507Y-60124980D01*
X166988814Y-59875428D01*
X167082937Y-59610593D01*
X167140121Y-59335408D01*
X167159301Y-59055000D01*
X167140121Y-58774592D01*
X167082937Y-58499407D01*
X166988814Y-58234572D01*
X166859507Y-57985020D01*
X166697423Y-57755400D01*
X166505582Y-57549989D01*
X166287558Y-57372613D01*
X166047412Y-57226577D01*
X166047408Y-57226575D01*
X166047406Y-57226574D01*
X165789621Y-57114602D01*
X165789619Y-57114601D01*
X165789618Y-57114601D01*
X165518977Y-57038771D01*
X165518976Y-57038770D01*
X165518973Y-57038770D01*
X165240545Y-57000500D01*
X165240532Y-57000500D01*
X164959468Y-57000500D01*
X164959454Y-57000500D01*
X164681026Y-57038770D01*
X164410378Y-57114602D01*
X164152593Y-57226574D01*
X163912439Y-57372615D01*
X163694423Y-57549985D01*
X163694415Y-57549992D01*
X163502577Y-57755400D01*
X163340493Y-57985019D01*
X163340493Y-57985020D01*
X163211186Y-58234571D01*
X163117063Y-58499405D01*
X163117061Y-58499413D01*
X163059878Y-58774599D01*
X163059877Y-58774605D01*
X163040699Y-59054995D01*
X163040699Y-59055004D01*
X153035000Y-59055004D01*
X153035000Y-56641000D01*
X153055002Y-56572879D01*
X153108658Y-56526386D01*
X153161000Y-56515000D01*
X177039000Y-56515000D01*
X177107121Y-56535002D01*
G37*
%TD.AperFunction*%
%TD*%
M02*
