%TF.GenerationSoftware,KiCad,Pcbnew,9.0.2-9.0.2-0~ubuntu24.04.1*%
%TF.CreationDate,2025-05-15T08:46:20-04:00*%
%TF.ProjectId,avr-smt-44,6176722d-736d-4742-9d34-342e6b696361,1.0*%
%TF.SameCoordinates,Original*%
%TF.FileFunction,Copper,L2,Bot*%
%TF.FilePolarity,Positive*%
%FSLAX46Y46*%
G04 Gerber Fmt 4.6, Leading zero omitted, Abs format (unit mm)*
G04 Created by KiCad (PCBNEW 9.0.2-9.0.2-0~ubuntu24.04.1) date 2025-05-15 08:46:20*
%MOMM*%
%LPD*%
G01*
G04 APERTURE LIST*
%ADD10C,0.100000*%
%ADD11C,0.150000*%
%ADD12C,0.300000*%
%ADD13C,0.400000*%
%TA.AperFunction,ComponentPad*%
%ADD14C,3.600000*%
%TD*%
%TA.AperFunction,ComponentPad*%
%ADD15R,1.700000X1.700000*%
%TD*%
%TA.AperFunction,ComponentPad*%
%ADD16O,1.700000X1.700000*%
%TD*%
%TA.AperFunction,ComponentPad*%
%ADD17C,1.397000*%
%TD*%
%TA.AperFunction,ComponentPad*%
%ADD18C,1.524000*%
%TD*%
%TA.AperFunction,ComponentPad*%
%ADD19C,2.286000*%
%TD*%
%TA.AperFunction,ComponentPad*%
%ADD20R,1.800000X1.800000*%
%TD*%
%TA.AperFunction,ComponentPad*%
%ADD21C,1.800000*%
%TD*%
%TA.AperFunction,ViaPad*%
%ADD22C,0.508000*%
%TD*%
%TA.AperFunction,Conductor*%
%ADD23C,0.635000*%
%TD*%
%TA.AperFunction,Conductor*%
%ADD24C,0.254000*%
%TD*%
G04 APERTURE END LIST*
D10*
D11*
X83200000Y-133800000D02*
X191200000Y-133800000D01*
X191200000Y-165800000D01*
X83200000Y-165800000D01*
X83200000Y-133800000D01*
D10*
D11*
X10000000Y-10000000D02*
X193200000Y-10000000D01*
X193200000Y-167800000D01*
X10000000Y-167800000D01*
X10000000Y-10000000D01*
D10*
D11*
X12000000Y-12000000D02*
X191200000Y-12000000D01*
X191200000Y-165800000D01*
X12000000Y-165800000D01*
X12000000Y-12000000D01*
D10*
D11*
X60000000Y-12000000D02*
X60000000Y-10000000D01*
D10*
D11*
X110000000Y-12000000D02*
X110000000Y-10000000D01*
D10*
D11*
X160000000Y-12000000D02*
X160000000Y-10000000D01*
D10*
D11*
X36089160Y-11593604D02*
X35346303Y-11593604D01*
X35717731Y-11593604D02*
X35717731Y-10293604D01*
X35717731Y-10293604D02*
X35593922Y-10479319D01*
X35593922Y-10479319D02*
X35470112Y-10603128D01*
X35470112Y-10603128D02*
X35346303Y-10665033D01*
D10*
D11*
X85346303Y-10417414D02*
X85408207Y-10355509D01*
X85408207Y-10355509D02*
X85532017Y-10293604D01*
X85532017Y-10293604D02*
X85841541Y-10293604D01*
X85841541Y-10293604D02*
X85965350Y-10355509D01*
X85965350Y-10355509D02*
X86027255Y-10417414D01*
X86027255Y-10417414D02*
X86089160Y-10541223D01*
X86089160Y-10541223D02*
X86089160Y-10665033D01*
X86089160Y-10665033D02*
X86027255Y-10850747D01*
X86027255Y-10850747D02*
X85284398Y-11593604D01*
X85284398Y-11593604D02*
X86089160Y-11593604D01*
D10*
D11*
X135284398Y-10293604D02*
X136089160Y-10293604D01*
X136089160Y-10293604D02*
X135655826Y-10788842D01*
X135655826Y-10788842D02*
X135841541Y-10788842D01*
X135841541Y-10788842D02*
X135965350Y-10850747D01*
X135965350Y-10850747D02*
X136027255Y-10912652D01*
X136027255Y-10912652D02*
X136089160Y-11036461D01*
X136089160Y-11036461D02*
X136089160Y-11345985D01*
X136089160Y-11345985D02*
X136027255Y-11469795D01*
X136027255Y-11469795D02*
X135965350Y-11531700D01*
X135965350Y-11531700D02*
X135841541Y-11593604D01*
X135841541Y-11593604D02*
X135470112Y-11593604D01*
X135470112Y-11593604D02*
X135346303Y-11531700D01*
X135346303Y-11531700D02*
X135284398Y-11469795D01*
D10*
D11*
X185965350Y-10726938D02*
X185965350Y-11593604D01*
X185655826Y-10231700D02*
X185346303Y-11160271D01*
X185346303Y-11160271D02*
X186151064Y-11160271D01*
D10*
D11*
X60000000Y-165800000D02*
X60000000Y-167800000D01*
D10*
D11*
X110000000Y-165800000D02*
X110000000Y-167800000D01*
D10*
D11*
X160000000Y-165800000D02*
X160000000Y-167800000D01*
D10*
D11*
X36089160Y-167393604D02*
X35346303Y-167393604D01*
X35717731Y-167393604D02*
X35717731Y-166093604D01*
X35717731Y-166093604D02*
X35593922Y-166279319D01*
X35593922Y-166279319D02*
X35470112Y-166403128D01*
X35470112Y-166403128D02*
X35346303Y-166465033D01*
D10*
D11*
X85346303Y-166217414D02*
X85408207Y-166155509D01*
X85408207Y-166155509D02*
X85532017Y-166093604D01*
X85532017Y-166093604D02*
X85841541Y-166093604D01*
X85841541Y-166093604D02*
X85965350Y-166155509D01*
X85965350Y-166155509D02*
X86027255Y-166217414D01*
X86027255Y-166217414D02*
X86089160Y-166341223D01*
X86089160Y-166341223D02*
X86089160Y-166465033D01*
X86089160Y-166465033D02*
X86027255Y-166650747D01*
X86027255Y-166650747D02*
X85284398Y-167393604D01*
X85284398Y-167393604D02*
X86089160Y-167393604D01*
D10*
D11*
X135284398Y-166093604D02*
X136089160Y-166093604D01*
X136089160Y-166093604D02*
X135655826Y-166588842D01*
X135655826Y-166588842D02*
X135841541Y-166588842D01*
X135841541Y-166588842D02*
X135965350Y-166650747D01*
X135965350Y-166650747D02*
X136027255Y-166712652D01*
X136027255Y-166712652D02*
X136089160Y-166836461D01*
X136089160Y-166836461D02*
X136089160Y-167145985D01*
X136089160Y-167145985D02*
X136027255Y-167269795D01*
X136027255Y-167269795D02*
X135965350Y-167331700D01*
X135965350Y-167331700D02*
X135841541Y-167393604D01*
X135841541Y-167393604D02*
X135470112Y-167393604D01*
X135470112Y-167393604D02*
X135346303Y-167331700D01*
X135346303Y-167331700D02*
X135284398Y-167269795D01*
D10*
D11*
X185965350Y-166526938D02*
X185965350Y-167393604D01*
X185655826Y-166031700D02*
X185346303Y-166960271D01*
X185346303Y-166960271D02*
X186151064Y-166960271D01*
D10*
D11*
X10000000Y-60000000D02*
X12000000Y-60000000D01*
D10*
D11*
X10000000Y-110000000D02*
X12000000Y-110000000D01*
D10*
D11*
X10000000Y-160000000D02*
X12000000Y-160000000D01*
D10*
D11*
X10690476Y-35222176D02*
X11309523Y-35222176D01*
X10566666Y-35593604D02*
X10999999Y-34293604D01*
X10999999Y-34293604D02*
X11433333Y-35593604D01*
D10*
D11*
X11092857Y-84912652D02*
X11278571Y-84974557D01*
X11278571Y-84974557D02*
X11340476Y-85036461D01*
X11340476Y-85036461D02*
X11402380Y-85160271D01*
X11402380Y-85160271D02*
X11402380Y-85345985D01*
X11402380Y-85345985D02*
X11340476Y-85469795D01*
X11340476Y-85469795D02*
X11278571Y-85531700D01*
X11278571Y-85531700D02*
X11154761Y-85593604D01*
X11154761Y-85593604D02*
X10659523Y-85593604D01*
X10659523Y-85593604D02*
X10659523Y-84293604D01*
X10659523Y-84293604D02*
X11092857Y-84293604D01*
X11092857Y-84293604D02*
X11216666Y-84355509D01*
X11216666Y-84355509D02*
X11278571Y-84417414D01*
X11278571Y-84417414D02*
X11340476Y-84541223D01*
X11340476Y-84541223D02*
X11340476Y-84665033D01*
X11340476Y-84665033D02*
X11278571Y-84788842D01*
X11278571Y-84788842D02*
X11216666Y-84850747D01*
X11216666Y-84850747D02*
X11092857Y-84912652D01*
X11092857Y-84912652D02*
X10659523Y-84912652D01*
D10*
D11*
X11402380Y-135469795D02*
X11340476Y-135531700D01*
X11340476Y-135531700D02*
X11154761Y-135593604D01*
X11154761Y-135593604D02*
X11030952Y-135593604D01*
X11030952Y-135593604D02*
X10845238Y-135531700D01*
X10845238Y-135531700D02*
X10721428Y-135407890D01*
X10721428Y-135407890D02*
X10659523Y-135284080D01*
X10659523Y-135284080D02*
X10597619Y-135036461D01*
X10597619Y-135036461D02*
X10597619Y-134850747D01*
X10597619Y-134850747D02*
X10659523Y-134603128D01*
X10659523Y-134603128D02*
X10721428Y-134479319D01*
X10721428Y-134479319D02*
X10845238Y-134355509D01*
X10845238Y-134355509D02*
X11030952Y-134293604D01*
X11030952Y-134293604D02*
X11154761Y-134293604D01*
X11154761Y-134293604D02*
X11340476Y-134355509D01*
X11340476Y-134355509D02*
X11402380Y-134417414D01*
D10*
D11*
X193200000Y-60000000D02*
X191200000Y-60000000D01*
D10*
D11*
X193200000Y-110000000D02*
X191200000Y-110000000D01*
D10*
D11*
X193200000Y-160000000D02*
X191200000Y-160000000D01*
D10*
D11*
X191890476Y-35222176D02*
X192509523Y-35222176D01*
X191766666Y-35593604D02*
X192199999Y-34293604D01*
X192199999Y-34293604D02*
X192633333Y-35593604D01*
D10*
D11*
X192292857Y-84912652D02*
X192478571Y-84974557D01*
X192478571Y-84974557D02*
X192540476Y-85036461D01*
X192540476Y-85036461D02*
X192602380Y-85160271D01*
X192602380Y-85160271D02*
X192602380Y-85345985D01*
X192602380Y-85345985D02*
X192540476Y-85469795D01*
X192540476Y-85469795D02*
X192478571Y-85531700D01*
X192478571Y-85531700D02*
X192354761Y-85593604D01*
X192354761Y-85593604D02*
X191859523Y-85593604D01*
X191859523Y-85593604D02*
X191859523Y-84293604D01*
X191859523Y-84293604D02*
X192292857Y-84293604D01*
X192292857Y-84293604D02*
X192416666Y-84355509D01*
X192416666Y-84355509D02*
X192478571Y-84417414D01*
X192478571Y-84417414D02*
X192540476Y-84541223D01*
X192540476Y-84541223D02*
X192540476Y-84665033D01*
X192540476Y-84665033D02*
X192478571Y-84788842D01*
X192478571Y-84788842D02*
X192416666Y-84850747D01*
X192416666Y-84850747D02*
X192292857Y-84912652D01*
X192292857Y-84912652D02*
X191859523Y-84912652D01*
D10*
D11*
X192602380Y-135469795D02*
X192540476Y-135531700D01*
X192540476Y-135531700D02*
X192354761Y-135593604D01*
X192354761Y-135593604D02*
X192230952Y-135593604D01*
X192230952Y-135593604D02*
X192045238Y-135531700D01*
X192045238Y-135531700D02*
X191921428Y-135407890D01*
X191921428Y-135407890D02*
X191859523Y-135284080D01*
X191859523Y-135284080D02*
X191797619Y-135036461D01*
X191797619Y-135036461D02*
X191797619Y-134850747D01*
X191797619Y-134850747D02*
X191859523Y-134603128D01*
X191859523Y-134603128D02*
X191921428Y-134479319D01*
X191921428Y-134479319D02*
X192045238Y-134355509D01*
X192045238Y-134355509D02*
X192230952Y-134293604D01*
X192230952Y-134293604D02*
X192354761Y-134293604D01*
X192354761Y-134293604D02*
X192540476Y-134355509D01*
X192540476Y-134355509D02*
X192602380Y-134417414D01*
D10*
D11*
X106655826Y-161586128D02*
X106655826Y-160086128D01*
X106655826Y-160086128D02*
X107012969Y-160086128D01*
X107012969Y-160086128D02*
X107227255Y-160157557D01*
X107227255Y-160157557D02*
X107370112Y-160300414D01*
X107370112Y-160300414D02*
X107441541Y-160443271D01*
X107441541Y-160443271D02*
X107512969Y-160728985D01*
X107512969Y-160728985D02*
X107512969Y-160943271D01*
X107512969Y-160943271D02*
X107441541Y-161228985D01*
X107441541Y-161228985D02*
X107370112Y-161371842D01*
X107370112Y-161371842D02*
X107227255Y-161514700D01*
X107227255Y-161514700D02*
X107012969Y-161586128D01*
X107012969Y-161586128D02*
X106655826Y-161586128D01*
X108798684Y-161586128D02*
X108798684Y-160800414D01*
X108798684Y-160800414D02*
X108727255Y-160657557D01*
X108727255Y-160657557D02*
X108584398Y-160586128D01*
X108584398Y-160586128D02*
X108298684Y-160586128D01*
X108298684Y-160586128D02*
X108155826Y-160657557D01*
X108798684Y-161514700D02*
X108655826Y-161586128D01*
X108655826Y-161586128D02*
X108298684Y-161586128D01*
X108298684Y-161586128D02*
X108155826Y-161514700D01*
X108155826Y-161514700D02*
X108084398Y-161371842D01*
X108084398Y-161371842D02*
X108084398Y-161228985D01*
X108084398Y-161228985D02*
X108155826Y-161086128D01*
X108155826Y-161086128D02*
X108298684Y-161014700D01*
X108298684Y-161014700D02*
X108655826Y-161014700D01*
X108655826Y-161014700D02*
X108798684Y-160943271D01*
X109298684Y-160586128D02*
X109870112Y-160586128D01*
X109512969Y-160086128D02*
X109512969Y-161371842D01*
X109512969Y-161371842D02*
X109584398Y-161514700D01*
X109584398Y-161514700D02*
X109727255Y-161586128D01*
X109727255Y-161586128D02*
X109870112Y-161586128D01*
X110941541Y-161514700D02*
X110798684Y-161586128D01*
X110798684Y-161586128D02*
X110512970Y-161586128D01*
X110512970Y-161586128D02*
X110370112Y-161514700D01*
X110370112Y-161514700D02*
X110298684Y-161371842D01*
X110298684Y-161371842D02*
X110298684Y-160800414D01*
X110298684Y-160800414D02*
X110370112Y-160657557D01*
X110370112Y-160657557D02*
X110512970Y-160586128D01*
X110512970Y-160586128D02*
X110798684Y-160586128D01*
X110798684Y-160586128D02*
X110941541Y-160657557D01*
X110941541Y-160657557D02*
X111012970Y-160800414D01*
X111012970Y-160800414D02*
X111012970Y-160943271D01*
X111012970Y-160943271D02*
X110298684Y-161086128D01*
X111655826Y-161443271D02*
X111727255Y-161514700D01*
X111727255Y-161514700D02*
X111655826Y-161586128D01*
X111655826Y-161586128D02*
X111584398Y-161514700D01*
X111584398Y-161514700D02*
X111655826Y-161443271D01*
X111655826Y-161443271D02*
X111655826Y-161586128D01*
X111655826Y-160657557D02*
X111727255Y-160728985D01*
X111727255Y-160728985D02*
X111655826Y-160800414D01*
X111655826Y-160800414D02*
X111584398Y-160728985D01*
X111584398Y-160728985D02*
X111655826Y-160657557D01*
X111655826Y-160657557D02*
X111655826Y-160800414D01*
X113441541Y-160228985D02*
X113512969Y-160157557D01*
X113512969Y-160157557D02*
X113655827Y-160086128D01*
X113655827Y-160086128D02*
X114012969Y-160086128D01*
X114012969Y-160086128D02*
X114155827Y-160157557D01*
X114155827Y-160157557D02*
X114227255Y-160228985D01*
X114227255Y-160228985D02*
X114298684Y-160371842D01*
X114298684Y-160371842D02*
X114298684Y-160514700D01*
X114298684Y-160514700D02*
X114227255Y-160728985D01*
X114227255Y-160728985D02*
X113370112Y-161586128D01*
X113370112Y-161586128D02*
X114298684Y-161586128D01*
X115227255Y-160086128D02*
X115370112Y-160086128D01*
X115370112Y-160086128D02*
X115512969Y-160157557D01*
X115512969Y-160157557D02*
X115584398Y-160228985D01*
X115584398Y-160228985D02*
X115655826Y-160371842D01*
X115655826Y-160371842D02*
X115727255Y-160657557D01*
X115727255Y-160657557D02*
X115727255Y-161014700D01*
X115727255Y-161014700D02*
X115655826Y-161300414D01*
X115655826Y-161300414D02*
X115584398Y-161443271D01*
X115584398Y-161443271D02*
X115512969Y-161514700D01*
X115512969Y-161514700D02*
X115370112Y-161586128D01*
X115370112Y-161586128D02*
X115227255Y-161586128D01*
X115227255Y-161586128D02*
X115084398Y-161514700D01*
X115084398Y-161514700D02*
X115012969Y-161443271D01*
X115012969Y-161443271D02*
X114941540Y-161300414D01*
X114941540Y-161300414D02*
X114870112Y-161014700D01*
X114870112Y-161014700D02*
X114870112Y-160657557D01*
X114870112Y-160657557D02*
X114941540Y-160371842D01*
X114941540Y-160371842D02*
X115012969Y-160228985D01*
X115012969Y-160228985D02*
X115084398Y-160157557D01*
X115084398Y-160157557D02*
X115227255Y-160086128D01*
X116298683Y-160228985D02*
X116370111Y-160157557D01*
X116370111Y-160157557D02*
X116512969Y-160086128D01*
X116512969Y-160086128D02*
X116870111Y-160086128D01*
X116870111Y-160086128D02*
X117012969Y-160157557D01*
X117012969Y-160157557D02*
X117084397Y-160228985D01*
X117084397Y-160228985D02*
X117155826Y-160371842D01*
X117155826Y-160371842D02*
X117155826Y-160514700D01*
X117155826Y-160514700D02*
X117084397Y-160728985D01*
X117084397Y-160728985D02*
X116227254Y-161586128D01*
X116227254Y-161586128D02*
X117155826Y-161586128D01*
X117655825Y-160086128D02*
X118584397Y-160086128D01*
X118584397Y-160086128D02*
X118084397Y-160657557D01*
X118084397Y-160657557D02*
X118298682Y-160657557D01*
X118298682Y-160657557D02*
X118441540Y-160728985D01*
X118441540Y-160728985D02*
X118512968Y-160800414D01*
X118512968Y-160800414D02*
X118584397Y-160943271D01*
X118584397Y-160943271D02*
X118584397Y-161300414D01*
X118584397Y-161300414D02*
X118512968Y-161443271D01*
X118512968Y-161443271D02*
X118441540Y-161514700D01*
X118441540Y-161514700D02*
X118298682Y-161586128D01*
X118298682Y-161586128D02*
X117870111Y-161586128D01*
X117870111Y-161586128D02*
X117727254Y-161514700D01*
X117727254Y-161514700D02*
X117655825Y-161443271D01*
X119227253Y-161014700D02*
X120370111Y-161014700D01*
X121870111Y-161586128D02*
X121012968Y-161586128D01*
X121441539Y-161586128D02*
X121441539Y-160086128D01*
X121441539Y-160086128D02*
X121298682Y-160300414D01*
X121298682Y-160300414D02*
X121155825Y-160443271D01*
X121155825Y-160443271D02*
X121012968Y-160514700D01*
X122798682Y-160086128D02*
X122941539Y-160086128D01*
X122941539Y-160086128D02*
X123084396Y-160157557D01*
X123084396Y-160157557D02*
X123155825Y-160228985D01*
X123155825Y-160228985D02*
X123227253Y-160371842D01*
X123227253Y-160371842D02*
X123298682Y-160657557D01*
X123298682Y-160657557D02*
X123298682Y-161014700D01*
X123298682Y-161014700D02*
X123227253Y-161300414D01*
X123227253Y-161300414D02*
X123155825Y-161443271D01*
X123155825Y-161443271D02*
X123084396Y-161514700D01*
X123084396Y-161514700D02*
X122941539Y-161586128D01*
X122941539Y-161586128D02*
X122798682Y-161586128D01*
X122798682Y-161586128D02*
X122655825Y-161514700D01*
X122655825Y-161514700D02*
X122584396Y-161443271D01*
X122584396Y-161443271D02*
X122512967Y-161300414D01*
X122512967Y-161300414D02*
X122441539Y-161014700D01*
X122441539Y-161014700D02*
X122441539Y-160657557D01*
X122441539Y-160657557D02*
X122512967Y-160371842D01*
X122512967Y-160371842D02*
X122584396Y-160228985D01*
X122584396Y-160228985D02*
X122655825Y-160157557D01*
X122655825Y-160157557D02*
X122798682Y-160086128D01*
X123941538Y-161014700D02*
X125084396Y-161014700D01*
X126584396Y-161586128D02*
X125727253Y-161586128D01*
X126155824Y-161586128D02*
X126155824Y-160086128D01*
X126155824Y-160086128D02*
X126012967Y-160300414D01*
X126012967Y-160300414D02*
X125870110Y-160443271D01*
X125870110Y-160443271D02*
X125727253Y-160514700D01*
X127512967Y-160086128D02*
X127655824Y-160086128D01*
X127655824Y-160086128D02*
X127798681Y-160157557D01*
X127798681Y-160157557D02*
X127870110Y-160228985D01*
X127870110Y-160228985D02*
X127941538Y-160371842D01*
X127941538Y-160371842D02*
X128012967Y-160657557D01*
X128012967Y-160657557D02*
X128012967Y-161014700D01*
X128012967Y-161014700D02*
X127941538Y-161300414D01*
X127941538Y-161300414D02*
X127870110Y-161443271D01*
X127870110Y-161443271D02*
X127798681Y-161514700D01*
X127798681Y-161514700D02*
X127655824Y-161586128D01*
X127655824Y-161586128D02*
X127512967Y-161586128D01*
X127512967Y-161586128D02*
X127370110Y-161514700D01*
X127370110Y-161514700D02*
X127298681Y-161443271D01*
X127298681Y-161443271D02*
X127227252Y-161300414D01*
X127227252Y-161300414D02*
X127155824Y-161014700D01*
X127155824Y-161014700D02*
X127155824Y-160657557D01*
X127155824Y-160657557D02*
X127227252Y-160371842D01*
X127227252Y-160371842D02*
X127298681Y-160228985D01*
X127298681Y-160228985D02*
X127370110Y-160157557D01*
X127370110Y-160157557D02*
X127512967Y-160086128D01*
D10*
D11*
X83200000Y-162300000D02*
X191200000Y-162300000D01*
D10*
D11*
X84655826Y-164386128D02*
X84655826Y-162886128D01*
X85512969Y-164386128D02*
X84870112Y-163528985D01*
X85512969Y-162886128D02*
X84655826Y-163743271D01*
X86155826Y-164386128D02*
X86155826Y-163386128D01*
X86155826Y-162886128D02*
X86084398Y-162957557D01*
X86084398Y-162957557D02*
X86155826Y-163028985D01*
X86155826Y-163028985D02*
X86227255Y-162957557D01*
X86227255Y-162957557D02*
X86155826Y-162886128D01*
X86155826Y-162886128D02*
X86155826Y-163028985D01*
X87727255Y-164243271D02*
X87655827Y-164314700D01*
X87655827Y-164314700D02*
X87441541Y-164386128D01*
X87441541Y-164386128D02*
X87298684Y-164386128D01*
X87298684Y-164386128D02*
X87084398Y-164314700D01*
X87084398Y-164314700D02*
X86941541Y-164171842D01*
X86941541Y-164171842D02*
X86870112Y-164028985D01*
X86870112Y-164028985D02*
X86798684Y-163743271D01*
X86798684Y-163743271D02*
X86798684Y-163528985D01*
X86798684Y-163528985D02*
X86870112Y-163243271D01*
X86870112Y-163243271D02*
X86941541Y-163100414D01*
X86941541Y-163100414D02*
X87084398Y-162957557D01*
X87084398Y-162957557D02*
X87298684Y-162886128D01*
X87298684Y-162886128D02*
X87441541Y-162886128D01*
X87441541Y-162886128D02*
X87655827Y-162957557D01*
X87655827Y-162957557D02*
X87727255Y-163028985D01*
X89012970Y-164386128D02*
X89012970Y-163600414D01*
X89012970Y-163600414D02*
X88941541Y-163457557D01*
X88941541Y-163457557D02*
X88798684Y-163386128D01*
X88798684Y-163386128D02*
X88512970Y-163386128D01*
X88512970Y-163386128D02*
X88370112Y-163457557D01*
X89012970Y-164314700D02*
X88870112Y-164386128D01*
X88870112Y-164386128D02*
X88512970Y-164386128D01*
X88512970Y-164386128D02*
X88370112Y-164314700D01*
X88370112Y-164314700D02*
X88298684Y-164171842D01*
X88298684Y-164171842D02*
X88298684Y-164028985D01*
X88298684Y-164028985D02*
X88370112Y-163886128D01*
X88370112Y-163886128D02*
X88512970Y-163814700D01*
X88512970Y-163814700D02*
X88870112Y-163814700D01*
X88870112Y-163814700D02*
X89012970Y-163743271D01*
X90370113Y-164386128D02*
X90370113Y-162886128D01*
X90370113Y-164314700D02*
X90227255Y-164386128D01*
X90227255Y-164386128D02*
X89941541Y-164386128D01*
X89941541Y-164386128D02*
X89798684Y-164314700D01*
X89798684Y-164314700D02*
X89727255Y-164243271D01*
X89727255Y-164243271D02*
X89655827Y-164100414D01*
X89655827Y-164100414D02*
X89655827Y-163671842D01*
X89655827Y-163671842D02*
X89727255Y-163528985D01*
X89727255Y-163528985D02*
X89798684Y-163457557D01*
X89798684Y-163457557D02*
X89941541Y-163386128D01*
X89941541Y-163386128D02*
X90227255Y-163386128D01*
X90227255Y-163386128D02*
X90370113Y-163457557D01*
X92227255Y-163600414D02*
X92727255Y-163600414D01*
X92941541Y-164386128D02*
X92227255Y-164386128D01*
X92227255Y-164386128D02*
X92227255Y-162886128D01*
X92227255Y-162886128D02*
X92941541Y-162886128D01*
X93584398Y-164243271D02*
X93655827Y-164314700D01*
X93655827Y-164314700D02*
X93584398Y-164386128D01*
X93584398Y-164386128D02*
X93512970Y-164314700D01*
X93512970Y-164314700D02*
X93584398Y-164243271D01*
X93584398Y-164243271D02*
X93584398Y-164386128D01*
X94298684Y-164386128D02*
X94298684Y-162886128D01*
X94298684Y-162886128D02*
X94655827Y-162886128D01*
X94655827Y-162886128D02*
X94870113Y-162957557D01*
X94870113Y-162957557D02*
X95012970Y-163100414D01*
X95012970Y-163100414D02*
X95084399Y-163243271D01*
X95084399Y-163243271D02*
X95155827Y-163528985D01*
X95155827Y-163528985D02*
X95155827Y-163743271D01*
X95155827Y-163743271D02*
X95084399Y-164028985D01*
X95084399Y-164028985D02*
X95012970Y-164171842D01*
X95012970Y-164171842D02*
X94870113Y-164314700D01*
X94870113Y-164314700D02*
X94655827Y-164386128D01*
X94655827Y-164386128D02*
X94298684Y-164386128D01*
X95798684Y-164243271D02*
X95870113Y-164314700D01*
X95870113Y-164314700D02*
X95798684Y-164386128D01*
X95798684Y-164386128D02*
X95727256Y-164314700D01*
X95727256Y-164314700D02*
X95798684Y-164243271D01*
X95798684Y-164243271D02*
X95798684Y-164386128D01*
X96441542Y-163957557D02*
X97155828Y-163957557D01*
X96298685Y-164386128D02*
X96798685Y-162886128D01*
X96798685Y-162886128D02*
X97298685Y-164386128D01*
X97798684Y-164243271D02*
X97870113Y-164314700D01*
X97870113Y-164314700D02*
X97798684Y-164386128D01*
X97798684Y-164386128D02*
X97727256Y-164314700D01*
X97727256Y-164314700D02*
X97798684Y-164243271D01*
X97798684Y-164243271D02*
X97798684Y-164386128D01*
X99727256Y-164386128D02*
X100012970Y-164386128D01*
X100012970Y-164386128D02*
X100155827Y-164314700D01*
X100155827Y-164314700D02*
X100227256Y-164243271D01*
X100227256Y-164243271D02*
X100370113Y-164028985D01*
X100370113Y-164028985D02*
X100441542Y-163743271D01*
X100441542Y-163743271D02*
X100441542Y-163171842D01*
X100441542Y-163171842D02*
X100370113Y-163028985D01*
X100370113Y-163028985D02*
X100298685Y-162957557D01*
X100298685Y-162957557D02*
X100155827Y-162886128D01*
X100155827Y-162886128D02*
X99870113Y-162886128D01*
X99870113Y-162886128D02*
X99727256Y-162957557D01*
X99727256Y-162957557D02*
X99655827Y-163028985D01*
X99655827Y-163028985D02*
X99584399Y-163171842D01*
X99584399Y-163171842D02*
X99584399Y-163528985D01*
X99584399Y-163528985D02*
X99655827Y-163671842D01*
X99655827Y-163671842D02*
X99727256Y-163743271D01*
X99727256Y-163743271D02*
X99870113Y-163814700D01*
X99870113Y-163814700D02*
X100155827Y-163814700D01*
X100155827Y-163814700D02*
X100298685Y-163743271D01*
X100298685Y-163743271D02*
X100370113Y-163671842D01*
X100370113Y-163671842D02*
X100441542Y-163528985D01*
X101084398Y-164243271D02*
X101155827Y-164314700D01*
X101155827Y-164314700D02*
X101084398Y-164386128D01*
X101084398Y-164386128D02*
X101012970Y-164314700D01*
X101012970Y-164314700D02*
X101084398Y-164243271D01*
X101084398Y-164243271D02*
X101084398Y-164386128D01*
X102084399Y-162886128D02*
X102227256Y-162886128D01*
X102227256Y-162886128D02*
X102370113Y-162957557D01*
X102370113Y-162957557D02*
X102441542Y-163028985D01*
X102441542Y-163028985D02*
X102512970Y-163171842D01*
X102512970Y-163171842D02*
X102584399Y-163457557D01*
X102584399Y-163457557D02*
X102584399Y-163814700D01*
X102584399Y-163814700D02*
X102512970Y-164100414D01*
X102512970Y-164100414D02*
X102441542Y-164243271D01*
X102441542Y-164243271D02*
X102370113Y-164314700D01*
X102370113Y-164314700D02*
X102227256Y-164386128D01*
X102227256Y-164386128D02*
X102084399Y-164386128D01*
X102084399Y-164386128D02*
X101941542Y-164314700D01*
X101941542Y-164314700D02*
X101870113Y-164243271D01*
X101870113Y-164243271D02*
X101798684Y-164100414D01*
X101798684Y-164100414D02*
X101727256Y-163814700D01*
X101727256Y-163814700D02*
X101727256Y-163457557D01*
X101727256Y-163457557D02*
X101798684Y-163171842D01*
X101798684Y-163171842D02*
X101870113Y-163028985D01*
X101870113Y-163028985D02*
X101941542Y-162957557D01*
X101941542Y-162957557D02*
X102084399Y-162886128D01*
X103227255Y-164243271D02*
X103298684Y-164314700D01*
X103298684Y-164314700D02*
X103227255Y-164386128D01*
X103227255Y-164386128D02*
X103155827Y-164314700D01*
X103155827Y-164314700D02*
X103227255Y-164243271D01*
X103227255Y-164243271D02*
X103227255Y-164386128D01*
X103870113Y-163028985D02*
X103941541Y-162957557D01*
X103941541Y-162957557D02*
X104084399Y-162886128D01*
X104084399Y-162886128D02*
X104441541Y-162886128D01*
X104441541Y-162886128D02*
X104584399Y-162957557D01*
X104584399Y-162957557D02*
X104655827Y-163028985D01*
X104655827Y-163028985D02*
X104727256Y-163171842D01*
X104727256Y-163171842D02*
X104727256Y-163314700D01*
X104727256Y-163314700D02*
X104655827Y-163528985D01*
X104655827Y-163528985D02*
X103798684Y-164386128D01*
X103798684Y-164386128D02*
X104727256Y-164386128D01*
D10*
D11*
X83200000Y-159300000D02*
X191200000Y-159300000D01*
D10*
D12*
X170611653Y-161578328D02*
X170111653Y-160864042D01*
X169754510Y-161578328D02*
X169754510Y-160078328D01*
X169754510Y-160078328D02*
X170325939Y-160078328D01*
X170325939Y-160078328D02*
X170468796Y-160149757D01*
X170468796Y-160149757D02*
X170540225Y-160221185D01*
X170540225Y-160221185D02*
X170611653Y-160364042D01*
X170611653Y-160364042D02*
X170611653Y-160578328D01*
X170611653Y-160578328D02*
X170540225Y-160721185D01*
X170540225Y-160721185D02*
X170468796Y-160792614D01*
X170468796Y-160792614D02*
X170325939Y-160864042D01*
X170325939Y-160864042D02*
X169754510Y-160864042D01*
X171825939Y-161506900D02*
X171683082Y-161578328D01*
X171683082Y-161578328D02*
X171397368Y-161578328D01*
X171397368Y-161578328D02*
X171254510Y-161506900D01*
X171254510Y-161506900D02*
X171183082Y-161364042D01*
X171183082Y-161364042D02*
X171183082Y-160792614D01*
X171183082Y-160792614D02*
X171254510Y-160649757D01*
X171254510Y-160649757D02*
X171397368Y-160578328D01*
X171397368Y-160578328D02*
X171683082Y-160578328D01*
X171683082Y-160578328D02*
X171825939Y-160649757D01*
X171825939Y-160649757D02*
X171897368Y-160792614D01*
X171897368Y-160792614D02*
X171897368Y-160935471D01*
X171897368Y-160935471D02*
X171183082Y-161078328D01*
X172397367Y-160578328D02*
X172754510Y-161578328D01*
X172754510Y-161578328D02*
X173111653Y-160578328D01*
X173683081Y-161435471D02*
X173754510Y-161506900D01*
X173754510Y-161506900D02*
X173683081Y-161578328D01*
X173683081Y-161578328D02*
X173611653Y-161506900D01*
X173611653Y-161506900D02*
X173683081Y-161435471D01*
X173683081Y-161435471D02*
X173683081Y-161578328D01*
X173683081Y-160649757D02*
X173754510Y-160721185D01*
X173754510Y-160721185D02*
X173683081Y-160792614D01*
X173683081Y-160792614D02*
X173611653Y-160721185D01*
X173611653Y-160721185D02*
X173683081Y-160649757D01*
X173683081Y-160649757D02*
X173683081Y-160792614D01*
X176325939Y-161578328D02*
X175468796Y-161578328D01*
X175897367Y-161578328D02*
X175897367Y-160078328D01*
X175897367Y-160078328D02*
X175754510Y-160292614D01*
X175754510Y-160292614D02*
X175611653Y-160435471D01*
X175611653Y-160435471D02*
X175468796Y-160506900D01*
X176968795Y-161435471D02*
X177040224Y-161506900D01*
X177040224Y-161506900D02*
X176968795Y-161578328D01*
X176968795Y-161578328D02*
X176897367Y-161506900D01*
X176897367Y-161506900D02*
X176968795Y-161435471D01*
X176968795Y-161435471D02*
X176968795Y-161578328D01*
X177968796Y-160078328D02*
X178111653Y-160078328D01*
X178111653Y-160078328D02*
X178254510Y-160149757D01*
X178254510Y-160149757D02*
X178325939Y-160221185D01*
X178325939Y-160221185D02*
X178397367Y-160364042D01*
X178397367Y-160364042D02*
X178468796Y-160649757D01*
X178468796Y-160649757D02*
X178468796Y-161006900D01*
X178468796Y-161006900D02*
X178397367Y-161292614D01*
X178397367Y-161292614D02*
X178325939Y-161435471D01*
X178325939Y-161435471D02*
X178254510Y-161506900D01*
X178254510Y-161506900D02*
X178111653Y-161578328D01*
X178111653Y-161578328D02*
X177968796Y-161578328D01*
X177968796Y-161578328D02*
X177825939Y-161506900D01*
X177825939Y-161506900D02*
X177754510Y-161435471D01*
X177754510Y-161435471D02*
X177683081Y-161292614D01*
X177683081Y-161292614D02*
X177611653Y-161006900D01*
X177611653Y-161006900D02*
X177611653Y-160649757D01*
X177611653Y-160649757D02*
X177683081Y-160364042D01*
X177683081Y-160364042D02*
X177754510Y-160221185D01*
X177754510Y-160221185D02*
X177825939Y-160149757D01*
X177825939Y-160149757D02*
X177968796Y-160078328D01*
D10*
D11*
X84584398Y-161514700D02*
X84798684Y-161586128D01*
X84798684Y-161586128D02*
X85155826Y-161586128D01*
X85155826Y-161586128D02*
X85298684Y-161514700D01*
X85298684Y-161514700D02*
X85370112Y-161443271D01*
X85370112Y-161443271D02*
X85441541Y-161300414D01*
X85441541Y-161300414D02*
X85441541Y-161157557D01*
X85441541Y-161157557D02*
X85370112Y-161014700D01*
X85370112Y-161014700D02*
X85298684Y-160943271D01*
X85298684Y-160943271D02*
X85155826Y-160871842D01*
X85155826Y-160871842D02*
X84870112Y-160800414D01*
X84870112Y-160800414D02*
X84727255Y-160728985D01*
X84727255Y-160728985D02*
X84655826Y-160657557D01*
X84655826Y-160657557D02*
X84584398Y-160514700D01*
X84584398Y-160514700D02*
X84584398Y-160371842D01*
X84584398Y-160371842D02*
X84655826Y-160228985D01*
X84655826Y-160228985D02*
X84727255Y-160157557D01*
X84727255Y-160157557D02*
X84870112Y-160086128D01*
X84870112Y-160086128D02*
X85227255Y-160086128D01*
X85227255Y-160086128D02*
X85441541Y-160157557D01*
X86084397Y-161586128D02*
X86084397Y-160586128D01*
X86084397Y-160086128D02*
X86012969Y-160157557D01*
X86012969Y-160157557D02*
X86084397Y-160228985D01*
X86084397Y-160228985D02*
X86155826Y-160157557D01*
X86155826Y-160157557D02*
X86084397Y-160086128D01*
X86084397Y-160086128D02*
X86084397Y-160228985D01*
X86655826Y-160586128D02*
X87441541Y-160586128D01*
X87441541Y-160586128D02*
X86655826Y-161586128D01*
X86655826Y-161586128D02*
X87441541Y-161586128D01*
X88584398Y-161514700D02*
X88441541Y-161586128D01*
X88441541Y-161586128D02*
X88155827Y-161586128D01*
X88155827Y-161586128D02*
X88012969Y-161514700D01*
X88012969Y-161514700D02*
X87941541Y-161371842D01*
X87941541Y-161371842D02*
X87941541Y-160800414D01*
X87941541Y-160800414D02*
X88012969Y-160657557D01*
X88012969Y-160657557D02*
X88155827Y-160586128D01*
X88155827Y-160586128D02*
X88441541Y-160586128D01*
X88441541Y-160586128D02*
X88584398Y-160657557D01*
X88584398Y-160657557D02*
X88655827Y-160800414D01*
X88655827Y-160800414D02*
X88655827Y-160943271D01*
X88655827Y-160943271D02*
X87941541Y-161086128D01*
X89298683Y-161443271D02*
X89370112Y-161514700D01*
X89370112Y-161514700D02*
X89298683Y-161586128D01*
X89298683Y-161586128D02*
X89227255Y-161514700D01*
X89227255Y-161514700D02*
X89298683Y-161443271D01*
X89298683Y-161443271D02*
X89298683Y-161586128D01*
X89298683Y-160657557D02*
X89370112Y-160728985D01*
X89370112Y-160728985D02*
X89298683Y-160800414D01*
X89298683Y-160800414D02*
X89227255Y-160728985D01*
X89227255Y-160728985D02*
X89298683Y-160657557D01*
X89298683Y-160657557D02*
X89298683Y-160800414D01*
X91155826Y-160086128D02*
X91155826Y-161300414D01*
X91155826Y-161300414D02*
X91227255Y-161443271D01*
X91227255Y-161443271D02*
X91298684Y-161514700D01*
X91298684Y-161514700D02*
X91441541Y-161586128D01*
X91441541Y-161586128D02*
X91727255Y-161586128D01*
X91727255Y-161586128D02*
X91870112Y-161514700D01*
X91870112Y-161514700D02*
X91941541Y-161443271D01*
X91941541Y-161443271D02*
X92012969Y-161300414D01*
X92012969Y-161300414D02*
X92012969Y-160086128D01*
X92655827Y-161514700D02*
X92798684Y-161586128D01*
X92798684Y-161586128D02*
X93084398Y-161586128D01*
X93084398Y-161586128D02*
X93227255Y-161514700D01*
X93227255Y-161514700D02*
X93298684Y-161371842D01*
X93298684Y-161371842D02*
X93298684Y-161300414D01*
X93298684Y-161300414D02*
X93227255Y-161157557D01*
X93227255Y-161157557D02*
X93084398Y-161086128D01*
X93084398Y-161086128D02*
X92870113Y-161086128D01*
X92870113Y-161086128D02*
X92727255Y-161014700D01*
X92727255Y-161014700D02*
X92655827Y-160871842D01*
X92655827Y-160871842D02*
X92655827Y-160800414D01*
X92655827Y-160800414D02*
X92727255Y-160657557D01*
X92727255Y-160657557D02*
X92870113Y-160586128D01*
X92870113Y-160586128D02*
X93084398Y-160586128D01*
X93084398Y-160586128D02*
X93227255Y-160657557D01*
X94512970Y-161514700D02*
X94370113Y-161586128D01*
X94370113Y-161586128D02*
X94084399Y-161586128D01*
X94084399Y-161586128D02*
X93941541Y-161514700D01*
X93941541Y-161514700D02*
X93870113Y-161371842D01*
X93870113Y-161371842D02*
X93870113Y-160800414D01*
X93870113Y-160800414D02*
X93941541Y-160657557D01*
X93941541Y-160657557D02*
X94084399Y-160586128D01*
X94084399Y-160586128D02*
X94370113Y-160586128D01*
X94370113Y-160586128D02*
X94512970Y-160657557D01*
X94512970Y-160657557D02*
X94584399Y-160800414D01*
X94584399Y-160800414D02*
X94584399Y-160943271D01*
X94584399Y-160943271D02*
X93870113Y-161086128D01*
X95227255Y-161586128D02*
X95227255Y-160586128D01*
X95227255Y-160871842D02*
X95298684Y-160728985D01*
X95298684Y-160728985D02*
X95370113Y-160657557D01*
X95370113Y-160657557D02*
X95512970Y-160586128D01*
X95512970Y-160586128D02*
X95655827Y-160586128D01*
D10*
D11*
X169655826Y-164386128D02*
X169655826Y-162886128D01*
X171012970Y-164386128D02*
X171012970Y-162886128D01*
X171012970Y-164314700D02*
X170870112Y-164386128D01*
X170870112Y-164386128D02*
X170584398Y-164386128D01*
X170584398Y-164386128D02*
X170441541Y-164314700D01*
X170441541Y-164314700D02*
X170370112Y-164243271D01*
X170370112Y-164243271D02*
X170298684Y-164100414D01*
X170298684Y-164100414D02*
X170298684Y-163671842D01*
X170298684Y-163671842D02*
X170370112Y-163528985D01*
X170370112Y-163528985D02*
X170441541Y-163457557D01*
X170441541Y-163457557D02*
X170584398Y-163386128D01*
X170584398Y-163386128D02*
X170870112Y-163386128D01*
X170870112Y-163386128D02*
X171012970Y-163457557D01*
X171727255Y-164243271D02*
X171798684Y-164314700D01*
X171798684Y-164314700D02*
X171727255Y-164386128D01*
X171727255Y-164386128D02*
X171655827Y-164314700D01*
X171655827Y-164314700D02*
X171727255Y-164243271D01*
X171727255Y-164243271D02*
X171727255Y-164386128D01*
X171727255Y-163457557D02*
X171798684Y-163528985D01*
X171798684Y-163528985D02*
X171727255Y-163600414D01*
X171727255Y-163600414D02*
X171655827Y-163528985D01*
X171655827Y-163528985D02*
X171727255Y-163457557D01*
X171727255Y-163457557D02*
X171727255Y-163600414D01*
X173512970Y-163028985D02*
X173584398Y-162957557D01*
X173584398Y-162957557D02*
X173727256Y-162886128D01*
X173727256Y-162886128D02*
X174084398Y-162886128D01*
X174084398Y-162886128D02*
X174227256Y-162957557D01*
X174227256Y-162957557D02*
X174298684Y-163028985D01*
X174298684Y-163028985D02*
X174370113Y-163171842D01*
X174370113Y-163171842D02*
X174370113Y-163314700D01*
X174370113Y-163314700D02*
X174298684Y-163528985D01*
X174298684Y-163528985D02*
X173441541Y-164386128D01*
X173441541Y-164386128D02*
X174370113Y-164386128D01*
X176084398Y-162814700D02*
X174798684Y-164743271D01*
X176441541Y-162886128D02*
X177441541Y-162886128D01*
X177441541Y-162886128D02*
X176798684Y-164386128D01*
D10*
D11*
X83200000Y-155300000D02*
X191200000Y-155300000D01*
D10*
D13*
X84891728Y-156004438D02*
X86034585Y-156004438D01*
X85213157Y-158004438D02*
X85463157Y-156004438D01*
X86451252Y-158004438D02*
X86617919Y-156671104D01*
X86701252Y-156004438D02*
X86594109Y-156099676D01*
X86594109Y-156099676D02*
X86677443Y-156194914D01*
X86677443Y-156194914D02*
X86784586Y-156099676D01*
X86784586Y-156099676D02*
X86701252Y-156004438D01*
X86701252Y-156004438D02*
X86677443Y-156194914D01*
X87284586Y-156671104D02*
X88046490Y-156671104D01*
X87653633Y-156004438D02*
X87439348Y-157718723D01*
X87439348Y-157718723D02*
X87510776Y-157909200D01*
X87510776Y-157909200D02*
X87689348Y-158004438D01*
X87689348Y-158004438D02*
X87879824Y-158004438D01*
X88832205Y-158004438D02*
X88653633Y-157909200D01*
X88653633Y-157909200D02*
X88582205Y-157718723D01*
X88582205Y-157718723D02*
X88796490Y-156004438D01*
X90367919Y-157909200D02*
X90165538Y-158004438D01*
X90165538Y-158004438D02*
X89784585Y-158004438D01*
X89784585Y-158004438D02*
X89606014Y-157909200D01*
X89606014Y-157909200D02*
X89534585Y-157718723D01*
X89534585Y-157718723D02*
X89629824Y-156956819D01*
X89629824Y-156956819D02*
X89748871Y-156766342D01*
X89748871Y-156766342D02*
X89951252Y-156671104D01*
X89951252Y-156671104D02*
X90332204Y-156671104D01*
X90332204Y-156671104D02*
X90510776Y-156766342D01*
X90510776Y-156766342D02*
X90582204Y-156956819D01*
X90582204Y-156956819D02*
X90558395Y-157147295D01*
X90558395Y-157147295D02*
X89582204Y-157337771D01*
X91332205Y-157813961D02*
X91415538Y-157909200D01*
X91415538Y-157909200D02*
X91308395Y-158004438D01*
X91308395Y-158004438D02*
X91225062Y-157909200D01*
X91225062Y-157909200D02*
X91332205Y-157813961D01*
X91332205Y-157813961D02*
X91308395Y-158004438D01*
X91463157Y-156766342D02*
X91546490Y-156861580D01*
X91546490Y-156861580D02*
X91439348Y-156956819D01*
X91439348Y-156956819D02*
X91356014Y-156861580D01*
X91356014Y-156861580D02*
X91463157Y-156766342D01*
X91463157Y-156766342D02*
X91439348Y-156956819D01*
X94582205Y-156956819D02*
X94856015Y-157052057D01*
X94856015Y-157052057D02*
X94939348Y-157147295D01*
X94939348Y-157147295D02*
X95010777Y-157337771D01*
X95010777Y-157337771D02*
X94975062Y-157623485D01*
X94975062Y-157623485D02*
X94856015Y-157813961D01*
X94856015Y-157813961D02*
X94748872Y-157909200D01*
X94748872Y-157909200D02*
X94546491Y-158004438D01*
X94546491Y-158004438D02*
X93784586Y-158004438D01*
X93784586Y-158004438D02*
X94034586Y-156004438D01*
X94034586Y-156004438D02*
X94701253Y-156004438D01*
X94701253Y-156004438D02*
X94879824Y-156099676D01*
X94879824Y-156099676D02*
X94963158Y-156194914D01*
X94963158Y-156194914D02*
X95034586Y-156385390D01*
X95034586Y-156385390D02*
X95010777Y-156575866D01*
X95010777Y-156575866D02*
X94891729Y-156766342D01*
X94891729Y-156766342D02*
X94784586Y-156861580D01*
X94784586Y-156861580D02*
X94582205Y-156956819D01*
X94582205Y-156956819D02*
X93915539Y-156956819D01*
X96070301Y-158004438D02*
X95891729Y-157909200D01*
X95891729Y-157909200D02*
X95820301Y-157718723D01*
X95820301Y-157718723D02*
X96034586Y-156004438D01*
X96832205Y-158004438D02*
X96998872Y-156671104D01*
X97082205Y-156004438D02*
X96975062Y-156099676D01*
X96975062Y-156099676D02*
X97058396Y-156194914D01*
X97058396Y-156194914D02*
X97165539Y-156099676D01*
X97165539Y-156099676D02*
X97082205Y-156004438D01*
X97082205Y-156004438D02*
X97058396Y-156194914D01*
X97951253Y-156671104D02*
X97784586Y-158004438D01*
X97927443Y-156861580D02*
X98034586Y-156766342D01*
X98034586Y-156766342D02*
X98236967Y-156671104D01*
X98236967Y-156671104D02*
X98522681Y-156671104D01*
X98522681Y-156671104D02*
X98701253Y-156766342D01*
X98701253Y-156766342D02*
X98772681Y-156956819D01*
X98772681Y-156956819D02*
X98641729Y-158004438D01*
X99594110Y-158004438D02*
X99844110Y-156004438D01*
X99879825Y-157242533D02*
X100356015Y-158004438D01*
X100522682Y-156671104D02*
X99665539Y-157433009D01*
X101189349Y-156671104D02*
X101498873Y-158004438D01*
X102141730Y-156671104D02*
X101498873Y-158004438D01*
X101498873Y-158004438D02*
X101248873Y-158480628D01*
X101248873Y-158480628D02*
X101141730Y-158575866D01*
X101141730Y-158575866D02*
X100939349Y-158671104D01*
X104260778Y-158004438D02*
X104510778Y-156004438D01*
X104510778Y-156004438D02*
X105272683Y-156004438D01*
X105272683Y-156004438D02*
X105451254Y-156099676D01*
X105451254Y-156099676D02*
X105534588Y-156194914D01*
X105534588Y-156194914D02*
X105606016Y-156385390D01*
X105606016Y-156385390D02*
X105570302Y-156671104D01*
X105570302Y-156671104D02*
X105451254Y-156861580D01*
X105451254Y-156861580D02*
X105344112Y-156956819D01*
X105344112Y-156956819D02*
X105141731Y-157052057D01*
X105141731Y-157052057D02*
X104379826Y-157052057D01*
X106891731Y-156004438D02*
X107272683Y-156004438D01*
X107272683Y-156004438D02*
X107451254Y-156099676D01*
X107451254Y-156099676D02*
X107617921Y-156290152D01*
X107617921Y-156290152D02*
X107665540Y-156671104D01*
X107665540Y-156671104D02*
X107582207Y-157337771D01*
X107582207Y-157337771D02*
X107439350Y-157718723D01*
X107439350Y-157718723D02*
X107225064Y-157909200D01*
X107225064Y-157909200D02*
X107022683Y-158004438D01*
X107022683Y-158004438D02*
X106641731Y-158004438D01*
X106641731Y-158004438D02*
X106463159Y-157909200D01*
X106463159Y-157909200D02*
X106296493Y-157718723D01*
X106296493Y-157718723D02*
X106248873Y-157337771D01*
X106248873Y-157337771D02*
X106332207Y-156671104D01*
X106332207Y-156671104D02*
X106475064Y-156290152D01*
X106475064Y-156290152D02*
X106689350Y-156099676D01*
X106689350Y-156099676D02*
X106891731Y-156004438D01*
X108320302Y-156004438D02*
X108736969Y-158004438D01*
X108736969Y-158004438D02*
X109653635Y-156004438D01*
X111570303Y-157433009D02*
X112522684Y-157433009D01*
X111308398Y-158004438D02*
X112225065Y-156004438D01*
X112225065Y-156004438D02*
X112641731Y-158004438D01*
X113272684Y-156004438D02*
X113689351Y-158004438D01*
X113689351Y-158004438D02*
X114606017Y-156004438D01*
X116165541Y-158004438D02*
X115617922Y-157052057D01*
X115022684Y-158004438D02*
X115272684Y-156004438D01*
X115272684Y-156004438D02*
X116034589Y-156004438D01*
X116034589Y-156004438D02*
X116213160Y-156099676D01*
X116213160Y-156099676D02*
X116296494Y-156194914D01*
X116296494Y-156194914D02*
X116367922Y-156385390D01*
X116367922Y-156385390D02*
X116332208Y-156671104D01*
X116332208Y-156671104D02*
X116213160Y-156861580D01*
X116213160Y-156861580D02*
X116106018Y-156956819D01*
X116106018Y-156956819D02*
X115903637Y-157052057D01*
X115903637Y-157052057D02*
X115141732Y-157052057D01*
X118463161Y-157909200D02*
X118736970Y-158004438D01*
X118736970Y-158004438D02*
X119213161Y-158004438D01*
X119213161Y-158004438D02*
X119415542Y-157909200D01*
X119415542Y-157909200D02*
X119522685Y-157813961D01*
X119522685Y-157813961D02*
X119641732Y-157623485D01*
X119641732Y-157623485D02*
X119665542Y-157433009D01*
X119665542Y-157433009D02*
X119594113Y-157242533D01*
X119594113Y-157242533D02*
X119510780Y-157147295D01*
X119510780Y-157147295D02*
X119332209Y-157052057D01*
X119332209Y-157052057D02*
X118963161Y-156956819D01*
X118963161Y-156956819D02*
X118784589Y-156861580D01*
X118784589Y-156861580D02*
X118701256Y-156766342D01*
X118701256Y-156766342D02*
X118629828Y-156575866D01*
X118629828Y-156575866D02*
X118653637Y-156385390D01*
X118653637Y-156385390D02*
X118772685Y-156194914D01*
X118772685Y-156194914D02*
X118879828Y-156099676D01*
X118879828Y-156099676D02*
X119082209Y-156004438D01*
X119082209Y-156004438D02*
X119558399Y-156004438D01*
X119558399Y-156004438D02*
X119832209Y-156099676D01*
X120451256Y-158004438D02*
X120701256Y-156004438D01*
X120701256Y-156004438D02*
X121189351Y-157433009D01*
X121189351Y-157433009D02*
X122034590Y-156004438D01*
X122034590Y-156004438D02*
X121784590Y-158004438D01*
X122701256Y-156004438D02*
X123844113Y-156004438D01*
X123022685Y-158004438D02*
X123272685Y-156004438D01*
D10*
D11*
X85155826Y-153400414D02*
X84655826Y-153400414D01*
X84655826Y-154186128D02*
X84655826Y-152686128D01*
X84655826Y-152686128D02*
X85370112Y-152686128D01*
X85941540Y-154186128D02*
X85941540Y-153186128D01*
X85941540Y-152686128D02*
X85870112Y-152757557D01*
X85870112Y-152757557D02*
X85941540Y-152828985D01*
X85941540Y-152828985D02*
X86012969Y-152757557D01*
X86012969Y-152757557D02*
X85941540Y-152686128D01*
X85941540Y-152686128D02*
X85941540Y-152828985D01*
X86870112Y-154186128D02*
X86727255Y-154114700D01*
X86727255Y-154114700D02*
X86655826Y-153971842D01*
X86655826Y-153971842D02*
X86655826Y-152686128D01*
X88012969Y-154114700D02*
X87870112Y-154186128D01*
X87870112Y-154186128D02*
X87584398Y-154186128D01*
X87584398Y-154186128D02*
X87441540Y-154114700D01*
X87441540Y-154114700D02*
X87370112Y-153971842D01*
X87370112Y-153971842D02*
X87370112Y-153400414D01*
X87370112Y-153400414D02*
X87441540Y-153257557D01*
X87441540Y-153257557D02*
X87584398Y-153186128D01*
X87584398Y-153186128D02*
X87870112Y-153186128D01*
X87870112Y-153186128D02*
X88012969Y-153257557D01*
X88012969Y-153257557D02*
X88084398Y-153400414D01*
X88084398Y-153400414D02*
X88084398Y-153543271D01*
X88084398Y-153543271D02*
X87370112Y-153686128D01*
X88727254Y-154043271D02*
X88798683Y-154114700D01*
X88798683Y-154114700D02*
X88727254Y-154186128D01*
X88727254Y-154186128D02*
X88655826Y-154114700D01*
X88655826Y-154114700D02*
X88727254Y-154043271D01*
X88727254Y-154043271D02*
X88727254Y-154186128D01*
X88727254Y-153257557D02*
X88798683Y-153328985D01*
X88798683Y-153328985D02*
X88727254Y-153400414D01*
X88727254Y-153400414D02*
X88655826Y-153328985D01*
X88655826Y-153328985D02*
X88727254Y-153257557D01*
X88727254Y-153257557D02*
X88727254Y-153400414D01*
X91227255Y-154186128D02*
X91227255Y-153400414D01*
X91227255Y-153400414D02*
X91155826Y-153257557D01*
X91155826Y-153257557D02*
X91012969Y-153186128D01*
X91012969Y-153186128D02*
X90727255Y-153186128D01*
X90727255Y-153186128D02*
X90584397Y-153257557D01*
X91227255Y-154114700D02*
X91084397Y-154186128D01*
X91084397Y-154186128D02*
X90727255Y-154186128D01*
X90727255Y-154186128D02*
X90584397Y-154114700D01*
X90584397Y-154114700D02*
X90512969Y-153971842D01*
X90512969Y-153971842D02*
X90512969Y-153828985D01*
X90512969Y-153828985D02*
X90584397Y-153686128D01*
X90584397Y-153686128D02*
X90727255Y-153614700D01*
X90727255Y-153614700D02*
X91084397Y-153614700D01*
X91084397Y-153614700D02*
X91227255Y-153543271D01*
X91798683Y-153186128D02*
X92155826Y-154186128D01*
X92155826Y-154186128D02*
X92512969Y-153186128D01*
X93084397Y-154186128D02*
X93084397Y-153186128D01*
X93084397Y-153471842D02*
X93155826Y-153328985D01*
X93155826Y-153328985D02*
X93227255Y-153257557D01*
X93227255Y-153257557D02*
X93370112Y-153186128D01*
X93370112Y-153186128D02*
X93512969Y-153186128D01*
X94012968Y-153614700D02*
X95155826Y-153614700D01*
X95798683Y-154114700D02*
X95941540Y-154186128D01*
X95941540Y-154186128D02*
X96227254Y-154186128D01*
X96227254Y-154186128D02*
X96370111Y-154114700D01*
X96370111Y-154114700D02*
X96441540Y-153971842D01*
X96441540Y-153971842D02*
X96441540Y-153900414D01*
X96441540Y-153900414D02*
X96370111Y-153757557D01*
X96370111Y-153757557D02*
X96227254Y-153686128D01*
X96227254Y-153686128D02*
X96012969Y-153686128D01*
X96012969Y-153686128D02*
X95870111Y-153614700D01*
X95870111Y-153614700D02*
X95798683Y-153471842D01*
X95798683Y-153471842D02*
X95798683Y-153400414D01*
X95798683Y-153400414D02*
X95870111Y-153257557D01*
X95870111Y-153257557D02*
X96012969Y-153186128D01*
X96012969Y-153186128D02*
X96227254Y-153186128D01*
X96227254Y-153186128D02*
X96370111Y-153257557D01*
X97084397Y-154186128D02*
X97084397Y-153186128D01*
X97084397Y-153328985D02*
X97155826Y-153257557D01*
X97155826Y-153257557D02*
X97298683Y-153186128D01*
X97298683Y-153186128D02*
X97512969Y-153186128D01*
X97512969Y-153186128D02*
X97655826Y-153257557D01*
X97655826Y-153257557D02*
X97727255Y-153400414D01*
X97727255Y-153400414D02*
X97727255Y-154186128D01*
X97727255Y-153400414D02*
X97798683Y-153257557D01*
X97798683Y-153257557D02*
X97941540Y-153186128D01*
X97941540Y-153186128D02*
X98155826Y-153186128D01*
X98155826Y-153186128D02*
X98298683Y-153257557D01*
X98298683Y-153257557D02*
X98370112Y-153400414D01*
X98370112Y-153400414D02*
X98370112Y-154186128D01*
X98870112Y-153186128D02*
X99441540Y-153186128D01*
X99084397Y-152686128D02*
X99084397Y-153971842D01*
X99084397Y-153971842D02*
X99155826Y-154114700D01*
X99155826Y-154114700D02*
X99298683Y-154186128D01*
X99298683Y-154186128D02*
X99441540Y-154186128D01*
X99941540Y-153614700D02*
X101084398Y-153614700D01*
X102441541Y-153186128D02*
X102441541Y-154186128D01*
X102084398Y-152614700D02*
X101727255Y-153686128D01*
X101727255Y-153686128D02*
X102655826Y-153686128D01*
X103870112Y-153186128D02*
X103870112Y-154186128D01*
X103512969Y-152614700D02*
X103155826Y-153686128D01*
X103155826Y-153686128D02*
X104084397Y-153686128D01*
X104655825Y-154043271D02*
X104727254Y-154114700D01*
X104727254Y-154114700D02*
X104655825Y-154186128D01*
X104655825Y-154186128D02*
X104584397Y-154114700D01*
X104584397Y-154114700D02*
X104655825Y-154043271D01*
X104655825Y-154043271D02*
X104655825Y-154186128D01*
X105370111Y-154186128D02*
X105370111Y-152686128D01*
X105512969Y-153614700D02*
X105941540Y-154186128D01*
X105941540Y-153186128D02*
X105370111Y-153757557D01*
X106584397Y-154186128D02*
X106584397Y-153186128D01*
X106584397Y-152686128D02*
X106512969Y-152757557D01*
X106512969Y-152757557D02*
X106584397Y-152828985D01*
X106584397Y-152828985D02*
X106655826Y-152757557D01*
X106655826Y-152757557D02*
X106584397Y-152686128D01*
X106584397Y-152686128D02*
X106584397Y-152828985D01*
X107941541Y-154114700D02*
X107798683Y-154186128D01*
X107798683Y-154186128D02*
X107512969Y-154186128D01*
X107512969Y-154186128D02*
X107370112Y-154114700D01*
X107370112Y-154114700D02*
X107298683Y-154043271D01*
X107298683Y-154043271D02*
X107227255Y-153900414D01*
X107227255Y-153900414D02*
X107227255Y-153471842D01*
X107227255Y-153471842D02*
X107298683Y-153328985D01*
X107298683Y-153328985D02*
X107370112Y-153257557D01*
X107370112Y-153257557D02*
X107512969Y-153186128D01*
X107512969Y-153186128D02*
X107798683Y-153186128D01*
X107798683Y-153186128D02*
X107941541Y-153257557D01*
X109227255Y-154186128D02*
X109227255Y-153400414D01*
X109227255Y-153400414D02*
X109155826Y-153257557D01*
X109155826Y-153257557D02*
X109012969Y-153186128D01*
X109012969Y-153186128D02*
X108727255Y-153186128D01*
X108727255Y-153186128D02*
X108584397Y-153257557D01*
X109227255Y-154114700D02*
X109084397Y-154186128D01*
X109084397Y-154186128D02*
X108727255Y-154186128D01*
X108727255Y-154186128D02*
X108584397Y-154114700D01*
X108584397Y-154114700D02*
X108512969Y-153971842D01*
X108512969Y-153971842D02*
X108512969Y-153828985D01*
X108512969Y-153828985D02*
X108584397Y-153686128D01*
X108584397Y-153686128D02*
X108727255Y-153614700D01*
X108727255Y-153614700D02*
X109084397Y-153614700D01*
X109084397Y-153614700D02*
X109227255Y-153543271D01*
X110584398Y-154186128D02*
X110584398Y-152686128D01*
X110584398Y-154114700D02*
X110441540Y-154186128D01*
X110441540Y-154186128D02*
X110155826Y-154186128D01*
X110155826Y-154186128D02*
X110012969Y-154114700D01*
X110012969Y-154114700D02*
X109941540Y-154043271D01*
X109941540Y-154043271D02*
X109870112Y-153900414D01*
X109870112Y-153900414D02*
X109870112Y-153471842D01*
X109870112Y-153471842D02*
X109941540Y-153328985D01*
X109941540Y-153328985D02*
X110012969Y-153257557D01*
X110012969Y-153257557D02*
X110155826Y-153186128D01*
X110155826Y-153186128D02*
X110441540Y-153186128D01*
X110441540Y-153186128D02*
X110584398Y-153257557D01*
X110941541Y-154328985D02*
X112084398Y-154328985D01*
X112441540Y-153186128D02*
X112441540Y-154686128D01*
X112441540Y-153257557D02*
X112584398Y-153186128D01*
X112584398Y-153186128D02*
X112870112Y-153186128D01*
X112870112Y-153186128D02*
X113012969Y-153257557D01*
X113012969Y-153257557D02*
X113084398Y-153328985D01*
X113084398Y-153328985D02*
X113155826Y-153471842D01*
X113155826Y-153471842D02*
X113155826Y-153900414D01*
X113155826Y-153900414D02*
X113084398Y-154043271D01*
X113084398Y-154043271D02*
X113012969Y-154114700D01*
X113012969Y-154114700D02*
X112870112Y-154186128D01*
X112870112Y-154186128D02*
X112584398Y-154186128D01*
X112584398Y-154186128D02*
X112441540Y-154114700D01*
X114441541Y-154114700D02*
X114298683Y-154186128D01*
X114298683Y-154186128D02*
X114012969Y-154186128D01*
X114012969Y-154186128D02*
X113870112Y-154114700D01*
X113870112Y-154114700D02*
X113798683Y-154043271D01*
X113798683Y-154043271D02*
X113727255Y-153900414D01*
X113727255Y-153900414D02*
X113727255Y-153471842D01*
X113727255Y-153471842D02*
X113798683Y-153328985D01*
X113798683Y-153328985D02*
X113870112Y-153257557D01*
X113870112Y-153257557D02*
X114012969Y-153186128D01*
X114012969Y-153186128D02*
X114298683Y-153186128D01*
X114298683Y-153186128D02*
X114441541Y-153257557D01*
X115084397Y-154186128D02*
X115084397Y-152686128D01*
X115084397Y-153257557D02*
X115227255Y-153186128D01*
X115227255Y-153186128D02*
X115512969Y-153186128D01*
X115512969Y-153186128D02*
X115655826Y-153257557D01*
X115655826Y-153257557D02*
X115727255Y-153328985D01*
X115727255Y-153328985D02*
X115798683Y-153471842D01*
X115798683Y-153471842D02*
X115798683Y-153900414D01*
X115798683Y-153900414D02*
X115727255Y-154043271D01*
X115727255Y-154043271D02*
X115655826Y-154114700D01*
X115655826Y-154114700D02*
X115512969Y-154186128D01*
X115512969Y-154186128D02*
X115227255Y-154186128D01*
X115227255Y-154186128D02*
X115084397Y-154114700D01*
D10*
D11*
X83200000Y-149300000D02*
X191200000Y-149300000D01*
D10*
D11*
X84584398Y-151414700D02*
X84798684Y-151486128D01*
X84798684Y-151486128D02*
X85155826Y-151486128D01*
X85155826Y-151486128D02*
X85298684Y-151414700D01*
X85298684Y-151414700D02*
X85370112Y-151343271D01*
X85370112Y-151343271D02*
X85441541Y-151200414D01*
X85441541Y-151200414D02*
X85441541Y-151057557D01*
X85441541Y-151057557D02*
X85370112Y-150914700D01*
X85370112Y-150914700D02*
X85298684Y-150843271D01*
X85298684Y-150843271D02*
X85155826Y-150771842D01*
X85155826Y-150771842D02*
X84870112Y-150700414D01*
X84870112Y-150700414D02*
X84727255Y-150628985D01*
X84727255Y-150628985D02*
X84655826Y-150557557D01*
X84655826Y-150557557D02*
X84584398Y-150414700D01*
X84584398Y-150414700D02*
X84584398Y-150271842D01*
X84584398Y-150271842D02*
X84655826Y-150128985D01*
X84655826Y-150128985D02*
X84727255Y-150057557D01*
X84727255Y-150057557D02*
X84870112Y-149986128D01*
X84870112Y-149986128D02*
X85227255Y-149986128D01*
X85227255Y-149986128D02*
X85441541Y-150057557D01*
X86084397Y-151486128D02*
X86084397Y-149986128D01*
X86727255Y-151486128D02*
X86727255Y-150700414D01*
X86727255Y-150700414D02*
X86655826Y-150557557D01*
X86655826Y-150557557D02*
X86512969Y-150486128D01*
X86512969Y-150486128D02*
X86298683Y-150486128D01*
X86298683Y-150486128D02*
X86155826Y-150557557D01*
X86155826Y-150557557D02*
X86084397Y-150628985D01*
X88012969Y-151414700D02*
X87870112Y-151486128D01*
X87870112Y-151486128D02*
X87584398Y-151486128D01*
X87584398Y-151486128D02*
X87441540Y-151414700D01*
X87441540Y-151414700D02*
X87370112Y-151271842D01*
X87370112Y-151271842D02*
X87370112Y-150700414D01*
X87370112Y-150700414D02*
X87441540Y-150557557D01*
X87441540Y-150557557D02*
X87584398Y-150486128D01*
X87584398Y-150486128D02*
X87870112Y-150486128D01*
X87870112Y-150486128D02*
X88012969Y-150557557D01*
X88012969Y-150557557D02*
X88084398Y-150700414D01*
X88084398Y-150700414D02*
X88084398Y-150843271D01*
X88084398Y-150843271D02*
X87370112Y-150986128D01*
X89298683Y-151414700D02*
X89155826Y-151486128D01*
X89155826Y-151486128D02*
X88870112Y-151486128D01*
X88870112Y-151486128D02*
X88727254Y-151414700D01*
X88727254Y-151414700D02*
X88655826Y-151271842D01*
X88655826Y-151271842D02*
X88655826Y-150700414D01*
X88655826Y-150700414D02*
X88727254Y-150557557D01*
X88727254Y-150557557D02*
X88870112Y-150486128D01*
X88870112Y-150486128D02*
X89155826Y-150486128D01*
X89155826Y-150486128D02*
X89298683Y-150557557D01*
X89298683Y-150557557D02*
X89370112Y-150700414D01*
X89370112Y-150700414D02*
X89370112Y-150843271D01*
X89370112Y-150843271D02*
X88655826Y-150986128D01*
X89798683Y-150486128D02*
X90370111Y-150486128D01*
X90012968Y-149986128D02*
X90012968Y-151271842D01*
X90012968Y-151271842D02*
X90084397Y-151414700D01*
X90084397Y-151414700D02*
X90227254Y-151486128D01*
X90227254Y-151486128D02*
X90370111Y-151486128D01*
X90870111Y-151343271D02*
X90941540Y-151414700D01*
X90941540Y-151414700D02*
X90870111Y-151486128D01*
X90870111Y-151486128D02*
X90798683Y-151414700D01*
X90798683Y-151414700D02*
X90870111Y-151343271D01*
X90870111Y-151343271D02*
X90870111Y-151486128D01*
X90870111Y-150557557D02*
X90941540Y-150628985D01*
X90941540Y-150628985D02*
X90870111Y-150700414D01*
X90870111Y-150700414D02*
X90798683Y-150628985D01*
X90798683Y-150628985D02*
X90870111Y-150557557D01*
X90870111Y-150557557D02*
X90870111Y-150700414D01*
D10*
D12*
X85254510Y-147692614D02*
X85468796Y-147764042D01*
X85468796Y-147764042D02*
X85540225Y-147835471D01*
X85540225Y-147835471D02*
X85611653Y-147978328D01*
X85611653Y-147978328D02*
X85611653Y-148192614D01*
X85611653Y-148192614D02*
X85540225Y-148335471D01*
X85540225Y-148335471D02*
X85468796Y-148406900D01*
X85468796Y-148406900D02*
X85325939Y-148478328D01*
X85325939Y-148478328D02*
X84754510Y-148478328D01*
X84754510Y-148478328D02*
X84754510Y-146978328D01*
X84754510Y-146978328D02*
X85254510Y-146978328D01*
X85254510Y-146978328D02*
X85397368Y-147049757D01*
X85397368Y-147049757D02*
X85468796Y-147121185D01*
X85468796Y-147121185D02*
X85540225Y-147264042D01*
X85540225Y-147264042D02*
X85540225Y-147406900D01*
X85540225Y-147406900D02*
X85468796Y-147549757D01*
X85468796Y-147549757D02*
X85397368Y-147621185D01*
X85397368Y-147621185D02*
X85254510Y-147692614D01*
X85254510Y-147692614D02*
X84754510Y-147692614D01*
X86468796Y-148478328D02*
X86325939Y-148406900D01*
X86325939Y-148406900D02*
X86254510Y-148335471D01*
X86254510Y-148335471D02*
X86183082Y-148192614D01*
X86183082Y-148192614D02*
X86183082Y-147764042D01*
X86183082Y-147764042D02*
X86254510Y-147621185D01*
X86254510Y-147621185D02*
X86325939Y-147549757D01*
X86325939Y-147549757D02*
X86468796Y-147478328D01*
X86468796Y-147478328D02*
X86683082Y-147478328D01*
X86683082Y-147478328D02*
X86825939Y-147549757D01*
X86825939Y-147549757D02*
X86897368Y-147621185D01*
X86897368Y-147621185D02*
X86968796Y-147764042D01*
X86968796Y-147764042D02*
X86968796Y-148192614D01*
X86968796Y-148192614D02*
X86897368Y-148335471D01*
X86897368Y-148335471D02*
X86825939Y-148406900D01*
X86825939Y-148406900D02*
X86683082Y-148478328D01*
X86683082Y-148478328D02*
X86468796Y-148478328D01*
X87540225Y-148406900D02*
X87683082Y-148478328D01*
X87683082Y-148478328D02*
X87968796Y-148478328D01*
X87968796Y-148478328D02*
X88111653Y-148406900D01*
X88111653Y-148406900D02*
X88183082Y-148264042D01*
X88183082Y-148264042D02*
X88183082Y-148192614D01*
X88183082Y-148192614D02*
X88111653Y-148049757D01*
X88111653Y-148049757D02*
X87968796Y-147978328D01*
X87968796Y-147978328D02*
X87754511Y-147978328D01*
X87754511Y-147978328D02*
X87611653Y-147906900D01*
X87611653Y-147906900D02*
X87540225Y-147764042D01*
X87540225Y-147764042D02*
X87540225Y-147692614D01*
X87540225Y-147692614D02*
X87611653Y-147549757D01*
X87611653Y-147549757D02*
X87754511Y-147478328D01*
X87754511Y-147478328D02*
X87968796Y-147478328D01*
X87968796Y-147478328D02*
X88111653Y-147549757D01*
X88611654Y-147478328D02*
X89183082Y-147478328D01*
X88825939Y-146978328D02*
X88825939Y-148264042D01*
X88825939Y-148264042D02*
X88897368Y-148406900D01*
X88897368Y-148406900D02*
X89040225Y-148478328D01*
X89040225Y-148478328D02*
X89183082Y-148478328D01*
X89897368Y-148478328D02*
X89754511Y-148406900D01*
X89754511Y-148406900D02*
X89683082Y-148335471D01*
X89683082Y-148335471D02*
X89611654Y-148192614D01*
X89611654Y-148192614D02*
X89611654Y-147764042D01*
X89611654Y-147764042D02*
X89683082Y-147621185D01*
X89683082Y-147621185D02*
X89754511Y-147549757D01*
X89754511Y-147549757D02*
X89897368Y-147478328D01*
X89897368Y-147478328D02*
X90111654Y-147478328D01*
X90111654Y-147478328D02*
X90254511Y-147549757D01*
X90254511Y-147549757D02*
X90325940Y-147621185D01*
X90325940Y-147621185D02*
X90397368Y-147764042D01*
X90397368Y-147764042D02*
X90397368Y-148192614D01*
X90397368Y-148192614D02*
X90325940Y-148335471D01*
X90325940Y-148335471D02*
X90254511Y-148406900D01*
X90254511Y-148406900D02*
X90111654Y-148478328D01*
X90111654Y-148478328D02*
X89897368Y-148478328D01*
X91040225Y-147478328D02*
X91040225Y-148478328D01*
X91040225Y-147621185D02*
X91111654Y-147549757D01*
X91111654Y-147549757D02*
X91254511Y-147478328D01*
X91254511Y-147478328D02*
X91468797Y-147478328D01*
X91468797Y-147478328D02*
X91611654Y-147549757D01*
X91611654Y-147549757D02*
X91683083Y-147692614D01*
X91683083Y-147692614D02*
X91683083Y-148478328D01*
X93540225Y-146978328D02*
X93540225Y-148192614D01*
X93540225Y-148192614D02*
X93611654Y-148335471D01*
X93611654Y-148335471D02*
X93683083Y-148406900D01*
X93683083Y-148406900D02*
X93825940Y-148478328D01*
X93825940Y-148478328D02*
X94111654Y-148478328D01*
X94111654Y-148478328D02*
X94254511Y-148406900D01*
X94254511Y-148406900D02*
X94325940Y-148335471D01*
X94325940Y-148335471D02*
X94397368Y-148192614D01*
X94397368Y-148192614D02*
X94397368Y-146978328D01*
X95111654Y-147478328D02*
X95111654Y-148478328D01*
X95111654Y-147621185D02*
X95183083Y-147549757D01*
X95183083Y-147549757D02*
X95325940Y-147478328D01*
X95325940Y-147478328D02*
X95540226Y-147478328D01*
X95540226Y-147478328D02*
X95683083Y-147549757D01*
X95683083Y-147549757D02*
X95754512Y-147692614D01*
X95754512Y-147692614D02*
X95754512Y-148478328D01*
X96468797Y-148478328D02*
X96468797Y-147478328D01*
X96468797Y-146978328D02*
X96397369Y-147049757D01*
X96397369Y-147049757D02*
X96468797Y-147121185D01*
X96468797Y-147121185D02*
X96540226Y-147049757D01*
X96540226Y-147049757D02*
X96468797Y-146978328D01*
X96468797Y-146978328D02*
X96468797Y-147121185D01*
X97040226Y-147478328D02*
X97397369Y-148478328D01*
X97397369Y-148478328D02*
X97754512Y-147478328D01*
X98897369Y-148406900D02*
X98754512Y-148478328D01*
X98754512Y-148478328D02*
X98468798Y-148478328D01*
X98468798Y-148478328D02*
X98325940Y-148406900D01*
X98325940Y-148406900D02*
X98254512Y-148264042D01*
X98254512Y-148264042D02*
X98254512Y-147692614D01*
X98254512Y-147692614D02*
X98325940Y-147549757D01*
X98325940Y-147549757D02*
X98468798Y-147478328D01*
X98468798Y-147478328D02*
X98754512Y-147478328D01*
X98754512Y-147478328D02*
X98897369Y-147549757D01*
X98897369Y-147549757D02*
X98968798Y-147692614D01*
X98968798Y-147692614D02*
X98968798Y-147835471D01*
X98968798Y-147835471D02*
X98254512Y-147978328D01*
X99611654Y-148478328D02*
X99611654Y-147478328D01*
X99611654Y-147764042D02*
X99683083Y-147621185D01*
X99683083Y-147621185D02*
X99754512Y-147549757D01*
X99754512Y-147549757D02*
X99897369Y-147478328D01*
X99897369Y-147478328D02*
X100040226Y-147478328D01*
X100468797Y-148406900D02*
X100611654Y-148478328D01*
X100611654Y-148478328D02*
X100897368Y-148478328D01*
X100897368Y-148478328D02*
X101040225Y-148406900D01*
X101040225Y-148406900D02*
X101111654Y-148264042D01*
X101111654Y-148264042D02*
X101111654Y-148192614D01*
X101111654Y-148192614D02*
X101040225Y-148049757D01*
X101040225Y-148049757D02*
X100897368Y-147978328D01*
X100897368Y-147978328D02*
X100683083Y-147978328D01*
X100683083Y-147978328D02*
X100540225Y-147906900D01*
X100540225Y-147906900D02*
X100468797Y-147764042D01*
X100468797Y-147764042D02*
X100468797Y-147692614D01*
X100468797Y-147692614D02*
X100540225Y-147549757D01*
X100540225Y-147549757D02*
X100683083Y-147478328D01*
X100683083Y-147478328D02*
X100897368Y-147478328D01*
X100897368Y-147478328D02*
X101040225Y-147549757D01*
X101754511Y-148478328D02*
X101754511Y-147478328D01*
X101754511Y-146978328D02*
X101683083Y-147049757D01*
X101683083Y-147049757D02*
X101754511Y-147121185D01*
X101754511Y-147121185D02*
X101825940Y-147049757D01*
X101825940Y-147049757D02*
X101754511Y-146978328D01*
X101754511Y-146978328D02*
X101754511Y-147121185D01*
X102254512Y-147478328D02*
X102825940Y-147478328D01*
X102468797Y-146978328D02*
X102468797Y-148264042D01*
X102468797Y-148264042D02*
X102540226Y-148406900D01*
X102540226Y-148406900D02*
X102683083Y-148478328D01*
X102683083Y-148478328D02*
X102825940Y-148478328D01*
X103183083Y-147478328D02*
X103540226Y-148478328D01*
X103897369Y-147478328D02*
X103540226Y-148478328D01*
X103540226Y-148478328D02*
X103397369Y-148835471D01*
X103397369Y-148835471D02*
X103325940Y-148906900D01*
X103325940Y-148906900D02*
X103183083Y-148978328D01*
X105611654Y-147692614D02*
X106111654Y-147692614D01*
X106325940Y-148478328D02*
X105611654Y-148478328D01*
X105611654Y-148478328D02*
X105611654Y-146978328D01*
X105611654Y-146978328D02*
X106325940Y-146978328D01*
X106968797Y-148478328D02*
X106968797Y-146978328D01*
X106968797Y-146978328D02*
X107540226Y-146978328D01*
X107540226Y-146978328D02*
X107683083Y-147049757D01*
X107683083Y-147049757D02*
X107754512Y-147121185D01*
X107754512Y-147121185D02*
X107825940Y-147264042D01*
X107825940Y-147264042D02*
X107825940Y-147478328D01*
X107825940Y-147478328D02*
X107754512Y-147621185D01*
X107754512Y-147621185D02*
X107683083Y-147692614D01*
X107683083Y-147692614D02*
X107540226Y-147764042D01*
X107540226Y-147764042D02*
X106968797Y-147764042D01*
X108468797Y-148478328D02*
X108468797Y-146978328D01*
X110040226Y-148335471D02*
X109968798Y-148406900D01*
X109968798Y-148406900D02*
X109754512Y-148478328D01*
X109754512Y-148478328D02*
X109611655Y-148478328D01*
X109611655Y-148478328D02*
X109397369Y-148406900D01*
X109397369Y-148406900D02*
X109254512Y-148264042D01*
X109254512Y-148264042D02*
X109183083Y-148121185D01*
X109183083Y-148121185D02*
X109111655Y-147835471D01*
X109111655Y-147835471D02*
X109111655Y-147621185D01*
X109111655Y-147621185D02*
X109183083Y-147335471D01*
X109183083Y-147335471D02*
X109254512Y-147192614D01*
X109254512Y-147192614D02*
X109397369Y-147049757D01*
X109397369Y-147049757D02*
X109611655Y-146978328D01*
X109611655Y-146978328D02*
X109754512Y-146978328D01*
X109754512Y-146978328D02*
X109968798Y-147049757D01*
X109968798Y-147049757D02*
X110040226Y-147121185D01*
D10*
D11*
X103200000Y-159300000D02*
X103200000Y-162300000D01*
D10*
D11*
X167200000Y-159300000D02*
X167200000Y-165800000D01*
D14*
%TO.P,TP2,1,1*%
%TO.N,GND*%
X167005000Y-122555000D03*
%TD*%
D15*
%TO.P,J1,1,MISO*%
%TO.N,/MISO*%
X160400000Y-108660000D03*
D16*
%TO.P,J1,2,VCC*%
%TO.N,VCC*%
X160400000Y-111200000D03*
%TO.P,J1,3,SCK*%
%TO.N,/SCL*%
X157860000Y-108660000D03*
%TO.P,J1,4,MOSI*%
%TO.N,/MOSI*%
X157860000Y-111200000D03*
%TO.P,J1,5,~{RST}*%
%TO.N,/nRESET*%
X155320000Y-108660000D03*
%TO.P,J1,6,GND*%
%TO.N,GND*%
X155320000Y-111200000D03*
%TD*%
D17*
%TO.P,SW1,1,1*%
%TO.N,/MISO*%
X155498800Y-121011350D03*
%TO.P,SW1,2,2*%
%TO.N,GND*%
X155498800Y-125507150D03*
%TO.P,SW1,3*%
%TO.N,N/C*%
X162001200Y-125507150D03*
%TO.P,SW1,4*%
X162001200Y-121011350D03*
%TD*%
D14*
%TO.P,TP1,1,1*%
%TO.N,GND*%
X165100000Y-59055000D03*
%TD*%
D18*
%TO.P,BT1,1,+*%
%TO.N,VCC*%
X172720000Y-119634000D03*
%TO.P,BT1,2,-*%
%TO.N,GND*%
X175260000Y-119634000D03*
D19*
%TO.P,BT1,5*%
%TO.N,N/C*%
X172720000Y-122682000D03*
%TO.P,BT1,6*%
X175260000Y-122682000D03*
%TO.P,BT1,7*%
X172720000Y-125730000D03*
%TO.P,BT1,8*%
X175260000Y-125730000D03*
%TD*%
D20*
%TO.P,D9,1,K*%
%TO.N,/MOSI*%
X158710000Y-65350000D03*
D21*
%TO.P,D9,2,A*%
%TO.N,GND*%
X156170000Y-65350000D03*
%TD*%
D20*
%TO.P,D10,1,K*%
%TO.N,/SCL*%
X173970000Y-65060000D03*
D21*
%TO.P,D10,2,A*%
%TO.N,GND*%
X171430000Y-65060000D03*
%TD*%
D22*
%TO.N,GND*%
X161290000Y-74422000D03*
X175895000Y-99187000D03*
X175895000Y-109474000D03*
X175768000Y-104394000D03*
X176022000Y-78740000D03*
X176022000Y-88773000D03*
X176022000Y-83693000D03*
X175768000Y-114427000D03*
X175895000Y-94107000D03*
X161600000Y-85100000D03*
X161290000Y-89408000D03*
%TO.N,/MOSI*%
X152908000Y-109347000D03*
X153670000Y-68935000D03*
X152908000Y-97790000D03*
%TO.N,/SCL*%
X163830000Y-96520000D03*
X163957000Y-74295000D03*
X163830000Y-103378000D03*
X170942000Y-74295000D03*
%TO.N,/MISO*%
X161290000Y-98679000D03*
X160020000Y-104394000D03*
%TO.N,/nRESET*%
X153543000Y-104521000D03*
X153543000Y-93980000D03*
X153543000Y-70866000D03*
%TO.N,Net-(U1-AREF{slash}PA0)*%
X162765268Y-91234044D03*
X162814000Y-77469998D03*
%TO.N,Net-(U1-PA1)*%
X164388800Y-82081235D03*
X164388800Y-92340663D03*
%TO.N,Net-(U1-PA2)*%
X164592000Y-93980000D03*
X164820600Y-87794613D03*
%TO.N,Net-(U1-PA7)*%
X159639000Y-96520000D03*
X159639000Y-99568000D03*
%TO.N,Net-(U1-XTAL1{slash}PB0)*%
X159385000Y-91440000D03*
X159004000Y-102616000D03*
%TO.N,Net-(U1-XTAL2{slash}PB1)*%
X164719000Y-100965000D03*
X158369000Y-100965000D03*
X158369000Y-92710000D03*
X164719000Y-107950000D03*
%TO.N,Net-(U1-PB2)*%
X154940000Y-115570000D03*
X154178000Y-95250000D03*
%TD*%
D23*
%TO.N,GND*%
X155320000Y-111200000D02*
X155320000Y-113720000D01*
X155320000Y-113720000D02*
X155600000Y-114000000D01*
D24*
%TO.N,/MOSI*%
X152908000Y-97790000D02*
X152908000Y-109347000D01*
X152908000Y-97790000D02*
X152907500Y-97789500D01*
X152907500Y-69697500D02*
X153670000Y-68935000D01*
X152907500Y-97789500D02*
X152907500Y-69697500D01*
%TO.N,/SCL*%
X163830000Y-96520000D02*
X163830000Y-103378000D01*
X170942000Y-74295000D02*
X173970000Y-71267000D01*
X163830000Y-96520000D02*
X163830000Y-74422000D01*
X173970000Y-71267000D02*
X173970000Y-65060000D01*
X163830000Y-74422000D02*
X163957000Y-74295000D01*
%TO.N,/MISO*%
X161290000Y-98679000D02*
X161290000Y-103124000D01*
X161290000Y-103124000D02*
X160020000Y-104394000D01*
X162900000Y-113610150D02*
X155498800Y-121011350D01*
X162900000Y-107274000D02*
X162900000Y-113610150D01*
X160020000Y-104394000D02*
X162900000Y-107274000D01*
%TO.N,/nRESET*%
X153543000Y-70866000D02*
X153543000Y-93980000D01*
X153543000Y-93980000D02*
X153543000Y-104521000D01*
%TO.N,Net-(U1-AREF{slash}PA0)*%
X162763200Y-91231976D02*
X162763200Y-77520798D01*
X162763200Y-77520798D02*
X162814000Y-77469998D01*
X162765268Y-91234044D02*
X162763200Y-91231976D01*
%TO.N,Net-(U1-PA1)*%
X164261800Y-82208235D02*
X164388800Y-82081235D01*
X164388800Y-92340663D02*
X164261800Y-92213663D01*
X164261800Y-92213663D02*
X164261800Y-82208235D01*
%TO.N,Net-(U1-PA2)*%
X164947600Y-87921613D02*
X164820600Y-87794613D01*
X164592000Y-93980000D02*
X164947600Y-93624400D01*
X164947600Y-93624400D02*
X164947600Y-87921613D01*
%TO.N,Net-(U1-PA7)*%
X159639000Y-96520000D02*
X159639000Y-99568000D01*
%TO.N,Net-(U1-XTAL1{slash}PB0)*%
X159004000Y-95504000D02*
X159004000Y-102616000D01*
X159385000Y-95123000D02*
X159004000Y-95504000D01*
X159385000Y-91440000D02*
X159385000Y-95123000D01*
%TO.N,Net-(U1-XTAL2{slash}PB1)*%
X158369000Y-100965000D02*
X158369000Y-92710000D01*
X164719000Y-107950000D02*
X164719000Y-100965000D01*
%TO.N,Net-(U1-PB2)*%
X153600000Y-114230000D02*
X154940000Y-115570000D01*
X154178000Y-104676263D02*
X153600000Y-105254263D01*
X154178000Y-95250000D02*
X154178000Y-104676263D01*
X153600000Y-105254263D02*
X153600000Y-114230000D01*
%TD*%
%TA.AperFunction,Conductor*%
%TO.N,GND*%
G36*
X164312885Y-56535002D02*
G01*
X164359378Y-56588658D01*
X164369482Y-56658932D01*
X164339988Y-56723512D01*
X164286379Y-56759929D01*
X164166714Y-56801801D01*
X164166694Y-56801809D01*
X163920285Y-56920474D01*
X163920283Y-56920475D01*
X163688714Y-57065980D01*
X163474885Y-57236503D01*
X163467997Y-57243390D01*
X163467996Y-57243391D01*
X164486705Y-58262100D01*
X164462537Y-58278249D01*
X164323249Y-58417537D01*
X164307100Y-58441705D01*
X163288391Y-57422996D01*
X163288390Y-57422997D01*
X163281503Y-57429885D01*
X163110980Y-57643714D01*
X162965475Y-57875283D01*
X162965474Y-57875285D01*
X162846809Y-58121694D01*
X162846801Y-58121714D01*
X162756480Y-58379836D01*
X162695621Y-58646476D01*
X162665000Y-58918251D01*
X162665000Y-59191748D01*
X162695621Y-59463523D01*
X162756481Y-59730163D01*
X162756480Y-59730163D01*
X162846801Y-59988285D01*
X162846809Y-59988305D01*
X162965474Y-60234714D01*
X162965475Y-60234716D01*
X163110982Y-60466288D01*
X163110985Y-60466292D01*
X163281495Y-60680107D01*
X163288390Y-60687002D01*
X163288392Y-60687002D01*
X164307099Y-59668294D01*
X164323249Y-59692463D01*
X164462537Y-59831751D01*
X164486704Y-59847899D01*
X163467997Y-60866607D01*
X163467997Y-60866609D01*
X163474892Y-60873504D01*
X163688707Y-61044014D01*
X163688711Y-61044017D01*
X163920283Y-61189524D01*
X163920285Y-61189525D01*
X164166694Y-61308190D01*
X164166714Y-61308198D01*
X164424836Y-61398519D01*
X164691477Y-61459378D01*
X164691475Y-61459378D01*
X164963251Y-61490000D01*
X165236749Y-61490000D01*
X165508523Y-61459378D01*
X165775163Y-61398519D01*
X166033285Y-61308198D01*
X166033305Y-61308190D01*
X166279714Y-61189525D01*
X166279716Y-61189524D01*
X166511285Y-61044019D01*
X166725118Y-60873493D01*
X166725119Y-60873492D01*
X166732002Y-60866608D01*
X166732001Y-60866606D01*
X165713295Y-59847899D01*
X165737463Y-59831751D01*
X165876751Y-59692463D01*
X165892899Y-59668294D01*
X166911606Y-60687001D01*
X166911608Y-60687002D01*
X166918492Y-60680119D01*
X166918493Y-60680118D01*
X167089019Y-60466285D01*
X167234524Y-60234716D01*
X167234525Y-60234714D01*
X167353190Y-59988305D01*
X167353198Y-59988285D01*
X167443519Y-59730163D01*
X167504378Y-59463523D01*
X167535000Y-59191748D01*
X167535000Y-58918251D01*
X167504378Y-58646476D01*
X167443518Y-58379836D01*
X167443519Y-58379836D01*
X167353198Y-58121714D01*
X167353190Y-58121694D01*
X167234525Y-57875285D01*
X167234524Y-57875283D01*
X167089017Y-57643711D01*
X167089014Y-57643707D01*
X166918504Y-57429892D01*
X166911609Y-57422997D01*
X166911607Y-57422997D01*
X165892899Y-58441704D01*
X165876751Y-58417537D01*
X165737463Y-58278249D01*
X165713294Y-58262100D01*
X166732002Y-57243392D01*
X166732002Y-57243390D01*
X166725107Y-57236495D01*
X166511292Y-57065985D01*
X166511288Y-57065982D01*
X166279716Y-56920475D01*
X166279714Y-56920474D01*
X166033305Y-56801809D01*
X166033285Y-56801801D01*
X165913621Y-56759929D01*
X165855929Y-56718551D01*
X165829767Y-56652551D01*
X165843440Y-56582883D01*
X165892607Y-56531667D01*
X165955236Y-56515000D01*
X177039000Y-56515000D01*
X177107121Y-56535002D01*
X177153614Y-56588658D01*
X177165000Y-56641000D01*
X177165000Y-127509000D01*
X177144998Y-127577121D01*
X177091342Y-127623614D01*
X177039000Y-127635000D01*
X153161000Y-127635000D01*
X153092879Y-127614998D01*
X153046386Y-127561342D01*
X153035000Y-127509000D01*
X153035000Y-125402203D01*
X154165300Y-125402203D01*
X154165300Y-125612096D01*
X154198137Y-125819416D01*
X154262995Y-126019031D01*
X154262998Y-126019037D01*
X154358288Y-126206054D01*
X154358289Y-126206055D01*
X154468539Y-126357803D01*
X155042583Y-125783759D01*
X155071974Y-125834665D01*
X155171285Y-125933976D01*
X155222189Y-125963366D01*
X154648145Y-126537409D01*
X154648145Y-126537410D01*
X154799890Y-126647658D01*
X154986912Y-126742951D01*
X154986918Y-126742954D01*
X155186533Y-126807812D01*
X155393853Y-126840650D01*
X155603747Y-126840650D01*
X155811066Y-126807812D01*
X156010681Y-126742954D01*
X156010687Y-126742951D01*
X156197709Y-126647658D01*
X156349453Y-126537410D01*
X156349453Y-126537408D01*
X155775410Y-125963365D01*
X155826315Y-125933976D01*
X155925626Y-125834665D01*
X155955015Y-125783760D01*
X156529058Y-126357803D01*
X156529060Y-126357803D01*
X156639308Y-126206059D01*
X156734601Y-126019037D01*
X156734604Y-126019031D01*
X156799462Y-125819416D01*
X156832300Y-125612096D01*
X156832300Y-125413285D01*
X161048200Y-125413285D01*
X161048200Y-125601014D01*
X161084823Y-125785130D01*
X161156662Y-125958565D01*
X161211443Y-126040550D01*
X161260956Y-126114651D01*
X161260961Y-126114657D01*
X161393692Y-126247388D01*
X161393698Y-126247393D01*
X161549785Y-126351688D01*
X161723220Y-126423527D01*
X161907338Y-126460150D01*
X161907339Y-126460150D01*
X162095061Y-126460150D01*
X162095062Y-126460150D01*
X162279180Y-126423527D01*
X162452615Y-126351688D01*
X162608702Y-126247393D01*
X162741443Y-126114652D01*
X162845738Y-125958565D01*
X162917577Y-125785130D01*
X162950420Y-125620014D01*
X171322500Y-125620014D01*
X171322500Y-125839986D01*
X171337387Y-125933976D01*
X171356912Y-126057254D01*
X171424884Y-126266450D01*
X171424885Y-126266453D01*
X171424886Y-126266454D01*
X171524751Y-126462449D01*
X171654047Y-126640410D01*
X171654049Y-126640412D01*
X171654051Y-126640415D01*
X171809584Y-126795948D01*
X171809587Y-126795950D01*
X171809590Y-126795953D01*
X171987551Y-126925249D01*
X172183546Y-127025114D01*
X172392751Y-127093089D01*
X172610014Y-127127500D01*
X172610017Y-127127500D01*
X172829983Y-127127500D01*
X172829986Y-127127500D01*
X173047249Y-127093089D01*
X173256454Y-127025114D01*
X173452449Y-126925249D01*
X173630410Y-126795953D01*
X173785953Y-126640410D01*
X173888064Y-126499865D01*
X173944286Y-126456512D01*
X174015022Y-126450437D01*
X174077814Y-126483568D01*
X174091935Y-126499865D01*
X174194047Y-126640410D01*
X174194049Y-126640412D01*
X174194051Y-126640415D01*
X174349584Y-126795948D01*
X174349587Y-126795950D01*
X174349590Y-126795953D01*
X174527551Y-126925249D01*
X174723546Y-127025114D01*
X174932751Y-127093089D01*
X175150014Y-127127500D01*
X175150017Y-127127500D01*
X175369983Y-127127500D01*
X175369986Y-127127500D01*
X175587249Y-127093089D01*
X175796454Y-127025114D01*
X175992449Y-126925249D01*
X176170410Y-126795953D01*
X176325953Y-126640410D01*
X176455249Y-126462449D01*
X176555114Y-126266454D01*
X176623089Y-126057249D01*
X176657500Y-125839986D01*
X176657500Y-125620014D01*
X176623089Y-125402751D01*
X176555114Y-125193546D01*
X176455249Y-124997551D01*
X176325953Y-124819590D01*
X176325950Y-124819587D01*
X176325948Y-124819584D01*
X176170415Y-124664051D01*
X176170412Y-124664049D01*
X176170410Y-124664047D01*
X176036449Y-124566719D01*
X175992452Y-124534753D01*
X175992451Y-124534752D01*
X175992449Y-124534751D01*
X175796454Y-124434886D01*
X175796453Y-124434885D01*
X175796450Y-124434884D01*
X175587254Y-124366912D01*
X175587250Y-124366911D01*
X175587249Y-124366911D01*
X175369986Y-124332500D01*
X175150014Y-124332500D01*
X174932751Y-124366911D01*
X174932745Y-124366912D01*
X174723549Y-124434884D01*
X174527547Y-124534753D01*
X174349587Y-124664049D01*
X174349584Y-124664051D01*
X174194048Y-124819587D01*
X174091936Y-124960133D01*
X174035713Y-125003487D01*
X173964977Y-125009562D01*
X173902186Y-124976430D01*
X173888064Y-124960133D01*
X173785951Y-124819587D01*
X173630415Y-124664051D01*
X173630412Y-124664049D01*
X173630410Y-124664047D01*
X173496449Y-124566719D01*
X173452452Y-124534753D01*
X173452451Y-124534752D01*
X173452449Y-124534751D01*
X173256454Y-124434886D01*
X173256453Y-124434885D01*
X173256450Y-124434884D01*
X173047254Y-124366912D01*
X173047250Y-124366911D01*
X173047249Y-124366911D01*
X172829986Y-124332500D01*
X172610014Y-124332500D01*
X172392751Y-124366911D01*
X172392745Y-124366912D01*
X172183549Y-124434884D01*
X171987547Y-124534753D01*
X171809587Y-124664049D01*
X171809584Y-124664051D01*
X171654051Y-124819584D01*
X171654049Y-124819587D01*
X171524753Y-124997547D01*
X171424884Y-125193549D01*
X171356912Y-125402745D01*
X171356911Y-125402750D01*
X171356911Y-125402751D01*
X171322500Y-125620014D01*
X162950420Y-125620014D01*
X162954200Y-125601012D01*
X162954200Y-125413288D01*
X162917577Y-125229170D01*
X162845738Y-125055735D01*
X162741443Y-124899648D01*
X162741438Y-124899642D01*
X162608707Y-124766911D01*
X162608701Y-124766906D01*
X162556909Y-124732299D01*
X162452615Y-124662612D01*
X162279180Y-124590773D01*
X162095064Y-124554150D01*
X162095062Y-124554150D01*
X161907338Y-124554150D01*
X161907335Y-124554150D01*
X161723219Y-124590773D01*
X161723214Y-124590775D01*
X161549785Y-124662612D01*
X161393698Y-124766906D01*
X161393692Y-124766911D01*
X161260961Y-124899642D01*
X161260956Y-124899648D01*
X161156662Y-125055735D01*
X161084825Y-125229164D01*
X161084823Y-125229169D01*
X161048200Y-125413285D01*
X156832300Y-125413285D01*
X156832300Y-125402203D01*
X156799462Y-125194883D01*
X156734604Y-124995268D01*
X156734601Y-124995262D01*
X156639308Y-124808240D01*
X156529060Y-124656495D01*
X156529059Y-124656495D01*
X155955015Y-125230538D01*
X155925626Y-125179635D01*
X155826315Y-125080324D01*
X155775409Y-125050933D01*
X156349453Y-124476889D01*
X156349453Y-124476888D01*
X156266133Y-124416354D01*
X156197705Y-124366639D01*
X156197704Y-124366638D01*
X156010687Y-124271348D01*
X156010681Y-124271345D01*
X155811066Y-124206487D01*
X155603747Y-124173650D01*
X155393853Y-124173650D01*
X155186533Y-124206487D01*
X154986918Y-124271345D01*
X154986912Y-124271348D01*
X154799895Y-124366638D01*
X154799894Y-124366639D01*
X154648145Y-124476889D01*
X154648145Y-124476890D01*
X155222189Y-125050934D01*
X155171285Y-125080324D01*
X155071974Y-125179635D01*
X155042584Y-125230539D01*
X154468540Y-124656495D01*
X154468539Y-124656495D01*
X154358289Y-124808244D01*
X154358288Y-124808245D01*
X154262998Y-124995262D01*
X154262995Y-124995268D01*
X154198137Y-125194883D01*
X154165300Y-125402203D01*
X153035000Y-125402203D01*
X153035000Y-122418251D01*
X164570000Y-122418251D01*
X164570000Y-122691748D01*
X164600621Y-122963523D01*
X164661481Y-123230163D01*
X164661480Y-123230163D01*
X164751801Y-123488285D01*
X164751809Y-123488305D01*
X164870474Y-123734714D01*
X164870475Y-123734716D01*
X165015982Y-123966288D01*
X165015985Y-123966292D01*
X165186495Y-124180107D01*
X165193390Y-124187002D01*
X165193392Y-124187002D01*
X166212099Y-123168294D01*
X166228249Y-123192463D01*
X166367537Y-123331751D01*
X166391704Y-123347899D01*
X165372997Y-124366607D01*
X165372997Y-124366609D01*
X165379892Y-124373504D01*
X165593707Y-124544014D01*
X165593711Y-124544017D01*
X165825283Y-124689524D01*
X165825285Y-124689525D01*
X166071694Y-124808190D01*
X166071714Y-124808198D01*
X166329836Y-124898519D01*
X166596477Y-124959378D01*
X166596475Y-124959378D01*
X166868251Y-124990000D01*
X167141749Y-124990000D01*
X167413523Y-124959378D01*
X167680163Y-124898519D01*
X167938285Y-124808198D01*
X167938305Y-124808190D01*
X168184714Y-124689525D01*
X168184716Y-124689524D01*
X168416285Y-124544019D01*
X168630118Y-124373493D01*
X168630119Y-124373492D01*
X168637002Y-124366608D01*
X168637001Y-124366606D01*
X167618295Y-123347899D01*
X167642463Y-123331751D01*
X167781751Y-123192463D01*
X167797899Y-123168294D01*
X168816606Y-124187001D01*
X168816608Y-124187002D01*
X168823492Y-124180119D01*
X168823493Y-124180118D01*
X168994019Y-123966285D01*
X169139524Y-123734716D01*
X169139525Y-123734714D01*
X169258190Y-123488305D01*
X169258198Y-123488285D01*
X169348519Y-123230163D01*
X169409378Y-122963523D01*
X169440000Y-122691748D01*
X169440000Y-122572014D01*
X171322500Y-122572014D01*
X171322500Y-122791986D01*
X171349669Y-122963523D01*
X171356912Y-123009254D01*
X171424884Y-123218450D01*
X171424885Y-123218453D01*
X171424886Y-123218454D01*
X171524751Y-123414449D01*
X171654047Y-123592410D01*
X171654049Y-123592412D01*
X171654051Y-123592415D01*
X171809584Y-123747948D01*
X171809587Y-123747950D01*
X171809590Y-123747953D01*
X171987551Y-123877249D01*
X172183546Y-123977114D01*
X172392751Y-124045089D01*
X172610014Y-124079500D01*
X172610017Y-124079500D01*
X172829983Y-124079500D01*
X172829986Y-124079500D01*
X173047249Y-124045089D01*
X173256454Y-123977114D01*
X173452449Y-123877249D01*
X173630410Y-123747953D01*
X173785953Y-123592410D01*
X173888064Y-123451865D01*
X173944286Y-123408512D01*
X174015022Y-123402437D01*
X174077814Y-123435568D01*
X174091935Y-123451865D01*
X174194047Y-123592410D01*
X174194049Y-123592412D01*
X174194051Y-123592415D01*
X174349584Y-123747948D01*
X174349587Y-123747950D01*
X174349590Y-123747953D01*
X174527551Y-123877249D01*
X174723546Y-123977114D01*
X174932751Y-124045089D01*
X175150014Y-124079500D01*
X175150017Y-124079500D01*
X175369983Y-124079500D01*
X175369986Y-124079500D01*
X175587249Y-124045089D01*
X175796454Y-123977114D01*
X175992449Y-123877249D01*
X176170410Y-123747953D01*
X176325953Y-123592410D01*
X176455249Y-123414449D01*
X176555114Y-123218454D01*
X176623089Y-123009249D01*
X176657500Y-122791986D01*
X176657500Y-122572014D01*
X176623089Y-122354751D01*
X176555114Y-122145546D01*
X176455249Y-121949551D01*
X176325953Y-121771590D01*
X176325950Y-121771587D01*
X176325948Y-121771584D01*
X176170415Y-121616051D01*
X176170412Y-121616049D01*
X176170410Y-121616047D01*
X175992449Y-121486751D01*
X175796454Y-121386886D01*
X175796453Y-121386885D01*
X175796450Y-121386884D01*
X175587254Y-121318912D01*
X175587250Y-121318911D01*
X175587249Y-121318911D01*
X175369986Y-121284500D01*
X175150014Y-121284500D01*
X174932751Y-121318911D01*
X174932745Y-121318912D01*
X174723549Y-121386884D01*
X174527547Y-121486753D01*
X174349587Y-121616049D01*
X174349584Y-121616051D01*
X174194048Y-121771587D01*
X174091936Y-121912133D01*
X174035713Y-121955487D01*
X173964977Y-121961562D01*
X173902186Y-121928430D01*
X173888064Y-121912133D01*
X173785951Y-121771587D01*
X173630415Y-121616051D01*
X173630412Y-121616049D01*
X173630410Y-121616047D01*
X173452449Y-121486751D01*
X173256454Y-121386886D01*
X173256453Y-121386885D01*
X173256450Y-121386884D01*
X173047254Y-121318912D01*
X173047250Y-121318911D01*
X173047249Y-121318911D01*
X172829986Y-121284500D01*
X172610014Y-121284500D01*
X172392751Y-121318911D01*
X172392745Y-121318912D01*
X172183549Y-121386884D01*
X171987547Y-121486753D01*
X171809587Y-121616049D01*
X171809584Y-121616051D01*
X171654051Y-121771584D01*
X171654049Y-121771587D01*
X171524753Y-121949547D01*
X171424884Y-122145549D01*
X171356912Y-122354745D01*
X171356911Y-122354750D01*
X171356911Y-122354751D01*
X171322500Y-122572014D01*
X169440000Y-122572014D01*
X169440000Y-122418251D01*
X169409378Y-122146476D01*
X169348518Y-121879836D01*
X169348519Y-121879836D01*
X169258198Y-121621714D01*
X169258190Y-121621694D01*
X169139525Y-121375285D01*
X169139524Y-121375283D01*
X168994017Y-121143711D01*
X168994014Y-121143707D01*
X168823504Y-120929892D01*
X168816609Y-120922997D01*
X168816607Y-120922997D01*
X167797899Y-121941704D01*
X167781751Y-121917537D01*
X167642463Y-121778249D01*
X167618294Y-121762100D01*
X168637002Y-120743392D01*
X168637002Y-120743390D01*
X168630107Y-120736495D01*
X168416292Y-120565985D01*
X168416288Y-120565982D01*
X168184716Y-120420475D01*
X168184714Y-120420474D01*
X167938305Y-120301809D01*
X167938285Y-120301801D01*
X167680163Y-120211480D01*
X167413522Y-120150621D01*
X167413524Y-120150621D01*
X167141749Y-120120000D01*
X166868251Y-120120000D01*
X166596476Y-120150621D01*
X166329836Y-120211480D01*
X166071714Y-120301801D01*
X166071694Y-120301809D01*
X165825285Y-120420474D01*
X165825283Y-120420475D01*
X165593714Y-120565980D01*
X165379885Y-120736503D01*
X165372997Y-120743390D01*
X165372996Y-120743391D01*
X166391705Y-121762100D01*
X166367537Y-121778249D01*
X166228249Y-121917537D01*
X166212100Y-121941705D01*
X165193391Y-120922996D01*
X165193390Y-120922997D01*
X165186503Y-120929885D01*
X165015980Y-121143714D01*
X164870475Y-121375283D01*
X164870474Y-121375285D01*
X164751809Y-121621694D01*
X164751801Y-121621714D01*
X164661480Y-121879836D01*
X164600621Y-122146476D01*
X164570000Y-122418251D01*
X153035000Y-122418251D01*
X153035000Y-120917485D01*
X154545800Y-120917485D01*
X154545800Y-120917488D01*
X154545800Y-121105212D01*
X154582423Y-121289330D01*
X154654262Y-121462765D01*
X154715892Y-121555000D01*
X154758556Y-121618851D01*
X154758561Y-121618857D01*
X154891292Y-121751588D01*
X154891298Y-121751593D01*
X155047385Y-121855888D01*
X155220820Y-121927727D01*
X155404938Y-121964350D01*
X155404939Y-121964350D01*
X155592661Y-121964350D01*
X155592662Y-121964350D01*
X155776780Y-121927727D01*
X155950215Y-121855888D01*
X156106302Y-121751593D01*
X156239043Y-121618852D01*
X156343338Y-121462765D01*
X156415177Y-121289330D01*
X156451800Y-121105212D01*
X156451800Y-120917488D01*
X156451799Y-120917485D01*
X161048200Y-120917485D01*
X161048200Y-120917488D01*
X161048200Y-121105212D01*
X161084823Y-121289330D01*
X161156662Y-121462765D01*
X161218292Y-121555000D01*
X161260956Y-121618851D01*
X161260961Y-121618857D01*
X161393692Y-121751588D01*
X161393698Y-121751593D01*
X161549785Y-121855888D01*
X161723220Y-121927727D01*
X161907338Y-121964350D01*
X161907339Y-121964350D01*
X162095061Y-121964350D01*
X162095062Y-121964350D01*
X162279180Y-121927727D01*
X162452615Y-121855888D01*
X162608702Y-121751593D01*
X162741443Y-121618852D01*
X162845738Y-121462765D01*
X162917577Y-121289330D01*
X162954200Y-121105212D01*
X162954200Y-120917488D01*
X162917577Y-120733370D01*
X162845738Y-120559935D01*
X162741443Y-120403848D01*
X162741438Y-120403842D01*
X162608707Y-120271111D01*
X162608701Y-120271106D01*
X162556909Y-120236499D01*
X162452615Y-120166812D01*
X162287958Y-120098609D01*
X162279185Y-120094975D01*
X162279180Y-120094973D01*
X162095064Y-120058350D01*
X162095062Y-120058350D01*
X161907338Y-120058350D01*
X161907335Y-120058350D01*
X161723219Y-120094973D01*
X161723214Y-120094975D01*
X161549785Y-120166812D01*
X161393698Y-120271106D01*
X161393692Y-120271111D01*
X161260961Y-120403842D01*
X161260956Y-120403848D01*
X161156662Y-120559935D01*
X161084825Y-120733364D01*
X161084823Y-120733369D01*
X161048200Y-120917485D01*
X156451799Y-120917485D01*
X156415177Y-120733370D01*
X156413241Y-120728696D01*
X156411056Y-120717649D01*
X156413716Y-120688273D01*
X156413454Y-120658779D01*
X156416922Y-120652873D01*
X156417460Y-120646941D01*
X156429458Y-120631529D01*
X156445564Y-120604107D01*
X157515791Y-119533880D01*
X171703500Y-119533880D01*
X171703500Y-119734119D01*
X171742564Y-119930502D01*
X171742565Y-119930505D01*
X171755253Y-119961137D01*
X171819190Y-120115493D01*
X171923170Y-120271111D01*
X171930434Y-120281982D01*
X171930439Y-120281988D01*
X172072011Y-120423560D01*
X172072017Y-120423565D01*
X172072019Y-120423567D01*
X172238507Y-120534810D01*
X172423498Y-120611436D01*
X172619884Y-120650500D01*
X172820116Y-120650500D01*
X173016502Y-120611436D01*
X173201493Y-120534810D01*
X173367981Y-120423567D01*
X173509567Y-120281981D01*
X173620810Y-120115493D01*
X173673218Y-119988968D01*
X173717765Y-119933688D01*
X173785128Y-119911267D01*
X173853919Y-119928825D01*
X173902298Y-119980787D01*
X173909459Y-119998251D01*
X173965347Y-120170257D01*
X173965350Y-120170263D01*
X174065180Y-120366191D01*
X174184277Y-120530115D01*
X174184279Y-120530115D01*
X174896754Y-119817640D01*
X174934799Y-119883536D01*
X175010464Y-119959201D01*
X175076358Y-119997245D01*
X174363883Y-120709720D01*
X174363883Y-120709721D01*
X174527808Y-120828819D01*
X174723736Y-120928649D01*
X174723742Y-120928652D01*
X174932864Y-120996599D01*
X174932860Y-120996599D01*
X175150057Y-121031000D01*
X175369943Y-121031000D01*
X175587137Y-120996599D01*
X175796257Y-120928652D01*
X175796263Y-120928649D01*
X175992191Y-120828819D01*
X176156115Y-120709721D01*
X176156115Y-120709719D01*
X175443641Y-119997245D01*
X175509536Y-119959201D01*
X175585201Y-119883536D01*
X175623245Y-119817641D01*
X176335719Y-120530115D01*
X176335721Y-120530115D01*
X176454819Y-120366191D01*
X176554649Y-120170263D01*
X176554652Y-120170257D01*
X176622599Y-119961137D01*
X176657000Y-119743942D01*
X176657000Y-119524057D01*
X176622599Y-119306862D01*
X176554652Y-119097742D01*
X176554649Y-119097736D01*
X176454819Y-118901808D01*
X176335721Y-118737883D01*
X176335720Y-118737883D01*
X175623245Y-119450358D01*
X175585201Y-119384464D01*
X175509536Y-119308799D01*
X175443640Y-119270754D01*
X176156115Y-118558279D01*
X176156115Y-118558277D01*
X175992191Y-118439180D01*
X175796263Y-118339350D01*
X175796257Y-118339347D01*
X175587135Y-118271400D01*
X175587139Y-118271400D01*
X175369943Y-118237000D01*
X175150057Y-118237000D01*
X174932862Y-118271400D01*
X174723742Y-118339347D01*
X174723736Y-118339350D01*
X174527813Y-118439177D01*
X174527813Y-118439178D01*
X174363883Y-118558278D01*
X175076359Y-119270753D01*
X175010464Y-119308799D01*
X174934799Y-119384464D01*
X174896754Y-119450359D01*
X174184278Y-118737883D01*
X174065178Y-118901813D01*
X174065177Y-118901813D01*
X173965350Y-119097736D01*
X173965349Y-119097739D01*
X173909459Y-119269749D01*
X173869385Y-119328354D01*
X173803988Y-119355991D01*
X173734032Y-119343884D01*
X173681726Y-119295878D01*
X173673220Y-119279037D01*
X173620810Y-119152507D01*
X173509567Y-118986019D01*
X173509565Y-118986017D01*
X173509560Y-118986011D01*
X173367988Y-118844439D01*
X173367982Y-118844434D01*
X173201492Y-118733189D01*
X173201488Y-118733187D01*
X173176192Y-118722709D01*
X173176190Y-118722709D01*
X173016505Y-118656565D01*
X173016502Y-118656564D01*
X172820119Y-118617500D01*
X172820116Y-118617500D01*
X172619884Y-118617500D01*
X172619880Y-118617500D01*
X172423497Y-118656564D01*
X172423494Y-118656565D01*
X172238507Y-118733190D01*
X172072017Y-118844434D01*
X172072011Y-118844439D01*
X171930439Y-118986011D01*
X171930434Y-118986017D01*
X171819190Y-119152507D01*
X171742565Y-119337494D01*
X171742564Y-119337497D01*
X171703500Y-119533880D01*
X157515791Y-119533880D01*
X163123870Y-113925800D01*
X163123880Y-113925793D01*
X163205270Y-113844403D01*
X163205276Y-113844397D01*
X163255501Y-113757404D01*
X163281500Y-113660375D01*
X163281500Y-107223775D01*
X163255501Y-107126746D01*
X163255499Y-107126743D01*
X163255499Y-107126741D01*
X163205278Y-107039756D01*
X163205274Y-107039751D01*
X163134247Y-106968724D01*
X160648618Y-104483095D01*
X160614592Y-104420783D01*
X160619657Y-104349968D01*
X160648616Y-104304906D01*
X161595276Y-103358247D01*
X161622522Y-103311055D01*
X161645501Y-103271254D01*
X161671500Y-103174225D01*
X161671500Y-99067101D01*
X161691502Y-98998980D01*
X161696660Y-98991643D01*
X161696901Y-98991226D01*
X161763847Y-98875274D01*
X161798500Y-98745945D01*
X161798500Y-98612055D01*
X161763847Y-98482726D01*
X161696901Y-98366774D01*
X161696900Y-98366772D01*
X161602227Y-98272099D01*
X161602224Y-98272097D01*
X161486278Y-98205155D01*
X161486276Y-98205154D01*
X161486274Y-98205153D01*
X161356945Y-98170500D01*
X161223055Y-98170500D01*
X161093726Y-98205153D01*
X161093724Y-98205154D01*
X161093721Y-98205155D01*
X160977775Y-98272097D01*
X160977772Y-98272099D01*
X160883099Y-98366772D01*
X160883097Y-98366775D01*
X160816155Y-98482721D01*
X160816154Y-98482724D01*
X160816153Y-98482726D01*
X160781500Y-98612055D01*
X160781500Y-98745945D01*
X160816153Y-98875274D01*
X160816154Y-98875276D01*
X160816155Y-98875278D01*
X160887228Y-98998379D01*
X160885854Y-98999172D01*
X160908063Y-99056612D01*
X160908500Y-99067101D01*
X160908500Y-102913787D01*
X160888498Y-102981908D01*
X160871599Y-103002877D01*
X160429534Y-103444943D01*
X160024667Y-103849810D01*
X159962355Y-103883835D01*
X159953529Y-103885373D01*
X159953055Y-103885500D01*
X159823726Y-103920153D01*
X159823724Y-103920154D01*
X159823721Y-103920155D01*
X159707775Y-103987097D01*
X159707772Y-103987099D01*
X159613099Y-104081772D01*
X159613097Y-104081775D01*
X159546155Y-104197721D01*
X159546154Y-104197724D01*
X159546153Y-104197726D01*
X159511500Y-104327055D01*
X159511500Y-104460945D01*
X159546153Y-104590274D01*
X159546154Y-104590276D01*
X159546155Y-104590278D01*
X159613097Y-104706224D01*
X159613099Y-104706227D01*
X159707772Y-104800900D01*
X159707775Y-104800902D01*
X159746945Y-104823517D01*
X159823726Y-104867847D01*
X159953055Y-104902500D01*
X159953057Y-104902500D01*
X159961032Y-104904637D01*
X159960621Y-104906170D01*
X160016940Y-104931080D01*
X160024667Y-104938190D01*
X162481595Y-107395118D01*
X162515621Y-107457430D01*
X162518500Y-107484213D01*
X162518500Y-113399936D01*
X162498498Y-113468057D01*
X162481595Y-113489031D01*
X155906042Y-120064583D01*
X155843730Y-120098609D01*
X155782853Y-120096163D01*
X155782850Y-120096181D01*
X155782739Y-120096158D01*
X155780375Y-120096064D01*
X155776782Y-120094974D01*
X155776780Y-120094973D01*
X155715407Y-120082765D01*
X155592664Y-120058350D01*
X155592662Y-120058350D01*
X155404938Y-120058350D01*
X155404935Y-120058350D01*
X155220819Y-120094973D01*
X155220814Y-120094975D01*
X155047385Y-120166812D01*
X154891298Y-120271106D01*
X154891292Y-120271111D01*
X154758561Y-120403842D01*
X154758556Y-120403848D01*
X154654262Y-120559935D01*
X154582425Y-120733364D01*
X154582423Y-120733369D01*
X154545800Y-120917485D01*
X153035000Y-120917485D01*
X153035000Y-114484630D01*
X153055002Y-114416509D01*
X153108658Y-114370016D01*
X153178932Y-114359912D01*
X153243512Y-114389406D01*
X153270119Y-114421630D01*
X153294721Y-114464243D01*
X153294729Y-114464253D01*
X154395809Y-115565332D01*
X154429834Y-115627644D01*
X154431372Y-115636467D01*
X154431500Y-115636943D01*
X154431500Y-115636945D01*
X154466153Y-115766274D01*
X154466154Y-115766276D01*
X154466155Y-115766278D01*
X154533097Y-115882224D01*
X154533099Y-115882227D01*
X154627772Y-115976900D01*
X154627775Y-115976902D01*
X154719226Y-116029701D01*
X154743726Y-116043847D01*
X154873055Y-116078500D01*
X154873057Y-116078500D01*
X155006943Y-116078500D01*
X155006945Y-116078500D01*
X155136274Y-116043847D01*
X155252226Y-115976901D01*
X155346901Y-115882226D01*
X155413847Y-115766274D01*
X155448500Y-115636945D01*
X155448500Y-115503055D01*
X155413847Y-115373726D01*
X155346901Y-115257774D01*
X155346900Y-115257772D01*
X155252227Y-115163099D01*
X155252224Y-115163097D01*
X155136278Y-115096155D01*
X155136276Y-115096154D01*
X155136274Y-115096153D01*
X155006945Y-115061500D01*
X155006943Y-115061500D01*
X154998968Y-115059363D01*
X154999378Y-115057832D01*
X154943048Y-115032909D01*
X154935332Y-115025809D01*
X154018405Y-114108882D01*
X153984379Y-114046570D01*
X153981500Y-114019787D01*
X153981500Y-112265799D01*
X154001502Y-112197678D01*
X154055158Y-112151185D01*
X154125432Y-112141081D01*
X154190012Y-112170575D01*
X154196595Y-112176704D01*
X154352581Y-112332690D01*
X154352584Y-112332692D01*
X154541686Y-112470083D01*
X154749956Y-112576202D01*
X154749962Y-112576205D01*
X154972259Y-112648433D01*
X155193000Y-112683394D01*
X155193000Y-111683608D01*
X155254174Y-111700000D01*
X155385826Y-111700000D01*
X155447000Y-111683608D01*
X155447000Y-112683394D01*
X155667740Y-112648433D01*
X155890037Y-112576205D01*
X155890043Y-112576202D01*
X156098313Y-112470083D01*
X156287415Y-112332692D01*
X156287418Y-112332690D01*
X156452690Y-112167418D01*
X156452692Y-112167415D01*
X156590085Y-111978310D01*
X156691255Y-111779753D01*
X156740003Y-111728137D01*
X156808918Y-111711071D01*
X156876119Y-111733971D01*
X156911864Y-111775216D01*
X156912762Y-111774666D01*
X156915345Y-111778882D01*
X157017536Y-111919535D01*
X157140464Y-112042463D01*
X157140467Y-112042465D01*
X157281116Y-112144653D01*
X157436019Y-112223580D01*
X157601362Y-112277303D01*
X157773074Y-112304500D01*
X157773077Y-112304500D01*
X157946923Y-112304500D01*
X157946926Y-112304500D01*
X158118638Y-112277303D01*
X158283981Y-112223580D01*
X158438884Y-112144653D01*
X158579533Y-112042465D01*
X158702465Y-111919533D01*
X158804653Y-111778884D01*
X158883580Y-111623981D01*
X158937303Y-111458638D01*
X158964500Y-111286926D01*
X158964500Y-111113074D01*
X159295500Y-111113074D01*
X159295500Y-111286926D01*
X159322697Y-111458638D01*
X159376420Y-111623981D01*
X159455346Y-111778882D01*
X159455349Y-111778887D01*
X159557536Y-111919535D01*
X159680464Y-112042463D01*
X159680467Y-112042465D01*
X159821116Y-112144653D01*
X159976019Y-112223580D01*
X160141362Y-112277303D01*
X160313074Y-112304500D01*
X160313077Y-112304500D01*
X160486923Y-112304500D01*
X160486926Y-112304500D01*
X160658638Y-112277303D01*
X160823981Y-112223580D01*
X160978884Y-112144653D01*
X161119533Y-112042465D01*
X161242465Y-111919533D01*
X161344653Y-111778884D01*
X161423580Y-111623981D01*
X161477303Y-111458638D01*
X161504500Y-111286926D01*
X161504500Y-111113074D01*
X161477303Y-110941362D01*
X161423580Y-110776019D01*
X161344653Y-110621116D01*
X161242465Y-110480467D01*
X161242463Y-110480464D01*
X161119535Y-110357536D01*
X160978887Y-110255349D01*
X160978886Y-110255348D01*
X160978884Y-110255347D01*
X160823981Y-110176420D01*
X160823978Y-110176419D01*
X160823976Y-110176418D01*
X160658642Y-110122698D01*
X160658640Y-110122697D01*
X160658638Y-110122697D01*
X160486926Y-110095500D01*
X160313074Y-110095500D01*
X160141362Y-110122697D01*
X160141360Y-110122697D01*
X160141357Y-110122698D01*
X159976023Y-110176418D01*
X159976017Y-110176421D01*
X159821112Y-110255349D01*
X159680464Y-110357536D01*
X159557536Y-110480464D01*
X159455349Y-110621112D01*
X159376421Y-110776017D01*
X159376418Y-110776023D01*
X159322698Y-110941357D01*
X159322697Y-110941360D01*
X159322697Y-110941362D01*
X159295500Y-111113074D01*
X158964500Y-111113074D01*
X158937303Y-110941362D01*
X158883580Y-110776019D01*
X158804653Y-110621116D01*
X158702465Y-110480467D01*
X158702463Y-110480464D01*
X158579535Y-110357536D01*
X158438887Y-110255349D01*
X158438886Y-110255348D01*
X158438884Y-110255347D01*
X158283981Y-110176420D01*
X158283978Y-110176419D01*
X158283976Y-110176418D01*
X158118642Y-110122698D01*
X158118640Y-110122697D01*
X158118638Y-110122697D01*
X157946926Y-110095500D01*
X157773074Y-110095500D01*
X157601362Y-110122697D01*
X157601360Y-110122697D01*
X157601357Y-110122698D01*
X157436023Y-110176418D01*
X157436017Y-110176421D01*
X157281112Y-110255349D01*
X157140464Y-110357536D01*
X157017536Y-110480464D01*
X156915345Y-110621117D01*
X156912762Y-110625334D01*
X156911643Y-110624648D01*
X156867010Y-110671880D01*
X156798090Y-110688927D01*
X156730895Y-110666007D01*
X156691255Y-110620247D01*
X156590083Y-110421686D01*
X156452692Y-110232584D01*
X156452690Y-110232581D01*
X156287418Y-110067309D01*
X156287415Y-110067307D01*
X156098313Y-109929916D01*
X155899752Y-109828744D01*
X155848137Y-109779996D01*
X155831071Y-109711081D01*
X155853972Y-109643879D01*
X155895218Y-109608140D01*
X155894666Y-109607238D01*
X155898882Y-109604654D01*
X155898881Y-109604654D01*
X155898884Y-109604653D01*
X156039533Y-109502465D01*
X156162465Y-109379533D01*
X156264653Y-109238884D01*
X156343580Y-109083981D01*
X156397303Y-108918638D01*
X156424500Y-108746926D01*
X156424500Y-108573074D01*
X156755500Y-108573074D01*
X156755500Y-108746926D01*
X156782697Y-108918638D01*
X156782698Y-108918642D01*
X156820431Y-109034774D01*
X156836420Y-109083981D01*
X156915347Y-109238884D01*
X156915349Y-109238887D01*
X157017536Y-109379535D01*
X157140464Y-109502463D01*
X157185342Y-109535069D01*
X157281116Y-109604653D01*
X157436019Y-109683580D01*
X157601362Y-109737303D01*
X157773074Y-109764500D01*
X157773077Y-109764500D01*
X157946923Y-109764500D01*
X157946926Y-109764500D01*
X158118638Y-109737303D01*
X158283981Y-109683580D01*
X158438884Y-109604653D01*
X158579533Y-109502465D01*
X158702465Y-109379533D01*
X158804653Y-109238884D01*
X158883580Y-109083981D01*
X158937303Y-108918638D01*
X158964500Y-108746926D01*
X158964500Y-108573074D01*
X158937303Y-108401362D01*
X158883580Y-108236019D01*
X158804653Y-108081116D01*
X158702465Y-107940467D01*
X158702463Y-107940464D01*
X158579535Y-107817536D01*
X158534657Y-107784930D01*
X159295500Y-107784930D01*
X159295500Y-109535063D01*
X159295501Y-109535073D01*
X159310265Y-109609300D01*
X159366516Y-109693484D01*
X159450697Y-109749733D01*
X159450699Y-109749734D01*
X159524933Y-109764500D01*
X161275066Y-109764499D01*
X161275069Y-109764498D01*
X161275073Y-109764498D01*
X161328350Y-109753901D01*
X161349301Y-109749734D01*
X161433484Y-109693484D01*
X161489734Y-109609301D01*
X161504500Y-109535067D01*
X161504499Y-107784934D01*
X161504498Y-107784930D01*
X161504498Y-107784926D01*
X161489734Y-107710699D01*
X161440102Y-107636421D01*
X161433484Y-107626516D01*
X161367907Y-107582698D01*
X161349302Y-107570266D01*
X161275067Y-107555500D01*
X159524936Y-107555500D01*
X159524926Y-107555501D01*
X159450699Y-107570265D01*
X159366515Y-107626516D01*
X159310266Y-107710697D01*
X159295500Y-107784930D01*
X158534657Y-107784930D01*
X158438887Y-107715349D01*
X158438886Y-107715348D01*
X158438884Y-107715347D01*
X158283981Y-107636420D01*
X158283978Y-107636419D01*
X158283976Y-107636418D01*
X158118642Y-107582698D01*
X158118640Y-107582697D01*
X158118638Y-107582697D01*
X157946926Y-107555500D01*
X157773074Y-107555500D01*
X157601362Y-107582697D01*
X157601360Y-107582697D01*
X157601357Y-107582698D01*
X157436023Y-107636418D01*
X157436017Y-107636421D01*
X157281112Y-107715349D01*
X157140464Y-107817536D01*
X157017536Y-107940464D01*
X156915349Y-108081112D01*
X156836421Y-108236017D01*
X156836418Y-108236023D01*
X156782698Y-108401357D01*
X156782697Y-108401360D01*
X156782697Y-108401362D01*
X156755500Y-108573074D01*
X156424500Y-108573074D01*
X156397303Y-108401362D01*
X156343580Y-108236019D01*
X156264653Y-108081116D01*
X156162465Y-107940467D01*
X156162463Y-107940464D01*
X156039535Y-107817536D01*
X155898887Y-107715349D01*
X155898886Y-107715348D01*
X155898884Y-107715347D01*
X155743981Y-107636420D01*
X155743978Y-107636419D01*
X155743976Y-107636418D01*
X155578642Y-107582698D01*
X155578640Y-107582697D01*
X155578638Y-107582697D01*
X155406926Y-107555500D01*
X155233074Y-107555500D01*
X155061362Y-107582697D01*
X155061360Y-107582697D01*
X155061357Y-107582698D01*
X154896023Y-107636418D01*
X154896017Y-107636421D01*
X154741112Y-107715349D01*
X154600464Y-107817536D01*
X154477536Y-107940464D01*
X154375349Y-108081112D01*
X154296421Y-108236017D01*
X154296418Y-108236023D01*
X154242698Y-108401357D01*
X154242697Y-108401360D01*
X154242697Y-108401362D01*
X154233648Y-108458500D01*
X154231949Y-108469224D01*
X154201536Y-108533377D01*
X154141268Y-108570904D01*
X154070279Y-108569890D01*
X154011107Y-108530657D01*
X153982539Y-108465662D01*
X153981500Y-108449513D01*
X153981500Y-105464475D01*
X154001502Y-105396354D01*
X154018400Y-105375384D01*
X154401871Y-104991912D01*
X154401881Y-104991905D01*
X154483270Y-104910516D01*
X154483276Y-104910510D01*
X154533501Y-104823517D01*
X154559500Y-104726488D01*
X154559500Y-95638101D01*
X154579502Y-95569980D01*
X154584660Y-95562643D01*
X154584901Y-95562226D01*
X154651847Y-95446274D01*
X154686500Y-95316945D01*
X154686500Y-95183055D01*
X154651847Y-95053726D01*
X154584901Y-94937774D01*
X154584900Y-94937772D01*
X154490227Y-94843099D01*
X154490224Y-94843097D01*
X154374278Y-94776155D01*
X154374276Y-94776154D01*
X154374274Y-94776153D01*
X154244945Y-94741500D01*
X154111055Y-94741500D01*
X154091905Y-94746630D01*
X154083108Y-94748988D01*
X154012132Y-94747296D01*
X153953337Y-94707500D01*
X153925391Y-94642235D01*
X153924500Y-94627280D01*
X153924500Y-94368101D01*
X153944502Y-94299980D01*
X153949660Y-94292643D01*
X153949902Y-94292224D01*
X154016847Y-94176274D01*
X154051500Y-94046945D01*
X154051500Y-93913055D01*
X154016847Y-93783726D01*
X154008518Y-93769301D01*
X153945772Y-93660621D01*
X153947144Y-93659828D01*
X153924936Y-93602376D01*
X153924500Y-93591898D01*
X153924500Y-92643055D01*
X157860500Y-92643055D01*
X157860500Y-92776945D01*
X157895153Y-92906274D01*
X157895154Y-92906276D01*
X157895155Y-92906278D01*
X157966228Y-93029379D01*
X157964854Y-93030172D01*
X157987063Y-93087612D01*
X157987500Y-93098101D01*
X157987500Y-100576898D01*
X157967498Y-100645019D01*
X157962343Y-100652349D01*
X157895155Y-100768721D01*
X157895154Y-100768724D01*
X157895153Y-100768726D01*
X157860500Y-100898055D01*
X157860500Y-101031945D01*
X157895153Y-101161274D01*
X157895154Y-101161276D01*
X157895155Y-101161278D01*
X157962097Y-101277224D01*
X157962099Y-101277227D01*
X158056772Y-101371900D01*
X158056775Y-101371902D01*
X158115500Y-101405807D01*
X158172726Y-101438847D01*
X158302055Y-101473500D01*
X158302057Y-101473500D01*
X158435943Y-101473500D01*
X158435945Y-101473500D01*
X158463890Y-101466012D01*
X158534865Y-101467702D01*
X158593661Y-101507496D01*
X158621609Y-101572760D01*
X158622500Y-101587719D01*
X158622500Y-102227898D01*
X158602498Y-102296019D01*
X158597343Y-102303349D01*
X158530155Y-102419721D01*
X158530154Y-102419724D01*
X158530153Y-102419726D01*
X158495500Y-102549055D01*
X158495500Y-102682945D01*
X158530153Y-102812274D01*
X158530154Y-102812276D01*
X158530155Y-102812278D01*
X158597097Y-102928224D01*
X158597099Y-102928227D01*
X158691772Y-103022900D01*
X158691775Y-103022902D01*
X158752599Y-103058019D01*
X158807726Y-103089847D01*
X158937055Y-103124500D01*
X158937057Y-103124500D01*
X159070943Y-103124500D01*
X159070945Y-103124500D01*
X159200274Y-103089847D01*
X159316226Y-103022901D01*
X159410901Y-102928226D01*
X159477847Y-102812274D01*
X159512500Y-102682945D01*
X159512500Y-102549055D01*
X159477847Y-102419726D01*
X159469518Y-102405301D01*
X159406772Y-102296621D01*
X159408144Y-102295828D01*
X159385936Y-102238376D01*
X159385500Y-102227898D01*
X159385500Y-100190719D01*
X159405502Y-100122598D01*
X159459158Y-100076105D01*
X159529432Y-100066001D01*
X159544102Y-100069010D01*
X159572055Y-100076500D01*
X159572057Y-100076500D01*
X159705943Y-100076500D01*
X159705945Y-100076500D01*
X159835274Y-100041847D01*
X159951226Y-99974901D01*
X160045901Y-99880226D01*
X160112847Y-99764274D01*
X160147500Y-99634945D01*
X160147500Y-99501055D01*
X160112847Y-99371726D01*
X160104518Y-99357301D01*
X160041772Y-99248621D01*
X160043144Y-99247828D01*
X160020936Y-99190376D01*
X160020500Y-99179898D01*
X160020500Y-96908101D01*
X160040502Y-96839980D01*
X160045660Y-96832643D01*
X160045901Y-96832226D01*
X160112847Y-96716274D01*
X160147500Y-96586945D01*
X160147500Y-96453055D01*
X160112847Y-96323726D01*
X160045901Y-96207774D01*
X160045900Y-96207772D01*
X159951227Y-96113099D01*
X159951224Y-96113097D01*
X159835278Y-96046155D01*
X159835276Y-96046154D01*
X159835274Y-96046153D01*
X159705945Y-96011500D01*
X159572055Y-96011500D01*
X159552905Y-96016630D01*
X159544108Y-96018988D01*
X159518713Y-96018382D01*
X159493568Y-96021998D01*
X159483830Y-96017551D01*
X159473132Y-96017296D01*
X159452095Y-96003057D01*
X159428988Y-95992504D01*
X159423201Y-95983499D01*
X159414337Y-95977500D01*
X159404337Y-95954148D01*
X159390604Y-95932778D01*
X159388286Y-95916662D01*
X159386391Y-95912235D01*
X159385500Y-95897280D01*
X159385500Y-95714212D01*
X159405502Y-95646091D01*
X159422399Y-95625122D01*
X159612068Y-95435453D01*
X159612075Y-95435448D01*
X159690270Y-95357253D01*
X159690276Y-95357247D01*
X159740501Y-95270254D01*
X159766500Y-95173225D01*
X159766500Y-91828101D01*
X159786502Y-91759980D01*
X159791660Y-91752643D01*
X159817498Y-91707891D01*
X159858847Y-91636274D01*
X159893500Y-91506945D01*
X159893500Y-91373055D01*
X159858847Y-91243726D01*
X159828468Y-91191109D01*
X159814606Y-91167099D01*
X162256768Y-91167099D01*
X162256768Y-91300989D01*
X162291421Y-91430318D01*
X162291422Y-91430320D01*
X162291423Y-91430322D01*
X162358365Y-91546268D01*
X162358367Y-91546271D01*
X162453040Y-91640944D01*
X162453043Y-91640946D01*
X162544494Y-91693745D01*
X162568994Y-91707891D01*
X162698323Y-91742544D01*
X162698325Y-91742544D01*
X162832211Y-91742544D01*
X162832213Y-91742544D01*
X162961542Y-91707891D01*
X163077494Y-91640945D01*
X163172169Y-91546270D01*
X163213381Y-91474890D01*
X163264763Y-91425897D01*
X163334477Y-91412461D01*
X163400388Y-91438847D01*
X163441570Y-91496679D01*
X163448500Y-91537890D01*
X163448500Y-96131898D01*
X163428498Y-96200019D01*
X163423343Y-96207349D01*
X163356155Y-96323721D01*
X163356154Y-96323724D01*
X163356153Y-96323726D01*
X163321500Y-96453055D01*
X163321500Y-96586945D01*
X163356153Y-96716274D01*
X163356154Y-96716276D01*
X163356155Y-96716278D01*
X163427228Y-96839379D01*
X163425854Y-96840172D01*
X163448063Y-96897612D01*
X163448500Y-96908101D01*
X163448500Y-102989898D01*
X163428498Y-103058019D01*
X163423343Y-103065349D01*
X163356155Y-103181721D01*
X163356154Y-103181724D01*
X163356153Y-103181726D01*
X163321500Y-103311055D01*
X163321500Y-103444945D01*
X163356153Y-103574274D01*
X163356154Y-103574276D01*
X163356155Y-103574278D01*
X163423097Y-103690224D01*
X163423099Y-103690227D01*
X163517772Y-103784900D01*
X163517775Y-103784902D01*
X163609226Y-103837701D01*
X163633726Y-103851847D01*
X163763055Y-103886500D01*
X163763057Y-103886500D01*
X163896943Y-103886500D01*
X163896945Y-103886500D01*
X164026274Y-103851847D01*
X164107070Y-103805198D01*
X164148500Y-103781279D01*
X164217495Y-103764541D01*
X164284587Y-103787761D01*
X164328474Y-103843568D01*
X164337500Y-103890398D01*
X164337500Y-107561898D01*
X164317498Y-107630019D01*
X164312343Y-107637349D01*
X164245155Y-107753721D01*
X164245154Y-107753724D01*
X164245153Y-107753726D01*
X164210500Y-107883055D01*
X164210500Y-108016945D01*
X164245153Y-108146274D01*
X164245154Y-108146276D01*
X164245155Y-108146278D01*
X164312097Y-108262224D01*
X164312099Y-108262227D01*
X164406772Y-108356900D01*
X164406775Y-108356902D01*
X164483773Y-108401357D01*
X164522726Y-108423847D01*
X164652055Y-108458500D01*
X164652057Y-108458500D01*
X164785943Y-108458500D01*
X164785945Y-108458500D01*
X164915274Y-108423847D01*
X165031226Y-108356901D01*
X165125901Y-108262226D01*
X165192847Y-108146274D01*
X165227500Y-108016945D01*
X165227500Y-107883055D01*
X165192847Y-107753726D01*
X165168004Y-107710697D01*
X165121772Y-107630621D01*
X165123144Y-107629828D01*
X165100936Y-107572376D01*
X165100500Y-107561898D01*
X165100500Y-101353101D01*
X165120502Y-101284980D01*
X165125660Y-101277643D01*
X165125902Y-101277224D01*
X165192847Y-101161274D01*
X165227500Y-101031945D01*
X165227500Y-100898055D01*
X165192847Y-100768726D01*
X165125901Y-100652774D01*
X165125900Y-100652772D01*
X165031227Y-100558099D01*
X165031224Y-100558097D01*
X164915278Y-100491155D01*
X164915276Y-100491154D01*
X164915274Y-100491153D01*
X164785945Y-100456500D01*
X164652055Y-100456500D01*
X164522726Y-100491153D01*
X164522724Y-100491154D01*
X164522721Y-100491155D01*
X164400500Y-100561720D01*
X164331504Y-100578458D01*
X164264413Y-100555237D01*
X164220526Y-100499430D01*
X164211500Y-100452601D01*
X164211500Y-96908101D01*
X164231502Y-96839980D01*
X164236660Y-96832643D01*
X164236901Y-96832226D01*
X164303847Y-96716274D01*
X164338500Y-96586945D01*
X164338500Y-96453055D01*
X164303847Y-96323726D01*
X164236902Y-96207775D01*
X164232772Y-96200621D01*
X164234144Y-96199828D01*
X164211936Y-96142376D01*
X164211500Y-96131898D01*
X164211500Y-94565722D01*
X164231502Y-94497601D01*
X164285158Y-94451108D01*
X164355432Y-94441004D01*
X164387508Y-94452106D01*
X164388097Y-94450686D01*
X164395714Y-94453840D01*
X164395726Y-94453847D01*
X164525055Y-94488500D01*
X164525057Y-94488500D01*
X164658943Y-94488500D01*
X164658945Y-94488500D01*
X164788274Y-94453847D01*
X164904226Y-94386901D01*
X164998901Y-94292226D01*
X165065847Y-94176274D01*
X165100500Y-94046945D01*
X165100500Y-94046943D01*
X165102637Y-94038968D01*
X165104170Y-94039378D01*
X165109758Y-94026742D01*
X165114697Y-94004041D01*
X165127163Y-93987388D01*
X165129077Y-93983062D01*
X165136178Y-93975343D01*
X165174664Y-93936858D01*
X165174671Y-93936852D01*
X165252870Y-93858653D01*
X165252876Y-93858647D01*
X165296130Y-93783728D01*
X165303099Y-93771658D01*
X165303099Y-93771657D01*
X165303101Y-93771654D01*
X165329100Y-93674625D01*
X165329100Y-87871388D01*
X165329100Y-87727669D01*
X165329100Y-87727668D01*
X165294447Y-87598339D01*
X165227501Y-87482387D01*
X165227500Y-87482385D01*
X165132827Y-87387712D01*
X165132824Y-87387710D01*
X165016878Y-87320768D01*
X165016876Y-87320767D01*
X165016874Y-87320766D01*
X164887545Y-87286113D01*
X164769300Y-87286113D01*
X164701179Y-87266111D01*
X164654686Y-87212455D01*
X164643300Y-87160113D01*
X164643300Y-82594210D01*
X164663302Y-82526089D01*
X164695894Y-82495014D01*
X164694474Y-82493163D01*
X164701018Y-82488140D01*
X164701026Y-82488136D01*
X164795701Y-82393461D01*
X164862647Y-82277509D01*
X164897300Y-82148180D01*
X164897300Y-82014290D01*
X164862647Y-81884961D01*
X164795701Y-81769009D01*
X164795700Y-81769007D01*
X164701027Y-81674334D01*
X164701024Y-81674332D01*
X164585078Y-81607390D01*
X164585076Y-81607389D01*
X164585074Y-81607388D01*
X164455745Y-81572735D01*
X164337500Y-81572735D01*
X164269379Y-81552733D01*
X164222886Y-81499077D01*
X164211500Y-81446735D01*
X164211500Y-74807975D01*
X164231502Y-74739854D01*
X164264094Y-74708779D01*
X164262674Y-74706928D01*
X164269218Y-74701905D01*
X164269226Y-74701901D01*
X164363901Y-74607226D01*
X164430847Y-74491274D01*
X164465500Y-74361945D01*
X164465500Y-74228055D01*
X164430847Y-74098726D01*
X164363901Y-73982774D01*
X164363900Y-73982772D01*
X164269227Y-73888099D01*
X164269224Y-73888097D01*
X164153278Y-73821155D01*
X164153276Y-73821154D01*
X164153274Y-73821153D01*
X164023945Y-73786500D01*
X163890055Y-73786500D01*
X163760726Y-73821153D01*
X163760724Y-73821154D01*
X163760721Y-73821155D01*
X163644775Y-73888097D01*
X163644772Y-73888099D01*
X163550099Y-73982772D01*
X163550097Y-73982775D01*
X163483155Y-74098721D01*
X163483154Y-74098724D01*
X163483153Y-74098726D01*
X163448500Y-74228055D01*
X163448500Y-74228056D01*
X163448500Y-77083200D01*
X163428498Y-77151321D01*
X163374842Y-77197814D01*
X163304568Y-77207918D01*
X163239988Y-77178424D01*
X163222540Y-77159908D01*
X163220897Y-77157767D01*
X163126227Y-77063097D01*
X163126224Y-77063095D01*
X163010278Y-76996153D01*
X163010276Y-76996152D01*
X163010274Y-76996151D01*
X162880945Y-76961498D01*
X162747055Y-76961498D01*
X162617726Y-76996151D01*
X162617724Y-76996152D01*
X162617721Y-76996153D01*
X162501775Y-77063095D01*
X162501772Y-77063097D01*
X162407099Y-77157770D01*
X162407097Y-77157773D01*
X162340155Y-77273719D01*
X162340154Y-77273722D01*
X162340153Y-77273724D01*
X162305500Y-77403053D01*
X162305500Y-77536943D01*
X162340153Y-77666272D01*
X162340156Y-77666278D01*
X162364818Y-77708993D01*
X162381700Y-77771994D01*
X162381700Y-90848637D01*
X162362339Y-90914574D01*
X162362496Y-90914665D01*
X162362122Y-90915311D01*
X162361698Y-90916758D01*
X162359403Y-90920020D01*
X162291423Y-91037765D01*
X162291422Y-91037768D01*
X162291421Y-91037770D01*
X162256768Y-91167099D01*
X159814606Y-91167099D01*
X159791902Y-91127774D01*
X159697227Y-91033099D01*
X159697224Y-91033097D01*
X159581278Y-90966155D01*
X159581276Y-90966154D01*
X159581274Y-90966153D01*
X159451945Y-90931500D01*
X159318055Y-90931500D01*
X159188726Y-90966153D01*
X159188724Y-90966154D01*
X159188721Y-90966155D01*
X159072775Y-91033097D01*
X159072772Y-91033099D01*
X158978099Y-91127772D01*
X158978097Y-91127775D01*
X158911155Y-91243721D01*
X158911154Y-91243724D01*
X158911153Y-91243726D01*
X158876500Y-91373055D01*
X158876500Y-91506945D01*
X158911153Y-91636274D01*
X158911154Y-91636276D01*
X158911155Y-91636278D01*
X158982228Y-91759379D01*
X158980854Y-91760172D01*
X159003063Y-91817612D01*
X159003500Y-91828101D01*
X159003500Y-92323202D01*
X158983498Y-92391323D01*
X158929842Y-92437816D01*
X158859568Y-92447920D01*
X158794988Y-92418426D01*
X158777540Y-92399910D01*
X158775897Y-92397769D01*
X158681227Y-92303099D01*
X158681224Y-92303097D01*
X158565278Y-92236155D01*
X158565276Y-92236154D01*
X158565274Y-92236153D01*
X158435945Y-92201500D01*
X158302055Y-92201500D01*
X158172726Y-92236153D01*
X158172724Y-92236154D01*
X158172721Y-92236155D01*
X158056775Y-92303097D01*
X158056772Y-92303099D01*
X157962099Y-92397772D01*
X157962097Y-92397775D01*
X157895155Y-92513721D01*
X157895154Y-92513724D01*
X157895153Y-92513726D01*
X157860500Y-92643055D01*
X153924500Y-92643055D01*
X153924500Y-71254101D01*
X153944502Y-71185980D01*
X153949660Y-71178643D01*
X153968575Y-71145882D01*
X154016847Y-71062274D01*
X154051500Y-70932945D01*
X154051500Y-70799055D01*
X154016847Y-70669726D01*
X153949901Y-70553774D01*
X153949900Y-70553772D01*
X153855227Y-70459099D01*
X153855224Y-70459097D01*
X153739278Y-70392155D01*
X153739276Y-70392154D01*
X153739274Y-70392153D01*
X153609945Y-70357500D01*
X153476055Y-70357500D01*
X153476049Y-70357500D01*
X153447608Y-70365121D01*
X153376632Y-70363430D01*
X153317837Y-70323635D01*
X153289891Y-70258369D01*
X153289000Y-70243414D01*
X153289000Y-69907713D01*
X153309002Y-69839592D01*
X153325899Y-69818623D01*
X153665335Y-69479187D01*
X153727644Y-69445165D01*
X153736468Y-69443627D01*
X153736942Y-69443500D01*
X153736945Y-69443500D01*
X153866274Y-69408847D01*
X153982226Y-69341901D01*
X154076901Y-69247226D01*
X154143847Y-69131274D01*
X154178500Y-69001945D01*
X154178500Y-68868055D01*
X154143847Y-68738726D01*
X154085043Y-68636876D01*
X154076902Y-68622775D01*
X154076900Y-68622772D01*
X153982227Y-68528099D01*
X153982224Y-68528097D01*
X153866278Y-68461155D01*
X153866276Y-68461154D01*
X153866274Y-68461153D01*
X153736945Y-68426500D01*
X153603055Y-68426500D01*
X153473726Y-68461153D01*
X153473724Y-68461154D01*
X153473721Y-68461155D01*
X153357775Y-68528097D01*
X153357772Y-68528099D01*
X153263098Y-68622773D01*
X153260957Y-68625564D01*
X153258552Y-68627319D01*
X153257259Y-68628613D01*
X153257057Y-68628411D01*
X153203617Y-68667427D01*
X153132745Y-68671644D01*
X153070845Y-68636876D01*
X153037568Y-68574161D01*
X153035000Y-68548853D01*
X153035000Y-65229195D01*
X154635000Y-65229195D01*
X154635000Y-65470804D01*
X154672797Y-65709451D01*
X154747457Y-65939231D01*
X154747460Y-65939237D01*
X154857152Y-66154519D01*
X154995480Y-66344911D01*
X154995482Y-66344911D01*
X155774836Y-65565557D01*
X155809910Y-65626306D01*
X155893694Y-65710090D01*
X155954441Y-65745162D01*
X155175087Y-66524516D01*
X155175087Y-66524518D01*
X155365480Y-66662847D01*
X155580762Y-66772539D01*
X155580768Y-66772542D01*
X155810548Y-66847202D01*
X156049195Y-66885000D01*
X156290805Y-66885000D01*
X156529451Y-66847202D01*
X156759231Y-66772542D01*
X156759237Y-66772539D01*
X156974518Y-66662848D01*
X157164911Y-66524518D01*
X157164911Y-66524516D01*
X156385557Y-65745162D01*
X156446306Y-65710090D01*
X156530090Y-65626306D01*
X156565162Y-65565557D01*
X157344516Y-66344911D01*
X157344518Y-66344911D01*
X157354892Y-66330633D01*
X157411114Y-66287278D01*
X157481850Y-66281202D01*
X157544642Y-66314334D01*
X157561993Y-66339902D01*
X157563371Y-66338982D01*
X157626516Y-66433484D01*
X157710697Y-66489733D01*
X157710699Y-66489734D01*
X157784933Y-66504500D01*
X159635066Y-66504499D01*
X159635069Y-66504498D01*
X159635073Y-66504498D01*
X159684326Y-66494701D01*
X159709301Y-66489734D01*
X159793484Y-66433484D01*
X159849734Y-66349301D01*
X159864500Y-66275067D01*
X159864499Y-64939195D01*
X169895000Y-64939195D01*
X169895000Y-65180804D01*
X169932797Y-65419451D01*
X170007457Y-65649231D01*
X170007460Y-65649237D01*
X170117152Y-65864519D01*
X170255480Y-66054911D01*
X170255482Y-66054911D01*
X171034836Y-65275557D01*
X171069910Y-65336306D01*
X171153694Y-65420090D01*
X171214441Y-65455162D01*
X170435087Y-66234516D01*
X170435087Y-66234518D01*
X170625480Y-66372847D01*
X170840762Y-66482539D01*
X170840768Y-66482542D01*
X171070548Y-66557202D01*
X171309195Y-66595000D01*
X171550805Y-66595000D01*
X171789451Y-66557202D01*
X172019231Y-66482542D01*
X172019237Y-66482539D01*
X172234518Y-66372848D01*
X172424911Y-66234518D01*
X172424911Y-66234516D01*
X171645557Y-65455162D01*
X171706306Y-65420090D01*
X171790090Y-65336306D01*
X171825162Y-65275557D01*
X172604516Y-66054911D01*
X172604518Y-66054911D01*
X172614892Y-66040633D01*
X172671114Y-65997278D01*
X172741850Y-65991202D01*
X172804642Y-66024334D01*
X172821993Y-66049902D01*
X172823371Y-66048982D01*
X172886516Y-66143484D01*
X172970697Y-66199733D01*
X172970699Y-66199734D01*
X173044933Y-66214500D01*
X173462500Y-66214499D01*
X173530620Y-66234501D01*
X173577114Y-66288156D01*
X173588500Y-66340499D01*
X173588500Y-71056787D01*
X173568498Y-71124908D01*
X173551595Y-71145882D01*
X170946667Y-73750809D01*
X170884355Y-73784835D01*
X170875529Y-73786373D01*
X170875055Y-73786500D01*
X170745726Y-73821153D01*
X170745724Y-73821154D01*
X170745721Y-73821155D01*
X170629775Y-73888097D01*
X170629772Y-73888099D01*
X170535099Y-73982772D01*
X170535097Y-73982775D01*
X170468155Y-74098721D01*
X170468154Y-74098724D01*
X170468153Y-74098726D01*
X170433500Y-74228055D01*
X170433500Y-74361945D01*
X170468153Y-74491274D01*
X170468154Y-74491276D01*
X170468155Y-74491278D01*
X170535097Y-74607224D01*
X170535099Y-74607227D01*
X170629772Y-74701900D01*
X170629775Y-74701902D01*
X170687499Y-74735229D01*
X170745726Y-74768847D01*
X170875055Y-74803500D01*
X170875057Y-74803500D01*
X171008943Y-74803500D01*
X171008945Y-74803500D01*
X171138274Y-74768847D01*
X171254226Y-74701901D01*
X171348901Y-74607226D01*
X171415847Y-74491274D01*
X171450500Y-74361945D01*
X171450500Y-74361943D01*
X171452637Y-74353968D01*
X171454170Y-74354378D01*
X171479079Y-74298061D01*
X171486178Y-74290344D01*
X174275276Y-71501247D01*
X174325502Y-71414253D01*
X174351501Y-71317225D01*
X174351501Y-71216775D01*
X174351501Y-71209058D01*
X174351500Y-71209040D01*
X174351500Y-66340499D01*
X174371502Y-66272378D01*
X174425158Y-66225885D01*
X174477500Y-66214499D01*
X174895064Y-66214499D01*
X174895066Y-66214499D01*
X174895069Y-66214498D01*
X174895072Y-66214498D01*
X174931663Y-66207219D01*
X174969301Y-66199734D01*
X175053484Y-66143484D01*
X175109734Y-66059301D01*
X175124500Y-65985067D01*
X175124499Y-64134934D01*
X175124498Y-64134931D01*
X175124498Y-64134926D01*
X175109734Y-64060699D01*
X175094000Y-64037152D01*
X175053484Y-63976516D01*
X175053483Y-63976515D01*
X174969302Y-63920266D01*
X174895067Y-63905500D01*
X173044936Y-63905500D01*
X173044926Y-63905501D01*
X172970699Y-63920265D01*
X172886515Y-63976516D01*
X172823370Y-64071018D01*
X172820622Y-64069182D01*
X172788668Y-64108819D01*
X172721300Y-64131226D01*
X172652512Y-64113654D01*
X172614892Y-64079366D01*
X172604518Y-64065087D01*
X172604516Y-64065087D01*
X171825162Y-64844441D01*
X171790090Y-64783694D01*
X171706306Y-64699910D01*
X171645557Y-64664836D01*
X172424911Y-63885482D01*
X172424911Y-63885480D01*
X172234519Y-63747152D01*
X172019237Y-63637460D01*
X172019231Y-63637457D01*
X171789451Y-63562797D01*
X171550805Y-63525000D01*
X171309195Y-63525000D01*
X171070548Y-63562797D01*
X170840768Y-63637457D01*
X170840762Y-63637460D01*
X170625480Y-63747152D01*
X170435087Y-63885480D01*
X170435087Y-63885482D01*
X171214442Y-64664837D01*
X171153694Y-64699910D01*
X171069910Y-64783694D01*
X171034837Y-64844442D01*
X170255482Y-64065087D01*
X170255480Y-64065087D01*
X170117152Y-64255480D01*
X170007460Y-64470762D01*
X170007457Y-64470768D01*
X169932797Y-64700548D01*
X169895000Y-64939195D01*
X159864499Y-64939195D01*
X159864499Y-64424934D01*
X159864498Y-64424931D01*
X159864498Y-64424926D01*
X159849734Y-64350699D01*
X159793483Y-64266515D01*
X159709302Y-64210266D01*
X159635067Y-64195500D01*
X157784936Y-64195500D01*
X157784926Y-64195501D01*
X157710699Y-64210265D01*
X157626515Y-64266516D01*
X157563370Y-64361018D01*
X157560622Y-64359182D01*
X157528668Y-64398819D01*
X157461300Y-64421226D01*
X157392512Y-64403654D01*
X157354892Y-64369366D01*
X157344518Y-64355087D01*
X157344516Y-64355087D01*
X156565162Y-65134441D01*
X156530090Y-65073694D01*
X156446306Y-64989910D01*
X156385557Y-64954836D01*
X157164911Y-64175482D01*
X157164911Y-64175480D01*
X156974518Y-64037151D01*
X156759237Y-63927460D01*
X156759231Y-63927457D01*
X156529451Y-63852797D01*
X156290805Y-63815000D01*
X156049195Y-63815000D01*
X155810548Y-63852797D01*
X155580768Y-63927457D01*
X155580762Y-63927460D01*
X155365480Y-64037152D01*
X155175087Y-64175480D01*
X155175087Y-64175482D01*
X155954442Y-64954837D01*
X155893694Y-64989910D01*
X155809910Y-65073694D01*
X155774837Y-65134442D01*
X154995482Y-64355087D01*
X154995480Y-64355087D01*
X154857152Y-64545480D01*
X154747460Y-64760762D01*
X154747457Y-64760768D01*
X154672797Y-64990548D01*
X154635000Y-65229195D01*
X153035000Y-65229195D01*
X153035000Y-56641000D01*
X153055002Y-56572879D01*
X153108658Y-56526386D01*
X153161000Y-56515000D01*
X164244764Y-56515000D01*
X164312885Y-56535002D01*
G37*
%TD.AperFunction*%
%TD*%
M02*
