%TF.GenerationSoftware,KiCad,Pcbnew,7.0.6-7.0.6~ubuntu22.04.1*%
%TF.CreationDate,2023-09-16T17:19:44-04:00*%
%TF.ProjectId,avr-smt-44,6176722d-736d-4742-9d34-342e6b696361,rev?*%
%TF.SameCoordinates,Original*%
%TF.FileFunction,Copper,L2,Bot*%
%TF.FilePolarity,Positive*%
%FSLAX46Y46*%
G04 Gerber Fmt 4.6, Leading zero omitted, Abs format (unit mm)*
G04 Created by KiCad (PCBNEW 7.0.6-7.0.6~ubuntu22.04.1) date 2023-09-16 17:19:44*
%MOMM*%
%LPD*%
G01*
G04 APERTURE LIST*
%TA.AperFunction,ComponentPad*%
%ADD10C,3.600000*%
%TD*%
%TA.AperFunction,ComponentPad*%
%ADD11C,1.397000*%
%TD*%
%TA.AperFunction,ComponentPad*%
%ADD12C,1.524000*%
%TD*%
%TA.AperFunction,ComponentPad*%
%ADD13C,2.286000*%
%TD*%
%TA.AperFunction,ComponentPad*%
%ADD14R,1.800000X1.800000*%
%TD*%
%TA.AperFunction,ComponentPad*%
%ADD15C,1.800000*%
%TD*%
%TA.AperFunction,ViaPad*%
%ADD16C,0.508000*%
%TD*%
%TA.AperFunction,Conductor*%
%ADD17C,0.254000*%
%TD*%
G04 APERTURE END LIST*
D10*
%TO.P,TP2,1,1*%
%TO.N,GND*%
X167005000Y-122555000D03*
%TD*%
%TO.P,TP1,1,1*%
%TO.N,GND*%
X165100000Y-59055000D03*
%TD*%
D11*
%TO.P,SW1,1,1*%
%TO.N,/MISO*%
X155498800Y-121011350D03*
%TO.P,SW1,2,2*%
%TO.N,GND*%
X155498800Y-125507150D03*
%TO.P,SW1,3*%
%TO.N,N/C*%
X162001200Y-125507150D03*
%TO.P,SW1,4*%
X162001200Y-121011350D03*
%TD*%
D12*
%TO.P,BT1,1,+*%
%TO.N,VCC*%
X172720000Y-119634000D03*
%TO.P,BT1,2,-*%
%TO.N,GND*%
X175260000Y-119634000D03*
D13*
%TO.P,BT1,5*%
%TO.N,N/C*%
X172720000Y-122682000D03*
%TO.P,BT1,6*%
X175260000Y-122682000D03*
%TO.P,BT1,7*%
X172720000Y-125730000D03*
%TO.P,BT1,8*%
X175260000Y-125730000D03*
%TD*%
D14*
%TO.P,D9,1,K*%
%TO.N,/MOSI*%
X158710000Y-65350000D03*
D15*
%TO.P,D9,2,A*%
%TO.N,GND*%
X156170000Y-65350000D03*
%TD*%
D14*
%TO.P,D10,1,K*%
%TO.N,/SCL*%
X173970000Y-65060000D03*
D15*
%TO.P,D10,2,A*%
%TO.N,GND*%
X171430000Y-65060000D03*
%TD*%
D16*
%TO.N,GND*%
X156083000Y-111760000D03*
X175768000Y-114427000D03*
X175895000Y-109474000D03*
X175768000Y-104394000D03*
X175895000Y-99187000D03*
X175895000Y-94107000D03*
X176022000Y-88773000D03*
X176022000Y-83693000D03*
X176022000Y-78740000D03*
X161290000Y-89408000D03*
X160401000Y-87757000D03*
X161290000Y-74422000D03*
%TO.N,/SCL*%
X170942000Y-74295000D03*
X163957000Y-74295000D03*
%TO.N,/nRESET*%
X153543000Y-70866000D03*
%TO.N,Net-(U1-PB2)*%
X154940000Y-115570000D03*
X154178000Y-95250000D03*
%TO.N,/nRESET*%
X153543000Y-104521000D03*
X153543000Y-93980000D03*
%TO.N,/MOSI*%
X152908000Y-109347000D03*
%TO.N,/MISO*%
X160020000Y-104394000D03*
X161290000Y-98679000D03*
%TO.N,/SCL*%
X163830000Y-103378000D03*
X163830000Y-96520000D03*
%TO.N,Net-(U1-AREF{slash}PA0)*%
X162814000Y-77469998D03*
X162765268Y-91234044D03*
%TO.N,Net-(U1-PA1)*%
X164388800Y-82081235D03*
X164388800Y-92340663D03*
%TO.N,Net-(U1-PA2)*%
X164820600Y-87794613D03*
X164592000Y-93980000D03*
%TO.N,Net-(U1-XTAL2{slash}PB1)*%
X158369000Y-92710000D03*
X158369000Y-100965000D03*
X164719000Y-107950000D03*
X164719000Y-100965000D03*
%TO.N,Net-(U1-XTAL1{slash}PB0)*%
X159004000Y-102616000D03*
X159385000Y-91440000D03*
%TO.N,Net-(U1-PA7)*%
X159639000Y-99568000D03*
X159639000Y-96520000D03*
%TO.N,/MOSI*%
X152908000Y-97790000D03*
X153670000Y-68935000D03*
%TD*%
D17*
%TO.N,/MOSI*%
X152907500Y-97789500D02*
X152907500Y-69697500D01*
X152908000Y-97790000D02*
X152907500Y-97789500D01*
X152907500Y-69697500D02*
X153670000Y-68935000D01*
%TO.N,Net-(U1-AREF{slash}PA0)*%
X162763200Y-77520798D02*
X162814000Y-77469998D01*
X162763200Y-91231976D02*
X162763200Y-77520798D01*
X162765268Y-91234044D02*
X162763200Y-91231976D01*
%TO.N,/MISO*%
X160020000Y-104394000D02*
X160020000Y-116490150D01*
X160020000Y-116490150D02*
X155498800Y-121011350D01*
%TO.N,/SCL*%
X170942000Y-74295000D02*
X173970000Y-71267000D01*
X173970000Y-71267000D02*
X173970000Y-65060000D01*
%TO.N,Net-(U1-PA2)*%
X164592000Y-93980000D02*
X164947600Y-93624400D01*
%TO.N,/SCL*%
X163830000Y-96520000D02*
X163830000Y-74422000D01*
X163830000Y-74422000D02*
X163957000Y-74295000D01*
%TO.N,Net-(U1-PA1)*%
X164261800Y-92213663D02*
X164261800Y-82208235D01*
%TO.N,Net-(U1-PA2)*%
X164947600Y-93624400D02*
X164947600Y-87921613D01*
%TO.N,Net-(U1-PA1)*%
X164388800Y-92340663D02*
X164261800Y-92213663D01*
%TO.N,Net-(U1-PA2)*%
X164947600Y-87921613D02*
X164820600Y-87794613D01*
%TO.N,Net-(U1-PA1)*%
X164261800Y-82208235D02*
X164388800Y-82081235D01*
%TO.N,/nRESET*%
X153543000Y-70866000D02*
X153543000Y-93980000D01*
%TO.N,Net-(U1-PB2)*%
X154178000Y-95250000D02*
X154178000Y-103505000D01*
X154178000Y-103505000D02*
X154813000Y-104140000D01*
X154813000Y-104140000D02*
X154813000Y-115443000D01*
X154813000Y-115443000D02*
X154940000Y-115570000D01*
%TO.N,/nRESET*%
X153543000Y-93980000D02*
X153543000Y-104521000D01*
%TO.N,/MOSI*%
X152908000Y-97790000D02*
X152908000Y-109347000D01*
%TO.N,/MISO*%
X161290000Y-98679000D02*
X161290000Y-103124000D01*
X161290000Y-103124000D02*
X160020000Y-104394000D01*
%TO.N,/SCL*%
X163830000Y-96520000D02*
X163830000Y-103378000D01*
%TO.N,Net-(U1-XTAL2{slash}PB1)*%
X158369000Y-100965000D02*
X158369000Y-92710000D01*
X164719000Y-107950000D02*
X164719000Y-100965000D01*
%TO.N,Net-(U1-XTAL1{slash}PB0)*%
X159385000Y-91440000D02*
X159385000Y-95123000D01*
X159385000Y-95123000D02*
X159004000Y-95504000D01*
X159004000Y-95504000D02*
X159004000Y-102616000D01*
%TO.N,Net-(U1-PA7)*%
X159639000Y-96520000D02*
X159639000Y-99568000D01*
%TD*%
%TA.AperFunction,Conductor*%
%TO.N,GND*%
G36*
X164827847Y-56535002D02*
G01*
X164874340Y-56588658D01*
X164884444Y-56658932D01*
X164854950Y-56723512D01*
X164795224Y-56761896D01*
X164784308Y-56764579D01*
X164501365Y-56820860D01*
X164501355Y-56820862D01*
X164214879Y-56918108D01*
X164214865Y-56918114D01*
X163943526Y-57051923D01*
X163691964Y-57220011D01*
X163691960Y-57220014D01*
X163560184Y-57335578D01*
X163560184Y-57335580D01*
X164487486Y-58262882D01*
X164371469Y-58362480D01*
X164308816Y-58443420D01*
X163380580Y-57515184D01*
X163380578Y-57515184D01*
X163265014Y-57646960D01*
X163265011Y-57646964D01*
X163096923Y-57898526D01*
X162963114Y-58169865D01*
X162963108Y-58169879D01*
X162865862Y-58456355D01*
X162865860Y-58456365D01*
X162806837Y-58753088D01*
X162806835Y-58753103D01*
X162787048Y-59054996D01*
X162787048Y-59055003D01*
X162806835Y-59356896D01*
X162806837Y-59356911D01*
X162865860Y-59653634D01*
X162865862Y-59653644D01*
X162963108Y-59940120D01*
X162963114Y-59940134D01*
X163096923Y-60211473D01*
X163265009Y-60463033D01*
X163380580Y-60594814D01*
X164305140Y-59670254D01*
X164305146Y-59670263D01*
X164445268Y-59817671D01*
X164487522Y-59847080D01*
X163560184Y-60774418D01*
X163560184Y-60774419D01*
X163691974Y-60889995D01*
X163943526Y-61058076D01*
X164214865Y-61191885D01*
X164214879Y-61191891D01*
X164501355Y-61289137D01*
X164501365Y-61289139D01*
X164798088Y-61348162D01*
X164798103Y-61348164D01*
X165099997Y-61367952D01*
X165100003Y-61367952D01*
X165401896Y-61348164D01*
X165401911Y-61348162D01*
X165698634Y-61289139D01*
X165698644Y-61289137D01*
X165985120Y-61191891D01*
X165985134Y-61191885D01*
X166256473Y-61058076D01*
X166508036Y-60889987D01*
X166508041Y-60889984D01*
X166639814Y-60774420D01*
X166639814Y-60774418D01*
X165712513Y-59847117D01*
X165828531Y-59747520D01*
X165891183Y-59666579D01*
X166819418Y-60594814D01*
X166819420Y-60594814D01*
X166934984Y-60463041D01*
X166934987Y-60463036D01*
X167103076Y-60211473D01*
X167236885Y-59940134D01*
X167236891Y-59940120D01*
X167334137Y-59653644D01*
X167334139Y-59653634D01*
X167393162Y-59356911D01*
X167393164Y-59356896D01*
X167412952Y-59055003D01*
X167412952Y-59054996D01*
X167393164Y-58753103D01*
X167393162Y-58753088D01*
X167334139Y-58456365D01*
X167334137Y-58456355D01*
X167236891Y-58169879D01*
X167236885Y-58169865D01*
X167103076Y-57898526D01*
X166934995Y-57646974D01*
X166819418Y-57515184D01*
X165894858Y-58439744D01*
X165894854Y-58439737D01*
X165754732Y-58292329D01*
X165712476Y-58262918D01*
X166639814Y-57335580D01*
X166639814Y-57335579D01*
X166508033Y-57220009D01*
X166256473Y-57051923D01*
X165985134Y-56918114D01*
X165985120Y-56918108D01*
X165698644Y-56820862D01*
X165698634Y-56820860D01*
X165415692Y-56764579D01*
X165352783Y-56731671D01*
X165317651Y-56669976D01*
X165321451Y-56599082D01*
X165362977Y-56541496D01*
X165429044Y-56515501D01*
X165440274Y-56515000D01*
X177039000Y-56515000D01*
X177107121Y-56535002D01*
X177153614Y-56588658D01*
X177165000Y-56641000D01*
X177165000Y-127509000D01*
X177144998Y-127577121D01*
X177091342Y-127623614D01*
X177039000Y-127635000D01*
X153161000Y-127635000D01*
X153092879Y-127614998D01*
X153046386Y-127561342D01*
X153035000Y-127509000D01*
X153035000Y-125507150D01*
X154287131Y-125507150D01*
X154307762Y-125729797D01*
X154368949Y-125944846D01*
X154368952Y-125944854D01*
X154468619Y-126145013D01*
X154560139Y-126266204D01*
X155041787Y-125784556D01*
X155058931Y-125817643D01*
X155159013Y-125924805D01*
X155222277Y-125963276D01*
X154738718Y-126446835D01*
X154768607Y-126474084D01*
X154768613Y-126474088D01*
X154958701Y-126591785D01*
X154958711Y-126591790D01*
X155167209Y-126672563D01*
X155387004Y-126713650D01*
X155610596Y-126713650D01*
X155830390Y-126672563D01*
X156038888Y-126591790D01*
X156038893Y-126591788D01*
X156228993Y-126474083D01*
X156228998Y-126474079D01*
X156258881Y-126446835D01*
X155778924Y-125966878D01*
X155892293Y-125874647D01*
X155955854Y-125784600D01*
X156437458Y-126266204D01*
X156437459Y-126266204D01*
X156528982Y-126145009D01*
X156628647Y-125944854D01*
X156628650Y-125944846D01*
X156689837Y-125729797D01*
X156710468Y-125507153D01*
X161043589Y-125507153D01*
X161061987Y-125693963D01*
X161061987Y-125693965D01*
X161116482Y-125873609D01*
X161116484Y-125873615D01*
X161163097Y-125960821D01*
X161204976Y-126039170D01*
X161324067Y-126184283D01*
X161469180Y-126303374D01*
X161634738Y-126391867D01*
X161814379Y-126446361D01*
X161814383Y-126446361D01*
X161814385Y-126446362D01*
X162001197Y-126464761D01*
X162001200Y-126464761D01*
X162001203Y-126464761D01*
X162188013Y-126446362D01*
X162188015Y-126446362D01*
X162188016Y-126446361D01*
X162188021Y-126446361D01*
X162367662Y-126391867D01*
X162533220Y-126303374D01*
X162678333Y-126184283D01*
X162797424Y-126039170D01*
X162885917Y-125873612D01*
X162929482Y-125730000D01*
X171317710Y-125730000D01*
X171336835Y-125960812D01*
X171336837Y-125960821D01*
X171393688Y-126185319D01*
X171393691Y-126185326D01*
X171486722Y-126397415D01*
X171613395Y-126591304D01*
X171770248Y-126761692D01*
X171770253Y-126761696D01*
X171770255Y-126761698D01*
X171953019Y-126903949D01*
X171953020Y-126903950D01*
X172156707Y-127014180D01*
X172156709Y-127014181D01*
X172271716Y-127053662D01*
X172375758Y-127089380D01*
X172604200Y-127127500D01*
X172604204Y-127127500D01*
X172835796Y-127127500D01*
X172835800Y-127127500D01*
X173064242Y-127089380D01*
X173283293Y-127014180D01*
X173486980Y-126903950D01*
X173669745Y-126761698D01*
X173713977Y-126713650D01*
X173826604Y-126591304D01*
X173884517Y-126502661D01*
X173938520Y-126456573D01*
X174008868Y-126446997D01*
X174073225Y-126476974D01*
X174095483Y-126502661D01*
X174153395Y-126591304D01*
X174310248Y-126761692D01*
X174310253Y-126761696D01*
X174310255Y-126761698D01*
X174493019Y-126903949D01*
X174493020Y-126903950D01*
X174696707Y-127014180D01*
X174696709Y-127014181D01*
X174811716Y-127053662D01*
X174915758Y-127089380D01*
X175144200Y-127127500D01*
X175144204Y-127127500D01*
X175375796Y-127127500D01*
X175375800Y-127127500D01*
X175604242Y-127089380D01*
X175823293Y-127014180D01*
X176026980Y-126903950D01*
X176209745Y-126761698D01*
X176253977Y-126713650D01*
X176366604Y-126591304D01*
X176441299Y-126476974D01*
X176493277Y-126397416D01*
X176586310Y-126185323D01*
X176643165Y-125960809D01*
X176662290Y-125730000D01*
X176643165Y-125499191D01*
X176597872Y-125320336D01*
X176586311Y-125274680D01*
X176586308Y-125274673D01*
X176493277Y-125062584D01*
X176366604Y-124868695D01*
X176209751Y-124698307D01*
X176026980Y-124556050D01*
X176026979Y-124556049D01*
X175823292Y-124445819D01*
X175823290Y-124445818D01*
X175604246Y-124370621D01*
X175604239Y-124370619D01*
X175506470Y-124354305D01*
X175375800Y-124332500D01*
X175144200Y-124332500D01*
X175029877Y-124351576D01*
X174915760Y-124370619D01*
X174915753Y-124370621D01*
X174696709Y-124445818D01*
X174696707Y-124445819D01*
X174493020Y-124556049D01*
X174493019Y-124556050D01*
X174310248Y-124698307D01*
X174153395Y-124868695D01*
X174095483Y-124957338D01*
X174041480Y-125003427D01*
X173971132Y-125013002D01*
X173906774Y-124983025D01*
X173884517Y-124957338D01*
X173826604Y-124868695D01*
X173669751Y-124698307D01*
X173486980Y-124556050D01*
X173486979Y-124556049D01*
X173283292Y-124445819D01*
X173283290Y-124445818D01*
X173064246Y-124370621D01*
X173064239Y-124370619D01*
X172966470Y-124354305D01*
X172835800Y-124332500D01*
X172604200Y-124332500D01*
X172489877Y-124351576D01*
X172375760Y-124370619D01*
X172375753Y-124370621D01*
X172156709Y-124445818D01*
X172156707Y-124445819D01*
X171953020Y-124556049D01*
X171953019Y-124556050D01*
X171770248Y-124698307D01*
X171613395Y-124868695D01*
X171486722Y-125062584D01*
X171393691Y-125274673D01*
X171393688Y-125274680D01*
X171336837Y-125499178D01*
X171336835Y-125499187D01*
X171317710Y-125730000D01*
X162929482Y-125730000D01*
X162940411Y-125693971D01*
X162958811Y-125507150D01*
X162940412Y-125320336D01*
X162940412Y-125320334D01*
X162940411Y-125320331D01*
X162940411Y-125320329D01*
X162885917Y-125140688D01*
X162797424Y-124975130D01*
X162678333Y-124830017D01*
X162533220Y-124710926D01*
X162497597Y-124691885D01*
X162367665Y-124622434D01*
X162367659Y-124622432D01*
X162188014Y-124567937D01*
X162001203Y-124549539D01*
X162001197Y-124549539D01*
X161814386Y-124567937D01*
X161814384Y-124567937D01*
X161634740Y-124622432D01*
X161634734Y-124622434D01*
X161469179Y-124710926D01*
X161324067Y-124830017D01*
X161204976Y-124975129D01*
X161116484Y-125140684D01*
X161116482Y-125140690D01*
X161061987Y-125320334D01*
X161061987Y-125320336D01*
X161043589Y-125507146D01*
X161043589Y-125507153D01*
X156710468Y-125507153D01*
X156710468Y-125507150D01*
X156689837Y-125284502D01*
X156628650Y-125069453D01*
X156628647Y-125069445D01*
X156528980Y-124869286D01*
X156437459Y-124748094D01*
X155955811Y-125229741D01*
X155938669Y-125196657D01*
X155838587Y-125089495D01*
X155775321Y-125051022D01*
X156258880Y-124567463D01*
X156228992Y-124540215D01*
X156228986Y-124540211D01*
X156038898Y-124422514D01*
X156038888Y-124422509D01*
X155830390Y-124341736D01*
X155610596Y-124300650D01*
X155387004Y-124300650D01*
X155167209Y-124341736D01*
X154958711Y-124422509D01*
X154958701Y-124422514D01*
X154768614Y-124540210D01*
X154768606Y-124540217D01*
X154738717Y-124567463D01*
X155218675Y-125047421D01*
X155105307Y-125139653D01*
X155041745Y-125229699D01*
X154560140Y-124748094D01*
X154560138Y-124748094D01*
X154468620Y-124869284D01*
X154368952Y-125069445D01*
X154368949Y-125069453D01*
X154307762Y-125284502D01*
X154287131Y-125507150D01*
X153035000Y-125507150D01*
X153035000Y-122555003D01*
X164692048Y-122555003D01*
X164711835Y-122856896D01*
X164711837Y-122856911D01*
X164770860Y-123153634D01*
X164770862Y-123153644D01*
X164868108Y-123440120D01*
X164868114Y-123440134D01*
X165001923Y-123711473D01*
X165170009Y-123963033D01*
X165285580Y-124094814D01*
X166210140Y-123170254D01*
X166210146Y-123170263D01*
X166350268Y-123317671D01*
X166392522Y-123347080D01*
X165465184Y-124274418D01*
X165465184Y-124274419D01*
X165596974Y-124389995D01*
X165848526Y-124558076D01*
X166119865Y-124691885D01*
X166119879Y-124691891D01*
X166406355Y-124789137D01*
X166406365Y-124789139D01*
X166703088Y-124848162D01*
X166703103Y-124848164D01*
X167004997Y-124867952D01*
X167005003Y-124867952D01*
X167306896Y-124848164D01*
X167306911Y-124848162D01*
X167603634Y-124789139D01*
X167603644Y-124789137D01*
X167890120Y-124691891D01*
X167890134Y-124691885D01*
X168161473Y-124558076D01*
X168413036Y-124389987D01*
X168413041Y-124389984D01*
X168544814Y-124274420D01*
X168544814Y-124274418D01*
X167617513Y-123347117D01*
X167733531Y-123247520D01*
X167796183Y-123166579D01*
X168724418Y-124094814D01*
X168724420Y-124094814D01*
X168839984Y-123963041D01*
X168839987Y-123963036D01*
X169008076Y-123711473D01*
X169141885Y-123440134D01*
X169141891Y-123440120D01*
X169239137Y-123153644D01*
X169239139Y-123153634D01*
X169298162Y-122856911D01*
X169298164Y-122856896D01*
X169309628Y-122682000D01*
X171317710Y-122682000D01*
X171336835Y-122912812D01*
X171336837Y-122912821D01*
X171393688Y-123137319D01*
X171393691Y-123137326D01*
X171486722Y-123349415D01*
X171613395Y-123543304D01*
X171770248Y-123713692D01*
X171770253Y-123713696D01*
X171770255Y-123713698D01*
X171953019Y-123855949D01*
X171953020Y-123855950D01*
X172156707Y-123966180D01*
X172156709Y-123966181D01*
X172271716Y-124005662D01*
X172375758Y-124041380D01*
X172604200Y-124079500D01*
X172604204Y-124079500D01*
X172835796Y-124079500D01*
X172835800Y-124079500D01*
X173064242Y-124041380D01*
X173283293Y-123966180D01*
X173486980Y-123855950D01*
X173669745Y-123713698D01*
X173671794Y-123711473D01*
X173826604Y-123543304D01*
X173884517Y-123454661D01*
X173938520Y-123408573D01*
X174008868Y-123398997D01*
X174073225Y-123428974D01*
X174095483Y-123454661D01*
X174153395Y-123543304D01*
X174310248Y-123713692D01*
X174310253Y-123713696D01*
X174310255Y-123713698D01*
X174493019Y-123855949D01*
X174493020Y-123855950D01*
X174696707Y-123966180D01*
X174696709Y-123966181D01*
X174811716Y-124005662D01*
X174915758Y-124041380D01*
X175144200Y-124079500D01*
X175144204Y-124079500D01*
X175375796Y-124079500D01*
X175375800Y-124079500D01*
X175604242Y-124041380D01*
X175823293Y-123966180D01*
X176026980Y-123855950D01*
X176209745Y-123713698D01*
X176211794Y-123711473D01*
X176366604Y-123543304D01*
X176434017Y-123440120D01*
X176493277Y-123349416D01*
X176586310Y-123137323D01*
X176643165Y-122912809D01*
X176662290Y-122682000D01*
X176643165Y-122451191D01*
X176630908Y-122402791D01*
X176586311Y-122226680D01*
X176586308Y-122226673D01*
X176493277Y-122014584D01*
X176366604Y-121820695D01*
X176209751Y-121650307D01*
X176107111Y-121570419D01*
X176026980Y-121508050D01*
X176026979Y-121508049D01*
X175823292Y-121397819D01*
X175823290Y-121397818D01*
X175604246Y-121322621D01*
X175604239Y-121322619D01*
X175506470Y-121306305D01*
X175375800Y-121284500D01*
X175144200Y-121284500D01*
X175029877Y-121303576D01*
X174915760Y-121322619D01*
X174915753Y-121322621D01*
X174696709Y-121397818D01*
X174696707Y-121397819D01*
X174493020Y-121508049D01*
X174493019Y-121508050D01*
X174310248Y-121650307D01*
X174153395Y-121820695D01*
X174095483Y-121909338D01*
X174041480Y-121955427D01*
X173971132Y-121965002D01*
X173906774Y-121935025D01*
X173884517Y-121909338D01*
X173826604Y-121820695D01*
X173669751Y-121650307D01*
X173567111Y-121570419D01*
X173486980Y-121508050D01*
X173486979Y-121508049D01*
X173283292Y-121397819D01*
X173283290Y-121397818D01*
X173064246Y-121322621D01*
X173064239Y-121322619D01*
X172966470Y-121306305D01*
X172835800Y-121284500D01*
X172604200Y-121284500D01*
X172489877Y-121303576D01*
X172375760Y-121322619D01*
X172375753Y-121322621D01*
X172156709Y-121397818D01*
X172156707Y-121397819D01*
X171953020Y-121508049D01*
X171953019Y-121508050D01*
X171770248Y-121650307D01*
X171613395Y-121820695D01*
X171486722Y-122014584D01*
X171393691Y-122226673D01*
X171393688Y-122226680D01*
X171336837Y-122451178D01*
X171336835Y-122451187D01*
X171317710Y-122682000D01*
X169309628Y-122682000D01*
X169317952Y-122555003D01*
X169317952Y-122554996D01*
X169298164Y-122253103D01*
X169298162Y-122253088D01*
X169239139Y-121956365D01*
X169239137Y-121956355D01*
X169141891Y-121669879D01*
X169141885Y-121669865D01*
X169008076Y-121398526D01*
X168839995Y-121146974D01*
X168724418Y-121015184D01*
X167799858Y-121939744D01*
X167799854Y-121939737D01*
X167659732Y-121792329D01*
X167617476Y-121762918D01*
X168544814Y-120835580D01*
X168544814Y-120835579D01*
X168413033Y-120720009D01*
X168161473Y-120551923D01*
X167890134Y-120418114D01*
X167890120Y-120418108D01*
X167603644Y-120320862D01*
X167603634Y-120320860D01*
X167306911Y-120261837D01*
X167306896Y-120261835D01*
X167005003Y-120242048D01*
X167004997Y-120242048D01*
X166703103Y-120261835D01*
X166703088Y-120261837D01*
X166406365Y-120320860D01*
X166406355Y-120320862D01*
X166119879Y-120418108D01*
X166119865Y-120418114D01*
X165848526Y-120551923D01*
X165596964Y-120720011D01*
X165596960Y-120720014D01*
X165465184Y-120835578D01*
X165465184Y-120835580D01*
X166392487Y-121762882D01*
X166276469Y-121862480D01*
X166213816Y-121943420D01*
X165285580Y-121015184D01*
X165285578Y-121015184D01*
X165170014Y-121146960D01*
X165170011Y-121146964D01*
X165001923Y-121398526D01*
X164868114Y-121669865D01*
X164868108Y-121669879D01*
X164770862Y-121956355D01*
X164770860Y-121956365D01*
X164711837Y-122253088D01*
X164711835Y-122253103D01*
X164692048Y-122554996D01*
X164692048Y-122555003D01*
X153035000Y-122555003D01*
X153035000Y-121011353D01*
X154541189Y-121011353D01*
X154559587Y-121198163D01*
X154559587Y-121198165D01*
X154614082Y-121377809D01*
X154614084Y-121377815D01*
X154683696Y-121508049D01*
X154702576Y-121543370D01*
X154821667Y-121688483D01*
X154966780Y-121807574D01*
X155132338Y-121896067D01*
X155311979Y-121950561D01*
X155311983Y-121950561D01*
X155311985Y-121950562D01*
X155498797Y-121968961D01*
X155498800Y-121968961D01*
X155498803Y-121968961D01*
X155685613Y-121950562D01*
X155685615Y-121950562D01*
X155685616Y-121950561D01*
X155685621Y-121950561D01*
X155865262Y-121896067D01*
X156030820Y-121807574D01*
X156175933Y-121688483D01*
X156295024Y-121543370D01*
X156383517Y-121377812D01*
X156438011Y-121198171D01*
X156456411Y-121011353D01*
X161043589Y-121011353D01*
X161061987Y-121198163D01*
X161061987Y-121198165D01*
X161116482Y-121377809D01*
X161116484Y-121377815D01*
X161186096Y-121508049D01*
X161204976Y-121543370D01*
X161324067Y-121688483D01*
X161469180Y-121807574D01*
X161634738Y-121896067D01*
X161814379Y-121950561D01*
X161814383Y-121950561D01*
X161814385Y-121950562D01*
X162001197Y-121968961D01*
X162001200Y-121968961D01*
X162001203Y-121968961D01*
X162188013Y-121950562D01*
X162188015Y-121950562D01*
X162188016Y-121950561D01*
X162188021Y-121950561D01*
X162367662Y-121896067D01*
X162533220Y-121807574D01*
X162678333Y-121688483D01*
X162797424Y-121543370D01*
X162885917Y-121377812D01*
X162940411Y-121198171D01*
X162958811Y-121011350D01*
X162946645Y-120887831D01*
X162940412Y-120824536D01*
X162940412Y-120824534D01*
X162940411Y-120824531D01*
X162940411Y-120824529D01*
X162885917Y-120644888D01*
X162797424Y-120479330D01*
X162678333Y-120334217D01*
X162533220Y-120215126D01*
X162507664Y-120201466D01*
X162367665Y-120126634D01*
X162367659Y-120126632D01*
X162188014Y-120072137D01*
X162001203Y-120053739D01*
X162001197Y-120053739D01*
X161814386Y-120072137D01*
X161814384Y-120072137D01*
X161634740Y-120126632D01*
X161634734Y-120126634D01*
X161469179Y-120215126D01*
X161324067Y-120334217D01*
X161204976Y-120479329D01*
X161116484Y-120644884D01*
X161116482Y-120644890D01*
X161061987Y-120824534D01*
X161061987Y-120824536D01*
X161043589Y-121011346D01*
X161043589Y-121011353D01*
X156456411Y-121011353D01*
X156456411Y-121011350D01*
X156444245Y-120887831D01*
X156438012Y-120824536D01*
X156438011Y-120824533D01*
X156438011Y-120824529D01*
X156410388Y-120733473D01*
X156409755Y-120662480D01*
X156441866Y-120607804D01*
X157415667Y-119634003D01*
X171698582Y-119634003D01*
X171718206Y-119833261D01*
X171718206Y-119833263D01*
X171776332Y-120024877D01*
X171776334Y-120024883D01*
X171870720Y-120201466D01*
X171870722Y-120201469D01*
X171997748Y-120356252D01*
X172152531Y-120483278D01*
X172329120Y-120577667D01*
X172520731Y-120635792D01*
X172520735Y-120635792D01*
X172520737Y-120635793D01*
X172719997Y-120655418D01*
X172720000Y-120655418D01*
X172720003Y-120655418D01*
X172919261Y-120635793D01*
X172919263Y-120635793D01*
X172919264Y-120635792D01*
X172919269Y-120635792D01*
X173110880Y-120577667D01*
X173287469Y-120483278D01*
X173442252Y-120356252D01*
X173569278Y-120201469D01*
X173663667Y-120024880D01*
X173721792Y-119833269D01*
X173737677Y-119671977D01*
X173752978Y-119634085D01*
X173973165Y-119634085D01*
X173986863Y-119660849D01*
X173988590Y-119673346D01*
X174004515Y-119855365D01*
X174004516Y-119855371D01*
X174062031Y-120070023D01*
X174062033Y-120070027D01*
X174155946Y-120271424D01*
X174155947Y-120271426D01*
X174274151Y-120440240D01*
X174274154Y-120440240D01*
X174897219Y-119817175D01*
X174927117Y-119875854D01*
X175018146Y-119966883D01*
X175076823Y-119996780D01*
X174453758Y-120619845D01*
X174622575Y-120738053D01*
X174622574Y-120738053D01*
X174823972Y-120831966D01*
X174823976Y-120831968D01*
X175038625Y-120889482D01*
X175260000Y-120908850D01*
X175481374Y-120889482D01*
X175696023Y-120831968D01*
X175696027Y-120831966D01*
X175897425Y-120738053D01*
X176066240Y-120619846D01*
X176066240Y-120619844D01*
X175443176Y-119996780D01*
X175501854Y-119966883D01*
X175592883Y-119875854D01*
X175622780Y-119817175D01*
X176245844Y-120440240D01*
X176245846Y-120440240D01*
X176364053Y-120271425D01*
X176457966Y-120070027D01*
X176457968Y-120070023D01*
X176515482Y-119855374D01*
X176534850Y-119633999D01*
X176515482Y-119412625D01*
X176457968Y-119197976D01*
X176457966Y-119197972D01*
X176364052Y-118996574D01*
X176245846Y-118827758D01*
X176245845Y-118827758D01*
X175622780Y-119450823D01*
X175592883Y-119392146D01*
X175501854Y-119301117D01*
X175443174Y-119271218D01*
X176066240Y-118648153D01*
X176066240Y-118648151D01*
X175897426Y-118529947D01*
X175897424Y-118529946D01*
X175696027Y-118436033D01*
X175696023Y-118436031D01*
X175481374Y-118378517D01*
X175260000Y-118359149D01*
X175038625Y-118378517D01*
X174823976Y-118436031D01*
X174823972Y-118436033D01*
X174622571Y-118529948D01*
X174453758Y-118648151D01*
X174453758Y-118648152D01*
X175076824Y-119271219D01*
X175018146Y-119301117D01*
X174927117Y-119392146D01*
X174897219Y-119450824D01*
X174274153Y-118827758D01*
X174274151Y-118827758D01*
X174155948Y-118996571D01*
X174062033Y-119197972D01*
X174062031Y-119197976D01*
X174004516Y-119412628D01*
X174004515Y-119412634D01*
X173988590Y-119594653D01*
X173973165Y-119634085D01*
X173752978Y-119634085D01*
X173752983Y-119634072D01*
X173739540Y-119608497D01*
X173737677Y-119596020D01*
X173737542Y-119594653D01*
X173721793Y-119434738D01*
X173721793Y-119434736D01*
X173721792Y-119434733D01*
X173721792Y-119434731D01*
X173663667Y-119243120D01*
X173569278Y-119066531D01*
X173442252Y-118911748D01*
X173287469Y-118784722D01*
X173287467Y-118784721D01*
X173287466Y-118784720D01*
X173110883Y-118690334D01*
X173110877Y-118690332D01*
X172971829Y-118648152D01*
X172919269Y-118632208D01*
X172919268Y-118632207D01*
X172919262Y-118632206D01*
X172720003Y-118612582D01*
X172719997Y-118612582D01*
X172520738Y-118632206D01*
X172520736Y-118632206D01*
X172329122Y-118690332D01*
X172329116Y-118690334D01*
X172152533Y-118784720D01*
X171997748Y-118911748D01*
X171870720Y-119066533D01*
X171776334Y-119243116D01*
X171776332Y-119243122D01*
X171718206Y-119434736D01*
X171718206Y-119434738D01*
X171698582Y-119633996D01*
X171698582Y-119634003D01*
X157415667Y-119634003D01*
X160252542Y-116797128D01*
X160272718Y-116780744D01*
X160281956Y-116774710D01*
X160304114Y-116746239D01*
X160309282Y-116740388D01*
X160312113Y-116737559D01*
X160325891Y-116718260D01*
X160360158Y-116674235D01*
X160360158Y-116674232D01*
X160363957Y-116667214D01*
X160367471Y-116660024D01*
X160367475Y-116660020D01*
X160370025Y-116651450D01*
X160383391Y-116606560D01*
X160401499Y-116553814D01*
X160402819Y-116545899D01*
X160403805Y-116537993D01*
X160401500Y-116482266D01*
X160401500Y-104777221D01*
X160421502Y-104709100D01*
X160432273Y-104694711D01*
X160452176Y-104671743D01*
X160512919Y-104538734D01*
X160523429Y-104465631D01*
X160552921Y-104401053D01*
X160559037Y-104394483D01*
X161522542Y-103430978D01*
X161542718Y-103414594D01*
X161551956Y-103408560D01*
X161574114Y-103380089D01*
X161579282Y-103374238D01*
X161582113Y-103371409D01*
X161595891Y-103352110D01*
X161630158Y-103308085D01*
X161630158Y-103308082D01*
X161633957Y-103301064D01*
X161637471Y-103293874D01*
X161637475Y-103293870D01*
X161640026Y-103285300D01*
X161653391Y-103240410D01*
X161671499Y-103187664D01*
X161672819Y-103179749D01*
X161673805Y-103171843D01*
X161671500Y-103116116D01*
X161671500Y-99062221D01*
X161691502Y-98994100D01*
X161702273Y-98979711D01*
X161722176Y-98956743D01*
X161782919Y-98823734D01*
X161803729Y-98679000D01*
X161803729Y-98678996D01*
X161782920Y-98534272D01*
X161782919Y-98534271D01*
X161782919Y-98534266D01*
X161722176Y-98401257D01*
X161626421Y-98290750D01*
X161626420Y-98290749D01*
X161564916Y-98251223D01*
X161503411Y-98211696D01*
X161468336Y-98201396D01*
X161363114Y-98170500D01*
X161363111Y-98170500D01*
X161216889Y-98170500D01*
X161216885Y-98170500D01*
X161076589Y-98211696D01*
X161076587Y-98211697D01*
X160953579Y-98290749D01*
X160857824Y-98401256D01*
X160797081Y-98534265D01*
X160797079Y-98534272D01*
X160776271Y-98678996D01*
X160776271Y-98679003D01*
X160797079Y-98823727D01*
X160797081Y-98823734D01*
X160857824Y-98956743D01*
X160877723Y-98979708D01*
X160907217Y-99044287D01*
X160908500Y-99062221D01*
X160908500Y-102913786D01*
X160888498Y-102981907D01*
X160871595Y-103002881D01*
X160025698Y-103848778D01*
X159963386Y-103882804D01*
X159954536Y-103884400D01*
X159946892Y-103885499D01*
X159806589Y-103926696D01*
X159806587Y-103926697D01*
X159683579Y-104005749D01*
X159587824Y-104116256D01*
X159527081Y-104249265D01*
X159527079Y-104249272D01*
X159506271Y-104393996D01*
X159506271Y-104394003D01*
X159527079Y-104538727D01*
X159527081Y-104538734D01*
X159587824Y-104671743D01*
X159607723Y-104694708D01*
X159637217Y-104759287D01*
X159638500Y-104777221D01*
X159638500Y-116279936D01*
X159618498Y-116348057D01*
X159601595Y-116369031D01*
X155902345Y-120068280D01*
X155840033Y-120102306D01*
X155776676Y-120099760D01*
X155685621Y-120072139D01*
X155685620Y-120072138D01*
X155685614Y-120072137D01*
X155498803Y-120053739D01*
X155498797Y-120053739D01*
X155311986Y-120072137D01*
X155311984Y-120072137D01*
X155132340Y-120126632D01*
X155132334Y-120126634D01*
X154966779Y-120215126D01*
X154821667Y-120334217D01*
X154702576Y-120479329D01*
X154614084Y-120644884D01*
X154614082Y-120644890D01*
X154559587Y-120824534D01*
X154559587Y-120824536D01*
X154541189Y-121011346D01*
X154541189Y-121011353D01*
X153035000Y-121011353D01*
X153035000Y-109933998D01*
X153055002Y-109865877D01*
X153108658Y-109819384D01*
X153117527Y-109816076D01*
X153121401Y-109814306D01*
X153121411Y-109814304D01*
X153244421Y-109735250D01*
X153340176Y-109624743D01*
X153400919Y-109491734D01*
X153421729Y-109347000D01*
X153421729Y-109346996D01*
X153400920Y-109202272D01*
X153400919Y-109202271D01*
X153400919Y-109202266D01*
X153340176Y-109069257D01*
X153320273Y-109046288D01*
X153290782Y-108981708D01*
X153289500Y-108963778D01*
X153289500Y-105144849D01*
X153309502Y-105076728D01*
X153363158Y-105030235D01*
X153433432Y-105020131D01*
X153450991Y-105023951D01*
X153469889Y-105029500D01*
X153469892Y-105029500D01*
X153616108Y-105029500D01*
X153616111Y-105029500D01*
X153756411Y-104988304D01*
X153879421Y-104909250D01*
X153975176Y-104798743D01*
X154035919Y-104665734D01*
X154036227Y-104663589D01*
X154056729Y-104521003D01*
X154056729Y-104520996D01*
X154035920Y-104376272D01*
X154035919Y-104376271D01*
X154035919Y-104376266D01*
X153975176Y-104243257D01*
X153955273Y-104220288D01*
X153925782Y-104155708D01*
X153924500Y-104137778D01*
X153924500Y-104095212D01*
X153944502Y-104027091D01*
X153998158Y-103980598D01*
X154068432Y-103970494D01*
X154133012Y-103999988D01*
X154139595Y-104006117D01*
X154394595Y-104261117D01*
X154428621Y-104323429D01*
X154431500Y-104350212D01*
X154431500Y-115390366D01*
X154428818Y-115416223D01*
X154426554Y-115427016D01*
X154429110Y-115447518D01*
X154431016Y-115462809D01*
X154431500Y-115470600D01*
X154431500Y-115474613D01*
X154432837Y-115482627D01*
X154433273Y-115521292D01*
X154426271Y-115570000D01*
X154426271Y-115570003D01*
X154447079Y-115714727D01*
X154447081Y-115714734D01*
X154507824Y-115847743D01*
X154603579Y-115958250D01*
X154726589Y-116037304D01*
X154846039Y-116072378D01*
X154866885Y-116078499D01*
X154866886Y-116078499D01*
X154866889Y-116078500D01*
X154866892Y-116078500D01*
X155013108Y-116078500D01*
X155013111Y-116078500D01*
X155153411Y-116037304D01*
X155276421Y-115958250D01*
X155372176Y-115847743D01*
X155432919Y-115714734D01*
X155453729Y-115570000D01*
X155453729Y-115569996D01*
X155432920Y-115425272D01*
X155432919Y-115425271D01*
X155432919Y-115425266D01*
X155372176Y-115292257D01*
X155357423Y-115275231D01*
X155276420Y-115181748D01*
X155276417Y-115181746D01*
X155252377Y-115166296D01*
X155205885Y-115112639D01*
X155194500Y-115060300D01*
X155194500Y-104192634D01*
X155197182Y-104166774D01*
X155199445Y-104155984D01*
X155194983Y-104120190D01*
X155194500Y-104112400D01*
X155194500Y-104108394D01*
X155194500Y-104108389D01*
X155190595Y-104084993D01*
X155183696Y-104029640D01*
X155183694Y-104029635D01*
X155181414Y-104021975D01*
X155178819Y-104014415D01*
X155152276Y-103965368D01*
X155127776Y-103915252D01*
X155123147Y-103908768D01*
X155118220Y-103902438D01*
X155077192Y-103864669D01*
X154596405Y-103383881D01*
X154562379Y-103321569D01*
X154559500Y-103294786D01*
X154559500Y-100965003D01*
X157855271Y-100965003D01*
X157876079Y-101109727D01*
X157876081Y-101109734D01*
X157936824Y-101242743D01*
X158032579Y-101353250D01*
X158155589Y-101432304D01*
X158275039Y-101467378D01*
X158295885Y-101473499D01*
X158295886Y-101473499D01*
X158295889Y-101473500D01*
X158295892Y-101473500D01*
X158442108Y-101473500D01*
X158442111Y-101473500D01*
X158461002Y-101467952D01*
X158531997Y-101467952D01*
X158591723Y-101506335D01*
X158621217Y-101570916D01*
X158622500Y-101588849D01*
X158622500Y-102232778D01*
X158602498Y-102300899D01*
X158591726Y-102315289D01*
X158571824Y-102338257D01*
X158511081Y-102471266D01*
X158511079Y-102471272D01*
X158490271Y-102615996D01*
X158490271Y-102616003D01*
X158511079Y-102760727D01*
X158511081Y-102760734D01*
X158571824Y-102893743D01*
X158667579Y-103004250D01*
X158790589Y-103083304D01*
X158902336Y-103116116D01*
X158930885Y-103124499D01*
X158930886Y-103124499D01*
X158930889Y-103124500D01*
X158930892Y-103124500D01*
X159077108Y-103124500D01*
X159077111Y-103124500D01*
X159217411Y-103083304D01*
X159340421Y-103004250D01*
X159436176Y-102893743D01*
X159496919Y-102760734D01*
X159517729Y-102616000D01*
X159517729Y-102615996D01*
X159496920Y-102471272D01*
X159496919Y-102471271D01*
X159496919Y-102471266D01*
X159436176Y-102338257D01*
X159416273Y-102315288D01*
X159386782Y-102250708D01*
X159385500Y-102232778D01*
X159385500Y-100191849D01*
X159405502Y-100123728D01*
X159459158Y-100077235D01*
X159529432Y-100067131D01*
X159546991Y-100070951D01*
X159565889Y-100076500D01*
X159565892Y-100076500D01*
X159712108Y-100076500D01*
X159712111Y-100076500D01*
X159852411Y-100035304D01*
X159975421Y-99956250D01*
X160071176Y-99845743D01*
X160131919Y-99712734D01*
X160152729Y-99568000D01*
X160152729Y-99567996D01*
X160131920Y-99423272D01*
X160131919Y-99423271D01*
X160131919Y-99423266D01*
X160071176Y-99290257D01*
X160051273Y-99267288D01*
X160021782Y-99202708D01*
X160020500Y-99184778D01*
X160020500Y-96903221D01*
X160040502Y-96835100D01*
X160051273Y-96820711D01*
X160071176Y-96797743D01*
X160131919Y-96664734D01*
X160152729Y-96520000D01*
X160152729Y-96519996D01*
X160131920Y-96375272D01*
X160131919Y-96375271D01*
X160131919Y-96375266D01*
X160071176Y-96242257D01*
X159975421Y-96131750D01*
X159975420Y-96131749D01*
X159892499Y-96078459D01*
X159852411Y-96052696D01*
X159817336Y-96042396D01*
X159712114Y-96011500D01*
X159712111Y-96011500D01*
X159565889Y-96011500D01*
X159565886Y-96011500D01*
X159565885Y-96011501D01*
X159546996Y-96017047D01*
X159475999Y-96017045D01*
X159416274Y-95978661D01*
X159386782Y-95914079D01*
X159385500Y-95896150D01*
X159385500Y-95714211D01*
X159405502Y-95646090D01*
X159422399Y-95625121D01*
X159617546Y-95429974D01*
X159637718Y-95413594D01*
X159646956Y-95407560D01*
X159669114Y-95379089D01*
X159674282Y-95373238D01*
X159677113Y-95370409D01*
X159690891Y-95351110D01*
X159725158Y-95307085D01*
X159725158Y-95307082D01*
X159728957Y-95300064D01*
X159732471Y-95292874D01*
X159732475Y-95292870D01*
X159735025Y-95284300D01*
X159748391Y-95239410D01*
X159766499Y-95186664D01*
X159767819Y-95178749D01*
X159768805Y-95170843D01*
X159766500Y-95115116D01*
X159766500Y-91823221D01*
X159786502Y-91755100D01*
X159797273Y-91740711D01*
X159817176Y-91717743D01*
X159877919Y-91584734D01*
X159884169Y-91541263D01*
X159898729Y-91440003D01*
X159898729Y-91439996D01*
X159877920Y-91295272D01*
X159877919Y-91295271D01*
X159877919Y-91295266D01*
X159849961Y-91234047D01*
X162251539Y-91234047D01*
X162272347Y-91378771D01*
X162272349Y-91378778D01*
X162333092Y-91511787D01*
X162428847Y-91622294D01*
X162551857Y-91701348D01*
X162671307Y-91736422D01*
X162692153Y-91742543D01*
X162692154Y-91742543D01*
X162692157Y-91742544D01*
X162692160Y-91742544D01*
X162838376Y-91742544D01*
X162838379Y-91742544D01*
X162978679Y-91701348D01*
X163101689Y-91622294D01*
X163197444Y-91511787D01*
X163207886Y-91488921D01*
X163254378Y-91435266D01*
X163322498Y-91415263D01*
X163390619Y-91435264D01*
X163437113Y-91488919D01*
X163448500Y-91541263D01*
X163448500Y-96136778D01*
X163428498Y-96204899D01*
X163417726Y-96219289D01*
X163397824Y-96242257D01*
X163337081Y-96375266D01*
X163337079Y-96375272D01*
X163316271Y-96519996D01*
X163316271Y-96520003D01*
X163337079Y-96664727D01*
X163337081Y-96664734D01*
X163397824Y-96797743D01*
X163417723Y-96820708D01*
X163447217Y-96885287D01*
X163448500Y-96903221D01*
X163448500Y-102994778D01*
X163428498Y-103062899D01*
X163417728Y-103077285D01*
X163412515Y-103083303D01*
X163397824Y-103100257D01*
X163337081Y-103233266D01*
X163337079Y-103233272D01*
X163316271Y-103377996D01*
X163316271Y-103378003D01*
X163337079Y-103522727D01*
X163337081Y-103522734D01*
X163397824Y-103655743D01*
X163493579Y-103766250D01*
X163616589Y-103845304D01*
X163736039Y-103880378D01*
X163756885Y-103886499D01*
X163756886Y-103886499D01*
X163756889Y-103886500D01*
X163756892Y-103886500D01*
X163903108Y-103886500D01*
X163903111Y-103886500D01*
X164043411Y-103845304D01*
X164143379Y-103781057D01*
X164211500Y-103761056D01*
X164279620Y-103781058D01*
X164326113Y-103834713D01*
X164337500Y-103887056D01*
X164337500Y-107566778D01*
X164317498Y-107634899D01*
X164306726Y-107649289D01*
X164286824Y-107672257D01*
X164226081Y-107805266D01*
X164226079Y-107805272D01*
X164205271Y-107949996D01*
X164205271Y-107950003D01*
X164226079Y-108094727D01*
X164226081Y-108094734D01*
X164286824Y-108227743D01*
X164382579Y-108338250D01*
X164505589Y-108417304D01*
X164625039Y-108452378D01*
X164645885Y-108458499D01*
X164645886Y-108458499D01*
X164645889Y-108458500D01*
X164645892Y-108458500D01*
X164792108Y-108458500D01*
X164792111Y-108458500D01*
X164932411Y-108417304D01*
X165055421Y-108338250D01*
X165151176Y-108227743D01*
X165211919Y-108094734D01*
X165232729Y-107950000D01*
X165232729Y-107949996D01*
X165211920Y-107805272D01*
X165211919Y-107805271D01*
X165211919Y-107805266D01*
X165151176Y-107672257D01*
X165131273Y-107649288D01*
X165101782Y-107584708D01*
X165100500Y-107566778D01*
X165100500Y-101348221D01*
X165120502Y-101280100D01*
X165131273Y-101265711D01*
X165151176Y-101242743D01*
X165211919Y-101109734D01*
X165232729Y-100965000D01*
X165232729Y-100964996D01*
X165211920Y-100820272D01*
X165211919Y-100820271D01*
X165211919Y-100820266D01*
X165151176Y-100687257D01*
X165055421Y-100576750D01*
X165055420Y-100576749D01*
X164993916Y-100537223D01*
X164932411Y-100497696D01*
X164897336Y-100487396D01*
X164792114Y-100456500D01*
X164792111Y-100456500D01*
X164645889Y-100456500D01*
X164645885Y-100456500D01*
X164505589Y-100497696D01*
X164505583Y-100497698D01*
X164405620Y-100561941D01*
X164337500Y-100581943D01*
X164269379Y-100561941D01*
X164222886Y-100508285D01*
X164211500Y-100455943D01*
X164211500Y-96903221D01*
X164231502Y-96835100D01*
X164242273Y-96820711D01*
X164262176Y-96797743D01*
X164322919Y-96664734D01*
X164343729Y-96520000D01*
X164343729Y-96519996D01*
X164322920Y-96375272D01*
X164322919Y-96375271D01*
X164322919Y-96375266D01*
X164262176Y-96242257D01*
X164242273Y-96219288D01*
X164212782Y-96154708D01*
X164211500Y-96136778D01*
X164211500Y-94566558D01*
X164231502Y-94498437D01*
X164285158Y-94451944D01*
X164355432Y-94441840D01*
X164372999Y-94445662D01*
X164378587Y-94447302D01*
X164378589Y-94447304D01*
X164486834Y-94479087D01*
X164518885Y-94488499D01*
X164518886Y-94488499D01*
X164518889Y-94488500D01*
X164518892Y-94488500D01*
X164665108Y-94488500D01*
X164665111Y-94488500D01*
X164805411Y-94447304D01*
X164928421Y-94368250D01*
X165024176Y-94257743D01*
X165084919Y-94124734D01*
X165095429Y-94051631D01*
X165124921Y-93987053D01*
X165131037Y-93980483D01*
X165180142Y-93931378D01*
X165200318Y-93914994D01*
X165209556Y-93908960D01*
X165231714Y-93880489D01*
X165236882Y-93874638D01*
X165239713Y-93871809D01*
X165253491Y-93852510D01*
X165287758Y-93808485D01*
X165287758Y-93808482D01*
X165291557Y-93801464D01*
X165295071Y-93794274D01*
X165295075Y-93794270D01*
X165297626Y-93785700D01*
X165310991Y-93740810D01*
X165329099Y-93688064D01*
X165330419Y-93680149D01*
X165331405Y-93672243D01*
X165329100Y-93616516D01*
X165329100Y-87974246D01*
X165331782Y-87948386D01*
X165334045Y-87937596D01*
X165329583Y-87901802D01*
X165329100Y-87894012D01*
X165329100Y-87890006D01*
X165329100Y-87890002D01*
X165327761Y-87881983D01*
X165327326Y-87843317D01*
X165334329Y-87794613D01*
X165334329Y-87794612D01*
X165334329Y-87794609D01*
X165313520Y-87649885D01*
X165313519Y-87649884D01*
X165313519Y-87649879D01*
X165252776Y-87516870D01*
X165157021Y-87406363D01*
X165157020Y-87406362D01*
X165095516Y-87366836D01*
X165034011Y-87327309D01*
X164997897Y-87316705D01*
X164893714Y-87286113D01*
X164893711Y-87286113D01*
X164769300Y-87286113D01*
X164701179Y-87266111D01*
X164654686Y-87212455D01*
X164643300Y-87160113D01*
X164643300Y-82590933D01*
X164663302Y-82522812D01*
X164701179Y-82484935D01*
X164725221Y-82469485D01*
X164820976Y-82358978D01*
X164881719Y-82225969D01*
X164902529Y-82081235D01*
X164902529Y-82081231D01*
X164881720Y-81936507D01*
X164881719Y-81936506D01*
X164881719Y-81936501D01*
X164820976Y-81803492D01*
X164725221Y-81692985D01*
X164725220Y-81692984D01*
X164663715Y-81653458D01*
X164602211Y-81613931D01*
X164566097Y-81603327D01*
X164461914Y-81572735D01*
X164461911Y-81572735D01*
X164337500Y-81572735D01*
X164269379Y-81552733D01*
X164222886Y-81499077D01*
X164211500Y-81446735D01*
X164211500Y-74804698D01*
X164231502Y-74736577D01*
X164269379Y-74698700D01*
X164293421Y-74683250D01*
X164389176Y-74572743D01*
X164449919Y-74439734D01*
X164459347Y-74374160D01*
X164470729Y-74295003D01*
X164470729Y-74294996D01*
X164449920Y-74150272D01*
X164449919Y-74150271D01*
X164449919Y-74150266D01*
X164389176Y-74017257D01*
X164293421Y-73906750D01*
X164293420Y-73906749D01*
X164231916Y-73867222D01*
X164170411Y-73827696D01*
X164135336Y-73817396D01*
X164030114Y-73786500D01*
X164030111Y-73786500D01*
X163883889Y-73786500D01*
X163883885Y-73786500D01*
X163743589Y-73827696D01*
X163743587Y-73827697D01*
X163620579Y-73906749D01*
X163524824Y-74017256D01*
X163464081Y-74150265D01*
X163464079Y-74150272D01*
X163443271Y-74294996D01*
X163443271Y-74295000D01*
X163447798Y-74326491D01*
X163447559Y-74347900D01*
X163448500Y-74347900D01*
X163448500Y-74348060D01*
X163447478Y-74355094D01*
X163447381Y-74363788D01*
X163447486Y-74363802D01*
X163447370Y-74364728D01*
X163447366Y-74365134D01*
X163447183Y-74366230D01*
X163446194Y-74374160D01*
X163448500Y-74429884D01*
X163448500Y-77087930D01*
X163428498Y-77156051D01*
X163374842Y-77202544D01*
X163304568Y-77212648D01*
X163239988Y-77183154D01*
X163227276Y-77170443D01*
X163150420Y-77081747D01*
X163088915Y-77042220D01*
X163027411Y-77002694D01*
X162992336Y-76992395D01*
X162887114Y-76961498D01*
X162887111Y-76961498D01*
X162740889Y-76961498D01*
X162740885Y-76961498D01*
X162600589Y-77002694D01*
X162600587Y-77002695D01*
X162477579Y-77081747D01*
X162381824Y-77192254D01*
X162321081Y-77325263D01*
X162321079Y-77325270D01*
X162300271Y-77469994D01*
X162300271Y-77470001D01*
X162321079Y-77614725D01*
X162321080Y-77614730D01*
X162321081Y-77614732D01*
X162370314Y-77722538D01*
X162381700Y-77774878D01*
X162381700Y-90853208D01*
X162361698Y-90921329D01*
X162350925Y-90935720D01*
X162333093Y-90956299D01*
X162333092Y-90956300D01*
X162333092Y-90956301D01*
X162289502Y-91051750D01*
X162272349Y-91089310D01*
X162272347Y-91089316D01*
X162251539Y-91234040D01*
X162251539Y-91234047D01*
X159849961Y-91234047D01*
X159817176Y-91162257D01*
X159721421Y-91051750D01*
X159721420Y-91051749D01*
X159659916Y-91012223D01*
X159598411Y-90972696D01*
X159563336Y-90962396D01*
X159458114Y-90931500D01*
X159458111Y-90931500D01*
X159311889Y-90931500D01*
X159311885Y-90931500D01*
X159171589Y-90972696D01*
X159171587Y-90972697D01*
X159048579Y-91051749D01*
X158952824Y-91162256D01*
X158892081Y-91295265D01*
X158892079Y-91295272D01*
X158871271Y-91439996D01*
X158871271Y-91440003D01*
X158892079Y-91584727D01*
X158892081Y-91584734D01*
X158952824Y-91717743D01*
X158972723Y-91740708D01*
X159002217Y-91805287D01*
X159003500Y-91823221D01*
X159003500Y-92327932D01*
X158983498Y-92396053D01*
X158929842Y-92442546D01*
X158859568Y-92452650D01*
X158794988Y-92423156D01*
X158782276Y-92410445D01*
X158705420Y-92321749D01*
X158643916Y-92282223D01*
X158582411Y-92242696D01*
X158547336Y-92232396D01*
X158442114Y-92201500D01*
X158442111Y-92201500D01*
X158295889Y-92201500D01*
X158295885Y-92201500D01*
X158155589Y-92242696D01*
X158155587Y-92242697D01*
X158032579Y-92321749D01*
X157936824Y-92432256D01*
X157876081Y-92565265D01*
X157876079Y-92565272D01*
X157855271Y-92709996D01*
X157855271Y-92710003D01*
X157876079Y-92854727D01*
X157876081Y-92854734D01*
X157936824Y-92987743D01*
X157956723Y-93010708D01*
X157986217Y-93075287D01*
X157987500Y-93093221D01*
X157987500Y-100581778D01*
X157967498Y-100649899D01*
X157956726Y-100664289D01*
X157936824Y-100687257D01*
X157876081Y-100820266D01*
X157876079Y-100820272D01*
X157855271Y-100964996D01*
X157855271Y-100965003D01*
X154559500Y-100965003D01*
X154559500Y-95633221D01*
X154579502Y-95565100D01*
X154590273Y-95550711D01*
X154610176Y-95527743D01*
X154670919Y-95394734D01*
X154673611Y-95376009D01*
X154691729Y-95250003D01*
X154691729Y-95249996D01*
X154670920Y-95105272D01*
X154670919Y-95105271D01*
X154670919Y-95105266D01*
X154610176Y-94972257D01*
X154514421Y-94861750D01*
X154514420Y-94861749D01*
X154431499Y-94808459D01*
X154391411Y-94782696D01*
X154356336Y-94772396D01*
X154251114Y-94741500D01*
X154251111Y-94741500D01*
X154104889Y-94741500D01*
X154104886Y-94741500D01*
X154104885Y-94741501D01*
X154085996Y-94747047D01*
X154014999Y-94747045D01*
X153955274Y-94708661D01*
X153925782Y-94644079D01*
X153924500Y-94626150D01*
X153924500Y-94363221D01*
X153944502Y-94295100D01*
X153955273Y-94280711D01*
X153975176Y-94257743D01*
X154035919Y-94124734D01*
X154036227Y-94122589D01*
X154056729Y-93980003D01*
X154056729Y-93979996D01*
X154035920Y-93835272D01*
X154035919Y-93835271D01*
X154035919Y-93835266D01*
X153975176Y-93702257D01*
X153955273Y-93679288D01*
X153925782Y-93614708D01*
X153924500Y-93596778D01*
X153924500Y-71249221D01*
X153944502Y-71181100D01*
X153955273Y-71166711D01*
X153975176Y-71143743D01*
X154035919Y-71010734D01*
X154056729Y-70866000D01*
X154056729Y-70865996D01*
X154035920Y-70721272D01*
X154035919Y-70721271D01*
X154035919Y-70721266D01*
X153975176Y-70588257D01*
X153879421Y-70477750D01*
X153879420Y-70477749D01*
X153797000Y-70424781D01*
X153756411Y-70398696D01*
X153721336Y-70388396D01*
X153616114Y-70357500D01*
X153616111Y-70357500D01*
X153469889Y-70357500D01*
X153469887Y-70357500D01*
X153450497Y-70363194D01*
X153379500Y-70363193D01*
X153319774Y-70324808D01*
X153290282Y-70260227D01*
X153289000Y-70242297D01*
X153289000Y-69907713D01*
X153309002Y-69839592D01*
X153325905Y-69818618D01*
X153664302Y-69480221D01*
X153726614Y-69446195D01*
X153735471Y-69444598D01*
X153743104Y-69443500D01*
X153743111Y-69443500D01*
X153883411Y-69402304D01*
X154006421Y-69323250D01*
X154102176Y-69212743D01*
X154162919Y-69079734D01*
X154183729Y-68935000D01*
X154183729Y-68934996D01*
X154162920Y-68790272D01*
X154162919Y-68790271D01*
X154162919Y-68790266D01*
X154102176Y-68657257D01*
X154006421Y-68546750D01*
X154006420Y-68546749D01*
X153944915Y-68507223D01*
X153883411Y-68467696D01*
X153848336Y-68457397D01*
X153743114Y-68426500D01*
X153743111Y-68426500D01*
X153596889Y-68426500D01*
X153596885Y-68426500D01*
X153456589Y-68467696D01*
X153456587Y-68467697D01*
X153333579Y-68546749D01*
X153256224Y-68636022D01*
X153196498Y-68674405D01*
X153125501Y-68674405D01*
X153065775Y-68636021D01*
X153036282Y-68571440D01*
X153035000Y-68553509D01*
X153035000Y-65350000D01*
X154757174Y-65350000D01*
X154776444Y-65582549D01*
X154833724Y-65808743D01*
X154833726Y-65808747D01*
X154927456Y-66022430D01*
X155055079Y-66217772D01*
X155087453Y-66252940D01*
X155087454Y-66252941D01*
X155772213Y-65568181D01*
X155775887Y-65577541D01*
X155860465Y-65683599D01*
X155952949Y-65746654D01*
X155267683Y-66431919D01*
X155267683Y-66431920D01*
X155397254Y-66532768D01*
X155602474Y-66643827D01*
X155602477Y-66643829D01*
X155823167Y-66719592D01*
X155823176Y-66719594D01*
X156053334Y-66758000D01*
X156286666Y-66758000D01*
X156516823Y-66719594D01*
X156516832Y-66719592D01*
X156737522Y-66643829D01*
X156737525Y-66643827D01*
X156942741Y-66532771D01*
X156942750Y-66532765D01*
X157072314Y-66431920D01*
X157072315Y-66431919D01*
X156385890Y-65745494D01*
X156426357Y-65726007D01*
X156525798Y-65633740D01*
X156565162Y-65565558D01*
X157252544Y-66252941D01*
X157252547Y-66252940D01*
X157284910Y-66217785D01*
X157284917Y-66217776D01*
X157324016Y-66157930D01*
X157378019Y-66111841D01*
X157448366Y-66102264D01*
X157512724Y-66132241D01*
X157550659Y-66192253D01*
X157555500Y-66226842D01*
X157555500Y-66275062D01*
X157555501Y-66275073D01*
X157570265Y-66349300D01*
X157626516Y-66433484D01*
X157710697Y-66489733D01*
X157710699Y-66489734D01*
X157784933Y-66504500D01*
X159635066Y-66504499D01*
X159635069Y-66504498D01*
X159635073Y-66504498D01*
X159684326Y-66494701D01*
X159709301Y-66489734D01*
X159793484Y-66433484D01*
X159849734Y-66349301D01*
X159864500Y-66275067D01*
X159864499Y-65060000D01*
X170017174Y-65060000D01*
X170036444Y-65292549D01*
X170093724Y-65518743D01*
X170093726Y-65518747D01*
X170187456Y-65732430D01*
X170315079Y-65927772D01*
X170347453Y-65962940D01*
X170347454Y-65962941D01*
X171032213Y-65278181D01*
X171035887Y-65287541D01*
X171120465Y-65393599D01*
X171212949Y-65456654D01*
X170527683Y-66141919D01*
X170527683Y-66141920D01*
X170657254Y-66242768D01*
X170862474Y-66353827D01*
X170862477Y-66353829D01*
X171083167Y-66429592D01*
X171083176Y-66429594D01*
X171313334Y-66468000D01*
X171546666Y-66468000D01*
X171776823Y-66429594D01*
X171776832Y-66429592D01*
X171997522Y-66353829D01*
X171997525Y-66353827D01*
X172202741Y-66242771D01*
X172202750Y-66242765D01*
X172332314Y-66141920D01*
X172332315Y-66141919D01*
X171645890Y-65455494D01*
X171686357Y-65436007D01*
X171785798Y-65343740D01*
X171825162Y-65275558D01*
X172512545Y-65962941D01*
X172512547Y-65962940D01*
X172544910Y-65927785D01*
X172544917Y-65927776D01*
X172584016Y-65867930D01*
X172638019Y-65821841D01*
X172708366Y-65812264D01*
X172772724Y-65842241D01*
X172810659Y-65902253D01*
X172815500Y-65936842D01*
X172815500Y-65985062D01*
X172815501Y-65985073D01*
X172830265Y-66059300D01*
X172886516Y-66143484D01*
X172970697Y-66199733D01*
X172970699Y-66199734D01*
X173044933Y-66214500D01*
X173462500Y-66214499D01*
X173530620Y-66234501D01*
X173577114Y-66288156D01*
X173588500Y-66340499D01*
X173588500Y-71056787D01*
X173568498Y-71124908D01*
X173551595Y-71145882D01*
X170947698Y-73749778D01*
X170885386Y-73783804D01*
X170876536Y-73785400D01*
X170868892Y-73786499D01*
X170728589Y-73827696D01*
X170728587Y-73827697D01*
X170605579Y-73906749D01*
X170509824Y-74017256D01*
X170449081Y-74150265D01*
X170449079Y-74150272D01*
X170428271Y-74294996D01*
X170428271Y-74295003D01*
X170449079Y-74439727D01*
X170449081Y-74439734D01*
X170509824Y-74572743D01*
X170605579Y-74683250D01*
X170728589Y-74762304D01*
X170848039Y-74797378D01*
X170868885Y-74803499D01*
X170868886Y-74803499D01*
X170868889Y-74803500D01*
X170868892Y-74803500D01*
X171015108Y-74803500D01*
X171015111Y-74803500D01*
X171155411Y-74762304D01*
X171278421Y-74683250D01*
X171374176Y-74572743D01*
X171434919Y-74439734D01*
X171445429Y-74366631D01*
X171474921Y-74302053D01*
X171481037Y-74295483D01*
X174202545Y-71573976D01*
X174222721Y-71557593D01*
X174231956Y-71551560D01*
X174254103Y-71523103D01*
X174259271Y-71517250D01*
X174262114Y-71514409D01*
X174275898Y-71495101D01*
X174310158Y-71451085D01*
X174310159Y-71451079D01*
X174313950Y-71444076D01*
X174317471Y-71436873D01*
X174317475Y-71436869D01*
X174325431Y-71410143D01*
X174333389Y-71383417D01*
X174342444Y-71357038D01*
X174351500Y-71330661D01*
X174351499Y-71330655D01*
X174352815Y-71322773D01*
X174353802Y-71314849D01*
X174353805Y-71314841D01*
X174351499Y-71259115D01*
X174351499Y-68904875D01*
X174351500Y-66340499D01*
X174371502Y-66272378D01*
X174425158Y-66225885D01*
X174477500Y-66214499D01*
X174895064Y-66214499D01*
X174895066Y-66214499D01*
X174895069Y-66214498D01*
X174895072Y-66214498D01*
X174931663Y-66207219D01*
X174969301Y-66199734D01*
X175053484Y-66143484D01*
X175109734Y-66059301D01*
X175124500Y-65985067D01*
X175124499Y-64134934D01*
X175124498Y-64134930D01*
X175124498Y-64134926D01*
X175109734Y-64060699D01*
X175056084Y-63980407D01*
X175053484Y-63976516D01*
X175053483Y-63976515D01*
X174969302Y-63920266D01*
X174895067Y-63905500D01*
X173044936Y-63905500D01*
X173044926Y-63905501D01*
X172970699Y-63920265D01*
X172886515Y-63976516D01*
X172830266Y-64060697D01*
X172815500Y-64134930D01*
X172815500Y-64183154D01*
X172795498Y-64251275D01*
X172741842Y-64297768D01*
X172671568Y-64307872D01*
X172606988Y-64278378D01*
X172584017Y-64252069D01*
X172544920Y-64192227D01*
X172512545Y-64157057D01*
X171827785Y-64841816D01*
X171824113Y-64832459D01*
X171739535Y-64726401D01*
X171647049Y-64663344D01*
X172332314Y-63978080D01*
X172332314Y-63978079D01*
X172202741Y-63877228D01*
X172202740Y-63877227D01*
X171997525Y-63766172D01*
X171997522Y-63766170D01*
X171776832Y-63690407D01*
X171776823Y-63690405D01*
X171546666Y-63652000D01*
X171313334Y-63652000D01*
X171083176Y-63690405D01*
X171083167Y-63690407D01*
X170862477Y-63766170D01*
X170862474Y-63766172D01*
X170657259Y-63877227D01*
X170657257Y-63877228D01*
X170527684Y-63978079D01*
X170527684Y-63978080D01*
X171214109Y-64664505D01*
X171173643Y-64683993D01*
X171074202Y-64776260D01*
X171034837Y-64844440D01*
X170347453Y-64157057D01*
X170347452Y-64157058D01*
X170315087Y-64192217D01*
X170315077Y-64192230D01*
X170187456Y-64387569D01*
X170093726Y-64601252D01*
X170093724Y-64601256D01*
X170036444Y-64827450D01*
X170017174Y-65060000D01*
X159864499Y-65060000D01*
X159864499Y-64424934D01*
X159864498Y-64424930D01*
X159864498Y-64424926D01*
X159849734Y-64350699D01*
X159849733Y-64350697D01*
X159793484Y-64266516D01*
X159770675Y-64251275D01*
X159709302Y-64210266D01*
X159635067Y-64195500D01*
X157784936Y-64195500D01*
X157784926Y-64195501D01*
X157710699Y-64210265D01*
X157626515Y-64266516D01*
X157570266Y-64350697D01*
X157555500Y-64424930D01*
X157555500Y-64473154D01*
X157535498Y-64541275D01*
X157481842Y-64587768D01*
X157411568Y-64597872D01*
X157346988Y-64568378D01*
X157324017Y-64542069D01*
X157284920Y-64482227D01*
X157252545Y-64447057D01*
X156567785Y-65131816D01*
X156564113Y-65122459D01*
X156479535Y-65016401D01*
X156387050Y-64953345D01*
X157072314Y-64268080D01*
X157072314Y-64268079D01*
X156942741Y-64167228D01*
X156942740Y-64167227D01*
X156737525Y-64056172D01*
X156737522Y-64056170D01*
X156516832Y-63980407D01*
X156516823Y-63980405D01*
X156286666Y-63942000D01*
X156053334Y-63942000D01*
X155823176Y-63980405D01*
X155823167Y-63980407D01*
X155602477Y-64056170D01*
X155602474Y-64056172D01*
X155397259Y-64167227D01*
X155397257Y-64167228D01*
X155267684Y-64268079D01*
X155267684Y-64268080D01*
X155954109Y-64954505D01*
X155913643Y-64973993D01*
X155814202Y-65066260D01*
X155774837Y-65134440D01*
X155087453Y-64447057D01*
X155087452Y-64447058D01*
X155055087Y-64482217D01*
X155055077Y-64482230D01*
X154927456Y-64677569D01*
X154833726Y-64891252D01*
X154833724Y-64891256D01*
X154776444Y-65117450D01*
X154757174Y-65350000D01*
X153035000Y-65350000D01*
X153035000Y-56641000D01*
X153055002Y-56572879D01*
X153108658Y-56526386D01*
X153161000Y-56515000D01*
X164759726Y-56515000D01*
X164827847Y-56535002D01*
G37*
%TD.AperFunction*%
%TD*%
M02*
